<svg xmlns="http://www.w3.org/2000/svg" viewBox="0 0 185.15 152.5"><defs><style>.cls-1{fill:#f2c984;}.cls-2{fill:#f8e3b0;}.cls-3{fill:#f0c586;}.cls-4{fill:#f0ba6f;}.cls-5{fill:#f7e0b3;}.cls-6{fill:#ec9a4b;}.cls-7{fill:#f3dca1;}.cls-8{fill:#de8f45;}.cls-9{fill:#ebd2a5;}.cls-10{fill:#f6e0b2;}.cls-11{fill:#f8deaa;}.cls-12{fill:#f4b763;}.cls-13{fill:#362e2b;}.cls-14{fill:#312a27;}.cls-15{fill:#302925;}.cls-16{fill:#c0b2a2;}.cls-17{fill:#4c3423;}.cls-18{fill:#eebd74;}.cls-19{fill:#435055;}</style></defs><title>资源 1</title><g id="图层_2" data-name="图层 2"><g id="图层_1-2" data-name="图层 1"><path class="cls-1" d="M182.36,99c1.44,2.14,4.82,5.33,1.1,6.61-4.29,1.48-8.08.78-3.15,6.39,2.23,2.53.18,3.49-2.19,2.61-5.29-2-4,.53-2.64,3.52,1.07,2.39.81,5.37-1.43,6.33-3,1.27-4.77-1.93-6.94-3.52-2.51-1.82-3-10.71-8.69-2.59-.19.28-3.72-1.07-4.95-2.37-2.66-2.81-3.61-9.27-9.36-2.91-1.11,1.23-3.46-.76-4.56-2.67-5.07-8.85-13.76-15.25-17.17-25.25-1.47-1.56-1.33-3.26-.47-5,4-3.06,6.57.58,9.61,2,3.87,4.5,8.16,6.57,14.51,4.93C160.46,83.36,173.16,86.14,182.36,99Z"/><path class="cls-2" d="M83.63,111.12C74,114.91,66.14,110.3,58.18,106c-3.76-5.14-2.92-10.4-.42-15.72,3.48-7.89,11.27-7.86,18-9.86,10.68-2,21.21.16,31.78,1.23a7.37,7.37,0,0,1,4.79,3.84C111.17,103.37,101.42,112.1,83.63,111.12Z"/><path class="cls-3" d="M100.59,149.41c-7.81-3.71-17.35-5.57-18.08-16.9C88,123,94.26,114.36,106.76,114.06c4.85-.12,5.09-4.24,6.38-7.46,1.87-2.71,4.33-4.19,7.71-3.82,1.84.8,3.06,1.93,2.19,4.17.22,8.62-1.82,17.32,1.65,25.84,1.09,2.68,2,6.89-.93,8.71-3.68,2.31-4.61-3.16-7.36-4.41-2,17.61-2,17.61-10.34,12.36-3-2.34-2.47-5.28-1.38-8.31.37-1.55-2.52-.31-.92-.36.63,0,.93.26.73.75C103.36,144.24,103.91,147.8,100.59,149.41Z"/><path class="cls-4" d="M159.14,46.68l-.92,2.54c-3.89,8.38-11.46,13.88-16.68,21.31-3.72,5.3-10,7.83-16.66,3.32-3.17-5.94,1.51-9.73,4.26-13.58A58.83,58.83,0,0,0,140,29.83c5.06-6.92,10.7-13.25,17.73-18.24,3.51-2.49,6.91-5.43,11.42-1.94,4.74,6.89-3.39,11.2-3.41,17.14a55.1,55.1,0,0,0-2.62,14.11C162.64,43.42,160.57,44.83,159.14,46.68Z"/><path class="cls-5" d="M125.3,72.94c5.45-2.68,13.75.09,14.61-11.31.27-3.58,8.28-14,18.31-12.41,9.92,12.17,9.61,21-1,28-4.62,1-8.63,3.37-12.92,5.13C134.33,86.43,126,82,125.3,72.94Z"/><path class="cls-6" d="M108.46,84c-11.15,2.63-22.35.92-33.54.39C65.14,82.2,55.18,76.61,46,85.88c-7.72-2.56-15.39-5.21-19-13.56a16.21,16.21,0,0,1-1.3-1.78c2.94-8.57,10.17-7.62,16.82-7.36,14.68.59,28.45,5.28,42.19,10l9.92,1.32C102.66,72.6,109.63,72.36,108.46,84Z"/><path class="cls-7" d="M84.66,73.15c-19.57-2.92-39-9.62-59-2.61l-8.1,0c-5.45-2.42-11.78-2-16.94-5.36C-1.9,58,3.83,58.64,7.73,58.06,35.13,54,60.59,60.08,84.66,73.15Z"/><path class="cls-8" d="M125.3,72.94c3.86,10.88,11.83,7.81,18.94,5,4.51-1.78,8.42-4.11,13-.73l4.2,4.53c-10,5.8-20.28,8.3-31.35,3.18-3.35,0-5.41-1.79-6.64-4.75-4.37-.82-5.62-3.68-5-7.74.68-1.62,1.37-3.23,2-4.84,3.73-9.85,8.75-19.11,13.72-28.33,1.57-2.9,2.1-8,7.53-7.5,1.71,6.3,4.52,12-1.36,18.51S130.24,65.31,125.3,72.94Z"/><path class="cls-9" d="M141.7,31.77C131.58,41.9,128.51,56.24,120.45,67.6c7.15-24.43,18-46.67,39.35-61.74,4.6-3.26,11.57-11,17.76-.65-2.91,2-4.9,6.06-9.5,4.5C158.18,15.75,148.86,22.47,141.7,31.77Z"/><path class="cls-10" d="M130.08,84.93c10.27-2.8,20.91-2,31.35-3.18C172.07,83,180,87.58,182.36,99c-5.6-.4-8.51-5.71-13.48-7.39-6.62-2.22-14.21-4.54-19.69-.47C138.77,98.91,134.81,91.93,130.08,84.93Z"/><path class="cls-11" d="M115.41,108.43c-.22,10.43-3.39,13.44-11.87,11.12-3.74-1-6.42.89-7.94,3.61-3,5.34-7.89,7.42-13.09,9.35-1.32-6.27,1.07-11.49,4.55-16.42C97,105.15,106.55,102.57,115.41,108.43Z"/><path class="cls-12" d="M115.41,108.43c-10,.64-19.69,2.17-28.35,7.66-.1-2.37-1-4.17-3.42-5C96.4,107.43,105,99,110.69,87.21c2.7-1.45,4.47-.12,6,2,1,4.88,7.18,8.46,3.64,14.5Z"/><path class="cls-13" d="M115.1,90.15l-4.41-2.94L108.46,84c-1.73-7.43-9.18-6.5-13.89-9.56.45-5.49,3.58-6,8.06-4.6,5.11,1.64,10.28,3.18,15.77,2.57l5,7.74c-.35,1.66-.71,3.32-1.06,5l-4.79,2.31C117.17,88.74,116.87,90.13,115.1,90.15Z"/><path class="cls-14" d="M27,72.32c6.84,3.11,11.41,10,19.21,11.5,8.22-3.28,12.3.26,13.63,8.33-2.41,4.39-1.95,9.12-1.61,13.84a10.26,10.26,0,0,1-1.12.15c-3.93-15.47-17-20.49-29.55-26.08C22.88,78,22.93,75.21,27,72.32Z"/><path class="cls-15" d="M168.06,9.71c2.8-2.28,5.6-4.56,9.51-4.5C174.22,16.67,167.4,26.91,165.8,39c-.53,4-3.09,6.3-6.66,7.7,1.09-2.25,2.17-4.51,3.26-6.77-.2-4.1-.58-8.2.26-12.27C161.46,20.75,170.87,17.09,168.06,9.71Z"/><path class="cls-16" d="M115.1,90.15l2.49-2.68c3.5,10.52,15.35,17.32,14.64,30.92-6.55-2.28-5.49-8.63-9.19-11.44l-2.75-3.22Z"/><path class="cls-17" d="M100.59,149.41q1.74-8,3.49-15.93l2-.11v16.08Z"/><path class="cls-18" d="M59.79,92.15c-5.18-1.73-7.32-8.47-13.63-8.33,1-4.46.89-11.27,7.07-10.12,7.86,1.46,17.55,1,21.69,10.71Z"/><path class="cls-19" d="M162.66,27.64c.42,4.11,1.21,8.24-.27,12.29C161.2,35.79,159.5,31.66,162.66,27.64Z"/></g></g></svg>