<svg xmlns="http://www.w3.org/2000/svg" viewBox="0 0 130.81 99.57"><defs><style>.cls-1{fill:#f1cf90;}.cls-2{fill:#e9b172;}.cls-3{fill:#edd598;}.cls-4{fill:#ebb669;}.cls-5{fill:#f5dead;}.cls-6{fill:#ebd1a5;}.cls-7{fill:#35312d;}.cls-8{fill:#e5ba75;}.cls-9{fill:#342c27;}.cls-10{fill:#392f29;}.cls-11{fill:#715f48;}</style></defs><title>资源 13</title><g id="图层_2" data-name="图层 2"><g id="图层_1-2" data-name="图层 1"><path class="cls-1" d="M0,1.51C8.07-2.91,12.65,3.36,17.29,7.69,29.48,19,37.53,34.19,50.7,44.7c2.16,1.18,4.89,1.47,6.14,4,1.58,6.39-.89,11-6.28,14.42-4.25,8.68-17,5.33-20.93,15-1,2.4-3.33-.81-5-1.78-2.67-1.59-2.91-3.48-2-6.39,1-3.28,7.36-8.1-2.92-9.07-4-.37-3-6.09.76-8.95,3.25-5.58,6.2-11.65,12.68-9.46C24.48,37.79,18.13,27.46,8.7,20.75,5.43,14.5,1,8.81,0,1.51Z"/><path class="cls-2" d="M85.41,63.19c-9.39.6-.35,5.71-2,8.19C69.7,73,64.76,62.44,58.65,53.55a17,17,0,0,1-.72-7.22c2-4.71,6.34-6.75,10.29-9.27l4.13-.72c9.25-4.21,16.91-11.69,27.09-13.93,8.71-1.92,17.76-4.09,24.22,5.11-7.29,11.11-21.84,13.72-29.1,24.86-4.86,3.47-8.63-2.28-13.87-1.47C83.4,54.74,87.09,58.08,85.41,63.19Z"/><path class="cls-3" d="M59.83,50.58l23.55,20.8a24.16,24.16,0,0,1,1,19.38C83.17,94,81,96,78.34,91.68c-1.46-6.07-10.73-4-11.36-11-3.83-.66-9.07,1.61-10.16-4.81-.5-5.06-3.54-9.58-3.27-14.76C53.79,56.64,53.38,51.52,59.83,50.58Z"/><path class="cls-4" d="M10.75,19.07C24,25,32,37.27,43.66,46.13,35,45.74,27.3,47.18,20.51,52q-.81-3.54-1.63-7.1C15.92,36.37,8.57,29.24,10.75,19.07Z"/><path class="cls-5" d="M85.41,63.19A22,22,0,0,0,78,56.42c-3.84-2.07-13.21-.12-10.15-7.27,2-4.64,10.34-6.65,17.27-4.93,4.3,1.06,6.29,4,7.92,7.62,1.82,0,2.28.79,1.4,2.37C91.75,57.54,89.84,61.63,85.41,63.19Z"/><path class="cls-6" d="M122.77,27.58c-18.84-9-34.37,1.45-50.43,8.77,14.4-12.15,29.64-22,49.75-17,5.88,1.45,13.47,3,4.82,11.18C124.48,31,123.26,29.82,122.77,27.58Z"/><path class="cls-7" d="M10.75,19.07c4.07,8.18,7.52,16.55,8.13,25.82C8.63,32.16,1.66,18,0,1.5Z"/><path class="cls-8" d="M67,80.72c6.57.75,15.78-1.23,11.36,11-6.29-.48-1.09,7-6,7.9C66.25,94.74,63,88.89,67,80.72Z"/><path class="cls-9" d="M122.77,27.58l4.14,2.9c-9.82,9.31-23.68,13.06-32.5,23.74-.46-.79-.93-1.58-1.4-2.37C101.65,42.18,111.05,33.46,122.77,27.58Z"/><path class="cls-10" d="M68.22,37.06,60,46.58c-1,3.14-3.56,2.43-5.87,2.29-4.43,1.34-3.45-1.82-3.47-4.17C53.25,34.57,62.88,40.76,68.22,37.06Z"/><path class="cls-11" d="M54.17,48.87,60,46.58l-.21,4c-8.23,7.61-.71,17-3,25.33L50.56,63.15Q52.36,56,54.17,48.87Z"/></g></g></svg>