<svg xmlns="http://www.w3.org/2000/svg" viewBox="0 0 165.57 123.63"><defs><style>.cls-1{fill:#eceeee;}</style></defs><title>资源 16cloud01</title><g id="图层_2" data-name="图层 2"><g id="图层_1-2" data-name="图层 1"><path class="cls-1" d="M80.83,123.45c-13.77,0-27.55.3-41.31-.1-16.87-.48-29.66-8.11-36.37-23.88-6.52-15.34-2.5-29.09,8.2-41.26.38-.43,1.09-.76,1.18-1.22C18.6,25.49,47.71,21.1,69.58,7.67c28.26-17.34,66.79-4.07,74.85,27.6a29.23,29.23,0,0,0,8,14.43c13.49,13.59,16.77,30.08,9.07,47.4s-22.5,25.45-41.07,26.25C107.25,123.92,94,123.46,80.83,123.45Z"/></g></g></svg>