<svg xmlns="http://www.w3.org/2000/svg" viewBox="0 0 376.51 69.07"><defs><style>.cls-1{fill:#293e3d;}.cls-2{fill:#fe9a48;}.cls-3{fill:#fe8f4e;}.cls-4{fill:#6c6369;}.cls-5{fill:#848183;}.cls-6{fill:#fdc03d;}.cls-7{fill:#6b6369;}.cls-8{fill:#2e4241;}.cls-9{fill:#2c4140;}.cls-10{fill:#fe8e4c;}.cls-11{fill:#2b403f;}.cls-12{fill:#2d4241;}.cls-13{fill:#2c403f;}.cls-14{fill:#2f4443;}.cls-15{fill:#2d4140;}.cls-16{fill:#6a6268;}.cls-17{fill:#334746;}.cls-18{fill:#2a3f3e;}.cls-19{fill:#304443;}.cls-20{fill:#696167;}.cls-21{fill:#ada7a6;}.cls-22{fill:#fe9d5b;}.cls-23{fill:#2a3e3d;}.cls-24{fill:#7c736b;}.cls-25{fill:#3d504f;}.cls-26{fill:#fefefe;}.cls-27{fill:#fdfdfd;}.cls-28{fill:#6e666c;}.cls-29{fill:#fcfcfc;}.cls-30{fill:#fbfcfb;}.cls-31{fill:#fcfdfd;}.cls-32{fill:#f6f7f6;}.cls-33{fill:#f6f6f6;}.cls-34{fill:#f6f7f7;}</style></defs><title>资源 15main_logo</title><g id="图层_2" data-name="图层 2"><g id="图层_1-2" data-name="图层 1"><path class="cls-1" d="M85.35,2.54c4.59-.07,9.17-.62,13.76-.3,4.83.33,9.16,1.86,12.15,6A15.47,15.47,0,0,1,113.51,13a24.76,24.76,0,0,1,.67,8.52,19.78,19.78,0,0,1-2.34,8.26A16.43,16.43,0,0,1,106.29,36a16.83,16.83,0,0,1-5,2.2,19.09,19.09,0,0,1-6.92.63c-4.42-.53-8.86-.23-13.28-.31-.65,0-1-.19-.87-.86a3.62,3.62,0,0,0,0-.57c0-1.73,0-1.69,1.72-2a8.13,8.13,0,0,1,1.62-.31c.61,0,.4-.45.41-.75,0-2.3,0-4.59,0-6.89,0-6.52,0-13,0-19.56,0-.78-.09-1.2-1-1.2-.69,0-1.36-.4-2.09-.36-.38,0-.33-.33-.34-.56,0-.75,0-1.51,0-2.26,0-.54.21-.62.66-.61C82.58,2.55,84,2.54,85.35,2.54Z"/><path class="cls-1" d="M173.23,44.59a9.57,9.57,0,0,1-4,4.1,20.11,20.11,0,0,1-6.54,2.36,29.72,29.72,0,0,1-8.15.2,11.07,11.07,0,0,1-6.08-2.17,6.38,6.38,0,0,1-2.36-6.67,6.76,6.76,0,0,1,3.29-4.27c.91-.57.92-.5.17-1.27a5,5,0,0,1-.32-6.35,5.18,5.18,0,0,1,1.25-1.43,8.38,8.38,0,0,1,1.61-1,7.5,7.5,0,0,1-4.79-4.75A9.16,9.16,0,0,1,147,18c1-3.56,3.58-5.24,6.84-6.37a20.94,20.94,0,0,1,8.43-.62,10.34,10.34,0,0,1,4.95,1.62.8.8,0,0,0,1.13,0,7.71,7.71,0,0,1,5.86-1.76c.41,0,.54.15.54.55,0,1.57,0,3.15,0,4.72,0,.44-.17.52-.56.52-1.07,0-2.14,0-3.21,0-.78-.06-.87.25-.8.91,0,.36.29.62.32.95a9.63,9.63,0,0,1-.84,4.95,9.27,9.27,0,0,1-6.08,5,24.79,24.79,0,0,1-7.76.65.7.7,0,0,1-.36-.07c-.71-.51-1-.18-1.35.5a2.54,2.54,0,0,0,1.73,3.84,15,15,0,0,0,3.71.28c2.21,0,4.42-.09,6.61.08a9.82,9.82,0,0,1,6,2.21,5.32,5.32,0,0,1,1.82,3.5,6.42,6.42,0,0,1,0,3.17,4.59,4.59,0,0,1-.45,1.27C173.35,44,173.47,44.38,173.23,44.59Z"/><path class="cls-1" d="M202.17,27.25a19.24,19.24,0,0,0-2,3.21c-1.38,2.3-2.66,4.66-4,7-.35.59-.32.76.39.84a19.59,19.59,0,0,0,3.15.35c.33,0,.45.16.45.46a.28.28,0,0,0,0,.09c.31,2.77.29,2.8-2.46,2.8-3.34,0-6.68,0-10,0-.61,0-.88-.15-.8-.77a3.68,3.68,0,0,0,0-.47c0-.66-.19-1.46.12-1.94s1.18-.09,1.77-.26a11,11,0,0,1,1.8-.34c.67-.09.84-.83,1.16-1.28,1.87-2.69,3.66-5.44,5.49-8.16.78-1.16,1.63-2.29,2.41-3.45a1.23,1.23,0,0,0,0-1.41q-3.34-5.07-6.73-10.12c-.72-1.06-1.5-2.09-2.2-3.17a1.33,1.33,0,0,0-1.22-.76c-.65,0-1.2-.48-1.88-.38-.22,0-.35-.11-.37-.33s0-.32,0-.47C187.11,6,187.11,6,189.72,6c4.35,0,8.7,0,13.05,0,.86,0,1.23.23,1.08,1.12a5.87,5.87,0,0,0,0,.84c0,1.37,0,1.32-1.33,1.56a16.26,16.26,0,0,1-2,.38c-.53,0-.4.36-.18.7q2.7,4.47,5.39,9a2.45,2.45,0,0,1,.18.51,11.84,11.84,0,0,0,2-2.83c1.41-2.17,2.72-4.42,4.1-6.61.28-.46.41-.77-.28-.75-1,0-1.85-.52-2.83-.42-.4,0-.48-.21-.48-.52,0-.82,0-1.64,0-2.45,0-.41.19-.46.52-.46h11.54c.34,0,.54.09.51.47,0,.16,0,.32,0,.47-.09.82.42,2-.28,2.39a5.3,5.3,0,0,1-2.41.46A2.18,2.18,0,0,0,216.4,11c-1.82,2.54-3.69,5.05-5.53,7.58-.88,1.21-1.69,2.48-2.6,3.67a.55.55,0,0,0,0,.79q4,5.92,8,11.84c.6.89,1.15,1.82,1.71,2.74s1.65.78,2.45.88c1.05.13,1.29.45,1.25,1.43-.08,2,0,2-2,2-4.57,0-9.14,0-13.71,0-.7,0-1-.16-.9-.87,0-.12,0-.25,0-.38a4.57,4.57,0,0,1,.08-1.86c.31-.6,1.16-.1,1.71-.35a8,8,0,0,1,1.92-.38Z"/><path class="cls-1" d="M116.82,25.16a14.22,14.22,0,0,1,1.85-8.07A12,12,0,0,1,124.35,12a15.25,15.25,0,0,1,8.57-1,11.25,11.25,0,0,1,9.34,7.28,18.13,18.13,0,0,1,1,9.06A12.45,12.45,0,0,1,138.77,36a14.07,14.07,0,0,1-5.56,2.6,15.58,15.58,0,0,1-5.68.26,11.24,11.24,0,0,1-9.58-6.9A14.83,14.83,0,0,1,116.82,25.16Z"/><path class="cls-2" d="M8,62.88a15.78,15.78,0,0,1,2-2.82c.78-1.05,1.67-2,2.53-3,.16-.19.4-.36.26-.63s-.47-.19-.68-.14c-2.23.57-4.56.47-6.8,1-.9.23-1.86-.07-2.78.28-.26.1-.24-.33-.14-.55.89-1.78,1.77-3.55,2.67-5.33,1.17-2.34,2.36-4.68,3.54-7,.05-.1,0-.24,0-.43a65.31,65.31,0,0,0-6.85,2.42A4.26,4.26,0,0,0,.55,47c-.26.2-.55,0-.54-.38a3.19,3.19,0,0,1,.08-1.12c.93-2.32,2-4.59,2.85-6.93,1-2.67,2-5.32,3.09-8A23.57,23.57,0,0,1,8.15,26.8c.72-1.17,1.49-2.3,2.23-3.45.36.2.28.49.23.7a39.53,39.53,0,0,0-.64,4,20.64,20.64,0,0,0,.1,5.6,14.41,14.41,0,0,0,1.87,4.78,23.85,23.85,0,0,0,4.46,5.26c1.54,1.57,3.07,3.13,4.71,4.59a10.92,10.92,0,0,1,2.76,4.49c.65,1.68,1.44,3.3,2.14,5,.24.56.28.92-.6,1.14-2.38.59-4.79,1.07-7.15,1.75-1.83.53-3.75.76-5.59,1.26a27,27,0,0,0-3.73,1A1.12,1.12,0,0,1,8,62.88Z"/><path class="cls-1" d="M237.83,29.14c-2.27,0-4.54,0-6.81,0-.31,0-.72-.14-.71.45.08,2.75.8,5.23,3.12,6.94a5.06,5.06,0,0,0,2.6.95,13.65,13.65,0,0,0,7.62-1.65c.37-.2.54-.24.7.17a12.5,12.5,0,0,0,.84,2c.29.5.06.73-.23,1a15.07,15.07,0,0,1-4.9,2.62,16.19,16.19,0,0,1-7,.76c-4.47-.37-7.91-2.39-9.78-6.57A18.33,18.33,0,0,1,222,27.42c.18-4.41,1.61-8.17,5.33-10.82a13.07,13.07,0,0,1,4.31-1.87,16.44,16.44,0,0,1,4.84-.32c3.87.11,6.93,1.78,8.47,5.37a11.21,11.21,0,0,1,.67,7,5.41,5.41,0,0,0-.13,1.5c0,.67-.24.86-.89.85C242.36,29.12,240.09,29.14,237.83,29.14Z"/><path class="cls-1" d="M350.67,29.14h-6.53c-1.12,0-1.25.09-1,1.16a17.42,17.42,0,0,0,1,3.67,5.78,5.78,0,0,0,4.86,3.5,13.69,13.69,0,0,0,7.61-1.67c.28-.14.29-.2.42.09.35.73.76,1.44,1.09,2.18a.73.73,0,0,1-.33.94,17.94,17.94,0,0,1-5.27,2.67,15.91,15.91,0,0,1-7.1.63,10.7,10.7,0,0,1-9.07-6.15,14.94,14.94,0,0,1-1.33-4.83,18.4,18.4,0,0,1-.23-3.62c.31-3.94,1.25-7.62,4.42-10.36a13,13,0,0,1,5.27-2.62,19.07,19.07,0,0,1,5.78-.28,9,9,0,0,1,7.86,6c.72,2.47.47,5,.35,7.55,0,.71-.36,1.22-1.34,1.18C355,29.07,352.84,29.14,350.67,29.14Z"/><path class="cls-1" d="M320.94,42.41a22,22,0,0,1-6.5-1.06,10.86,10.86,0,0,0-2-.5c-.78-.07-1.22-.39-1.18-1.28,0-1.57,0-3.15,0-4.72,0-.59.12-.85.77-.8s1.57,0,2.36,0c1.48,0,1.52,0,1.84,1.36a20.5,20.5,0,0,0,.77,2.33.83.83,0,0,0,.42.53c2,1.06,4,1.52,6.19.44a2.59,2.59,0,0,0,1.44-2.5,2.75,2.75,0,0,0-1.55-2.54c-2.14-1.44-4.6-2.23-6.89-3.38a9.52,9.52,0,0,1-5.18-5.59,7.74,7.74,0,0,1,3.73-8.78,17.64,17.64,0,0,1,9.78-1.43,40.39,40.39,0,0,1,5.4,1.1c.58.13,1.09.37,1,1.23-.1,1.6,0,3.21,0,4.82,0,.53-.16.73-.69.71a13.56,13.56,0,0,0-2.55,0c-1.14.19-1.39-.51-1.62-1.33-.16-.58-.36-1.15-.52-1.73-.35-1.27-1.46-1.57-2.49-1.79a5,5,0,0,0-3.63.62,2.87,2.87,0,0,0,0,4.9,29.83,29.83,0,0,0,4.62,2.33c2.62,1.13,5.24,2.35,7.15,4.56a6,6,0,0,1,1.32,3.62A7.45,7.45,0,0,1,328.72,41a11.73,11.73,0,0,1-3,1A22.72,22.72,0,0,1,320.94,42.41Z"/><path class="cls-1" d="M270.06,29.38a14.69,14.69,0,0,1,2.3-9.46,12.7,12.7,0,0,1,7.13-5.06,18.55,18.55,0,0,1,7.27-.37,33.7,33.7,0,0,1,4.7,1.1.69.69,0,0,1,.58.72,72.47,72.47,0,0,1-.36,7.8c0,.35-.16.48-.52.48-1.29,0-2.59,0-3.88,0-.27,0-.46,0-.53-.38-.36-1.65-.83-3.27-1.1-4.93A1.65,1.65,0,0,0,284,17.86c-2-.3-3.31.35-4.45,2.27a10.14,10.14,0,0,0-.88,3,22.12,22.12,0,0,0-.22,6.54c.2,2.41.61,4.86,2.58,6.64a4.28,4.28,0,0,0,2.6,1.17,11.75,11.75,0,0,0,6.71-1.36c.53-.29.81-.29.91.35a.58.58,0,0,0,0,.19c.93,2.32.89,2.46-1.26,3.74a15.2,15.2,0,0,1-10,1.85,10.21,10.21,0,0,1-7.33-4.07,14.82,14.82,0,0,1-2.3-5.18A24.17,24.17,0,0,1,270.06,29.38Z"/><path class="cls-1" d="M257.76,20.28c.8-.88,1.3-1.92,2.12-2.74,2.15-2.18,4.64-3.5,7.82-3.13.61.07.88.34.87.95,0,2.27,0,4.54,0,6.8,0,.7-.23.71-.77.45a8.23,8.23,0,0,0-6.11-.33c-.3.08-.62.1-.92.19-1.32.38-1.73,1.18-1.69,2.61.13,4.09.06,8.19,0,12.28,0,.68.16.85.86.94a26.89,26.89,0,0,0,3.9.33c.42,0,.56.18.57.55v.1C264.68,42,264.68,42,262,42c-4.25,0-8.51,0-12.76,0-.77,0-1.13-.19-1-1a3.49,3.49,0,0,0,0-.56c0-1.68,0-1.68,1.68-1.88,1.2-.14,1.31-.26,1.31-1.47,0-5.39,0-10.77,0-16.15,0-.8-.33-1.18-1-1.18-.53,0-.89-.4-1.39-.43s-.29-.35-.29-.57c0-.85,0-1.7,0-2.55a.79.79,0,0,1,.87-.94c1.45,0,2.82-.45,4.26-.48a6.57,6.57,0,0,0,1.16-.21,2.58,2.58,0,0,1,2.65.44,1.41,1.41,0,0,1,.57,1.15A22.93,22.93,0,0,1,257.76,20.28Z"/><path class="cls-3" d="M41.24,25.58l-2.19,3.14c-.26.38-.51.41-1,.39a27.45,27.45,0,0,0-6.07.13,13.94,13.94,0,0,0-5.1,2,3.32,3.32,0,0,0-1.49,2.32,24.07,24.07,0,0,1-1.67,5.23A11.6,11.6,0,0,1,22,35.88c-.85-1.55-1.53-3.2-2.37-4.77-.56-1-1.73-1.44-2.63-2.11-.43-.33-1-.54-1.17-1.1,0-.12-.11-.3,0-.35.9-.43,1.4-1.31,2.07-2a25.07,25.07,0,0,0,4-4.19c1.34-1.5,3-2.73,4.1-4.43a1.85,1.85,0,0,1,.49-.55,1.69,1.69,0,0,1,.36-.12c1.87-.47,1.94-.59,1.48-2.39a.52.52,0,0,1,0-.44c.51-.24.88.07,1.17.38a5,5,0,0,0,4,1.47,3.83,3.83,0,0,1,2.33.85,9.43,9.43,0,0,1,3.69,5.1A21.74,21.74,0,0,0,41,24.53C41.2,24.85,41.51,25.17,41.24,25.58Z"/><path class="cls-1" d="M305.66,26.7V37c0,1.22.16,1.41,1.34,1.56,1.66.22,1.66.22,1.66,1.86s0,1.55-1.55,1.55c-3.88,0-7.75,0-11.63,0-.6,0-.85-.14-.81-.77a14.9,14.9,0,0,0,0-1.89c0-.49.1-.81.67-.72s1.31-.3,2-.35.35-.51.35-.8c0-3.08,0-6.17,0-9.25,0-2.37-.05-4.73,0-7.09a1.11,1.11,0,0,0-.89-1.31,16.18,16.18,0,0,0-1.58-.43c-.75-.09-.94-.48-.9-1.13,0-.25,0-.5,0-.75,0-2.06,0-2.16,2.1-2.24,1.72-.07,3.39-.58,5.12-.5a3.69,3.69,0,0,0,1.06-.29,3.38,3.38,0,0,1,2.82.72c.34.25.19.57.19.85C305.67,19.59,305.66,23.14,305.66,26.7Z"/><path class="cls-4" d="M28.42,13.49a1.31,1.31,0,0,0,.09.34c.28.54.73,1.34.49,1.65a3.47,3.47,0,0,1-2,1,2.32,2.32,0,0,1-.46,0,3.63,3.63,0,0,1-1-1.74c-1.07-2.65-2.08-5.33-2.94-8a1,1,0,0,0-.24-.47c-.59,1.63-.69,3.37-1.42,4.92a1.59,1.59,0,0,0-.27,1.16,1.94,1.94,0,0,1-.11.68,2.3,2.3,0,0,0-.35,1.11,1.86,1.86,0,0,1-.1.25,2.52,2.52,0,0,0-.2,1.43,3.29,3.29,0,0,1-.08.94.79.79,0,0,0,0,1,.53.53,0,0,1-.11.42c-.53.33-1-.08-1.54-.09-1.4,0-2.79.19-4.19.2-.51,0-1,.15-.73-.67,0-.73.57-1.23.78-1.88.23-.2.1-.57.35-.76h0c.27-.19.13-.57.38-.77h0c.28-.19.15-.57.38-.78a11.29,11.29,0,0,1,1.24-2.77C18,7.38,19.7,4.16,21.56,1c.25-.42.49-1,1-1s.5.59.66,1c1,2.4,1.94,4.79,2.92,7.18.52,1.27,1.05,2.53,1.57,3.8a2.9,2.9,0,0,1,.79,1.13A.43.43,0,0,1,28.42,13.49Z"/><path class="cls-1" d="M301,10.72a3.78,3.78,0,0,1-4.28-2.28c-.92-1.84.26-5,2.19-5.75A5.51,5.51,0,0,1,304,3a4.23,4.23,0,0,1,1.57,4.47,4.79,4.79,0,0,1-2.59,3A9.2,9.2,0,0,1,301,10.72Z"/><path class="cls-5" d="M13.25,17.64c.06.21-.05.59.35.53a15,15,0,0,1,6-.06s.09-.08.13-.12a.52.52,0,0,1,.71.28c.5.94,1.15,1.78,1.6,2.75a.48.48,0,0,1,0,.45c0,.77-.64,1.12-1.12,1.52-1,.81-1.67,1.9-2.67,2.66s-1.41,1.67-2.35,2.25a3.56,3.56,0,0,1-1-2.06c-.56-2-1.26-4-1.69-6a5.61,5.61,0,0,1-.27-1.62C12.88,18,12.92,17.69,13.25,17.64Z"/><path class="cls-6" d="M28.42,13.49l-.05-.36A3.23,3.23,0,0,1,28,12a14.63,14.63,0,0,1,5.88,1A18.72,18.72,0,0,1,40,16.56a3.73,3.73,0,0,1,1.69,2.22,2.57,2.57,0,0,0-.08,3.09c.51,1,1.63.7,2.45,1a8.46,8.46,0,0,0,2.41.63,21.3,21.3,0,0,0-5.19,2.09C40,23.44,39.52,21,38.19,18.92c-1.18-1.8-2.6-3.46-5.13-3.37a4.31,4.31,0,0,1-3.61-1.46A1.65,1.65,0,0,0,28.42,13.49Z"/><path class="cls-7" d="M38.51,14.45c-1.29-.41-1.6-1.41-1.85-2.53-.33-1.56-.94-3.05-1.18-4.64,0-.2-.28-.37-.47-.6a35.48,35.48,0,0,0-1.69,4.1,1.13,1.13,0,0,1-1.4.85,10.11,10.11,0,0,1-2-.36c-.53-.2-.43-.43-.24-.75,1.71-2.91,3.43-5.81,5.12-8.72.12-.21.18-.38.46-.38s.25.22.34.37c.75,1.14.78,2.5,1.12,3.76.51,1.93,1,3.86,1.37,5.83C38.25,12.38,38.76,13.38,38.51,14.45Z"/><path class="cls-8" d="M228.25,62.34V58.57c0-.27-.08-.62.38-.59,1.23.1,2.46-.18,3.68.33a2.09,2.09,0,0,1,.73,3.36c-.44.4-.38.53.05.87,1.57,1.26.58,3.24-.82,3.81-1.23.5-2.46.18-3.68.29-.47,0-.33-.38-.33-.62C228.24,64.79,228.25,63.56,228.25,62.34Z"/><path class="cls-9" d="M87.38,66.63c-1.76,0-1.76,0-1.76-1.76,0-2,0-3.91,0-5.86,0-.89.27-1.13,1.1-1a8.56,8.56,0,0,1,2.74.31,2.43,2.43,0,0,1,1.46,1.63,1.64,1.64,0,0,1-.83,1.87c-.28.18-.26.2.32.73a2.38,2.38,0,0,1-.65,3.79,3.49,3.49,0,0,1-.85.31C88.39,66.66,87.88,66.63,87.38,66.63Z"/><path class="cls-10" d="M34.18,50.56c-.38-1.09.17-2,.37-2.87a24.23,24.23,0,0,1,.64-3.16c.46-1.23.33-2.57.72-3.82.2-.67.79-.41,1.16-.55a11.82,11.82,0,0,1,3.54-1c.19,0,.41-.08.53.09s-.12.31-.23.43a39.08,39.08,0,0,0-5.35,8.55A7.54,7.54,0,0,1,34.18,50.56Z"/><path class="cls-11" d="M147.73,64v2.74c0,2-1.68,2.42-3,2.3a2.08,2.08,0,0,1-1.68-.77c-.13-.18-.41-.31,0-.46.16-.06.17-.67.58-.14s1.32.55,2.05.48a1.35,1.35,0,0,0,1-1.62c-.08-.25-.2-.26-.41-.16-2.15,1-3.39-.43-3.76-2.23a4.32,4.32,0,0,1,.35-2.64,2.62,2.62,0,0,1,3.38-1.1c.31.18.45.24.77,0s.83-.31.8.41V64Z"/><path class="cls-12" d="M302.58,66.66a3,3,0,0,1-3.05-1.52c-.22-.37-.34-.81.08-1a.6.6,0,0,1,.92.43,2,2,0,0,0,1.54,1.29,2.09,2.09,0,0,0,2.13-1.26c.13-.55-.73-1.51-1.54-1.67a5.42,5.42,0,0,1-1.92-.79,2.33,2.33,0,0,1-1-2.76A3.05,3.05,0,0,1,302,57.93a3.22,3.22,0,0,1,2.81,1.16,1,1,0,0,1,.22.46c0,.35.25.81-.23,1s-.7-.25-.87-.62a1.68,1.68,0,0,0-2.5-.84,1.23,1.23,0,0,0-.64,1.22,1.08,1.08,0,0,0,.78,1.08c.67.26,1.35.5,2,.8a2.71,2.71,0,0,1,1.75,2.24,2.52,2.52,0,0,1-2.15,2.25A5.79,5.79,0,0,1,302.58,66.66Z"/><path class="cls-12" d="M189.66,64.17c0-.6,0-1.2,0-1.79A1.39,1.39,0,0,0,188.18,61a1.46,1.46,0,0,0-1.56,1.42c0,1.19,0,2.39,0,3.59,0,.4-.07.63-.55.64s-.58-.17-.58-.6c0-2.64,0-5.29,0-7.93,0-.37,0-.6.5-.56s.66.06.63.57,0,1.32,0,2,.23.63.67.42c2.09-1,3.44.12,3.5,2.1,0,1.13,0,2.26,0,3.39,0,.42-.1.62-.57.63s-.59-.17-.58-.6C189.67,65.43,189.66,64.8,189.66,64.17Z"/><path class="cls-13" d="M245.45,66.67c-2.39.31-3.78-2.55-2.93-4.33,1-2.11,2.53-2.81,4.32-1.73a3.07,3.07,0,0,1,1.09,2.81c-.12.37-.4.24-.61.24-1.07,0-2.14,0-3.22,0-.74,0-.8.21-.5.89a2,2,0,0,0,3.21.81c.24-.22.53-.35.72-.12s.06.52-.2.79A2.18,2.18,0,0,1,245.45,66.67Z"/><path class="cls-11" d="M317.08,63.67a3.93,3.93,0,0,0-1,0c-.39.1-1-.41-1.16.34a1.52,1.52,0,0,0,.82,1.5,2,2,0,0,0,2.52-.18c.29-.21.56-.27.7-.11s.08.48-.18.76c-1,1-2.14.72-3.23.57-.84-.12-1.72-1.56-1.8-2.49a3.51,3.51,0,0,1,1.56-3.62,2.68,2.68,0,0,1,3.77,1.34,2.14,2.14,0,0,0,.06.27c.58,1.45.49,1.6-1,1.6Z"/><path class="cls-11" d="M202.93,63.67c-.5,0-1,0-1.51,0-.25,0-.61-.19-.73.19a1,1,0,0,0,.16.86c.84,1.26,1.92,1.55,3.13.66.32-.23.59-.34.77-.12s0,.61-.29.84a3.09,3.09,0,0,1-4.88-1.69c-.36-1.62-.13-3.08,1.71-4a2.51,2.51,0,0,1,2.86.27,3.14,3.14,0,0,1,1,2.65c0,.33-.23.32-.45.32Z"/><path class="cls-11" d="M374.19,63.67a3.94,3.94,0,0,0-1,0c-.39.1-1-.4-1.16.34s.3,1.12.83,1.5a2,2,0,0,0,2.5-.18c.33-.23.58-.29.77,0s0,.45-.24.69c-.69.58-2.52,1.06-3.29.57A3,3,0,0,1,370.81,64c0-1.41.17-2.62,1.49-3.48a2.72,2.72,0,0,1,3.85,1.22c.62,1.92.62,1.92-1.39,1.92Z"/><path class="cls-14" d="M128.38,63.45c0-.85,0-1.7,0-2.55,0-.68.49-1,1-.5s.58.22.92,0a2.23,2.23,0,0,1,3.37,1.79c.05,1.29,0,2.58,0,3.87,0,.48-.2.57-.62.58s-.52-.19-.52-.56c0-1.2,0-2.39,0-3.59a1.38,1.38,0,0,0-1.46-1.5,1.5,1.5,0,0,0-1.57,1.5c0,1.16,0,2.33,0,3.49,0,.48-.13.66-.64.66s-.51-.31-.51-.66Z"/><path class="cls-15" d="M259.58,66.66a2.33,2.33,0,0,1-2.32-1c-.22-.34-.5-.7-.14-.94a.71.71,0,0,1,1,.38,1.85,1.85,0,0,0,2.16.63c.33-.21.89-.43.78-.89a1.18,1.18,0,0,0-1-.88,5.07,5.07,0,0,1-1.95-.66c-1.51-.89-1.52-2,0-2.92a3.5,3.5,0,0,1,3.48.49c.36.36.53.84.24,1.11s-.8,0-1.06-.39A1.34,1.34,0,0,0,259.5,61c-.64,0-1.22.23-1.34.87-.15.82.67.87,1.15,1a9.64,9.64,0,0,1,1.82.56c.57.26,1.21.83,1.05,1.56a2,2,0,0,1-1.85,1.7C260.08,66.67,259.83,66.66,259.58,66.66Z"/><path class="cls-16" d="M52.39,23.66c.44,0,.88,0,1.32,0,1.14,0,1.6.83,1,1.84a11,11,0,0,1-.93,1.23c-.54.7-1,1.14-2,.44a7.15,7.15,0,0,1-2.07-2,.9.9,0,0,1,.76-1.48h1.88Z"/><path class="cls-8" d="M357.62,63.48c-.19.55.16,1.09.42,1.59A1.66,1.66,0,0,0,361,65c.23-.36.28-.65.8-.36s.13.64,0,.86c-.68,1.2-1.82,1.3-3,1.17a2.75,2.75,0,0,1-1.92-1.77,3.47,3.47,0,0,1,.79-4.08,2.84,2.84,0,0,1,4.45,1.13c.05.19.12.48-.22.5s-.61.24-.79-.21A1.68,1.68,0,0,0,359,61C358.22,61.2,357.63,62.28,357.62,63.48Z"/><path class="cls-17" d="M345.89,63c0,.32,0,.63,0,.95,0,.5-.15,1.1.07,1.48s.92.15,1.4.17a.6.6,0,0,1,.61.56c0,.37-.26.55-.7.54-1.35,0-2.7,0-4.06,0-.28,0-.7.11-.66-.4a.69.69,0,0,1,.64-.66c.49-.06,1.18.23,1.44-.12s.09-1.21.13-1.83c0-.29,0-.57,0-.85,0-1.37,0-1.37-1.37-1.49-.44,0-.83-.19-.84-.67s.48-.38.77-.37c.83,0,1.92-.37,2.43.16s.12,1.49.14,2.27Z"/><path class="cls-9" d="M272.54,63.47c0-.45,0-.73,0-1,.06-.85.13-1.69-1.18-1.43-.25,0-.39-.08-.4-.37s.15-.46.45-.41c.85.14,1.31-.1,1.13-1.07-.09-.49.31-.43.62-.46s.57.08.49.46c-.26,1.14.46,1.07,1.23,1.08.44,0,1.24-.31,1.25.36s-.78.38-1.22.4c-1.25,0-1.26,0-1.26,1.29,0,.72,0,1.44,0,2.17a1.3,1.3,0,0,0,1.88,1.28c.29-.1.58-.38.71.13s0,.7-.53.78c-1.63.24-2.57-.1-3.05-1.22C272.37,64.76,272.62,64,272.54,63.47Z"/><path class="cls-17" d="M117,66.65c-.69,0-1.38,0-2.07,0-.38,0-.61-.07-.57-.51s.11-.55.54-.59c1.45-.12,1.45-.14,1.45-1.59,0-.62,0-1.26,0-1.88s-.21-.89-.85-.81a3.14,3.14,0,0,1-.75,0c-.37-.05-.39-.35-.41-.63s.17-.38.46-.41c2.66-.29,2.66-.29,2.66,2.36,0,.72.05,1.44,0,2.16s.24.88.86.83a2.14,2.14,0,0,1,.84,0,.65.65,0,0,1,.52.67c0,.47-.36.36-.61.36C118.37,66.66,117.68,66.65,117,66.65Z"/><path class="cls-18" d="M174.22,62.79c0,1.07,0,2.14,0,3.21,0,.28.1.65-.42.65s-.43-.36-.43-.65c0-2,0-4,0-6,0-.7-.19-1-.89-.92-.38,0-.76,0-1.14,0s-.61-.16-.63-.59.23-.49.59-.48q2.5,0,5,0c.36,0,.62,0,.58.49s-.13.62-.56.57h-.19c-1.92.07-1.92.07-1.92,2Z"/><path class="cls-19" d="M327.77,60.34c.91-.34,1.26.09,1.48.87a32.51,32.51,0,0,1,1.17,3.31c0,.21.19.23.34.25s.29-.1.36-.3c.43-1.18.9-2.35,1.31-3.53a.87.87,0,0,1,1.33-.61c-.75,1.84-1.51,3.67-2.23,5.52-.15.39-.24.78-.74.79s-.63-.47-.79-.85Z"/><path class="cls-19" d="M100.77,63.45c0-.88,0-1.76,0-2.64,0-.21-.15-.57.27-.56s.72-.18.83.34c.08.37.1.52.47.11.62-.7,1.52-.51,2.34-.49.41,0,.32.31.29.55s0,.58-.42.57c-.82,0-1.68-.24-2.32.55s-.26,1.68-.34,2.52a9.5,9.5,0,0,0,0,1.6c0,.48-.14.65-.63.66s-.5-.33-.5-.67Z"/><path class="cls-20" d="M48.42,32.76a7.4,7.4,0,0,0,3.95-3.33c.36.17.28.5.23.74-.36,1.82-1,3.41-2.91,4.23-.67.29-.89,0-1.19-.37-.15-.17-.1-.5-.44-.52C47.7,33,48.12,32.92,48.42,32.76Z"/><path class="cls-21" d="M48.42,32.76c-.19.21-.43.41-.36.75a16,16,0,0,1-4.72.79c-1.43-.09-2.79-.46-4.18-.67a14.46,14.46,0,0,0-2.85-.45,1.25,1.25,0,0,1-1.06-.26,6.09,6.09,0,0,1,2.94,0c.14,0,.27.19.4.2,2.31.11,4.59.71,6.91.4A27.09,27.09,0,0,0,48.42,32.76Z"/><path class="cls-22" d="M33.86,56.81c.36-1.4.22-3,1.14-4.22a22.33,22.33,0,0,0,.52,2.94c.21.52.18,1.16-.73,1.08C34.47,56.58,34.3,57.06,33.86,56.81Z"/><path class="cls-23" d="M159.5,66.65h2.07c.31,0,.56,0,.55.43s-.25.37-.51.37h-4.34c-.26,0-.49,0-.5-.38s.28-.41.56-.41C158.05,66.64,158.78,66.65,159.5,66.65Z"/><path class="cls-1" d="M216.53,66.65h2.16c.29,0,.56,0,.54.42s-.24.38-.5.38q-2.21,0-4.41,0c-.32,0-.45-.1-.45-.43s.23-.37.49-.37Z"/><path class="cls-1" d="M288,67.45h-2.08c-.26,0-.58.09-.59-.37s.26-.42.55-.42h4.25c.3,0,.55,0,.54.42s-.34.37-.6.37Z"/><path class="cls-24" d="M41.57,21.87a1.81,1.81,0,0,1,.08-3.09c1,.65.4,1.49.21,2.23A6.22,6.22,0,0,1,41.57,21.87Z"/><path class="cls-25" d="M116.94,59.1c-.51.06-.68-.15-.66-.59s.31-.53.7-.57a.56.56,0,0,1,.64.59C117.57,58.8,117.43,59.32,116.94,59.1Z"/><path class="cls-17" d="M345.34,59.11c-.42.06-.63-.11-.63-.55s.12-.62.58-.62.64.11.62.57S345.82,59.18,345.34,59.11Z"/><path class="cls-3" d="M28,12a1.3,1.3,0,0,1,.35,1.13c-.5-.22-.44-.78-.69-1.15Z"/><path class="cls-5" d="M14.38,15c0,.31.13.68-.35.76C14,15.45,13.94,15.1,14.38,15Z"/><path class="cls-5" d="M14.76,14.23c0,.32.13.7-.38.77C14.39,14.69,14.28,14.32,14.76,14.23Z"/><path class="cls-5" d="M15.13,13.46c0,.32.15.71-.38.78C14.78,13.93,14.64,13.55,15.13,13.46Z"/><path class="cls-26" d="M92.26,20.36c0-4.54,0-9.07,0-13.61,0-.86.26-1.17,1.11-1.14,1.07,0,2.15-.06,3.21,0a7.63,7.63,0,0,1,6.67,4.52c2,3.79,2,7.89,2,12a22.26,22.26,0,0,1-.86,6c-.69,2.38-1.76,4.59-4.07,5.92a6.36,6.36,0,0,1-3.33,1c-1.19,0-2.39,0-3.59,0-.78,0-1.09-.33-1.08-1.14C92.27,29.43,92.26,24.89,92.26,20.36Z"/><path class="cls-26" d="M153.58,42.43a9.8,9.8,0,0,1,.73-3.27.74.74,0,0,1,.82-.56c2.08.48,4.18.09,6.27.22a6.62,6.62,0,0,1,2.81.4,2.48,2.48,0,0,1,1.45,1.83,5.84,5.84,0,0,1-.35,3.8,5.56,5.56,0,0,1-3.77,2.71,8.65,8.65,0,0,1-4.11.08,4.46,4.46,0,0,1-3.53-3.56C153.84,43.47,153.41,42.92,153.58,42.43Z"/><path class="cls-26" d="M162.62,19.91a7.34,7.34,0,0,1-.92,4.49c-.78,1.32-2.18,1.38-3.57,1.27a3,3,0,0,1-2.62-1.77,9.69,9.69,0,0,1-.09-8,3.78,3.78,0,0,1,4.12-2,3.4,3.4,0,0,1,2.75,2.87,5.17,5.17,0,0,1,.34,1.52C162.58,18.85,162.62,19.36,162.62,19.91Z"/><path class="cls-26" d="M134.61,25a30.38,30.38,0,0,1,0,4.05,11.47,11.47,0,0,1-1.38,4.74,3.52,3.52,0,0,1-3.8,1.64,3.42,3.42,0,0,1-2.68-2.07,11,11,0,0,1-1.18-4.58c-.06-1.49-.36-3-.34-4.46A25.8,25.8,0,0,1,126,18a4.69,4.69,0,0,1,2.53-3.48,4,4,0,0,1,4.24.91,10.05,10.05,0,0,1,1.56,4A30,30,0,0,1,134.61,25Z"/><path class="cls-27" d="M234.09,25.84c-1.1,0-2.2,0-3.3,0-.45,0-.8,0-.56-.72a18.82,18.82,0,0,0,.17-2.52,6.19,6.19,0,0,1,1.82-4.1c1.51-1.29,4.74-1.1,5.42,1.59a23.93,23.93,0,0,1,.38,5.19c0,.47-.2.58-.63.58C236.29,25.82,235.19,25.84,234.09,25.84Z"/><path class="cls-27" d="M347.09,25.84h-3.4c-.26,0-.59.09-.59-.37A11.21,11.21,0,0,1,344.58,19c1.08-1.64,4.48-1.86,5.47-.1a7.89,7.89,0,0,1,.93,3c.13,1.08,0,2.2.07,3.3,0,.52-.19.63-.65.62C349.3,25.82,348.19,25.84,347.09,25.84Z"/><path class="cls-26" d="M22,21.47c-.46-1-1.22-1.86-1.65-2.9-.09-.21-.25-.58-.64-.58l0-.34a.63.63,0,0,1,0-.77l.06-1.07c.35-.47,0-1.1.37-1.55h0c.31-.33,0-.83.33-1.16l0-.73c.32-.33,0-.83.35-1.16.62-1.82.77-3.79,1.65-5.56C23.66,9.39,25.1,13,26.58,16.53a21.11,21.11,0,0,1-3.36,3.82C22.84,20.75,22.74,21.47,22,21.47Z"/><path class="cls-28" d="M31.88,22.85A9.72,9.72,0,0,1,33,20.71a2.22,2.22,0,0,1,3.79.52c.61,1.55.76,1.51-.65,2-.43.14-.88.25-1.31.43a1.15,1.15,0,0,1-1.17-.09A3.5,3.5,0,0,0,31.88,22.85Z"/><path class="cls-5" d="M20.08,14.26c-.11.52.27,1.15-.37,1.55C19.75,15.27,19.39,14.64,20.08,14.26Z"/><path class="cls-5" d="M20.8,11.22c0,.41.18.9-.35,1.16C20.52,12,20.15,11.45,20.8,11.22Z"/><path class="cls-5" d="M20.41,13.11c-.09.39.25.9-.33,1.16C20.14,13.87,19.77,13.34,20.41,13.11Z"/><path class="cls-5" d="M19.65,16.88v.77C19.14,17.4,19.14,17.15,19.65,16.88Z"/><path class="cls-29" d="M230.62,65.56c-1.25,0-1.25,0-1.25-1.21a.61.61,0,0,1,0-.19c.19-.52-.47-1.36.4-1.6a2.4,2.4,0,0,1,2.8.95,1.37,1.37,0,0,1-1,2A7.2,7.2,0,0,1,230.62,65.56Z"/><path class="cls-27" d="M230.7,59.05c1.48,0,1.74.26,1.75,1.36,0,.78-.59,1.05-1.11,1.25-1.37.51-2,.05-2-1.37C229.37,59,229.37,59,230.7,59.05Z"/><path class="cls-29" d="M87.69,65.61c-.86.27-1.09-.29-1-1.22,0-.09,0-.2,0-.28.22-.52-.54-1.48.65-1.57,1.92-.15,2.46.48,2.61,1.57a1.24,1.24,0,0,1-1,1.43C88.62,65.59,88.27,65.58,87.69,65.61Z"/><path class="cls-30" d="M86.73,60.32c0-.6-.32-1.38.91-1.3,1.68.11,2.2.33,2.17,1.34s-.8,1.28-2.09,1.4S86.79,61,86.73,60.32Z"/><path class="cls-31" d="M146.64,63.44c0,.37,0,.75,0,1.13-.06,1.13-1.08,1.58-2.09,1s-1-1.62-1-2.64a2.17,2.17,0,0,1,1.18-1.82,1.39,1.39,0,0,1,1.92,1.1c0,.41,0,.82,0,1.23Z"/><path class="cls-32" d="M245.13,62.87a7.85,7.85,0,0,1-.84,0c-.29,0-.65.14-.83-.22s.19-.59.34-.79a1.58,1.58,0,0,1,2.76-.13,1.07,1.07,0,0,1,.21.93c-.06.4-.45.18-.7.21A7.35,7.35,0,0,1,245.13,62.87Z"/><path class="cls-33" d="M316.52,62.87a1.31,1.31,0,0,1-.28,0c-.45-.15-1.1.35-1.34-.34-.15-.43.77-1.4,1.34-1.53a1.76,1.76,0,0,1,2,1.41c0,.32-.07.47-.4.46s-.88,0-1.32,0Z"/><path class="cls-34" d="M202.37,62.87a1.31,1.31,0,0,1-.28,0c-.47-.15-1.23.37-1.37-.29s.46-1.14,1.05-1.43a1.35,1.35,0,0,1,1.53.12c.46.36.89.79.69,1.36s-.76.13-1.15.23A1.85,1.85,0,0,1,202.37,62.87Z"/><path class="cls-33" d="M373.69,62.87a9,9,0,0,0-1,0c-.77.09-.81-.37-.57-.85a1.74,1.74,0,0,1,1.86-1c.87.09,1.09.77,1.39,1.37.15.3,0,.53-.42.51s-.82,0-1.22,0Z"/></g></g></svg>