<?xml version="1.0" encoding="utf-8"?>
<!-- Generator: Adobe Illustrator 24.0.1, SVG Export Plug-In . SVG Version: 6.00 Build 0)  -->
<svg version="1.1" id="图层_1" xmlns="http://www.w3.org/2000/svg" xmlns:xlink="http://www.w3.org/1999/xlink" x="0px" y="0px"
	 viewBox="0 0 1920 1080" style="enable-background:new 0 0 1920 1080;" xml:space="preserve">
<style type="text/css">
	.st0{fill:#3C2B4E;}
	.st1{fill:#38284B;}
	.st2{fill:#FBC22B;}
	.st3{fill:#528B8C;}
	.st4{fill:#51898C;}
	.st5{fill:#467B82;}
	.st6{fill:#FB7C64;}
	.st7{fill:#FA9F51;}
	.st8{fill:#FAB63A;}
	.st9{fill:#A442E9;}
	.st10{fill:#FA6374;}
	.st11{fill:#A078D1;}
	.st12{fill:#FDC81F;}
	.st13{fill:#C55DC0;}
	.st14{fill:#FBFBFB;}
	.st15{fill:#F2D96A;}
	.st16{fill:#498086;}
	.st17{fill:#F9966B;}
	.st18{fill:#F9AF48;}
	.st19{fill:#FAA35D;}
	.st20{fill:#F9B147;}
	.st21{fill:#F77E79;}
	.st22{fill:#F98476;}
	.st23{fill:#F99769;}
	.st24{fill:#F7AB50;}
	.st25{fill:#FAFAFB;}
	.st26{fill:#D5CBCC;}
	.st27{fill:#F68A72;}
	.st28{fill:#EBDBC1;}
	.st29{fill:#EFC9A2;}
	.st30{fill:#E5D5CD;}
	.st31{fill:#C9BDC0;}
	.st32{fill:#DDD7D3;}
	.st33{fill:#B8ADBD;}
	.st34{fill:#D1C9D3;}
	.st35{fill:#8385DB;}
	.st36{fill:#7183DD;}
	.st37{fill:#FBD868;}
	.st38{fill:#FAFBFB;}
	.st39{fill:#A941DF;}
	.st40{fill:#F4DF91;}
	.st41{fill:#F4BC38;}
	.st42{fill:#C6A37E;}
	.st43{fill:#E1D0BA;}
	.st44{fill:#D5B991;}
	.st45{fill:#D4CBCB;}
	.st46{fill:#F9A05F;}
	.st47{fill:#39294C;}
	.st48{fill:#DED9D0;}
	.st49{fill:#A479B7;}
</style>
<g>
	<path class="st0" d="M1141.41,747.22c2.61,0.21,5.23,0.6,7.84,0.59c22.77-0.1,45.55-0.3,68.32-0.4c1.53-0.01,4.15-1.05,4.1,1.74
		c-0.04,2.34-2.54,1.55-3.97,1.55c-26.78,0.12-53.56,0.22-80.34,0.21c-90.23-0.02-180.45-0.14-270.68-0.13
		c-79.34,0.01-158.68,0.18-238.01,0.19c-51.81,0.01-103.62-0.15-155.42-0.24c-1.37,0-2.77,0.03-4.11-0.25
		c-1.78-0.37-2.02-1.32-0.49-2.51c1.46-0.52,2.98-0.26,4.47-0.26c45.06-0.02,90.11,0,135.17-0.04c4.08,0,8.12,0.29,12.21-1.01
		c3.28-1.04,6.88-1.05,10.41-1.04c16.9,0.07,33.79-0.04,50.69,0.06c7.36,0.04,14.7,1.3,22.07,0.57c5.42-1.08,10.92-0.12,17.09-0.63
		c-4.93-2.7-9.1-5.53-10.71-10.86c-0.65-3.65-1.28-7.3-2.16-10.89c-1.41-5.81-1.72-11.39,2.7-16.14c1.37-2.03,2.55-4.18,3.31-6.55
		c2.42-6.68,6.71-12.26,10.05-18.4c4.1-7.68,7.12-15.59,5.21-24.62c-0.58-0.88-0.53-1.81-0.13-3.09c0.03-0.19,0.56,0.43,0.09,0.25
		c-0.21-0.08-0.29-0.01-0.32,0.19c-0.16,1.14-0.11,2.23,0.65,3.17c1.19,8.59-1.26,16.32-5.24,23.69c-1.76,2.49-2.65,5.58-4.91,7.73
		c-2.37-0.58-1.9-2.72-2.15-4.37c-1.47-9.91-6.38-18.58-9.13-28.88c-4.07,4.85-5.36,10.21-7.96,14.79c-2.66,4.68-5.66,9.1-8.98,13.3
		c-0.35,0.44-0.8,0.76-1.2,1.15c-8.27,9-17.75,16.25-28.69,21.43c-7.13,3.09-14.45,5.22-22.28,4.88c-1.42-0.29-2.84-0.42-4.27-0.03
		c-2.82,0.05-5.66,0.21-8.36-0.92c-1.52,0.14-2.9-0.36-4.27-0.95c-6.52-1.27-11.74-4.57-15.75-10.14c-2.74-3.8-6.64-6.62-9.16-10.64
		c-1.08-1.72-3.57-3.29-0.86-5.73c0.34-0.31-0.52-0.43-0.82-0.64c-2.87-2.02-4.94-4.73-6.21-8.03c-0.54-1.39-1.25-3.05,0.37-4.21
		c1.28-0.92,0.01-1.2-0.28-1.66c-1.83-2.89-3.23-5.77-1.39-9.31c0.82-1.57-0.11-3.28-0.23-4.92c-0.23-3.01-1.35-6.14,0.91-8.88
		c0.19-2.3,0.11-4.64,1.23-7.14c3.19,15.33,12.16,25.86,24.79,33.39c19.17,11.42,38.59,7.26,54.64-5.78
		c7.09-5.77,12.09-13.31,17.05-20.9c6.13-9.38,11.65-19.21,19.12-27.61c1.08-1.21,1.79-2.76,2.68-4.16
		c0.08-1.37,0.76-2.62,1.59-3.43c7.58-7.35,13.28-16.45,20.98-23.7c5.57-5.25,12.19-8.6,18.93-11.64
		c23.49-10.6,47.06-21,70.24-32.33c11.95-5.84,22.37-14.14,33.22-21.74c1.55-1.09,2.9-2.61,4.65-3.24c4.62-1.69,7.15-5.22,9.15-9.61
		c2.35-5.15,3.75-5.44,8.32-2.34c13.16,8.92,27.69,14.82,42.33,20.46c4.8,1.85,9.73,3.3,14.57,5c1.84,0.65,3.39,1.58,4.25,3.5
		c3.23,7.22,5.63,14.65,5.09,22.75c-0.23,3.51-1.73,6.49-4.3,8.76c-1.94,1.71-2.57,3.77-2.09,6.21c0.67,3.43,0.76,6.93,1.05,10.39
		c0.4,4.9,0.4,9.88-3.88,13.44c-0.83,0.69-0.41,1.69-0.36,2.55c0.32,5.45-0.33,10.53-4.21,14.76c-1.71,1.87-1.18,4.67-1.96,6.97
		c-0.5,1.46-0.88,2.96-1.72,4.28c-0.27,0.44-0.68,1.11-1,1.09c-3.46-0.18-2.57,2.51-2.95,4.48c-1.23,6.35-3.97,11.41-9.09,15.78
		c-4.07,3.47-7.67,8.01-10.79,12.67c-1.5,7.14-1.31,14.29-0.19,21.43c0.2,1.27,0.48,2.53,0.45,3.81
		c-0.31,13.17,1.85,26.15,2.75,39.22c0.38,1.76,0.49,3.61,1.25,5.25c1.88,4.05,3.91,7.51,9.24,7.68c5.37,0.16,10.43,1.86,12.77,7.82
		c0.67,1.72,2.17,1.98,3.74,1.98c19.53,0.02,39.05,0.11,58.58-0.06c2.1-0.02,4.19-0.91,6.32-0.17c8.61,0.27,17.22,0.77,25.81-0.32
		c1.5-0.19,3-0.19,4.49-0.19c17.01-0.02,34.02,0.01,51.02-0.02c4.84-0.01,9.61,1.36,14.55,0.2c2.49-0.58,4.04-1.57,5.09-3.87
		c3.53-7.73,6.48-15.65,7.85-24.13c0.16-1.02,0.38-2.02,0.72-3c0.52-1.46,0.98-3.35,2.77-3.14c1.73,0.2,1.21,2.24,1.63,3.5
		c0.29,1.42,0.15,2.8-0.89,4.93c3.58-6.33,8.16-6.5,13.17-1.23c1.13-2.47,0.34-5.74,2.98-7.54c2.26,0.37,2.65,2.33,2.71,4.04
		c0.26,7.24,3.16,13.65,5.63,20.2c0.54,1.43,1.27,2.81,1.62,4.3C1135.14,743.98,1136.92,747,1141.41,747.22z"/>
	<path class="st1" d="M1160.05,402.34c3.74,12.86,4.87,26.01,3.98,39.37c-0.79,11.71-2.39,23.32-4.02,34.92
		c-2.27,16.17-4.81,32.29-7.23,48.44c-2.38,15.89-4.76,31.78-7.15,47.67c-1.27,8.42-2.15,16.81-1.56,25.4
		c1.18,17-1.82,33.63-5.16,50.18c-0.61,3.01-1.22,6.02-1.84,9.03c0.9,1.09,0.88,2.4,0.58,3.64c-1.36,5.7-2.17,11.53-3.77,17.17
		c-0.53,1.87-1.23,3.65-3.31,4.27c-8.36,0.81-16.72,1.27-25.06-0.22c-1.94-1.22-2.33-3.18-2.34-5.3c-0.02-3.83-0.07-7.65-0.45-11.46
		c-0.02-0.96-0.36-1.91-0.17-2.88c0.56-4.11,0.26-8.24,0.25-12.37c-0.03-16.12,1.56-32.1,3.58-48.05c0.84-6.63,1.59-13.27,3.09-19.8
		c0.69-2.98-0.36-5.89-0.7-8.79c-1.4-11.88-2.01-23.81-2.7-35.73c-0.17-0.48-0.4-0.96-0.42-1.48c-0.53-13.15,0.05-26.32-0.72-39.48
		c-0.26-4.44,0.39-8.99,0.62-12.15c-0.17,13.92-2.76,28.9-5.4,43.85c-4.5,25.54-12.71,49.58-26.81,71.39
		c-12.38,19.15-25.53,37.67-39.57,55.54c-1.17,1.49-2.24,3.18-4.39,3.31c-7.19-3.88-14.56-7.5-20.65-13.24
		c-0.19-0.62-0.18-1.25,0.02-1.86c6.9-16.17,13.91-32.3,21.37-48.2c4.96-10.58,10.55-20.82,16.1-31.08
		c1.45-2.68,2.14-5.43,2.13-8.49c-0.04-12.92,0.07-25.84-0.04-38.76c-0.27-32.77,3.14-65.16,9.34-97.26
		c2.42-12.51,4.31-25.13,6.88-37.61c0.31-1.52,0.71-3,1.15-4.48c-1.28,5.6-2.7,11.17-4.73,16.54c-3.76,7.73-5.62,16.15-8.26,24.28
		c-0.63,1.93-0.79,4.07-2.41,5.54c-0.99,0.71-2.13,0.85-3.2,0.47c-4.89-1.76-9.92-3.21-14.43-5.96c-0.27-0.29-0.48-0.63-0.62-1.01
		c-0.57-2.7,1.24-4.47,2.38-6.52c1.15-2.08,3.09-3.61,3.9-5.92c7.2-11.35,14.11-22.88,20.34-34.83c3.43-6.58,6.73-13.23,9.12-20.31
		c5.43-22.14,9.15-44.63,12.92-67.11c1.07-6.35,2.18-12.7,2.62-19.12c0.33-4.84,0.34-9.77-1.43-14.44
		c-0.71-3.01-2.18-5.68-3.53-8.42c-0.68-1.38-1.91-2.87-0.19-4.42c2.19-0.28,2.99,1.53,4.04,2.91c3.41,4.45,6.04,9.48,9.76,13.68
		c4.88,5.47,10.31,10.13,17.35,12.37c6.6,2.21,13.28,3.02,20.13,1.33c1.79-0.44,3.62-1.1,5.43,0.01c1.48,3.93,1.46,8.08,1.19,12.15
		c-0.72,11.04-0.81,22.14-2.09,33.14c-1.42,12.12-0.8,24.49-4.13,36.37c-0.51,1.83,0.61,2.9,1.5,4.11
		c7.54,10.28,14.88,20.71,21.55,31.63C1156.29,389.89,1159.49,395.55,1160.05,402.34z"/>
	<path class="st2" d="M922.91,624.75c1.29-2.95,2.19-6,2.22-9.28c0.01-0.74-0.19-1.67,0.57-2.11c4.74-2.75,4.71-7.46,4.78-12.14
		c0.03-2.06,0-4.11,0-6.27c1.14,1,2.08,1.11,2.86-0.96c2.28-6.09,1.13-12.23,0.67-18.37c-0.14-1.93-0.37-3.85-0.5-5.78
		c-0.07-1.03-0.08-2.04,0.93-2.75c7.69-5.36,6.47-12.92,4.51-20.48c-1-3.84-2.8-7.45-3.84-11.28c-0.61-2.22-2.29-2.26-3.7-2.69
		c-15.32-4.72-30.14-10.77-44.44-18.12c-4.9-2.52-9.58-5.53-14.17-8.61c-2.07-1.39-2.94-1.03-3.7,1.15
		c-0.33,0.96-0.89,1.84-1.3,2.78c-1.77,4-4.13,6.9-8.25,9.17c-7.33,4.05-14.03,9.38-20.8,14.45c-11.33,8.49-24.23,13.85-36.81,19.78
		c-17.59,8.29-35.3,16.33-53.13,24.05c-11.69,5.07-20.76,13.2-28.27,23.45c-3.65,4.97-8.15,9.08-12.41,13.43
		c-0.84-4.72,1.4-8.77,3.02-12.81c10.21-25.44,26.16-45.83,49.74-59.36c3.3-1.9,6.82-3.27,10.45-4.17
		c6.64-1.64,9.66-5.99,10.52-12.79c2.91-23.03,15.2-39.84,33.89-51.65c18.55-11.72,38.95-14.8,60.28-10.89
		c2.87,0.53,6.32-0.34,8.6,2.54c0.96,1.98-0.29,3.46-1.13,5c-2.65,4.88-6.34,8.95-9.74,13.25c-3.24,4.1-3.33,5.52-0.37,9.93
		c1.11,1.66,1.54,3.31,0.71,5.07c-1.57,3.29-0.2,5.15,2.45,6.99c11.52,8,24.26,13.33,37.13,18.4c5.49,2.16,10.99,4.31,16.73,5.74
		c2.54,0.63,3.91,0.21,4.62-2.67c0.98-4,2.03-4.49,6.27-4.05c2.22,3.85,1.5,8.26,1.7,12.35c0.3,6.04,1.17,12.06,0.98,18.13
		c-0.1,3.23,1.64,5.5,3.7,7.71c8.77,9.43,16.68,19.54,22.49,31.24c1.54,3.1,3.18,6.16,3.82,9.64c1.96,7.97,3.62,16.01,5.18,24.07
		c1.06,5.46,1.15,11.03,0.71,16.55c-0.35,4.38-2.63,6.31-6.97,6.43c-3.87,0.11-7.75,0.24-11.51-1.08c-1.44-0.51-2.97-0.5-4.46-0.35
		c-10.48,1.06-20.92,1.5-31.23-1.45c-0.84-0.24-1.74-0.13-2.62-0.16c-5.01-0.16-6.68-2.6-5.08-7.6c0.83-2.57,1.75-5.09,1.54-7.86
		c-0.08-1.1,0.15-2.09,1.25-2.56C922.13,627.21,922.38,625.89,922.91,624.75z"/>
	<path class="st0" d="M941.03,522.53c-0.27,0.26-0.52,0.73-0.82,0.76c-3.39,0.41-4.22,2.79-4.22,5.79
		c-0.01,2.47-1.18,3.05-3.34,2.42c-20.71-6.01-40.6-13.92-58.69-26.22c-2.56-1.74-3.35-3.52-1.71-6.27
		c1.28-2.16,1.36-3.82-0.75-5.92c-2.93-2.92-2.61-6.39,0.45-9.98c4.77-5.62,9.45-11.29,12.68-18.06c3.42-4.65,5.07-10.24,7.65-15.34
		c3.55-7.01,7.76-13.19,15.93-15.08c1.32-0.31,2.41-1.75,3.59-2.7c4.92-3.97,10.64-5.58,16.73-5.61c3.69-0.02,6.43,2.29,8.93,4.99
		c6.77,7.31,4.94,6.95,14.07,2.88c6.15-2.74,12.21-5.68,18.3-8.54c5.13-2.41,7.26-1.04,7.14,4.8c-0.05,2.29-0.46,4.58-0.77,6.86
		c-0.3,2.25-0.69,4.49-1.07,6.93c3.98-0.41,6.93-3.08,10.22-4.99c1.28-1.76,2.94-3.07,4.72-4.22c1.87-1.2,3.85-2.71,4.4,1.22
		c0.22,1.54,1.25,0.81,2.01,0.75c1.79-0.14,3.51-0.18,4.31,1.98c0.21,2.44-1.28,3.73-3.03,4.89c-3.31,2.18-6.98,2.75-10.77,2.48
		c-4.52-0.32-7.32,2.77-10.39,5.34c-1.17,0.98-0.67,2.42-0.52,3.64c0.76,6.26-2.15,10.31-7.2,13.16c-3.43,1.94-7.16,3.04-10.9,4
		c-6.48,1.67-10.68,5.48-12.59,12.29c-1.24,4.43-2.83,8.8-4.87,12.94c-0.97,1.77-2.18,3.5-2.45,5.53c-0.5,3.75-1.29,7.6,2.4,10.46
		c1.14,0.88,1.5,2.6,2.17,3.97C942.99,519.62,943.14,521.48,941.03,522.53z"/>
	<path class="st3" d="M1130.88,681.52c2.51-4.37,2.57-9.44,3.82-14.17c0.87-3.31,1.59-6.66,2.37-9.99
		c18.63-7.77,38.04-12.06,58.01-13.7c11.76-0.97,18.95,2.83,13.3,17.47c-9.91,25.66-23.42,48.92-42.59,68.39
		c-7.15,7.26-15.44,13-24.38,17.71c-5.11,1.65-5.67,1.32-7.4-3.5c-1.54-4.32-3.39-8.52-4.87-12.86c-1.68-4.92-3.91-9.72-3.53-15.18
		c0.1-1.38-0.32-2.8-1.16-3.98c-1.45-1.41-0.86-3.1-0.48-4.67c1.62-6.71,2.85-13.5,4.15-20.27
		C1128.52,684.73,1129.02,682.74,1130.88,681.52z"/>
	<path class="st4" d="M625.54,710.27c2.99,0.24,5.99,0.49,8.98,0.73c1.48,0.42,2.96,0.41,4.43,0c7.86,0.29,15.13-2.35,22.41-4.89
		c0.86,0.17,1.79,0.28,2.47,0.83c5.68,4.6,11.33,9.25,15.91,15.09c0.63,0.81,1.13,1.72,0.79,2.85c-1.63,2.66-3.94,1.76-6.01,1.01
		c-4.82-1.74-9.6-3.52-14.72-4.26c-7.6-1.11-15.16-0.99-22.69,0.35c-2.75,0.49-5.43,0.58-8.17,0.04c-2.09-0.41-4.23-0.42-6.33,0.02
		c-2.87,0.6-5.66,0.22-8.53-0.17c-5.16-0.69-10.38-0.86-15.57-1.31c-3.27-0.29-6.45,1.69-9.04,4.02c-0.74,0.66-1.23,1.62-2.32,1.8
		c-15.02-14.54-27.51-30.98-34.39-51.25c-4.34-12.77,3.71-16.58,13.7-15.75c8.08,0.67,14.47,5.16,19.93,11.13
		c1.21,0.39,1.61,1.44,2.04,2.54c2.59,6.68,5.64,13.18,10.19,18.61c4.82,5.75,9.02,12.22,16.02,15.79c1.7,0.86,3.43,1.22,5.1,1.92
		C621.69,709.64,623.32,711.99,625.54,710.27z"/>
	<path class="st5" d="M587.17,726.37c1.54-4.56,8.43-8.15,13.34-7.49c7.66,1.04,15.39,1.2,23.1,1.6
		c10.49,0.55,20.75-2.02,31.18-1.13c7.27,0.62,14.21,2.42,20.93,5.29c1.51,0.65,3.31,1.76,4.59-0.54c0.38-0.49,0.9-0.64,1.48-0.59
		c3.77,1.73,6.07,5.3,9.1,7.95c4.19,3.67,8.3,7.46,12.19,11.48c1.11,1.15,2.53,2.24,2.11,4.25c-4.9,1.59-9.98,1.15-14.9,0.7
		c-8.88-0.8-17.74-0.44-26.6-0.52c-11.76-0.11-23.52-0.24-35.27,0.06c-53.26,1.36-106.53,0.15-159.79,0.55
		c1.32-1.13,2.89-0.59,4.33-0.59c47.23-0.01,94.46,0.03,141.68,0.05c0.83,0,1.66,0,2.6-0.32
		C605.92,742.11,595.86,735.3,587.17,726.37z"/>
	<path class="st6" d="M1108.2,266.52c-7.11-2.12-12.47-6.81-17.18-12.46c-0.38-0.98-0.57-1.97-0.29-3.02
		c2.89-10.96,2.88-22.38,5.03-33.44c1.75-8.99,1.29-18.22,3.24-27.16c0.85-3.9,0.1-7.98,1.07-11.91c0.34-1.37,0.31-2.84,1.64-3.71
		c4.16,7.38,9.41,13.75,15.78,19.22c3.94,3.38,6.22,7.97,7.12,13.17c0.57,3.31,1.55,6.44,2.8,9.51c-2.51,2.82-2.89,6.26-3.29,9.94
		c-1.15,10.62-2.33,21.27-4.99,31.62C1117.68,263.98,1113.58,266.84,1108.2,266.52z"/>
	<path class="st7" d="M1101.72,174.8c-0.41,9.24-1.78,18.38-2.59,27.57c-0.55,6.24-1.5,12.42-1.99,18.66
		c-0.48,6.13-2.53,12.02-2.64,18.25c-0.09,5.14-0.64,10.26-3.47,14.76c-4.65-4.42-7.12-10.51-11.18-15.39
		c-0.48-0.57-0.96-1.14-1.44-1.71c-3.93-1.03-8.08,0.14-11.97-1.29c-0.59-1.22,0.24-1.84,0.98-2.49c2.3-1.15,4.74-1.52,7.28-1.36
		c0.95,0.06,2.01,0.53,2.76-0.56c1.99-8.24,2.02-16.55,0.91-24.9c-0.1-0.76-0.02-1.56-0.24-2.3c-2.85-9.53-3.67-19.36-4.3-29.25
		c-0.23-3.59-0.88-7.15-0.68-10.78c0.14-2.59,0.22-5.37,1.63-7.46c1.86-2.76,2.87-5.48,2.14-8.79c8.45,1.41,14.01,6.88,18.34,14
		C1097.76,165.93,1100.18,170.14,1101.72,174.8z"/>
	<path class="st8" d="M1076.91,147.79c3.35,3.79,3.33,4.15,0,7.82c-2.14,2.35-1.91,5.47-2.23,8.35c-0.42,3.74,0.07,7.48,0.78,11.12
		c0.9,4.63,0.21,9.33,1.15,14.04c0.69,3.44,1.12,7.06,1.99,10.49c1.8,7.17,2.34,14.46,1.95,21.77c-0.22,4.04-1.48,8.02-2.27,12.02
		c-5.84-4.48-10.93-9.37-10.39-17.86c0.19-2.92,0.4-5.9-2.22-8.2c-1.35-1.18-0.96-3.09-0.6-4.77c0.6-2.77,1.27-5.54,1.24-8.39
		c-0.02-1.95-0.38-3.8-3.09-2.72c-2.08,0.83-3.62-0.3-5.04-1.65c-2.02-1.93-3.92-3.98-5.87-5.98c-2.94-3.02-6.23-5.55-9.85-7.62
		c-0.03-1.09,0.65-2.51,2.87-5.97c-1.65-1.16-4.79,0.17-5.15-3.12c0.07-0.11,0.11-0.27,0.21-0.32c7.28-3.93,12.82-10.14,19.1-15.39
		C1064.38,147.33,1070.59,146.41,1076.91,147.79z"/>
	<path class="st9" d="M1160.05,402.34c-7.16-18.27-19.15-33.38-30.26-49.04c-1.69-2.38-2.57-4.1-0.94-7.12
		c1.82-3.38,1.41-7.53,1.71-11.36c1.76-22.51,4.19-44.98,3.93-67.61c0.17-1,0.63-1.31,1.5-0.67c2.58,13.12,3.73,26.45,5.38,39.71
		c2.1,16.98,6.44,33.48,10.24,50.09c2.97,12.98,6.29,25.89,8.34,39.08C1160.3,397.67,1160.03,400.03,1160.05,402.34z"/>
	<path class="st10" d="M1135.99,266.53c-0.5,0.22-1,0.45-1.5,0.67c-8.84,2.74-17.62,3.22-26.29-0.69c5.99-1.51,8.84-5.4,10.24-11.7
		c1.81-8.18,2.01-16.58,4.03-24.69c0.8-3.23-0.02-6.65,0.87-9.97c0.64-2.42,1.68-3.61,4.1-3.44c3.12,4.07,7.34,6.31,12,7.94
		c5.09,1.79,9.38,4.78,12.04,9.77c5.57,10.43,1.6,22.5-9.51,28.97C1140.02,264.52,1137.98,265.49,1135.99,266.53z"/>
	<path class="st11" d="M1068.69,351.1c-2.29,7.53-5.97,14.4-9.57,21.3c-6.03,11.57-12.6,22.81-19.81,33.63
		c-3.71,2.96-7.95,4.13-12.58,3.91c-3.12-0.15-6.21,0.55-9.3,0.33c-1.42-0.1-3.05,0.22-4.2-1.13c0.95-1.67,1.9-3.35,2.84-5.02
		c6.12-11.13,11.86-22.45,16.25-34.46c0.3-0.81,0.5-1.78,1.62-1.85c0.76,0.28,1.18,0.93,1.5,1.63c1.16,2.59,3.1,2.66,5.32,1.8
		c3.91-1.5,7.23-3.97,10.27-6.86c4.58-4.34,9.6-8.16,13.99-12.73C1065.88,350.76,1067.12,348.67,1068.69,351.1z"/>
	<path class="st12" d="M1040.17,167.12c1.19,0.93,2.31,1.86,4,1.12c1.22-0.53,2.61-0.44,3.11,1.06c0.49,1.47-0.27,2.84-1.46,3.59
		c-1.25,0.78-2.73,1.18-3.45,2.67c0.27,1,0.44,1.99,0.27,3.04c-0.85,5.12,0.3,10.04,1.9,14.76c1.51,4.44,2.53,8.86,2.34,13.56
		c-0.1,2.27,0.57,4,2.29,5.76c2.24,2.31,3.73,5.44,4.48,8.66c0.69,2.91,2.1,3.87,4.8,3.28c0.73-0.16,1.48-0.23,2.19-0.46
		c3.06-0.99,5.14,0.2,6.23,3.19c0.76,2.11,2.17,4.16,1.07,6.61c-0.49,0.45-0.97,0.91-1.46,1.36c-1.23,3.87-5.12,5-7.46,7.72
		c-0.86,0.56-1.57,1.37-2.58,1.68c-0.17,0.01-0.34,0.01-0.51,0.02c-7.05-1.86-14.17-11.11-14.3-18.52c-0.04-2.61,0.3-5.17,1.06-7.64
		c1.56-5.11,0.95-8.95-3.53-12.84c-8.45-7.34-10.7-21.82-5.9-32.06C1034.69,170.59,1036.82,168.14,1040.17,167.12z"/>
	<path class="st13" d="M1013.23,409.14c3.24-1.07,6.69-0.77,9.9-0.6c5.65,0.31,10.8-1.65,16.18-2.51c-1.9,4.12-5.46,7.2-6.81,11.66
		c-4.12,5.83-8.72,11.27-12.73,17.18c-1.59,2.34-3.71,2.67-5.85,1.03c-2.98-2.29-5.42-1.53-8.06,0.67
		c-1.54,1.28-3.02,3.32-5.54,2.26c-1.55-1.41-3.2-0.74-4.79-0.17c-0.94,0.34-1.51,2.14-2.77,1.04c-1.39-1.21,0.29-2.26,0.47-3.4
		c0.08-0.48,0.06-0.98,0.11-2c-2.57,2.38-5.31,3.62-8,4.94c2.64-5.06,5.46-9.51,10.9-12.43c5.79-3.12,9.71-9.09,14.23-14.04
		C1011.5,411.67,1012.32,410.36,1013.23,409.14z"/>
	<path class="st14" d="M1033.98,367.82c-3.66,8.43-6.81,17.12-11.2,25.19c-2.07,3.8-3.8,7.83-6.71,11.1
		c0.13-2.75,1.95-4.69,3.14-6.93c10.73-20.31,18.37-41.76,22.43-64.54c1.08-6.07,2.51-12.07,3.3-18.21c0.3-2.34-0.08-3.79-1.49-5.53
		c-3.4-4.2-6.06-8.83-6.37-14.53c-0.24-4.31,0.92-8.37,3.18-11.75c6.39-9.62,10.36-20.22,13.22-31.39c0.57-2.22,1.6-4.32,2.43-6.47
		c0,0-0.02,0.01-0.02,0.01c0.45-0.29,0.81-0.2,1.09,0.26c0.91,2.13-0.1,4.1-0.67,6c-2.87,9.68-3.61,19.72-4.86,29.66
		c-1.69,13.52-2.58,27.15-4.89,40.6c-1.5,6.22-2.1,12.61-3.47,18.86c-1.76,8.03-4,15.91-6.43,23.74
		C1036.18,365.43,1035.73,367.12,1033.98,367.82z"/>
	<path class="st15" d="M619.48,710c-6.42-1.2-11.63-5.05-15.55-9.86c-5.07-6.23-10.55-12.32-13.87-19.96
		c-1.38-3.17-2.67-6.35-3.64-9.67c0.53-4.83-1.94-9.26-1.62-14.11c0.26-3.98,0.04-7.98,2.24-11.66c1.13-0.23,0.8,1.35,1.58,1.65
		c0.08,4.5,0.05,9,1.4,13.38c0.19,0.63,1.27,2.47-1.26,1.95c-1.91-0.39-0.83,1.45-0.69,2.01c0.91,3.58,2.9,6.48,5.99,8.78
		c-1.92,0.75-2.98-0.7-4.74-1.11c1.18,7.18,6.76,10.68,11.49,15.36c-2.27-0.17-3.42-1.72-5.51-2.48c2.05,4.29,4.6,7.61,7.57,10.64
		c2.15,2.2,4.22,4.38,6.08,6.98c3.14,4.39,8.11,6.69,13.5,7.5C621.78,711.25,620.62,710.56,619.48,710z"/>
	<path class="st16" d="M1103.86,664.96c1.27,3.6,0.74,7.34,0.86,11.04c0.06,1.92-0.03,3.85,0.79,5.65c1.92,1.7,1.81,4.19,2.12,6.41
		c1.07,7.64,1.49,15.36,2.21,23.04c0.19,1.97,0.51,4.22-1.95,5.24c-0.16-1.24-0.31-2.48-0.54-4.3c-1.74,3.22-1.95,6.35-2.47,9.28
		c-1.52,8.48-5.01,16.16-8.56,23.83c-0.48,1.04-0.98,2.11-2.38,2.15c-4.23,0.14-8.41,1.31-12.69,0.39c-1.33-0.29-2.73-0.31-4.1-0.31
		c-17.01-0.03-34.02-0.33-51.02,0.09c-8.99,0.23-17.98,0.53-26.97,0.52c-1.45,0-3.05,0.43-4.22-0.97c-0.89-2.68,1.24-3.66,2.72-4.78
		c7.33-5.52,13.7-12.19,20.61-18.21c9.61-9.4,19.3-18.71,29.63-27.29c14.79-12.87,30.84-23.62,48.89-30.97
		C1099,664.87,1101.29,663.21,1103.86,664.96z"/>
	<path class="st17" d="M761.53,730.22c-5.52-6.34-6.11-13.78-4.32-21.62c0.51-2.22,1.57-4.51,3.55-5.74
		c7.37-4.58,14.06-10.11,20.79-15.58c2.72,3.89,6.4,3.8,10.35,2.7c2.8-0.78,5.66-0.91,8.55-0.9c12.12,0.05,24.26,0.31,36.35-0.87
		c4.57-0.45,9.26-0.24,13.71-1.8c1.32-0.46,2.71-0.43,4.08-0.28c2.37,0.32,2.24,2.06,2.36,3.96c0.08,1.29-1,3.38,1.48,3.77
		c0.17-0.02,0.33-0.04,0.5-0.06c2.04,1.91,1.95,4.54,2.21,7.04c-0.83,3.28-1.13,6.8-0.33,9.89c0.72,2.79,3.6,5,1.75,8.45
		c-0.04,0.07,1.13,0.82,1.74,1.26c0.58,4.85-1.81,7.98-6.46,8.28c-4.61,0.29-9.22,0.36-13.83,0.67
		c-20.19,1.35-40.41,2.39-60.64,1.62c-6.6-0.25-13.16-0.74-19.75-0.08C762.88,730.98,762.14,730.72,761.53,730.22z"/>
	<path class="st18" d="M922.91,624.75c-0.04,0.51,0.11,1.21-0.15,1.51c-3.74,4.28-1.88,10.12-3.94,14.88
		c-0.92,2.12,0.69,3.57,2.42,3.19c4.44-0.97,8.33,1.29,12.51,1.67c7.08,0.64,14.14,0.74,21.21-0.06c2.37-0.27,4.79-0.68,7.04,0.23
		c4.13,1.66,8.39,1.11,12.6,1.01c3.61-0.08,3.71-3.21,3.88-5.92c0.56-8.94-0.43-17.72-2.76-26.35c-1.2-4.44-2.16-8.94-3.23-13.41
		c2.54-0.06,2.89,2.2,3.54,3.86c3.51,9.02,5.48,18.46,6.95,28.03c1.33,8.6,1.75,17.34,6.53,25.12c2.17,3.53,4.24,7.68,3.22,12.38
		c-0.89,1.6-2.5,1.45-3.94,1.67c-1.68,0.26-2.93,1.33-4.25,2.28c-1.18,0.75-1.99,1.96-3.18,2.7c-2.27,2.87-5.06,3.96-8.76,4.16
		c-5.07,0.28-10.15,1.05-15.2,1.8c-3.86,0.57-7.69,0-11.55-0.35c-7.73-0.7-15.44,0.4-23.13,1.06c-5.37,0.47-10.73,0.54-16.07,0.16
		c-4.81-0.34-8.19-4.41-8.14-9.38c0.06-5.91-0.43-11.83,0.29-17.72c3.71-3.2,7.5-6.33,9.63-11.01c0.2-0.44,0.41-1.07,0.77-1.22
		c7.51-3.09,8.84-10.03,9.97-17.06c0.21-1.32-0.23-2.79,1.88-1.17C921.83,627.38,921.95,625.17,922.91,624.75z"/>
	<path class="st19" d="M898.83,657.27c0.02,5.16,0.04,10.31,0.06,15.47c0.03,6.26,3.87,10.02,10.04,10.23
		c11.86,0.41,23.63-2.5,35.42-1.41c9.33,0.87,18.3-0.88,27.44-1.44c4.11-0.25,7.03-1.53,9.82-4.13c1.16,1.08,0.63,2.34,0.38,3.59
		c-1.42,7.06-2.65,14.17-5.95,20.65c-0.35,0.69-0.43,1.48-0.58,2.23c-2.27,5.31-4.46,10.67-8.11,15.2
		c-0.42,0.28-1.07,0.31-1.31,0.71c-3.3,5.28-8.74,5.31-13.7,5.29c-11.11-0.04-22.07,2.15-33.14,2.09
		c-5.79-0.03-11.73,0.7-17.33-1.74c-1.48-9.02-2.18-18.14-2.71-27.24c-0.72-12.34-1.25-24.71-1.05-37.1
		C898.13,658.84,897.85,657.84,898.83,657.27z"/>
	<path class="st20" d="M855.32,686.8c-5.62,2.38-11.65,2.69-17.54,3c-10.34,0.55-20.71,1.49-31.07,0.85
		c-6.67-0.41-13.17,0.82-19.72,1.62c-3.75,0.46-5.8-0.81-5.43-5c7.1-6.71,10.26-15.11,10.1-24.96c-0.06-3.48-0.06-6.96-0.05-10.44
		c0.02-6.34,3.56-10.58,9.66-11.62c5.67-0.97,11.22,0,16.6,1.64c11.56,3.54,22.95,7.57,34.1,12.34c2.71,1.16,3.81,2.36,1.91,5.18
		c-0.53,0.78-0.53,1.95-0.77,2.94c1.15,3.3,1.23,6.7,0.94,10.15c-0.08,0.9-0.85,1.98,0.47,2.64c2.25,0.95,1.58,2.96,1.39,4.61
		c-0.14,1.23-0.75,2.41-0.52,3.72C856.33,684.59,856.34,685.7,855.32,686.8z"/>
	<path class="st21" d="M901.87,724.02c4.68-1.26,9.32,0.48,14,0.19c5.05-0.31,10.16,0.32,15.17-0.75c6.73-1.45,13.6-0.52,20.33-1.26
		c4.87-0.54,10.65,0.71,13.81-5.06c0.66-1.2,1.25-0.94,1.93-0.07c1.37,1.86,0.28,3.72-0.08,5.53c-0.77,3.85-1,7.65,0.44,11.38
		c2.5,6.47,8.97,8.94,14.67,5.2c6.45-4.24,10.1-10.44,10.65-18.47c0.16-2.41-0.89-5.27,1.91-6.93c1.31,0.5,0.99,1.55,0.8,2.55
		c0.47-1,0.05-2.71,1.93-2.61c1.3,0.48,2.07,1.58,2.3,2.84c0.56,3.17,2.43,4.37,5.37,4.83c3.97,0.62,7.59,3.31,11.92,2.03
		c0.8-0.24,1.64,0.48,2.03,1.4c-6.77,6.81-13.88,13.22-21.34,19.21c-1.08,0.87-2.24,1.63-2.8,3c-2.67,0.86-5.42,0.85-8.17,0.85
		c-19.36,0.03-38.71,0-58.07,0.09c-2.27,0.01-3.62-0.24-4.05-3.02c-0.55-3.61-3.29-5.29-6.54-6.03c-1.45-0.33-2.95-0.47-4.43-0.66
		C906.34,737.28,902.03,732.08,901.87,724.02z"/>
	<path class="st22" d="M761.53,730.22c6.14-2.38,12.47-1.37,18.75-1.1c1.37,0.06,2.73,0.34,4.09,0.34
		c15.23,0.01,30.48,0.36,45.69-0.81c9.32-0.71,18.63-1.49,27.99-1.54c3.65-0.02,5.76-2.43,6.27-6.69c1.94,3.37-0.37,6.1-1.44,8.91
		c-0.9,2.38-0.59,3.52,1.95,3.12c6.72-1.06,11.43,0.69,12.34,8.58c0.14,1.19,1.15,2.26,1.66,3.43c0.44,1.01,1.64,1.68,1.22,3.37
		c-2.65,0-5.36,0-8.07,0c-26.02,0.02-52.04,0.03-78.06,0.11c-2.78,0.01-4.78-0.04-5.52-3.77c-0.85-4.3-4.56-6.47-10.44-6.11
		C770.94,738.5,765.62,735.93,761.53,730.22z"/>
	<path class="st23" d="M705.2,747.18c-5.06-6.11-11.46-10.72-16.94-16.36c-2.21-2.27-4.5-4.46-6.76-6.69
		c-1.59-2.12-0.81-4.45-0.46-6.67c1.76-11.13,4.26-22.07,8.31-32.59c0.23-0.17,0.45-0.35,0.68-0.52c0.62,0.26,1.1,0.75,1.24,1.36
		c1.09,5,4.62,6.9,9.04,7.96c2.41,0.58,4.88,1.44,6.87,2.97c2.56,1.98,4.3,1.81,6.1-0.99c0.86-1.34,2.03-3.24,4.17-1.56
		c-0.56,2.73-2.02,5.15-2.58,7.88c-0.38,2.16-1.19,4.11-2.6,5.78c-4.67,3.49-5.42,8.07-3.96,13.58c1.19,4.48,0.84,9.37,3.19,13.57
		c1.36,3.64,3.83,6.1,7.21,7.83c1.95,1,4.19,1.74,5.88,4.62C717.85,747.38,711.55,748.07,705.2,747.18z"/>
	<path class="st24" d="M716.99,693.77c-0.32,0.2-0.8,0.32-0.94,0.61c-3.06,6.57-7.22,5.92-12.21,2.31c-1.78-1.29-4.13-1.8-6.28-2.48
		c-5.77-1.83-6.93-3.28-7.53-9.86c6.14-7.85,10.9-16.53,14.7-25.81c0.68-1.66,2.1-2.83,4.08-3.96c2.92,12.16,9.75,22.89,10.22,35.66
		C718.9,691.76,718.96,693.39,716.99,693.77z"/>
	<path class="st25" d="M1107.89,716.33c1.2-5.37-0.2-10.66-0.56-15.97c-0.42-6.25-1.2-12.47-1.82-18.71
		c8.46-0.04,16.92-0.09,25.37-0.13c-2.14,10.06-4.28,20.12-6.43,30.18c-0.97,3.7-1.94,7.4-1.78,11.98
		c-2.65-2.83-3.22-7.21-7.37-7.37c-4.35-0.18-5.83,3.09-7.42,6.54C1107.89,720.68,1107.89,718.5,1107.89,716.33z"/>
	<path class="st26" d="M689.35,684.88c-0.13,6.41-2.31,12.37-3.89,18.44c-1.79,6.87-2.83,13.85-3.96,20.82
		c-0.4-0.01-0.79-0.02-1.19-0.04c-5.95-6.41-12.62-12.01-18.94-18C671.99,700.84,681.11,693.48,689.35,684.88z"/>
	<path class="st27" d="M754.4,747.28c-2.31,0.43-3.57-0.25-4.32-2.83c-1.34-4.62-4.24-6.7-8.93-6.4c-5.9,0.39-10.08-2.06-13.09-7.11
		c-2.32-3.9-1.78-6.91,1.79-9.56c1.21-0.9,2.47-1.73,3.68-2.63c3.7-2.78,3.83-2.85,5.68,1.31c4.21,9.42,8.99,18.36,17.54,24.46
		c0.67,0.48,1.66,1.34,1.08,2.19C757.03,747.89,755.54,747.08,754.4,747.28z"/>
	<path class="st28" d="M854.5,675.13c-1.12,0.32-0.04,1.62-1.71,2.67c1.74-5.59-1.94-10.41,0.31-15.46
		c1.05-0.63,2.09-1.26,3.59-2.16C857.35,665.68,855.02,670.28,854.5,675.13z"/>
	<path class="st29" d="M855.32,686.8c0.02-1.11,0.04-2.22,0.06-3.33c3.3-0.71,3.7,1.55,3.59,3.97c-0.1,2.13-0.79,4.23-0.52,6.41
		c-0.47,0.54-0.94,1.51-1.42,1.52c-0.82,0-0.61-1.19-0.98-1.74C854.57,691.44,856.65,688.93,855.32,686.8z"/>
	<path class="st30" d="M711.51,734.92c-2.75-1.66-2.05-4.77-2.61-7.23c-0.91-3.97-1.78-8.01-1.66-12.17
		c0.11-3.73,1.87-6.2,5.04-7.76c-6.81,5.9-3.42,13.16-2.43,20.05C710.19,730.22,710.94,732.56,711.51,734.92z"/>
	<path class="st31" d="M723.73,682.68c0.78-1.85,1.47-3.75,2.34-5.55c2.92-6.01,3.49-12.39,3.02-18.96l-0.06,0.05
		c2.14,3.85,1.49,7.99,0.62,11.89c-1.03,4.61-2.81,9.04-5.52,12.96c-0.21,0.08-0.42,0.17-0.63,0.25
		C723.58,683.12,723.66,682.9,723.73,682.68z"/>
	<path class="st32" d="M716.99,693.77c0.68-1.18,1.36-2.35,2.03-3.53c1.57-2.52,3.14-5.04,4.71-7.56c0.08,0.19,0.21,0.32,0.39,0.4
		c-3.32,6.18-6.5,12.43-9.26,18.91C714.41,698.93,716.61,696.6,716.99,693.77z"/>
	<path class="st29" d="M861.16,700.83c0.27-2.69-3.66-3.96-2.21-7.04c1.54-1.66,2.59-1.99,2.47,0.95
		C861.32,696.77,861.24,698.8,861.16,700.83z"/>
	<path class="st5" d="M619.48,710c0.98-0.23,2.17,0.6,2.96-0.61c1.17-0.23,1.78,1.67,3.1,0.88c0.3,0.53,1.36,1.31-0.23,1.35
		C623.24,711.67,621.22,711.32,619.48,710z"/>
	<path class="st33" d="M745.28,711.26c1.32-1.93,2.57-2.29,4.68-3.12C748.4,710.02,747.17,710.44,745.28,711.26z"/>
	<path class="st34" d="M744.12,712.2c-1.12,0.64-2.23,1.28-3.35,1.92C741.46,712.67,742.51,711.91,744.12,712.2z"/>
	<path class="st5" d="M638.96,711c-1.48,0.93-2.96,0.93-4.43,0C636,710.99,637.48,710.99,638.96,711z"/>
	<path class="st31" d="M729.09,658.18c-0.81-0.96-0.81-2-0.05-3.99c0,1.93,0,2.99,0,4.04C729.04,658.23,729.09,658.18,729.09,658.18
		z"/>
	<path class="st35" d="M1033.98,367.82c4.93-15.16,8.17-30.76,11.25-46.4c1.89-0.97,2.91,1.91,4.82,1.12
		c2.3-0.96,4.14-2.36,5.11-4.79c6.47-16.17,13.09-32.28,17.66-49.19c1.24-4.59,2.87-9.08,6.87-12.1c1.47-1.11,2.31-2.6,2.08-4.65
		c-0.14-1.26-0.09-2.62,1.2-3.42c2.81,7.39,2.38,15.08,1.26,22.61c-3.09,20.89-6.82,41.67-11.09,62.33
		c-1.24,5.99-1.96,12.12-4.45,17.77c-2.99,0.29-4.19,3.1-6.11,4.82c-5.71,5.09-11.17,10.49-17.46,14.85
		c-1.12,0.78-2.41,1.35-3.68,1.83C1036.45,374.49,1034.56,373.26,1033.98,367.82z"/>
	<path class="st36" d="M1082.98,248.39c1.04,4.85-0.31,8.18-4.53,11.23c-2.3,1.66-3.4,5.67-4.21,8.84
		c-3.33,13.12-8.19,25.65-13.03,38.2c-1.43,3.7-3.43,7.15-4.34,11.09c-0.89,3.83-4.05,5.44-7.14,6.81c-2.75,1.23-2.6-2.66-4.49-3.14
		c1.06-9.44,1.99-18.89,3.21-28.31c1.47-11.33,2.25-22.75,4.33-34c0.91-4.93,2.18-9.74,4-14.39c0.25-1.01,1.04-1.69,1.44-2.61
		c2.75-2.26,5.5-4.52,8.25-6.78c4.09-0.36,8.38-2.18,11.93,1.64c-1.18,1.16,0.37,1.53,0.65,2.24c0.36,0.91,1.07,1.68,1.44,2.59
		C1081.37,243.97,1082.86,245.91,1082.98,248.39z"/>
	<path class="st37" d="M1009.36,644.58c-2.32-3.1,0.11-5.82,1.03-8.32c6.76-18.44,14.81-36.3,23.34-53.93
		c2.89-5.98,6.18-11.77,9.55-17.47c1.51-2.55,2.21-5.07,2.19-8.01c-0.06-13.69,0.07-27.39-0.05-41.08
		c-0.18-20.15,0.94-40.24,2.34-60.31c0.48-6.88,1.42-13.75,2.51-20.56c0.37-2.3,2.19-4.21,2.63-6.69c1.67-9.5,3.82-18.89,6.67-28.1
		c0.63-2.04,0.03-4.1,0.08-6.16c1.89-7.03,4.63-13.74,7.36-20.5c-1.51,9.8-2.58,19.69-4.61,29.37
		c-8.93,42.48-13.6,85.38-12.65,128.88c0.19,8.78-0.03,17.57,0,26.36c0.01,2.13-0.38,4.08-1.43,5.91
		c-14.17,24.7-25.29,50.97-36.93,76.96C1010.81,642.2,1010.03,643.37,1009.36,644.58z"/>
	<path class="st38" d="M1029.08,658.04c-1.08,0.47-1.69,1.29-1.8,2.5c-0.82,4.44-3.62,7.86-5.73,11.59
		c-7.37,12.97-14.98,25.79-21.81,39.08c-0.58,1.13-1.11,2.33-2.44,2.77c-0.66,1.26-1.33,2.52-2.08,3.95
		c-0.13-1.26-0.25-2.36-0.36-3.46c-2.69-4.32-1.52-8.92-0.03-13.02c2.36-6.48,2.84-12.53,0.34-19.14
		c-1.45-3.83-0.04-7.83,2.84-10.95c3.15-8.03,6.3-16.06,9.47-24.08c0.34-0.87,0.88-1.55,1.89-1.59
		C1016.21,649.34,1022.87,653.3,1029.08,658.04z"/>
	<path class="st39" d="M1027.83,441.01c-2.7,0.04-3.15-1.26-2.25-3.69c2.41-6.48,4.72-13,7.07-19.5c5.71,2.06,11.41,4.11,17.11,6.17
		c-0.16,7.99-2.01,15.79-2.53,23.75c-0.16,2.51-0.48,5.01-0.75,7.8c-1.4-1.97-1.4-1.97-2.65-0.19c-1.21-2.86-0.17-5.93-1.06-9.19
		c-0.85,3.21,0.26,6.33-1.12,9.53c-2.4-2.75-1.08-5.82-1.99-8.88c-1.59,2.9-0.45,5.69-0.91,8.95c-2.16-3.79-0.06-7.56-1.59-10.73
		C1032.89,446.05,1030.64,445.08,1027.83,441.01z"/>
	<path class="st40" d="M1103.81,662.79c-1.07-0.7-1.37-1.76-1.36-3c0.03-5.68-0.38-11.41,0.16-17.04
		c0.85-8.84,1.02-17.71,1.91-26.55c0.95-9.47,2.36-18.88,3.45-28.32c1.01-8.72-0.21-17.22-0.61-25.82
		c-0.36-7.59-0.75-15.17-1.05-22.76c-0.03-0.84,0.45-1.71,0.7-2.57c1.27,6.09,0.41,12.33,1.24,18.47
		c0.81,5.99,0.73,12.12,1.82,18.04c1.46,7.9-0.71,15.36-1.76,22.93c-2.98,21.59-4.77,43.25-4.38,65.08
		C1103.92,661.76,1103.85,662.28,1103.81,662.79z"/>
	<path class="st41" d="M939.56,497.23c2.68,6.64,2.92,13.54,2.08,20.57c-0.62-0.95-1.11-2.03-1.89-2.82
		c-2.36-2.4-4.57-4.32-3.55-8.7C936.96,503.01,937.31,499.83,939.56,497.23z"/>
	<path class="st42" d="M897.5,465.18c5.11,5.49-0.84,10.48-0.73,15.77C895.45,475.65,900.83,470.58,897.5,465.18z"/>
	<path class="st43" d="M895.57,463.27c-4.1-1.39-4.14-1.67-0.77-5.19c0.63,1.4-1.06,1.8-1.1,2.89
		C893.66,462.31,895.47,462.02,895.57,463.27z"/>
	<path class="st44" d="M899.02,483.67c0.97,2.99,1.62,5,1.26,7.6C898.77,489.01,898.7,486.9,899.02,483.67z"/>
	<path class="st14" d="M1067.93,233.96c-1.57-2.24-1.96-4.98-2.88-7.49c-0.64-1.74-1.27-2.15-2.98-1.37
		c-1.57,0.73-3.31,1.11-5.01,1.43c-1.94,0.36-3.78-0.45-4.15-2.4c-0.53-2.76-1.59-4.98-3.08-7.34c-0.92-1.46-1.01-3.07-3.07-3.82
		c-1.45-0.54-1.52-2.71-1.35-4.16c0.91-7.98-2.75-15.05-4.12-22.55c-0.71-3.85-0.75-7.28,1.08-10.69c5.74,0.69,8.77,5.51,12.66,8.98
		c1.41,1.26,2.53,2.86,3.85,4.22c1.4,1.44,2.28,3.21,4.84,0.65c1.98-1.98,3.52,0.79,3.94,2.84c0.71,3.47-0.33,6.85-1.16,10.19
		c-0.53,2.11-1.49,4.15,1.48,5.28c1.34,0.51,1.4,2,1.39,3.33c-0.02,2.32,0.01,4.65-0.05,6.97c-0.09,3.13,0.78,5.82,3.16,7.89
		c2.41,2.1,4.13,4.77,5.8,7.48c-0.18,0.3-0.36,0.59-0.55,0.89C1074.54,231.83,1071.22,233.43,1067.93,233.96z"/>
	<path class="st45" d="M1058.21,242.1c-0.05,1.12-0.45,2.04-1.44,2.61c-0.29,0.01-0.59,0.03-0.89,0.04
		C1056.38,243.61,1057.19,242.75,1058.21,242.1z"/>
	<path class="st46" d="M997.29,713.98c3.16-8.41,7.89-15.97,12.22-23.73c5.02-9.01,10.26-17.89,15.41-26.81
		c0.63-1.09,1.11-2.32,2.35-2.9c1.12,2.69,3.4,4.42,5.19,6.54c7.59,8.98,12.54,19.39,15.95,30.67
		c-9.78,9.02-19.56,18.04-29.33,27.06c-0.48-0.11-1.08-0.46-1.43-0.29c-5.67,2.78-10.3-2.2-15.6-2.22
		c-1.94-0.01-3.06-1.64-3.18-3.65C998.75,716.92,997.99,715.48,997.29,713.98z"/>
	<path class="st47" d="M998,671.36c-0.39,2.39-0.4,4.93-1.74,7.01c-0.91,1.42-0.2,2.44,0.29,3.57c2.6,6.01,3.16,11.91,0.24,18.12
		c-2.1,4.46-1.96,9.5-1.95,14.4c-0.74,3.9-0.08,7.94-1.38,11.79c-1.89,5.62-4.88,10.4-9.67,13.79c-7.97,5.64-17.73,0.88-18.77-9.09
		c-0.51-4.83,0.43-9.42,2.1-13.89c2.29-4.76,4.59-9.53,6.88-14.29c3.83-6.82,5.46-14.38,7.14-21.95c0.56-2.54,0.8-5.33,3.03-7.16
		c1.99-2.74,4.7-3.11,7.71-2.48C993.89,672.44,996.02,669.52,998,671.36z"/>
	<path class="st48" d="M984.18,673.65c-2.76,5.35-3.24,11.4-4.84,17.1c-1.2,4.28-2.67,8.43-5.33,12.01
		c1.7-5.85,4.63-11.27,5.53-17.42c0.46-3.16,1.37-6.24,2.08-9.36C982.43,675.18,982.41,673.36,984.18,673.65z"/>
	<path class="st49" d="M1027.83,441.01c2.74,2.27,6.12,2.93,9.34,4.02c0,3.33,0,6.66,0,10.74c-1.4-1.07-1.89-3.23-3.69-0.85
		c-1.04,1.37-1.39-1.69-2.01-2.8c-0.4,0.92-0.79,1.83-1.49,3.46c-0.57-2.39-0.99-4.13-1.61-6.73c-0.17,2.28-0.27,3.7-0.4,5.44
		c-1.23-1.61-0.17-3.31-1.21-4.96c-0.16,1.75-0.29,3.2-0.51,5.65c-1.05-4.61,0.25-8.05,0.41-11.64c1.27,0.67,0.24,2,1.16,2.9
		C1027.83,444.37,1027.83,442.69,1027.83,441.01z"/>
</g>
</svg>
