<svg xmlns="http://www.w3.org/2000/svg" viewBox="0 0 754.04 603.78"><defs><style>.cls-1{fill:#3c2b4e;}.cls-2{fill:#38284b;}.cls-3{fill:#fbc22b;}.cls-4{fill:#528b8c;}.cls-5{fill:#51898c;}.cls-6{fill:#467b82;}.cls-7{fill:#fb7c64;}.cls-8{fill:#fa9f51;}.cls-9{fill:#fab63a;}.cls-10{fill:#a442e9;}.cls-11{fill:#fa6374;}.cls-12{fill:#a078d1;}.cls-13{fill:#fdc81f;}.cls-14{fill:#c55dc0;}.cls-15{fill:#fbfbfb;}.cls-16{fill:#f2d96a;}.cls-17{fill:#498086;}.cls-18{fill:#f9966b;}.cls-19{fill:#f9af48;}.cls-20{fill:#faa35d;}.cls-21{fill:#f9b147;}.cls-22{fill:#f77e79;}.cls-23{fill:#f98476;}.cls-24{fill:#f99769;}.cls-25{fill:#f7ab50;}.cls-26{fill:#fafafb;}.cls-27{fill:#d5cbcc;}.cls-28{fill:#f68a72;}.cls-29{fill:#ebdbc1;}.cls-30{fill:#efc9a2;}.cls-31{fill:#e5d5cd;}.cls-32{fill:#c9bdc0;}.cls-33{fill:#ddd7d3;}.cls-34{fill:#b8adbd;}.cls-35{fill:#d1c9d3;}.cls-36{fill:#8385db;}.cls-37{fill:#7183dd;}.cls-38{fill:#fbd868;}.cls-39{fill:#fafbfb;}.cls-40{fill:#a941df;}.cls-41{fill:#f4df91;}.cls-42{fill:#f4bc38;}.cls-43{fill:#c6a37e;}.cls-44{fill:#e1d0ba;}.cls-45{fill:#d5b991;}.cls-46{fill:#d4cbcb;}.cls-47{fill:#f9a05f;}.cls-48{fill:#39294c;}.cls-49{fill:#ded9d0;}.cls-50{fill:#a479b7;}</style></defs><title>资源 1</title><g id="图层_2" data-name="图层 2"><g id="图层_1-2" data-name="图层 1"><path class="cls-1" d="M673.77,600c2.62.2,5.23.6,7.85.58,22.77-.1,45.54-.29,68.32-.39,1.53,0,4.15-1.06,4.1,1.74,0,2.33-2.54,1.54-4,1.55q-40.17.18-80.34.21-135.33,0-270.67-.12-119,0-238,.18-77.71,0-155.42-.24a20.1,20.1,0,0,1-4.11-.25c-1.78-.36-2-1.31-.49-2.5,1.46-.53,3-.26,4.47-.26q67.57,0,135.17,0c4.07,0,8.12.29,12.21-1,3.28-1,6.88-1.05,10.41-1,16.9.07,33.79,0,50.69.07,7.36,0,14.7,1.3,22.07.57,5.42-1.08,10.92-.12,17.09-.64-4.93-2.69-9.1-5.52-10.71-10.85-.65-3.65-1.28-7.3-2.16-10.89-1.41-5.81-1.72-11.39,2.7-16.14a25.5,25.5,0,0,0,3.32-6.54c2.42-6.68,6.71-12.26,10-18.41,4.09-7.67,7.12-15.59,5.21-24.62a3.35,3.35,0,0,1-.13-3.08c0-.19.56.43.09.25-.2-.08-.29,0-.31.19a3.91,3.91,0,0,0,.65,3.18c1.18,8.59-1.26,16.32-5.24,23.68-1.76,2.49-2.65,5.58-4.91,7.74-2.38-.59-1.9-2.72-2.15-4.38-1.47-9.91-6.38-18.58-9.13-28.88-4.07,4.85-5.36,10.21-8,14.79a105.41,105.41,0,0,1-9,13.3,10.87,10.87,0,0,1-1.2,1.15,92.52,92.52,0,0,1-28.69,21.43c-7.12,3.1-14.45,5.22-22.27,4.89a8.94,8.94,0,0,0-4.27,0c-2.82,0-5.66.21-8.36-.92a8.7,8.7,0,0,1-4.27-.95,24.4,24.4,0,0,1-15.74-10.14c-2.74-3.8-6.64-6.62-9.17-10.64-1.08-1.72-3.57-3.29-.86-5.73.35-.31-.52-.43-.82-.64a17.1,17.1,0,0,1-6.21-8c-.53-1.39-1.25-3,.37-4.21,1.29-.92,0-1.2-.28-1.66-1.83-2.89-3.24-5.77-1.39-9.31.82-1.57-.11-3.28-.23-4.92-.24-3-1.35-6.14.91-8.89.19-2.3.11-4.64,1.22-7.13,3.19,15.33,12.16,25.86,24.8,33.38,19.17,11.42,38.59,7.27,54.64-5.78,7.09-5.77,12.09-13.31,17.05-20.9,6.13-9.38,11.65-19.2,19.12-27.61a31.07,31.07,0,0,0,2.67-4.16,5.35,5.35,0,0,1,1.6-3.42c7.58-7.35,13.28-16.46,21-23.71,5.57-5.25,12.19-8.59,18.93-11.64,23.5-10.59,47.07-21,70.24-32.33,12-5.84,22.37-14.13,33.23-21.74,1.55-1.08,2.9-2.6,4.64-3.24,4.63-1.69,7.15-5.22,9.15-9.61,2.35-5.15,3.75-5.44,8.32-2.34,13.17,8.92,27.69,14.82,42.34,20.46,4.79,1.85,9.72,3.3,14.57,5a6.6,6.6,0,0,1,4.25,3.5c3.23,7.22,5.63,14.65,5.09,22.75a12.51,12.51,0,0,1-4.3,8.77,6.14,6.14,0,0,0-2.1,6.21A90.73,90.73,0,0,1,468.47,436c.4,4.9.4,9.88-3.88,13.45-.83.69-.41,1.69-.36,2.55.32,5.45-.33,10.52-4.21,14.76-1.7,1.87-1.18,4.67-2,7a19,19,0,0,1-1.71,4.28c-.27.44-.68,1.11-1,1.09-3.46-.18-2.57,2.52-3,4.48a26.18,26.18,0,0,1-9.09,15.78,62.3,62.3,0,0,0-10.79,12.67,58.93,58.93,0,0,0-.19,21.43,21.3,21.3,0,0,1,.45,3.81c-.31,13.17,1.84,26.15,2.75,39.22a24.5,24.5,0,0,0,1.25,5.25c1.88,4.05,3.91,7.52,9.24,7.68s10.43,1.86,12.77,7.82c.67,1.71,2.17,2,3.74,2,19.53,0,39.05.11,58.58-.06,2.1,0,4.19-.91,6.32-.18,8.6.28,17.21.77,25.8-.31a35.66,35.66,0,0,1,4.5-.19c17,0,34,0,51,0,4.85,0,9.62,1.35,14.55.2,2.49-.58,4-1.56,5.09-3.86,3.53-7.73,6.48-15.66,7.85-24.13a16.82,16.82,0,0,1,.72-3c.52-1.46,1-3.35,2.77-3.14s1.21,2.24,1.63,3.5a7.15,7.15,0,0,1-.89,4.92c3.58-6.33,8.16-6.5,13.17-1.22,1.13-2.47.34-5.74,3-7.54,2.27.36,2.65,2.33,2.71,4,.26,7.24,3.16,13.65,5.63,20.21a35.91,35.91,0,0,1,1.62,4.29C667.51,596.79,669.28,599.81,673.77,600Z"/><path class="cls-2" d="M692.41,255.15a112.72,112.72,0,0,1,4,39.37c-.79,11.71-2.39,23.32-4,34.92-2.27,16.17-4.8,32.29-7.23,48.44q-3.57,23.83-7.15,47.67c-1.26,8.42-2.15,16.8-1.55,25.4,1.18,17-1.82,33.63-5.16,50.18-.61,3-1.23,6-1.84,9a4,4,0,0,1,.58,3.64c-1.36,5.7-2.17,11.53-3.77,17.17-.53,1.87-1.23,3.65-3.31,4.27-8.36.81-16.72,1.27-25.06-.22-1.94-1.21-2.33-3.18-2.34-5.29,0-3.83-.07-7.66-.45-11.47a13.24,13.24,0,0,1-.17-2.88c.56-4.11.25-8.24.25-12.37,0-16.11,1.56-32.09,3.58-48.05.84-6.63,1.59-13.27,3.09-19.8.68-3-.36-5.88-.71-8.79-1.4-11.88-2-23.81-2.69-35.73a5.16,5.16,0,0,1-.43-1.47c-.53-13.16,0-26.33-.72-39.49a86.73,86.73,0,0,1,.62-12.14c-.17,13.92-2.76,28.9-5.4,43.84-4.5,25.54-12.71,49.58-26.8,71.39q-18.57,28.73-39.57,55.54c-1.17,1.49-2.24,3.18-4.39,3.32-7.2-3.89-14.56-7.5-20.65-13.24a3.06,3.06,0,0,1,0-1.87c6.9-16.17,13.91-32.29,21.37-48.2,5-10.57,10.55-20.82,16.1-31.08a17.17,17.17,0,0,0,2.12-8.48c0-12.92.08-25.84,0-38.76A490.49,490.49,0,0,1,590,272.73c2.41-12.51,4.31-25.12,6.88-37.6.31-1.52.71-3,1.15-4.48a126.4,126.4,0,0,1-4.74,16.54c-3.75,7.73-5.62,16.14-8.26,24.28-.63,1.93-.79,4.08-2.41,5.54a3.43,3.43,0,0,1-3.21.47c-4.89-1.76-9.91-3.21-14.43-6a3.4,3.4,0,0,1-.62-1c-.56-2.7,1.24-4.47,2.38-6.52s3.08-3.61,3.9-5.92c7.2-11.35,14.11-22.89,20.34-34.84a144.64,144.64,0,0,0,9.13-20.31c5.43-22.14,9.14-44.63,12.92-67.11,1.07-6.35,2.18-12.7,2.62-19.12.33-4.85.34-9.77-1.43-14.45a39.83,39.83,0,0,0-3.53-8.41c-.69-1.38-1.91-2.88-.19-4.43,2.19-.28,3,1.54,4,2.92,3.4,4.44,6,9.47,9.76,13.68,4.88,5.47,10.31,10.13,17.35,12.37,6.6,2.21,13.28,3,20.13,1.33,1.79-.44,3.62-1.1,5.43,0,1.48,3.93,1.46,8.08,1.19,12.15-.72,11-.8,22.14-2.09,33.13-1.41,12.12-.8,24.5-4.13,36.38-.52,1.83.61,2.89,1.5,4.11,7.54,10.28,14.88,20.71,21.55,31.63C688.65,242.7,691.86,248.36,692.41,255.15Z"/><path class="cls-3" d="M455.28,477.56a23.37,23.37,0,0,0,2.21-9.28c0-.74-.19-1.67.57-2.11,4.74-2.74,4.71-7.46,4.78-12.14,0-2.06,0-4.12,0-6.27,1.14,1,2.08,1.11,2.86-1,2.28-6.09,1.13-12.23.67-18.38-.15-1.93-.37-3.85-.5-5.78-.07-1-.08-2,.93-2.74,7.69-5.36,6.48-12.92,4.51-20.48-1-3.84-2.8-7.45-3.84-11.28-.61-2.23-2.3-2.26-3.7-2.69a271.89,271.89,0,0,1-44.44-18.13,141.43,141.43,0,0,1-14.17-8.6c-2.07-1.39-3-1-3.7,1.15-.34,1-.89,1.84-1.31,2.77a18,18,0,0,1-8.25,9.18c-7.33,4-14,9.37-20.8,14.44-11.33,8.5-24.23,13.86-36.81,19.79q-26.39,12.42-53.13,24.05c-11.69,5.07-20.75,13.2-28.27,23.45-3.65,5-8.15,9.07-12.4,13.43-.84-4.73,1.39-8.77,3-12.81,10.21-25.44,26.16-45.83,49.75-59.36a40.37,40.37,0,0,1,10.45-4.18c6.64-1.64,9.66-6,10.51-12.78,2.91-23,15.2-39.85,33.89-51.65s38.95-14.8,60.29-10.89c2.87.53,6.31-.34,8.59,2.54,1,2-.29,3.46-1.12,5-2.66,4.87-6.34,8.95-9.74,13.25-3.25,4.1-3.33,5.52-.37,9.93,1.11,1.66,1.55,3.32.71,5.08-1.57,3.29-.2,5.14,2.45,7,11.52,8,24.26,13.34,37.13,18.4a133,133,0,0,0,16.72,5.75c2.55.63,3.92.21,4.62-2.67,1-4,2-4.5,6.27-4.05,2.22,3.85,1.5,8.26,1.71,12.35.3,6,1.17,12.05,1,18.12-.1,3.24,1.64,5.51,3.7,7.72,8.77,9.42,16.68,19.54,22.49,31.24,1.53,3.1,3.17,6.16,3.81,9.64,2,8,3.63,16,5.19,24.07a61.6,61.6,0,0,1,.7,16.55c-.34,4.38-2.63,6.31-7,6.43-3.87.1-7.76.23-11.51-1.08a10.22,10.22,0,0,0-4.46-.35c-10.48,1.06-20.93,1.5-31.24-1.45a10.79,10.79,0,0,0-2.61-.16c-5-.16-6.68-2.6-5.08-7.6.83-2.57,1.75-5.08,1.54-7.86a2.27,2.27,0,0,1,1.25-2.56C454.49,480,454.75,478.7,455.28,477.56Z"/><path class="cls-1" d="M473.39,375.33c-.27.27-.52.73-.82.77-3.39.41-4.22,2.79-4.23,5.79,0,2.47-1.17,3-3.34,2.42-20.7-6-40.6-13.93-58.68-26.23-2.56-1.74-3.35-3.51-1.71-6.27,1.28-2.16,1.36-3.82-.75-5.92-2.93-2.92-2.61-6.39.45-10,4.77-5.63,9.45-11.29,12.67-18.06,3.42-4.65,5.07-10.24,7.65-15.34,3.55-7,7.76-13.2,15.93-15.09,1.33-.3,2.42-1.75,3.59-2.69a26,26,0,0,1,16.73-5.61c3.7,0,6.44,2.29,8.94,5,6.77,7.31,4.94,6.95,14.07,2.89,6.14-2.74,12.2-5.68,18.3-8.54,5.13-2.4,7.25-1,7.14,4.8a61.26,61.26,0,0,1-.77,6.86c-.3,2.25-.69,4.49-1.07,6.93,4-.41,6.94-3.08,10.22-5a17,17,0,0,1,4.73-4.23c1.87-1.2,3.85-2.7,4.4,1.22.22,1.54,1.25.82,2,.76,1.79-.14,3.51-.18,4.31,2,.22,2.44-1.28,3.72-3,4.88a16.74,16.74,0,0,1-10.78,2.48c-4.52-.32-7.32,2.77-10.39,5.35-1.16,1-.67,2.41-.52,3.64.77,6.25-2.15,10.31-7.19,13.16a44.31,44.31,0,0,1-10.91,4c-6.48,1.67-10.68,5.48-12.59,12.28a75.15,75.15,0,0,1-4.87,13c-1,1.77-2.19,3.49-2.46,5.53-.49,3.76-1.28,7.6,2.41,10.47,1.13.88,1.5,2.6,2.17,4C475.35,372.43,475.5,374.29,473.39,375.33Z"/><path class="cls-4" d="M663.24,534.33c2.51-4.37,2.57-9.45,3.82-14.18.87-3.31,1.59-6.66,2.37-10a190.22,190.22,0,0,1,58-13.7c11.75-1,18.95,2.83,13.29,17.47-9.9,25.66-23.41,48.93-42.59,68.39A97.57,97.57,0,0,1,673.77,600c-5.1,1.65-5.67,1.32-7.39-3.5-1.55-4.32-3.39-8.52-4.88-12.86-1.68-4.92-3.91-9.72-3.53-15.18a6.18,6.18,0,0,0-1.16-4c-1.44-1.41-.85-3.09-.47-4.66,1.61-6.71,2.84-13.5,4.15-20.28C660.88,537.54,661.39,535.54,663.24,534.33Z"/><path class="cls-5" d="M157.91,563.07l9,.73a8,8,0,0,0,4.43,0c7.87.3,15.13-2.35,22.41-4.89a5.46,5.46,0,0,1,2.48.83c5.68,4.61,11.33,9.25,15.91,15.09a3,3,0,0,1,.79,2.85c-1.63,2.66-3.93,1.76-6,1-4.83-1.74-9.6-3.52-14.72-4.27a70.56,70.56,0,0,0-22.7.35,22,22,0,0,1-8.16.05,15.87,15.87,0,0,0-6.33,0,25,25,0,0,1-8.53-.16c-5.16-.7-10.38-.86-15.57-1.31-3.27-.29-6.45,1.69-9,4-.74.67-1.23,1.62-2.32,1.8-15-14.54-27.5-31-34.39-51.25-4.34-12.77,3.71-16.58,13.7-15.75,8.08.67,14.47,5.16,19.93,11.13,1.22.39,1.61,1.43,2,2.54,2.59,6.68,5.64,13.18,10.2,18.61,4.82,5.75,9,12.23,16,15.79,1.7.86,3.43,1.22,5.1,1.92C154.05,562.45,155.68,564.8,157.91,563.07Z"/><path class="cls-6" d="M119.53,579.18c1.55-4.56,8.44-8.15,13.34-7.48,7.66,1,15.39,1.2,23.1,1.6,10.5.55,20.76-2,31.19-1.13a67.5,67.5,0,0,1,20.92,5.28c1.52.65,3.31,1.77,4.6-.54a1.55,1.55,0,0,1,1.48-.59c3.77,1.73,6.07,5.29,9.1,7.94,4.18,3.67,8.3,7.47,12.19,11.48,1.11,1.15,2.53,2.24,2.11,4.25-4.9,1.59-10,1.14-14.89.7-8.88-.8-17.74-.43-26.61-.51-11.75-.11-23.51-.24-35.26.06-53.27,1.35-106.53.14-159.79.55,1.32-1.13,2.88-.59,4.33-.59q70.85,0,141.68,0a7.35,7.35,0,0,0,2.6-.33A94.93,94.93,0,0,1,119.53,579.18Z"/><path class="cls-7" d="M640.56,119.33c-7.1-2.13-12.47-6.81-17.17-12.47a4.75,4.75,0,0,1-.29-3c2.88-11,2.88-22.38,5-33.44,1.75-9,1.28-18.22,3.24-27.16.85-3.9.1-8,1.07-11.92.34-1.37.31-2.84,1.65-3.71a70.77,70.77,0,0,0,15.78,19.22A21.77,21.77,0,0,1,657,60a45.72,45.72,0,0,0,2.8,9.52c-2.5,2.82-2.88,6.26-3.28,9.94-1.15,10.62-2.33,21.26-5,31.62C650.05,116.79,646,119.65,640.56,119.33Z"/><path class="cls-8" d="M634.09,27.61c-.41,9.24-1.79,18.38-2.6,27.57-.55,6.24-1.5,12.43-2,18.67s-2.53,12-2.64,18.25c-.09,5.14-.64,10.26-3.47,14.76-4.65-4.41-7.13-10.51-11.18-15.38-.48-.58-1-1.14-1.45-1.71-3.93-1-8.08.14-12-1.29-.59-1.22.24-1.84,1-2.49a13.88,13.88,0,0,1,7.28-1.36c1,.06,2,.53,2.76-.55a67.3,67.3,0,0,0,.91-24.9,14.7,14.7,0,0,0-.24-2.3c-2.85-9.53-3.67-19.36-4.3-29.25-.22-3.59-.87-7.15-.68-10.78.14-2.59.22-5.37,1.63-7.46C609,6.63,610,3.91,609.27.6c8.45,1.41,14,6.88,18.34,14A64.22,64.22,0,0,1,634.09,27.61Z"/><path class="cls-9" d="M609.27.6c3.36,3.79,3.33,4.16,0,7.82-2.14,2.36-1.92,5.47-2.24,8.35a37.1,37.1,0,0,0,.79,11.12c.9,4.63.21,9.33,1.15,14,.68,3.44,1.12,7,2,10.49a73,73,0,0,1,1.95,21.77c-.22,4-1.48,8-2.27,12-5.84-4.48-10.93-9.37-10.39-17.86.19-2.92.4-5.91-2.22-8.21-1.35-1.18-1-3.08-.6-4.76A37.3,37.3,0,0,0,598.67,47c0-2-.38-3.81-3.09-2.72-2.07.83-3.62-.3-5-1.66-2-1.92-3.92-4-5.87-6A44.5,44.5,0,0,0,574.82,29c0-1.09.64-2.52,2.87-6-1.65-1.16-4.79.18-5.16-3.11.07-.11.11-.27.21-.32,7.28-3.94,12.82-10.14,19.1-15.39C596.74.14,603-.78,609.27.6Z"/><path class="cls-10" d="M692.41,255.15c-7.15-18.27-19.14-33.38-30.26-49-1.69-2.38-2.57-4.1-.94-7.12,1.82-3.38,1.41-7.53,1.71-11.37,1.76-22.51,4.19-45,3.94-67.61.17-1,.63-1.31,1.49-.67,2.58,13.12,3.74,26.45,5.38,39.71,2.1,17,6.43,33.47,10.24,50.08,3,13,6.29,25.9,8.34,39.09A48.46,48.46,0,0,1,692.41,255.15Z"/><path class="cls-11" d="M668.35,119.34l-1.49.67c-8.84,2.75-17.62,3.22-26.29-.68,6-1.51,8.83-5.4,10.23-11.71,1.82-8.18,2-16.58,4-24.69.8-3.23,0-6.65.87-10,.64-2.42,1.68-3.62,4.09-3.44,3.12,4.07,7.35,6.31,12,7.94,5.1,1.79,9.38,4.78,12,9.77,5.57,10.43,1.6,22.5-9.51,29C672.38,117.33,670.34,118.3,668.35,119.34Z"/><path class="cls-12" d="M601.06,203.91c-2.29,7.53-6,14.4-9.57,21.3a365,365,0,0,1-19.81,33.63,18.11,18.11,0,0,1-12.58,3.91c-3.12-.16-6.21.55-9.31.33-1.41-.1-3,.22-4.19-1.13q1.41-2.52,2.84-5c6.12-11.14,11.86-22.46,16.25-34.46.3-.81.5-1.78,1.62-1.85a2.76,2.76,0,0,1,1.49,1.63c1.16,2.59,3.1,2.65,5.32,1.8a31.37,31.37,0,0,0,10.28-6.86c4.57-4.34,9.59-8.16,14-12.73C598.24,203.57,599.49,201.48,601.06,203.91Z"/><path class="cls-13" d="M572.53,19.93c1.19.92,2.31,1.86,4,1.12,1.21-.53,2.6-.45,3.1,1.06a3.06,3.06,0,0,1-1.46,3.59c-1.25.78-2.73,1.18-3.45,2.67a6.94,6.94,0,0,1,.26,3c-.84,5.12.3,10.05,1.9,14.76a36.87,36.87,0,0,1,2.34,13.57,7.16,7.16,0,0,0,2.29,5.76A18.58,18.58,0,0,1,586,74.15c.68,2.91,2.1,3.87,4.8,3.28.73-.16,1.48-.23,2.19-.46,3.06-1,5.15.2,6.23,3.19.76,2.11,2.17,4.16,1.07,6.61l-1.46,1.36c-1.23,3.87-5.11,5-7.46,7.72a10.47,10.47,0,0,1-2.59,1.68l-.51,0c-7-1.87-14.17-11.11-14.3-18.53A24.89,24.89,0,0,1,575,71.39c1.57-5.11,1-9-3.53-12.84-8.45-7.33-10.7-21.82-5.9-32.06C567.05,23.4,569.19,20.94,572.53,19.93Z"/><path class="cls-14" d="M545.6,262c3.24-1.08,6.68-.77,9.9-.6,5.65.31,10.8-1.65,16.18-2.51-1.9,4.12-5.46,7.2-6.82,11.66-4.11,5.83-8.71,11.27-12.72,17.18-1.59,2.34-3.71,2.67-5.85,1-3-2.29-5.42-1.53-8.06.68-1.54,1.28-3,3.32-5.55,2.26-1.54-1.41-3.19-.74-4.78-.17-.94.34-1.51,2.14-2.78,1s.29-2.26.47-3.4c.08-.49.06-1,.12-2a30.84,30.84,0,0,1-8,4.94c2.64-5.07,5.46-9.51,10.9-12.44,5.8-3.11,9.71-9.09,14.24-14C543.86,264.47,544.68,263.17,545.6,262Z"/><path class="cls-15" d="M566.35,220.63c-3.66,8.43-6.81,17.12-11.2,25.19-2.07,3.8-3.8,7.84-6.71,11.11.13-2.75,1.95-4.69,3.14-6.93A219.82,219.82,0,0,0,574,185.45c1.08-6.07,2.51-12.07,3.3-18.21a6.38,6.38,0,0,0-1.49-5.53c-3.39-4.2-6-8.83-6.37-14.54a19.24,19.24,0,0,1,3.18-11.75C579,125.8,583,115.19,585.85,104a61.54,61.54,0,0,1,2.42-6.47h0a.69.69,0,0,1,1.09.26c.91,2.13-.11,4.1-.67,6-2.87,9.68-3.61,19.72-4.86,29.66-1.69,13.52-2.57,27.15-4.89,40.6-1.5,6.21-2.1,12.61-3.47,18.85-1.76,8-4,15.92-6.43,23.75C568.54,218.24,568.09,219.93,566.35,220.63Z"/><path class="cls-16" d="M151.84,562.81c-6.42-1.2-11.63-5-15.55-9.87-5.08-6.23-10.55-12.31-13.88-20a81.6,81.6,0,0,1-3.64-9.67c.54-4.83-1.94-9.26-1.61-14.11.26-4,0-8,2.24-11.66,1.13-.24.8,1.35,1.58,1.64.08,4.51,0,9,1.4,13.38.19.64,1.26,2.47-1.26,2-1.91-.39-.83,1.45-.68,2a15.33,15.33,0,0,0,6,8.77c-1.92.75-3-.69-4.74-1.1,1.18,7.18,6.76,10.68,11.49,15.35-2.27-.17-3.41-1.72-5.51-2.48a38.85,38.85,0,0,0,7.57,10.65,60.13,60.13,0,0,1,6.08,7c3.14,4.39,8.11,6.7,13.5,7.5C154.14,564.05,153,563.37,151.84,562.81Z"/><path class="cls-17" d="M636.22,517.77c1.27,3.59.74,7.34.86,11,.06,1.92,0,3.85.79,5.66,1.92,1.7,1.81,4.18,2.12,6.4,1.06,7.64,1.49,15.36,2.21,23,.19,2,.52,4.22-2,5.24-.16-1.24-.31-2.48-.54-4.3-1.74,3.22-2,6.35-2.48,9.28-1.52,8.48-5,16.16-8.56,23.83-.48,1-1,2.11-2.37,2.15-4.23.14-8.42,1.31-12.69.4a19.34,19.34,0,0,0-4.1-.31c-17,0-34-.33-51,.09-9,.23-18,.53-27,.52-1.45,0-3,.43-4.22-1-.89-2.68,1.24-3.67,2.73-4.78,7.33-5.53,13.7-12.19,20.61-18.21,9.61-9.4,19.29-18.72,29.62-27.29,14.79-12.87,30.84-23.62,48.89-31C631.37,517.67,633.66,516,636.22,517.77Z"/><path class="cls-18" d="M293.89,583c-5.52-6.34-6.11-13.78-4.32-21.63a8.9,8.9,0,0,1,3.56-5.74c7.37-4.58,14.05-10.11,20.79-15.58,2.72,3.89,6.4,3.8,10.35,2.69a31.14,31.14,0,0,1,8.55-.9c12.13,0,24.26.31,36.35-.87,4.57-.44,9.26-.23,13.71-1.79a9.08,9.08,0,0,1,4.08-.28c2.38.32,2.25,2.06,2.37,4,.08,1.29-1,3.38,1.48,3.77.16,0,.33,0,.5-.06,2,1.91,1.94,4.54,2.21,7a20.41,20.41,0,0,0-.33,9.89c.72,2.8,3.6,5,1.75,8.45a16.65,16.65,0,0,0,1.73,1.26c.58,4.85-1.8,8-6.45,8.28s-9.22.36-13.83.67c-20.19,1.35-40.41,2.39-60.65,1.62-6.59-.26-13.16-.74-19.75-.09A2.91,2.91,0,0,1,293.89,583Z"/><path class="cls-19" d="M455.28,477.56c0,.51.11,1.21-.16,1.51-3.73,4.28-1.87,10.12-3.93,14.88-.92,2.13.69,3.57,2.42,3.2,4.43-1,8.32,1.28,12.51,1.66a103,103,0,0,0,21.21-.06c2.36-.27,4.79-.68,7,.23,4.13,1.66,8.4,1.11,12.6,1,3.61-.08,3.72-3.21,3.88-5.92a81,81,0,0,0-2.75-26.35c-1.2-4.44-2.16-9-3.23-13.42,2.54-.06,2.9,2.2,3.54,3.86,3.51,9,5.48,18.46,7,28,1.32,8.6,1.74,17.34,6.53,25.13,2.16,3.53,4.24,7.68,3.22,12.38-.89,1.6-2.5,1.45-3.94,1.67-1.67.26-2.92,1.33-4.24,2.28-1.18.75-2,2-3.18,2.7-2.27,2.87-5.06,4-8.76,4.17-5.07.28-10.15,1-15.2,1.79-3.86.57-7.69,0-11.55-.35-7.72-.69-15.43.4-23.12,1.07a103.93,103.93,0,0,1-16.07.16c-4.81-.34-8.2-4.41-8.15-9.38.06-5.91-.43-11.83.3-17.72,3.7-3.21,7.5-6.33,9.63-11,.2-.44.41-1.07.77-1.22,7.51-3.09,8.84-10,10-17.06.21-1.32-.23-2.79,1.88-1.17C454.2,480.19,454.32,478,455.28,477.56Z"/><path class="cls-20" d="M431.2,510.08l.06,15.47c0,6.26,3.87,10,10,10.23,11.86.41,23.63-2.5,35.42-1.41,9.32.87,18.3-.88,27.44-1.43A14.58,14.58,0,0,0,514,528.8c1.17,1.08.63,2.34.38,3.6-1.42,7.05-2.65,14.17-6,20.65a8,8,0,0,0-.57,2.23c-2.27,5.31-4.46,10.67-8.11,15.2-.43.28-1.07.31-1.32.71-3.29,5.27-8.74,5.3-13.7,5.28-11.11,0-22.06,2.15-33.14,2.1-5.79,0-11.73.7-17.32-1.74a262.22,262.22,0,0,1-2.71-27.24c-.72-12.35-1.25-24.72-1-37.1C430.5,511.64,430.22,510.65,431.2,510.08Z"/><path class="cls-21" d="M387.68,539.6c-5.62,2.38-11.64,2.69-17.54,3-10.34.55-20.7,1.49-31.07.85-6.67-.41-13.17.82-19.72,1.62-3.75.45-5.8-.81-5.43-5,7.1-6.71,10.26-15.12,10.1-25-.06-3.47-.06-6.95,0-10.43,0-6.35,3.56-10.59,9.65-11.63,5.68-1,11.22,0,16.61,1.65A336.83,336.83,0,0,1,384.33,507c2.71,1.16,3.81,2.36,1.91,5.18a9.56,9.56,0,0,0-.78,2.94,24.2,24.2,0,0,1,.94,10.15c-.07.9-.84,2,.47,2.64,2.24.94,1.58,3,1.39,4.61-.14,1.23-.75,2.41-.52,3.72A2.25,2.25,0,0,1,387.68,539.6Z"/><path class="cls-22" d="M434.24,576.83c4.68-1.26,9.32.47,14,.18,5.05-.31,10.16.33,15.17-.75,6.74-1.44,13.6-.52,20.34-1.26,4.86-.54,10.65.71,13.81-5.06.66-1.2,1.26-.94,1.93-.07,1.37,1.86.28,3.72-.08,5.53-.76,3.85-1,7.65.44,11.38,2.5,6.47,9,8.94,14.67,5.19a22.91,22.91,0,0,0,10.65-18.47c.16-2.4-.89-5.27,1.91-6.93,1.31.5,1,1.55.81,2.55.46-1,.05-2.71,1.93-2.6a3.57,3.57,0,0,1,2.29,2.83c.56,3.18,2.43,4.38,5.38,4.83,4,.62,7.59,3.32,11.92,2,.8-.24,1.64.48,2,1.4a256.77,256.77,0,0,1-21.34,19.21,7.85,7.85,0,0,0-2.8,3,26.17,26.17,0,0,1-8.17.85c-19.35,0-38.71,0-58.06.09-2.28,0-3.62-.24-4.05-3-.55-3.61-3.29-5.29-6.54-6-1.45-.33-3-.47-4.43-.66C438.71,590.08,434.39,584.89,434.24,576.83Z"/><path class="cls-23" d="M293.89,583c6.14-2.38,12.47-1.37,18.75-1.1,1.37.06,2.73.34,4.1.34,15.23,0,30.48.36,45.68-.81,9.33-.71,18.63-1.48,28-1.54,3.65,0,5.75-2.42,6.26-6.69,1.95,3.37-.37,6.11-1.43,8.92-.91,2.38-.59,3.52,1.94,3.12,6.73-1.06,11.44.69,12.35,8.58.13,1.19,1.15,2.26,1.66,3.43.44,1,1.64,1.68,1.22,3.36h-8.06q-39,0-78.06.11c-2.78,0-4.78,0-5.52-3.77-.85-4.3-4.55-6.47-10.44-6.11C303.31,591.3,298,588.74,293.89,583Z"/><path class="cls-24" d="M237.56,600c-5.05-6.11-11.45-10.72-16.94-16.36-2.21-2.27-4.5-4.46-6.76-6.69-1.59-2.11-.81-4.45-.45-6.67a158.73,158.73,0,0,1,8.3-32.59l.68-.52a2,2,0,0,1,1.24,1.37c1.1,5,4.62,6.9,9,8a17.86,17.86,0,0,1,6.87,3c2.56,2,4.3,1.81,6.1-1,.86-1.34,2-3.23,4.17-1.56-.56,2.74-2,5.15-2.58,7.89a12,12,0,0,1-2.59,5.77c-4.68,3.49-5.43,8.07-4,13.59,1.19,4.48.84,9.36,3.2,13.57a14.07,14.07,0,0,0,7.21,7.83c1.95,1,4.19,1.74,5.88,4.61C250.21,600.19,243.91,600.87,237.56,600Z"/><path class="cls-25" d="M249.35,546.58c-.32.2-.8.32-.94.61-3.06,6.57-7.21,5.92-12.2,2.31-1.78-1.29-4.14-1.8-6.28-2.48-5.77-1.83-6.93-3.28-7.54-9.86a107.46,107.46,0,0,0,14.7-25.81c.68-1.65,2.1-2.83,4.08-4,2.92,12.16,9.75,22.89,10.22,35.66C251.26,544.57,251.32,546.19,249.35,546.58Z"/><path class="cls-26" d="M640.25,569.14c1.19-5.37-.2-10.66-.56-16-.43-6.25-1.2-12.48-1.82-18.71l25.37-.13q-3.21,15.07-6.43,30.17a39.4,39.4,0,0,0-1.77,12c-2.65-2.83-3.23-7.21-7.37-7.38-4.35-.17-5.83,3.09-7.42,6.55Z"/><path class="cls-27" d="M221.71,537.68c-.12,6.41-2.31,12.37-3.89,18.44C216,563,215,570,213.86,576.94l-1.18,0c-6-6.41-12.63-12-19-18C204.35,553.65,213.47,546.28,221.71,537.68Z"/><path class="cls-28" d="M286.76,600.09c-2.31.43-3.56-.25-4.32-2.83-1.34-4.62-4.24-6.71-8.92-6.4-5.9.39-10.08-2.06-13.09-7.1-2.33-3.9-1.79-6.92,1.79-9.56,1.21-.89,2.47-1.73,3.68-2.63,3.7-2.78,3.82-2.85,5.68,1.31,4.2,9.42,9,18.36,17.54,24.45.67.48,1.65,1.34,1.08,2.19C289.4,600.7,287.91,599.89,286.76,600.09Z"/><path class="cls-29" d="M386.87,527.94c-1.13.31-.05,1.61-1.71,2.67,1.74-5.6-2-10.42.3-15.46l3.59-2.16C389.72,518.49,387.38,523.09,386.87,527.94Z"/><path class="cls-30" d="M387.68,539.6l.06-3.33c3.3-.71,3.7,1.55,3.59,4-.1,2.13-.79,4.23-.52,6.41-.48.54-.95,1.51-1.42,1.51-.82,0-.61-1.19-1-1.74C386.94,544.25,389,541.74,387.68,539.6Z"/><path class="cls-31" d="M243.88,587.73c-2.75-1.66-2.06-4.77-2.62-7.23a48.2,48.2,0,0,1-1.66-12.17,8.32,8.32,0,0,1,5-7.76c-6.81,5.9-3.43,13.16-2.43,20.06C242.56,583,243.31,585.36,243.88,587.73Z"/><path class="cls-32" d="M256.1,535.49c.77-1.85,1.47-3.75,2.34-5.55,2.92-6,3.49-12.39,3-19l-.06.06c2.14,3.85,1.49,8,.62,11.89a36.6,36.6,0,0,1-5.53,13l-.62.25Z"/><path class="cls-33" d="M249.35,546.58l2-3.53,4.71-7.56a.73.73,0,0,0,.39.4c-3.32,6.18-6.5,12.43-9.26,18.91C246.77,551.73,249,549.41,249.35,546.58Z"/><path class="cls-30" d="M393.52,553.63c.27-2.68-3.66-4-2.21-7,1.54-1.66,2.59-2,2.46,1C393.69,549.57,393.6,551.6,393.52,553.63Z"/><path class="cls-6" d="M151.84,562.81c1-.24,2.17.6,3-.62,1.17-.23,1.78,1.67,3.1.88.3.53,1.35,1.32-.24,1.35A9,9,0,0,1,151.84,562.81Z"/><path class="cls-34" d="M277.64,564.07c1.32-1.93,2.57-2.3,4.68-3.12C280.76,562.83,279.53,563.25,277.64,564.07Z"/><path class="cls-35" d="M276.48,565l-3.34,1.91A2.87,2.87,0,0,1,276.48,565Z"/><path class="cls-6" d="M171.32,563.8a3.87,3.87,0,0,1-4.43,0Z"/><path class="cls-32" d="M261.46,511c-.81-1-.81-2-.06-4v4Z"/><path class="cls-36" d="M566.35,220.63c4.93-15.16,8.17-30.76,11.25-46.4,1.89-1,2.91,1.91,4.82,1.11a8.61,8.61,0,0,0,5.11-4.78c6.48-16.18,13.09-32.29,17.66-49.2,1.24-4.58,2.87-9.07,6.86-12.09a4.84,4.84,0,0,0,2.09-4.66c-.14-1.26-.09-2.62,1.2-3.42,2.81,7.4,2.38,15.08,1.26,22.61q-4.64,31.33-11.09,62.34c-1.24,6-2,12.12-4.45,17.77-3,.29-4.19,3.1-6.12,4.81-5.71,5.09-11.17,10.49-17.46,14.85a16.63,16.63,0,0,1-3.68,1.83C568.81,227.3,566.93,226.06,566.35,220.63Z"/><path class="cls-37" d="M615.34,101.19c1,4.85-.32,8.19-4.53,11.23-2.3,1.66-3.4,5.67-4.21,8.84-3.32,13.12-8.18,25.65-13,38.2-1.42,3.7-3.43,7.15-4.34,11.09s-4.05,5.44-7.14,6.81c-2.75,1.23-2.6-2.65-4.49-3.13,1.06-9.44,2-18.9,3.21-28.32,1.47-11.33,2.25-22.75,4.33-34a79.92,79.92,0,0,1,4-14.39c.25-1,1-1.69,1.44-2.61l8.25-6.78c4.1-.36,8.38-2.18,11.93,1.64-1.18,1.16.37,1.53.66,2.24.36.91,1.07,1.68,1.44,2.59C613.74,96.78,615.22,98.71,615.34,101.19Z"/><path class="cls-38" d="M541.72,497.39c-2.32-3.1.11-5.82,1-8.32,6.76-18.44,14.81-36.3,23.34-53.93,2.89-6,6.18-11.76,9.55-17.47a14.86,14.86,0,0,0,2.19-8c-.06-13.69.07-27.39-.05-41.08-.18-20.15.94-40.24,2.34-60.31.48-6.88,1.42-13.75,2.51-20.56.37-2.3,2.19-4.21,2.63-6.69a230.86,230.86,0,0,1,6.66-28.1c.63-2,0-4.11.08-6.16a177.66,177.66,0,0,1,7.37-20.5c-1.52,9.79-2.58,19.69-4.62,29.37-8.93,42.48-13.6,85.37-12.65,128.88.2,8.78,0,17.57,0,26.36a11.53,11.53,0,0,1-1.44,5.91c-14.17,24.7-25.29,51-36.93,77C543.17,495,542.4,496.17,541.72,497.39Z"/><path class="cls-39" d="M561.44,510.85a2.81,2.81,0,0,0-1.8,2.5c-.82,4.44-3.62,7.86-5.74,11.59-7.36,13-15,25.79-21.8,39.08-.58,1.13-1.11,2.33-2.44,2.77-.67,1.26-1.33,2.52-2.08,4-.14-1.26-.25-2.36-.37-3.46-2.68-4.33-1.51-8.92,0-13,2.35-6.48,2.84-12.52.33-19.13-1.45-3.83,0-7.83,2.85-11q4.73-12,9.47-24.09a2.12,2.12,0,0,1,1.89-1.59A143,143,0,0,1,561.44,510.85Z"/><path class="cls-40" d="M560.19,293.81c-2.69,0-3.15-1.26-2.25-3.68,2.41-6.48,4.72-13,7.07-19.51l17.11,6.17c-.16,8-2,15.8-2.52,23.75-.16,2.52-.48,5-.75,7.8-1.4-2-1.4-2-2.65-.19-1.21-2.86-.17-5.93-1.06-9.18-.85,3.2.26,6.32-1.12,9.52-2.4-2.75-1.08-5.81-2-8.87-1.59,2.89-.45,5.69-.91,8.95-2.16-3.79-.06-7.56-1.59-10.74C565.25,298.86,563,297.89,560.19,293.81Z"/><path class="cls-41" d="M636.17,515.6a3.26,3.26,0,0,1-1.36-3c0-5.69-.38-11.41.16-17,.85-8.84,1-17.71,1.91-26.55,1-9.47,2.35-18.88,3.45-28.33,1-8.71-.21-17.22-.62-25.81-.36-7.59-.75-15.18-1.05-22.77a8.8,8.8,0,0,1,.69-2.56c1.28,6.09.42,12.32,1.25,18.47.81,6,.72,12.12,1.82,18,1.46,7.9-.72,15.35-1.76,22.93a417.94,417.94,0,0,0-4.38,65.08C636.29,514.57,636.21,515.08,636.17,515.6Z"/><path class="cls-42" d="M471.92,350c2.68,6.64,2.92,13.55,2.07,20.57a18,18,0,0,0-1.88-2.82c-2.36-2.41-4.57-4.33-3.55-8.7C469.33,355.81,469.68,352.64,471.92,350Z"/><path class="cls-43" d="M429.86,318c5.12,5.49-.84,10.47-.72,15.77C427.81,328.46,433.19,323.39,429.86,318Z"/><path class="cls-44" d="M427.94,316.08c-4.1-1.39-4.14-1.67-.77-5.2.63,1.4-1.06,1.81-1.1,2.89C426,315.11,427.83,314.83,427.94,316.08Z"/><path class="cls-45" d="M431.39,336.48c1,3,1.61,5,1.26,7.6C431.14,341.81,431.06,339.71,431.39,336.48Z"/><path class="cls-15" d="M600.29,86.77c-1.57-2.24-2-5-2.88-7.49-.64-1.75-1.28-2.16-3-1.37a20.62,20.62,0,0,1-5,1.43c-1.93.36-3.77-.45-4.15-2.39a20.63,20.63,0,0,0-3.08-7.35c-.92-1.46-1-3.06-3.06-3.82-1.46-.54-1.52-2.71-1.35-4.16.91-8-2.75-15-4.13-22.56-.7-3.84-.75-7.28,1.09-10.69,5.74.7,8.76,5.51,12.66,9,1.41,1.26,2.52,2.86,3.85,4.22s2.28,3.22,4.84.65c2-2,3.52.79,3.94,2.85.71,3.47-.33,6.85-1.16,10.19-.53,2.11-1.49,4.15,1.48,5.28,1.34.51,1.41,2,1.4,3.33,0,2.33,0,4.65,0,7a9.47,9.47,0,0,0,3.15,7.89,31.33,31.33,0,0,1,5.8,7.48c-.18.29-.36.59-.55.88C606.9,84.64,603.58,86.24,600.29,86.77Z"/><path class="cls-46" d="M590.58,94.91a2.92,2.92,0,0,1-1.44,2.61l-.88,0A5.76,5.76,0,0,1,590.58,94.91Z"/><path class="cls-47" d="M529.66,566.79c3.16-8.41,7.89-16,12.21-23.73,5-9,10.26-17.89,15.42-26.81.63-1.09,1.11-2.33,2.35-2.9,1.12,2.69,3.39,4.42,5.18,6.54,7.6,9,12.55,19.38,15.95,30.67l-29.33,27.06c-.49-.11-1.08-.46-1.44-.29-5.67,2.78-10.29-2.2-15.6-2.21-1.94,0-3.06-1.64-3.19-3.65A12.87,12.87,0,0,0,529.66,566.79Z"/><path class="cls-48" d="M530.37,524.17c-.39,2.39-.41,4.93-1.74,7-.91,1.42-.19,2.44.29,3.57,2.6,6,3.16,11.91.24,18.12-2.1,4.46-2,9.49-1.95,14.4-.74,3.9-.08,7.94-1.37,11.79-1.89,5.62-4.88,10.4-9.68,13.79-8,5.63-17.73.87-18.77-9.09a30.19,30.19,0,0,1,2.1-13.89q3.43-7.15,6.88-14.29c3.83-6.82,5.46-14.39,7.14-22,.56-2.54.8-5.33,3-7.16,2-2.74,4.7-3.11,7.71-2.48C526.26,525.24,528.38,522.32,530.37,524.17Z"/><path class="cls-49" d="M516.54,526.46c-2.76,5.35-3.24,11.4-4.84,17.1-1.2,4.29-2.66,8.43-5.33,12,1.7-5.86,4.63-11.27,5.53-17.42.46-3.16,1.37-6.24,2.07-9.36C514.8,528,514.77,526.17,516.54,526.46Z"/><path class="cls-50" d="M560.19,293.81c2.74,2.28,6.13,2.93,9.34,4v10.74c-1.4-1.06-1.88-3.22-3.69-.85-1,1.37-1.39-1.69-2-2.8-.39.92-.79,1.83-1.49,3.46l-1.61-6.73c-.17,2.28-.27,3.7-.4,5.43-1.23-1.6-.16-3.31-1.2-4.95-.16,1.75-.29,3.2-.51,5.64-1.06-4.61.25-8,.41-11.64,1.27.67.25,2,1.16,2.9Z"/></g></g></svg>