<svg xmlns="http://www.w3.org/2000/svg" viewBox="0 0 492.79 358.94"><defs><style>.cls-1{fill:#eceeee;}.cls-2{fill:#3c2b4e;}.cls-3{fill:#38284b;}.cls-4{fill:#fbc22b;}.cls-5{fill:#528b8c;}.cls-6{fill:#51898c;}.cls-7{fill:#467b82;}.cls-8{fill:#fb7c64;}.cls-9{fill:#fa9f51;}.cls-10{fill:#fab63a;}.cls-11{fill:#a442e9;}.cls-12{fill:#fa6374;}.cls-13{fill:#a078d1;}.cls-14{fill:#fdc81f;}.cls-15{fill:#c55dc0;}.cls-16{fill:#fbfbfb;}.cls-17{fill:#f2d96a;}.cls-18{fill:#498086;}.cls-19{fill:#f9966b;}.cls-20{fill:#f9af48;}.cls-21{fill:#faa35d;}.cls-22{fill:#f9b147;}.cls-23{fill:#f77e79;}.cls-24{fill:#f98476;}.cls-25{fill:#f99769;}.cls-26{fill:#f7ab50;}.cls-27{fill:#fafafb;}.cls-28{fill:#d5cbcc;}.cls-29{fill:#f68a72;}.cls-30{fill:#ebdbc1;}.cls-31{fill:#efc9a2;}.cls-32{fill:#e5d5cd;}.cls-33{fill:#c9bdc0;}.cls-34{fill:#ddd7d3;}.cls-35{fill:#b8adbd;}.cls-36{fill:#d1c9d3;}.cls-37{fill:#8385db;}.cls-38{fill:#7183dd;}.cls-39{fill:#fbd868;}.cls-40{fill:#fafbfb;}.cls-41{fill:#a941df;}.cls-42{fill:#f4df91;}.cls-43{fill:#f4bc38;}.cls-44{fill:#c6a37e;}.cls-45{fill:#e1d0ba;}.cls-46{fill:#d5b991;}.cls-47{fill:#d4cbcb;}.cls-48{fill:#f9a05f;}.cls-49{fill:#39294c;}.cls-50{fill:#ded9d0;}.cls-51{fill:#a479b7;}.cls-52{fill:#f2c984;}.cls-53{fill:#f1cf90;}.cls-54{fill:#f8e3b0;}.cls-55{fill:#f0c586;}.cls-56{fill:#e9b172;}.cls-57{fill:#f0ba6f;}.cls-58{fill:#f7e0b3;}.cls-59{fill:#ec9a4b;}.cls-60{fill:#f3dca1;}.cls-61{fill:#edd598;}.cls-62{fill:#de8f45;}.cls-63{fill:#ebd2a5;}.cls-64{fill:#f6e0b2;}.cls-65{fill:#f8deaa;}.cls-66{fill:#f4b763;}.cls-67{fill:#ebb669;}.cls-68{fill:#362e2b;}.cls-69{fill:#f5dead;}.cls-70{fill:#ebd1a5;}.cls-71{fill:#312a27;}.cls-72{fill:#302925;}.cls-73{fill:#35312d;}.cls-74{fill:#e5ba75;}.cls-75{fill:#c0b2a2;}.cls-76{fill:#342c27;}.cls-77{fill:#392f29;}.cls-78{fill:#715f48;}.cls-79{fill:#392f2b;}.cls-80{fill:#4c3423;}.cls-81{fill:#eebd74;}.cls-82{fill:#435055;}</style></defs><title>资源 17welcome_01</title><g id="图层_2" data-name="图层 2"><g id="图层_1-2" data-name="图层 1"><path class="cls-1" d="M302.36,356c-30.95,0-61.91.67-92.83-.21-37.91-1.08-66.68-18.23-81.74-53.67-14.66-34.48-5.63-65.37,18.43-92.73.85-1,2.45-1.7,2.65-2.74,13.64-70.79,79-80.64,128.21-110.82,63.5-39,150.08-9.15,168.2,62,3.37,13.21,8.43,22.83,18,32.44,30.3,30.54,37.68,67.59,20.37,106.53-17.22,38.72-50.56,57.18-92.29,59C361.72,357,332,356,302.36,356Z"/><g id="图层_2-2" data-name="图层 2"><g id="图层_1-2-2" data-name="图层 1-2"><path class="cls-2" d="M414.32,356.71c1.56.12,3.11.35,4.67.34,13.54-.06,27.07-.17,40.62-.23.91,0,2.46-.63,2.43,1,0,1.39-1.51.92-2.37.93q-23.9.11-47.77.12-80.44,0-160.91-.07-70.76,0-141.5.11-46.2,0-92.4-.15a11.76,11.76,0,0,1-2.44-.14c-1.06-.22-1.19-.78-.29-1.49A7.46,7.46,0,0,1,17,357H97.38c2.42,0,4.82.18,7.26-.59a20.49,20.49,0,0,1,6.18-.59c10.05,0,20.09,0,30.14,0,4.38,0,8.74.77,13.12.34,3.22-.65,6.49-.08,10.16-.38-2.93-1.6-5.41-3.29-6.37-6.46-.38-2.17-.76-4.34-1.28-6.47-.84-3.45-1-6.77,1.6-9.59a15.19,15.19,0,0,0,2-3.89c1.44-4,4-7.29,5.94-11,2.44-4.56,4.24-9.27,3.1-14.63a2,2,0,0,1-.08-1.84c0-.11.34.26.06.15-.12,0-.17,0-.19.12a2.33,2.33,0,0,0,.39,1.89c.7,5.1-.75,9.7-3.12,14.07-1,1.48-1.57,3.32-2.91,4.61-1.42-.35-1.13-1.62-1.28-2.61-.88-5.89-3.8-11-5.43-17.17-2.42,2.89-3.19,6.07-4.76,8.8a63,63,0,0,1-5.35,7.9,6.6,6.6,0,0,1-.71.69,55.19,55.19,0,0,1-17.06,12.74,29.79,29.79,0,0,1-13.24,2.9,5.45,5.45,0,0,0-2.54,0,12.51,12.51,0,0,1-5-.54,5.16,5.16,0,0,1-2.53-.57,14.45,14.45,0,0,1-9.36-6c-1.63-2.26-3.95-3.93-5.45-6.32-.65-1-2.13-2-.51-3.41.2-.18-.31-.25-.49-.38A10.09,10.09,0,0,1,86,314.07c-.32-.82-.75-1.78.22-2.5.76-.55,0-.71-.17-1-1.09-1.71-1.93-3.43-.83-5.53.49-.93-.06-1.95-.13-2.93-.15-1.78-.81-3.65.54-5.28a11.85,11.85,0,0,1,.72-4.24c1.9,9.11,7.23,15.37,14.75,19.85,11.39,6.78,22.94,4.32,32.48-3.44,4.22-3.43,7.19-7.91,10.14-12.43,3.64-5.57,6.92-11.41,11.36-16.41a17.89,17.89,0,0,0,1.59-2.47,3.22,3.22,0,0,1,1-2c4.51-4.37,7.9-9.78,12.49-14.09,3.31-3.12,7.24-5.11,11.25-6.92,14-6.3,28-12.49,41.76-19.22,7.13-3.48,13.3-8.4,19.76-12.93a13.63,13.63,0,0,1,2.75-1.92c2.76-1,4.25-3.11,5.44-5.72,1.4-3.06,2.23-3.23,4.95-1.39,7.83,5.3,16.46,8.81,25.17,12.17,2.85,1.09,5.78,2,8.66,3a3.91,3.91,0,0,1,2.53,2.08c1.92,4.29,3.35,8.71,3,13.52a7.45,7.45,0,0,1-2.56,5.22,3.65,3.65,0,0,0-1.25,3.69,54,54,0,0,1,.68,6.09c.24,2.91.24,5.87-2.31,8-.49.41-.24,1-.21,1.52.19,3.24-.2,6.25-2.5,8.77-1,1.12-.71,2.78-1.19,4.17a11.63,11.63,0,0,1-1,2.54c-.16.26-.4.66-.59.65-2.06-.11-1.53,1.5-1.79,2.66a15.59,15.59,0,0,1-5.4,9.38,37,37,0,0,0-6.42,7.54,35.2,35.2,0,0,0-.11,12.74,12.24,12.24,0,0,1,.27,2.26c-.19,7.83,1.09,15.55,1.63,23.32a14.05,14.05,0,0,0,.75,3.12c1.11,2.41,2.32,4.47,5.49,4.56s6.2,1.11,7.59,4.65a2.06,2.06,0,0,0,2.22,1.19c11.62,0,23.22.07,34.83,0,1.25,0,2.49-.54,3.76-.11,5.11.17,10.23.46,15.34-.18a19.81,19.81,0,0,1,2.67-.12H375.6c2.89,0,5.72.81,8.65.12a3.9,3.9,0,0,0,3-2.29,55.93,55.93,0,0,0,4.66-14.35,11,11,0,0,1,.43-1.78c.31-.87.6-2,1.65-1.87s.72,1.33,1,2.08a4.28,4.28,0,0,1-.53,2.93c2.13-3.77,4.85-3.87,7.83-.73.67-1.47.2-3.41,1.78-4.48,1.35.21,1.58,1.38,1.61,2.38.16,4.3,1.88,8.11,3.35,12a19.6,19.6,0,0,1,1,2.55C410.6,354.8,411.65,356.59,414.32,356.71Z"/><path class="cls-3" d="M425.4,151.69a66.79,66.79,0,0,1,2.38,23.41c-.47,7-1.42,13.86-2.38,20.76-1.35,9.61-2.85,19.19-4.29,28.79L416.85,253a70,70,0,0,0-.92,15.11c.7,10.1-1.08,20-3.06,29.83q-.56,2.67-1.1,5.35a2.39,2.39,0,0,1,.35,2.16c-.81,3.39-1.29,6.86-2.24,10.21-.32,1.11-.74,2.17-2,2.54a54.67,54.67,0,0,1-14.9-.13,3.35,3.35,0,0,1-1.39-3.15,67.61,67.61,0,0,0-.27-6.82,7.53,7.53,0,0,1-.1-1.71,54.63,54.63,0,0,0,.15-7.35,227.58,227.58,0,0,1,2.13-28.57c.5-3.94.94-7.89,1.83-11.77.41-1.78-.21-3.5-.42-5.23-.83-7.06-1.19-14.15-1.6-21.24a2.9,2.9,0,0,1-.25-.87c-.32-7.83,0-15.66-.43-23.48a51.29,51.29,0,0,1,.37-7.22c-.1,8.28-1.64,17.19-3.21,26.07-2.68,15.18-7.56,29.47-15.94,42.44q-11,17.08-23.52,33c-.7.88-1.33,1.89-2.61,2-4.28-2.31-8.66-4.46-12.28-7.87a1.91,1.91,0,0,1,0-1.11c4.1-9.61,8.27-19.2,12.71-28.66,3-6.28,6.27-12.37,9.57-18.47a10.23,10.23,0,0,0,1.26-5c0-7.68.05-15.36,0-23a291.44,291.44,0,0,1,5.51-57.81c1.43-7.44,2.56-14.93,4.09-22.35.18-.91.42-1.79.68-2.67a74.61,74.61,0,0,1-2.81,9.84c-2.23,4.59-3.35,9.59-4.91,14.43-.38,1.15-.47,2.43-1.44,3.3a2.07,2.07,0,0,1-1.91.28c-2.9-1.05-5.89-1.91-8.57-3.57a1.88,1.88,0,0,1-.37-.6c-.34-1.6.73-2.65,1.41-3.87s1.83-2.15,2.32-3.52c4.28-6.75,8.39-13.61,12.09-20.71a86.08,86.08,0,0,0,5.43-12.08c3.23-13.16,5.43-26.53,7.68-39.9.64-3.77,1.3-7.55,1.56-11.36a20,20,0,0,0-.85-8.59,23.63,23.63,0,0,0-2.1-5c-.41-.82-1.13-1.72-.11-2.64,1.3-.16,1.78.92,2.38,1.74,2,2.64,3.56,5.63,5.8,8.13,2.9,3.25,6.13,6,10.31,7.35a21.16,21.16,0,0,0,12,.8c1.06-.27,2.15-.66,3.23,0a17,17,0,0,1,.71,7.22c-.43,6.54-.48,13.16-1.25,19.69-.83,7.21-.47,14.57-2.45,21.63-.31,1.09.36,1.72.89,2.45,4.48,6.11,8.85,12.31,12.81,18.8C423.17,144.29,425.08,147.65,425.4,151.69Z"/><path class="cls-4" d="M284.43,283.92a13.88,13.88,0,0,0,1.31-5.52c0-.44-.11-1,.34-1.26,2.82-1.63,2.8-4.43,2.84-7.21V266.2c.68.59,1.24.66,1.7-.6,1.36-3.62.67-7.27.4-10.92-.09-1.15-.22-2.29-.3-3.44a1.64,1.64,0,0,1,.56-1.63c4.57-3.18,3.85-7.68,2.68-12.17-.6-2.29-1.67-4.43-2.29-6.71-.36-1.33-1.36-1.34-2.2-1.6a162,162,0,0,1-26.42-10.78,85,85,0,0,1-8.42-5.11c-1.23-.83-1.78-.59-2.2.68a16.69,16.69,0,0,1-.78,1.65,10.75,10.75,0,0,1-4.9,5.46c-4.36,2.38-8.33,5.57-12.37,8.58-6.73,5.06-14.4,8.24-21.88,11.77q-15.69,7.38-31.59,14.3c-6.95,3-12.33,7.84-16.81,13.94a75.41,75.41,0,0,1-7.37,8c-.5-2.81.83-5.21,1.79-7.61,6.07-15.13,15.55-27.25,29.57-35.29a23.75,23.75,0,0,1,6.22-2.49c3.94-1,5.74-3.57,6.24-7.6,1.73-13.67,9-23.69,20.15-30.7s23.16-8.8,35.85-6.48c1.7.32,3.75-.2,5.1,1.51.6,1.19-.17,2.06-.66,3a57.66,57.66,0,0,1-5.79,7.88c-1.94,2.44-2,3.28-.22,5.91a2.89,2.89,0,0,1,.42,3c-.94,1.95-.12,3.05,1.45,4.16,6.85,4.75,14.43,7.93,22.08,10.94a78.72,78.72,0,0,0,9.94,3.41c1.51.38,2.33.13,2.75-1.58.59-2.38,1.18-2.68,3.72-2.41,1.32,2.29.89,4.91,1,7.34.18,3.57.7,7.17.59,10.77-.06,1.93,1,3.28,2.2,4.59a78.7,78.7,0,0,1,13.37,18.58,22,22,0,0,1,2.27,5.73c1.19,4.75,2.16,9.51,3.08,14.31a36,36,0,0,1,.42,9.84c-.2,2.6-1.56,3.75-4.16,3.82a18.82,18.82,0,0,1-6.84-.64,6,6,0,0,0-2.65-.21c-6.24.63-12.45.89-18.58-.86a6.19,6.19,0,0,0-1.55-.1c-3-.09-4-1.54-3-4.52a12.23,12.23,0,0,0,.92-4.67,1.34,1.34,0,0,1,.74-1.52C284,285.37,284.11,284.59,284.43,283.92Z"/><path class="cls-2" d="M295.19,223.14c-.16.16-.3.43-.48.46-2,.24-2.51,1.65-2.52,3.44,0,1.47-.69,1.78-2,1.44-12.31-3.57-24.14-8.28-34.89-15.6-1.52-1-2-2.08-1-3.72a2.47,2.47,0,0,0-.44-3.52c-1.74-1.74-1.55-3.8.27-5.95A50.72,50.72,0,0,0,261.66,189c2-2.76,3-6.08,4.55-9.12,2.11-4.16,4.61-7.84,9.47-9,.79-.18,1.44-1,2.13-1.6a15.51,15.51,0,0,1,9.95-3.33c2.2,0,3.83,1.36,5.31,3,4,4.35,2.94,4.13,8.37,1.72,3.65-1.63,7.25-3.38,10.88-5.08,3.05-1.42,4.31-.59,4.24,2.86a35,35,0,0,1-.46,4.07c-.18,1.34-.41,2.67-.63,4.12,2.38-.24,4.12-1.83,6.07-3a10.05,10.05,0,0,1,2.81-2.51c1.12-.72,2.29-1.61,2.62.72.13.92.74.49,1.19.45,1.06-.08,2.09-.1,2.56,1.19.13,1.45-.76,2.21-1.78,2.9a9.92,9.92,0,0,1-6.41,1.48c-2.69-.19-4.35,1.65-6.18,3.18-.69.59-.4,1.43-.31,2.16.46,3.72-1.27,6.13-4.27,7.83a26.31,26.31,0,0,1-6.49,2.37,9.7,9.7,0,0,0-7.48,7.31,45.14,45.14,0,0,1-2.9,7.72,9.6,9.6,0,0,0-1.46,3.29c-.29,2.24-.76,4.52,1.43,6.23.67.52.89,1.54,1.29,2.37C296.36,221.41,296.45,222.52,295.19,223.14Z"/><path class="cls-5" d="M408.06,317.67c1.49-2.6,1.53-5.62,2.27-8.43.52-2,.95-4,1.41-5.95a112.92,112.92,0,0,1,34.48-8.14c7-.6,11.27,1.68,7.9,10.38-5.88,15.26-13.91,29.09-25.32,40.66a58.19,58.19,0,0,1-14.48,10.52c-3,1-3.37.78-4.39-2.08-.92-2.57-2-5.07-2.9-7.65-1-2.92-2.33-5.78-2.1-9a3.68,3.68,0,0,0-.69-2.38c-.86-.84-.51-1.84-.28-2.77,1-4,1.69-8,2.47-12.06A4.28,4.28,0,0,1,408.06,317.67Z"/><path class="cls-6" d="M107.64,334.75l5.35.44a4.89,4.89,0,0,0,2.63,0c4.68.17,9-1.4,13.33-2.91a3.21,3.21,0,0,1,1.47.49,57.77,57.77,0,0,1,9.46,9,1.81,1.81,0,0,1,.47,1.7c-1,1.58-2.34,1-3.57.59a45.9,45.9,0,0,0-8.75-2.54,41.89,41.89,0,0,0-13.5.21,13.18,13.18,0,0,1-4.85,0,9.52,9.52,0,0,0-3.76,0,14.88,14.88,0,0,1-5.07-.09c-3.07-.42-6.17-.52-9.26-.78-1.94-.18-3.83,1-5.35,2.38-.44.39-.73,1-1.38,1.07-8.92-8.65-16.35-18.43-20.44-30.47-2.58-7.6,2.2-9.86,8.14-9.37,4.81.4,8.6,3.07,11.85,6.62.73.23,1,.85,1.19,1.51a38.5,38.5,0,0,0,6.06,11.06c2.87,3.42,5.35,7.27,9.52,9.39,1,.51,2,.73,3,1.14C105.34,334.38,106.31,335.78,107.64,334.75Z"/><path class="cls-7" d="M84.82,344.33c.92-2.71,5-4.85,7.93-4.45,4.56.6,9.15.72,13.73.95,6.25.33,12.35-1.19,18.55-.67a40,40,0,0,1,12.43,3.14c.91.39,2,1.05,2.74-.32a.91.91,0,0,1,.88-.35c2.24,1,3.61,3.14,5.41,4.72,2.48,2.18,4.93,4.44,7.25,6.82.66.69,1.5,1.34,1.25,2.53-2.91.95-5.94.68-8.85.42-5.28-.48-10.55-.26-15.82-.31-7-.06-14-.14-21,0-31.67.8-63.34.08-95,.33.78-.68,1.71-.35,2.57-.35h84.23a4.5,4.5,0,0,0,1.55-.2A56.39,56.39,0,0,1,84.82,344.33Z"/><path class="cls-8" d="M394.58,70.94c-4.22-1.26-7.41-4-10.21-7.41a2.8,2.8,0,0,1-.17-1.78c1.71-6.54,1.71-13.31,3-19.88,1-5.35.76-10.84,1.93-16.15.5-2.32.06-4.76.63-7.09.21-.81.19-1.69,1-2.2a42,42,0,0,0,9.39,11.42,13,13,0,0,1,4.25,7.82A27.25,27.25,0,0,0,406,41.33c-1.49,1.68-1.72,3.72-1.95,5.91a132.54,132.54,0,0,1-3,18.8C400.22,69.43,397.81,71.13,394.58,70.94Z"/><path class="cls-9" d="M390.73,16.41c-.24,5.5-1.06,10.93-1.54,16.4-.33,3.71-.9,7.39-1.19,11.09s-1.51,7.14-1.57,10.85c-.06,3.06-.38,6.1-2.07,8.78-2.76-2.62-4.23-6.25-6.64-9.14-.29-.35-.6-.68-.86-1-2.34-.59-4.81.08-7.14-.77-.35-.72.14-1.09.6-1.48a8.37,8.37,0,0,1,4.32-.81c.6,0,1.19.32,1.65-.32a40.1,40.1,0,0,0,.54-14.81,8.84,8.84,0,0,0-.15-1.36c-1.69-5.67-2.18-11.51-2.55-17.39a57.16,57.16,0,0,1-.41-6.41c.09-1.54.13-3.19,1-4.44A6.35,6.35,0,0,0,376,.36c5,.84,8.32,4.09,10.9,8.32A38.46,38.46,0,0,1,390.73,16.41Z"/><path class="cls-10" d="M376,.36c2,2.25,2,2.47,0,4.65-1.28,1.4-1.15,3.25-1.34,5a22.6,22.6,0,0,0,.47,6.61c.54,2.75.13,5.55.69,8.32.4,2.05.66,4.17,1.19,6.24a43.7,43.7,0,0,1,1.16,12.94,52.74,52.74,0,0,1-1.35,7.14c-3.48-2.67-6.5-5.57-6.18-10.62.11-1.74.24-3.51-1.32-4.88-.8-.7-.59-1.83-.36-2.83a21.85,21.85,0,0,0,.73-4.95c0-1.19-.22-2.26-1.83-1.61-1.23.49-2.15-.18-3-1-1.18-1.14-2.33-2.38-3.48-3.57a26.67,26.67,0,0,0-5.88-4.53c0-.65.38-1.5,1.7-3.57-1-.69-2.85.11-3.07-1.84.05-.07.07-.17.13-.2,4.33-2.34,7.62-6,11.35-9.14A11.85,11.85,0,0,1,376,.36Z"/><path class="cls-11" d="M425.4,151.69c-4.25-10.86-11.37-19.84-18-29.13-1-1.42-1.52-2.44-.55-4.23,1.08-2,.83-4.48,1-6.76,1.05-13.39,2.49-26.76,2.34-40.2.11-.59.38-.78.89-.4,1.53,7.8,2.22,15.73,3.2,23.61,1.25,10.11,3.82,19.9,6.09,29.77,1.78,7.73,3.74,15.4,4.95,23.24A28.06,28.06,0,0,1,425.4,151.69Z"/><path class="cls-12" d="M411.1,71l-.89.4c-5.25,1.63-10.47,1.91-15.63-.41,3.57-.89,5.25-3.21,6.09-7,1.08-4.86,1.19-9.86,2.37-14.68.48-1.92,0-3.95.52-5.94.38-1.44,1-2.15,2.43-2A14.59,14.59,0,0,0,413.13,46a12.23,12.23,0,0,1,7.13,5.81c3.31,6.2.95,13.38-5.65,17.24C413.5,69.75,412.28,70.33,411.1,71Z"/><path class="cls-13" d="M371.1,121.23a77,77,0,0,1-5.69,12.66,217.7,217.7,0,0,1-11.78,20,10.75,10.75,0,0,1-7.48,2.33c-1.86-.1-3.69.33-5.54.19-.83-.06-1.78.14-2.49-.67.56-1,1.13-2,1.69-3a148.52,148.52,0,0,0,9.66-20.49c.18-.48.3-1.06,1-1.1a1.68,1.68,0,0,1,.88,1c.69,1.54,1.84,1.58,3.16,1.07a18.55,18.55,0,0,0,6.12-4.08c2.71-2.58,5.7-4.85,8.32-7.56C369.42,121,370.16,119.78,371.1,121.23Z"/><path class="cls-14" d="M354.13,11.85c.71.55,1.38,1.1,2.38.66.72-.31,1.55-.26,1.85.63a1.83,1.83,0,0,1-.87,2.14c-.75.46-1.63.7-2.05,1.59a4.11,4.11,0,0,1,.15,1.78,18.08,18.08,0,0,0,1.13,8.78,21.72,21.72,0,0,1,1.39,8.06,4.27,4.27,0,0,0,1.36,3.43,11,11,0,0,1,2.67,5.16c.41,1.73,1.25,2.3,2.86,2a11.53,11.53,0,0,0,1.3-.27c1.82-.59,3.06.12,3.7,1.9.45,1.25,1.29,2.47.64,3.93l-.87.8c-.73,2.31-3,3-4.44,4.59a6,6,0,0,1-1.54,1h-.3c-4.16-1.11-8.42-6.6-8.5-11a15.1,15.1,0,0,1,.61-4.53c.94-3,.6-5.35-2.1-7.63-5-4.36-6.36-13-3.5-19.06A6.8,6.8,0,0,1,354.13,11.85Z"/><path class="cls-15" d="M338.12,155.76a15.66,15.66,0,0,1,5.89-.35c3.36.18,6.42-1,9.62-1.5-1.13,2.45-3.25,4.28-4.06,6.94-2.44,3.46-5.17,6.7-7.56,10.21a2.17,2.17,0,0,1-3.48.59c-1.78-1.36-3.22-.91-4.79.41-.91.76-1.78,2-3.3,1.34-.91-.84-1.89-.44-2.84-.1-.56.2-.9,1.27-1.65.59s.17-1.34.28-2c0-.29,0-.59.07-1.19a18.27,18.27,0,0,1-4.76,2.94c1.57-3,3.25-5.65,6.48-7.39,3.45-1.85,5.78-5.41,8.47-8.33C337.09,157.23,337.58,156.46,338.12,155.76Z"/><path class="cls-16" d="M350.46,131.17c-2.18,5-4,10.18-6.66,15-1.23,2.26-2.26,4.66-4,6.61.08-1.64,1.16-2.79,1.87-4.12A130.73,130.73,0,0,0,355,110.25c.64-3.61,1.49-7.17,2-10.82a3.79,3.79,0,0,0-.89-3.29,15.22,15.22,0,0,1-3.78-8.65,11.37,11.37,0,0,1,1.89-7,60.05,60.05,0,0,0,7.86-18.68A37.92,37.92,0,0,1,363.49,58h0a.41.41,0,0,1,.58,0,.75.75,0,0,1,.07.12c.54,1.26-.07,2.44-.4,3.56-1.7,5.76-2.14,11.73-2.89,17.64-1,8-1.53,16.14-2.91,24.13-.89,3.7-1.24,7.5-2.06,11.21-1,4.76-2.38,9.47-3.82,14.12C351.76,129.75,351.49,130.75,350.46,131.17Z"/><path class="cls-17" d="M104,334.6a15.7,15.7,0,0,1-9.25-5.87c-3-3.7-6.27-7.32-8.25-11.89a49.11,49.11,0,0,1-2.16-5.75c.32-2.87-1.15-5.5-1-8.39.16-2.38,0-4.75,1.33-6.93.67-.14.48.8.94,1a27.34,27.34,0,0,0,.83,8c.12.38.75,1.47-.74,1.19-1.14-.23-.5.86-.41,1.19a9.16,9.16,0,0,0,3.57,5.21c-1.14.45-1.79-.41-2.82-.65.7,4.27,4,6.35,6.83,9.12-1.35-.1-2-1-3.27-1.47a23,23,0,0,0,4.5,6.33,35.77,35.77,0,0,1,3.61,4.16,11.66,11.66,0,0,0,8,4.46C105.4,335.33,104.72,334.93,104,334.6Z"/><path class="cls-18" d="M392,307.82c.75,2.13.44,4.36.51,6.54a8.89,8.89,0,0,0,.47,3.36c1.14,1,1.08,2.49,1.26,3.81.63,4.54.89,9.13,1.31,13.67.12,1.19.31,2.51-1.19,3.12-.09-.74-.18-1.48-.32-2.56a16.12,16.12,0,0,0-1.47,5.52c-.9,5-3,9.61-5.09,14.17-.29.59-.59,1.25-1.41,1.27-2.51.09-5,.78-7.54.24a11.1,11.1,0,0,0-2.44-.18c-10.11,0-20.21-.2-30.32.05-5.35.14-10.7.32-16,.31-.86,0-1.79.26-2.51-.59-.53-1.6.74-2.19,1.62-2.85,4.36-3.28,8.15-7.24,12.25-10.82,5.72-5.59,11.47-11.13,17.61-16.23a105,105,0,0,1,29.07-18.43C389.12,307.76,390.48,306.77,392,307.82Z"/><path class="cls-19" d="M188.48,346.6c-3.28-3.77-3.63-8.19-2.57-12.86a5.27,5.27,0,0,1,2.12-3.41,123.19,123.19,0,0,0,12.36-9.26c1.61,2.31,3.8,2.26,6.15,1.6a18.12,18.12,0,0,1,5.08-.54c7.22,0,14.43.18,21.61-.52,2.72-.26,5.51-.13,8.15-1.06a5.41,5.41,0,0,1,2.43-.17c1.42.19,1.34,1.23,1.41,2.38.05.77-.59,2,.88,2.24a1.05,1.05,0,0,0,.3,0c1.19,1.13,1.15,2.7,1.31,4.16a12.19,12.19,0,0,0-.2,5.88c.43,1.66,2.14,3,1,5a10.83,10.83,0,0,0,1,.75c.35,2.88-1.07,4.76-3.83,4.92s-5.48.22-8.22.4a344.46,344.46,0,0,1-36.06,1,85.18,85.18,0,0,0-11.74-.05A1.72,1.72,0,0,1,188.48,346.6Z"/><path class="cls-20" d="M284.43,283.92c0,.3.06.71-.1.89-2.22,2.55-1.11,6-2.33,8.85a1.28,1.28,0,0,0,1.43,1.9c2.64-.59,4.95.76,7.44,1a61.09,61.09,0,0,0,12.61,0,8.35,8.35,0,0,1,4.16.14c2.46,1,5,.66,7.49.59,2.15,0,2.22-1.9,2.31-3.52a48.13,48.13,0,0,0-1.63-15.66c-.72-2.64-1.29-5.35-1.92-8,1.51,0,1.72,1.31,2.1,2.3A79.82,79.82,0,0,1,320.15,289c.79,5.11,1,10.31,3.88,14.94,1.29,2.1,2.52,4.57,1.92,7.36-.53.95-1.49.86-2.34,1a6.07,6.07,0,0,0-2.52,1.36c-.71.45-1.19,1.19-1.9,1.61a6.43,6.43,0,0,1-5.2,2.47c-3,.17-6,.6-9,1.07a28.76,28.76,0,0,1-6.87-.21c-4.59-.41-9.17.24-13.74.64a61,61,0,0,1-9.56.09,5.31,5.31,0,0,1-4.84-5.57c0-3.52-.26-7,.18-10.54,2.2-1.91,4.46-3.76,5.72-6.54.12-.26.25-.64.46-.72,4.47-1.84,5.26-6,5.95-10.15.12-.78-.14-1.66,1.11-.69C283.79,285.48,283.86,284.18,284.43,283.92Z"/><path class="cls-21" d="M270.11,303.25l0,9.2c0,3.72,2.3,5.94,5.94,6.08,7.05.24,14.05-1.49,21.06-.84,5.54.52,10.88-.52,16.31-.85a8.74,8.74,0,0,0,5.88-2.46c.69.64.37,1.39.22,2.14-.84,4.19-1.57,8.42-3.56,12.27a4.73,4.73,0,0,0-.34,1.33c-1.35,3.16-2.65,6.34-4.82,9-.26.16-.64.18-.79.42-1.95,3.13-5.19,3.15-8.14,3.14-6.61,0-13.12,1.28-19.71,1.25-3.44,0-7,.41-10.29-1a154.06,154.06,0,0,1-1.61-16.19c-.43-7.34-.75-14.7-.6-22.06C269.7,304.18,269.53,303.59,270.11,303.25Z"/><path class="cls-22" d="M244.24,320.8c-3.34,1.41-6.92,1.6-10.43,1.78-6.15.33-12.31.89-18.47.51-4-.25-7.83.48-11.72,1-2.23.27-3.45-.48-3.23-3a19.06,19.06,0,0,0,6-14.86q0-3.11,0-6.21a6.51,6.51,0,0,1,5.74-6.91,21,21,0,0,1,9.87,1,198.84,198.84,0,0,1,20.25,7.34c1.61.69,2.26,1.4,1.13,3.08a5.82,5.82,0,0,0-.46,1.74,14.53,14.53,0,0,1,.56,6c0,.53-.5,1.19.28,1.57,1.33.56.94,1.78.82,2.74a7.76,7.76,0,0,0-.31,2.21,1.33,1.33,0,0,1,.08,1.89Z"/><path class="cls-23" d="M271.92,342.93c2.78-.75,5.54.28,8.32.11,3-.19,6,.2,9-.45,4-.85,8.09-.31,12.09-.75,2.89-.32,6.33.43,8.21-3,.4-.72.75-.56,1.15,0,.82,1.11.17,2.22,0,3.29a12,12,0,0,0,.26,6.77c1.49,3.84,5.36,5.31,8.73,3.08A13.62,13.62,0,0,0,326,341c.09-1.42-.53-3.13,1.13-4.12.78.3.6.92.49,1.52.27-.6,0-1.61,1.14-1.55a2.12,2.12,0,0,1,1.36,1.69c.34,1.89,1.45,2.6,3.2,2.87,2.38.37,4.51,2,7.09,1.19.47-.15,1,.28,1.19.83a152.63,152.63,0,0,1-12.69,11.42,4.65,4.65,0,0,0-1.66,1.78,15.37,15.37,0,0,1-4.86.51q-17.25,0-34.52.05c-1.35,0-2.15-.14-2.41-1.78-.32-2.15-1.95-3.15-3.88-3.57-.87-.2-1.79-.28-2.64-.39C274.58,350.81,272,347.72,271.92,342.93Z"/><path class="cls-24" d="M188.48,346.6c3.65-1.41,7.41-.81,11.15-.65.81,0,1.62.2,2.43.2,9.06,0,18.12.21,27.16-.48,5.55-.43,11.08-.88,16.65-.92,2.17,0,3.42-1.44,3.72-4,1.16,2-.22,3.64-.85,5.31-.54,1.41-.35,2.09,1.15,1.85,4-.63,6.8.41,7.34,5.1.08.71.69,1.35,1,2s1,1,.73,2h-4.79q-23.19,0-46.41.07c-1.66,0-2.84,0-3.28-2.25-.51-2.55-2.71-3.84-6.21-3.63A10.37,10.37,0,0,1,188.48,346.6Z"/><path class="cls-25" d="M155,356.71c-3-3.64-6.81-6.38-10.07-9.73-1.31-1.35-2.68-2.65-4-4-.94-1.25-.48-2.64-.27-4a94.56,94.56,0,0,1,4.94-19.38l.4-.31a1.19,1.19,0,0,1,.74.82c.65,3,2.75,4.1,5.35,4.75a10.6,10.6,0,0,1,4.08,1.79c1.53,1.19,2.56,1.07,3.63-.6.51-.79,1.19-1.92,2.48-.92-.33,1.62-1.19,3.06-1.53,4.69a7.19,7.19,0,0,1-1.54,3.43c-2.79,2.07-3.23,4.79-2.38,8.08.71,2.66.5,5.56,1.9,8.06a8.32,8.32,0,0,0,4.29,4.66,6.82,6.82,0,0,1,3.49,2.74C162.51,356.82,158.77,357.22,155,356.71Z"/><path class="cls-26" d="M162,325c-.19.12-.48.19-.56.36-1.82,3.91-4.29,3.52-7.25,1.37a13,13,0,0,0-3.74-1.47c-3.43-1.09-4.12-1.95-4.48-5.86A63.93,63.93,0,0,0,154.71,304a5.26,5.26,0,0,1,2.43-2.37c1.73,7.22,5.79,13.6,6.07,21.2C163.14,323.75,163.17,324.72,162,325Z"/><path class="cls-27" d="M394.39,338.36c.71-3.19-.11-6.34-.33-9.51-.25-3.72-.71-7.42-1.08-11.13l15.08-.07q-1.9,9-3.82,17.93a23.35,23.35,0,0,0-1.05,7.14c-1.58-1.68-1.92-4.29-4.38-4.39s-3.47,1.84-4.42,3.89Z"/><path class="cls-28" d="M145.57,319.66c-.07,3.81-1.38,7.35-2.32,11-1.08,4.09-1.67,8.25-2.35,12.38h-.7c-3.57-3.81-7.51-7.14-11.3-10.7A60.3,60.3,0,0,0,145.57,319.66Z"/><path class="cls-29" d="M184.24,356.76c-1.37.26-2.12-.15-2.57-1.68-.79-2.75-2.52-4-5.3-3.81a7.81,7.81,0,0,1-7.78-4.22c-1.39-2.32-1.07-4.11,1.06-5.68.72-.53,1.47-1,2.19-1.56,2.2-1.66,2.27-1.7,3.38.77,2.49,5.6,5.35,10.92,10.42,14.54.4.29,1,.8.65,1.3C185.81,357.12,184.92,356.64,184.24,356.76Z"/><path class="cls-30" d="M243.76,313.87c-.67.18,0,.95-1,1.58,1-3.33-1.19-6.19.18-9.19l2.13-1.28C245.45,308.25,244.06,311,243.76,313.87Z"/><path class="cls-31" d="M244.24,320.8l0-2c2-.42,2.2.92,2.14,2.38a21.93,21.93,0,0,0-.31,3.81c-.29.32-.57.9-.84.9-.49,0-.37-.71-.6-1C243.8,323.56,245,322.07,244.24,320.8Z"/><path class="cls-32" d="M158.75,349.41c-1.64-1-1.23-2.83-1.56-4.3a28.51,28.51,0,0,1-1-7.23,4.93,4.93,0,0,1,3-4.61c-4.05,3.5-2,7.82-1.45,11.92C158,346.6,158.41,348,158.75,349.41Z"/><path class="cls-33" d="M166,318.36c.46-1.1.88-2.23,1.39-3.3a21.55,21.55,0,0,0,1.79-11.3l0,0c1.27,2.28.89,4.75.37,7.06a21.64,21.64,0,0,1-3.29,7.73l-.37.15Z"/><path class="cls-34" d="M162,325l1.19-2.1,2.8-4.49a.43.43,0,0,0,.23.23c-2,3.68-3.86,7.39-5.5,11.25C160.47,328,161.79,326.63,162,325Z"/><path class="cls-31" d="M247.71,329.14c.16-1.59-2.18-2.38-1.31-4.16.91-1,1.54-1.19,1.46.59C247.81,326.73,247.76,327.93,247.71,329.14Z"/><path class="cls-7" d="M104,334.6c.59-.15,1.29.35,1.78-.37.7-.14,1.06,1,1.85.52.17.32.8.79-.15.8A5.33,5.33,0,0,1,104,334.6Z"/><path class="cls-35" d="M178.82,335.35a4.76,4.76,0,0,1,2.78-1.86A6,6,0,0,1,178.82,335.35Z"/><path class="cls-36" d="M178.13,335.9l-2,1.13A1.71,1.71,0,0,1,178.13,335.9Z"/><path class="cls-7" d="M115.61,335.19a2.3,2.3,0,0,1-2.63,0Z"/><path class="cls-33" d="M169.2,303.8c-.48-.6-.48-1.19,0-2.38v2.38Z"/><path class="cls-37" d="M350.46,131.17a236.91,236.91,0,0,0,6.69-27.59c1.12-.59,1.73,1.14,2.86.66a5.1,5.1,0,0,0,3-2.84c3.85-9.62,7.78-19.2,10.5-29.25.74-2.72,1.71-5.39,4.08-7.19a2.86,2.86,0,0,0,1.24-2.77,1.9,1.9,0,0,1,.72-2c1.67,4.4,1.41,9,.74,13.44q-2.74,18.63-6.59,37.06c-.74,3.57-1.19,7.21-2.64,10.57-1.79.17-2.5,1.84-3.64,2.86a114.69,114.69,0,0,1-10.38,8.83,9.91,9.91,0,0,1-2.19,1.08C351.92,135.13,350.8,134.4,350.46,131.17Z"/><path class="cls-38" d="M379.59,60.16c.59,2.88-.2,4.87-2.7,6.68-1.37,1-2,3.37-2.5,5.25a199.68,199.68,0,0,1-7.73,22.71c-.84,2.2-2,4.25-2.58,6.59s-2.41,3.24-4.24,4c-1.64.73-1.55-1.57-2.67-1.86.63-5.61,1.19-11.23,1.9-16.83.88-6.74,1.34-13.53,2.58-20.22A47,47,0,0,1,364,58a8.34,8.34,0,0,1,.85-1.55l4.91-4c2.43-.21,5-1.29,7.09,1-.7.69.22.91.39,1.33s.64,1,.86,1.54C378.63,57.54,379.51,58.68,379.59,60.16Z"/><path class="cls-39" d="M335.82,295.7c-1.38-1.84.06-3.46.59-4.94,4-11,8.81-21.58,13.88-32.06,1.72-3.57,3.67-7,5.68-10.39a9,9,0,0,0,1.3-4.76c0-8.14,0-16.28,0-24.42-.11-12,.56-23.92,1.39-35.85.28-4.09.84-8.18,1.49-12.23.22-1.36,1.3-2.5,1.56-4a138.47,138.47,0,0,1,4-16.71c.38-1.19,0-2.44.05-3.66a105.34,105.34,0,0,1,4.38-12.19c-.9,5.82-1.53,11.71-2.74,17.46a335.33,335.33,0,0,0-7.52,76.62c.11,5.22,0,10.45,0,15.67a7,7,0,0,1-.86,3.52c-8.42,14.68-15,30.32-22,45.77C336.68,294.28,336.22,295,335.82,295.7Z"/><path class="cls-40" d="M347.54,303.71a1.66,1.66,0,0,0-1.07,1.48c-.49,2.64-2.15,4.68-3.41,6.89-4.38,7.73-8.92,15.34-13,23.24-.35.67-.66,1.38-1.45,1.64-.4.75-.79,1.5-1.24,2.38l-.22-2.06c-1.59-2.57-.9-5.3,0-7.72a15.48,15.48,0,0,0,.2-11.38c-.87-2.27,0-4.65,1.69-6.54q2.82-7.12,5.63-14.32a1.26,1.26,0,0,1,1.12-.94A84.43,84.43,0,0,1,347.54,303.71Z"/><path class="cls-41" d="M346.8,174.67c-1.6,0-1.87-.75-1.34-2.18,1.43-3.86,2.81-7.73,4.2-11.6l10.18,3.67c-.1,4.75-1.19,9.39-1.5,14.11-.1,1.5-.29,3-.45,4.64-.83-1.19-.83-1.19-1.57-.11-.72-1.7-.11-3.53-.63-5.46-.51,1.9.15,3.76-.67,5.66-1.43-1.63-.64-3.45-1.19-5.27-.94,1.72-.27,3.38-.54,5.32-1.28-2.25,0-4.5-1-6.39C349.81,177.68,348.47,177.1,346.8,174.67Z"/><path class="cls-42" d="M392,306.53a2,2,0,0,1-.81-1.78c0-3.39-.23-6.79.1-10.11.5-5.26.59-10.53,1.13-15.78.6-5.63,1.4-11.23,2.05-16.85.6-5.17-.12-10.23-.37-15.34-.21-4.51-.44-9-.62-13.54a5.35,5.35,0,0,1,.41-1.52c.76,3.62.25,7.32.74,11s.43,7.21,1.08,10.7c.87,4.7-.42,9.13-1,13.63A248,248,0,0,0,392,305.61C392,305.92,392,306.22,392,306.53Z"/><path class="cls-43" d="M294.32,208.08a24.24,24.24,0,0,1,1.23,12.23,10.45,10.45,0,0,0-1.12-1.68c-1.4-1.43-2.71-2.57-2.11-5.17C292.78,211.53,293,209.65,294.32,208.08Z"/><path class="cls-44" d="M269.32,189.05c3,3.27-.5,6.23-.43,9.38C268.1,195.27,271.29,192.26,269.32,189.05Z"/><path class="cls-45" d="M268.17,187.91c-2.43-.82-2.46-1-.45-3.09.37.83-.63,1.08-.66,1.72C267,187.34,268.11,187.17,268.17,187.91Z"/><path class="cls-46" d="M270.22,200a9.3,9.3,0,0,1,.75,4.52C270.08,203.21,270,202,270.22,200Z"/><path class="cls-16" d="M370.64,51.59c-.94-1.34-1.19-3-1.71-4.46-.39-1-.77-1.28-1.79-.81a12.3,12.3,0,0,1-3,.85,2,2,0,0,1-2.47-1.42,12.21,12.21,0,0,0-1.83-4.37c-.55-.87-.59-1.82-1.82-2.27-.87-.32-.9-1.61-.8-2.48.54-4.75-1.64-8.91-2.46-13.41a9.23,9.23,0,0,1,.65-6.35c3.41.41,5.21,3.27,7.53,5.35.84.75,1.5,1.7,2.29,2.51s1.35,1.91,2.87.38c1.19-1.19,2.1.47,2.35,1.7.42,2.06-.2,4.07-.69,6.05-.32,1.26-.89,2.47.88,3.14.79.31.84,1.19.83,2v4.17a5.63,5.63,0,0,0,1.87,4.69,18.59,18.59,0,0,1,3.45,4.44c-.11.18-.21.35-.33.53C374.57,50.32,372.59,51.27,370.64,51.59Z"/><path class="cls-47" d="M364.86,56.43A1.71,1.71,0,0,1,364,58h-.52A3.38,3.38,0,0,1,364.86,56.43Z"/><path class="cls-48" d="M328.65,337c1.88-5,4.69-9.51,7.26-14.1,3-5.36,6.1-10.64,9.16-15.94.38-.65.66-1.39,1.4-1.73.67,1.6,2,2.63,3.08,3.89A50,50,0,0,1,359,327.31L341.6,343.4c-.3-.06-.65-.27-.86-.17-3.37,1.65-6.12-1.31-9.27-1.31-1.16,0-1.82-1-1.9-2.17A7.85,7.85,0,0,0,328.65,337Z"/><path class="cls-49" d="M329.07,311.63c-.23,1.42-.24,2.93-1,4.16-.54.84-.11,1.45.18,2.12,1.54,3.57,1.88,7.08.14,10.77-1.25,2.65-1.19,5.64-1.16,8.56-.44,2.32-.05,4.72-.81,7a15.8,15.8,0,0,1-5.76,8.2c-4.75,3.35-10.54.52-11.16-5.4a17.91,17.91,0,0,1,1.25-8.26q2-4.26,4.09-8.5c2.28-4.05,3.25-8.55,4.25-13.08.33-1.51.47-3.17,1.78-4.25,1.19-1.63,2.79-1.85,4.58-1.48C326.63,312.26,327.89,310.53,329.07,311.63Z"/><path class="cls-50" d="M320.85,313c-1.64,3.18-1.93,6.77-2.88,10.16a21.05,21.05,0,0,1-3.17,7.14c1-3.49,2.75-6.7,3.29-10.36.27-1.88.81-3.71,1.23-5.56C319.81,313.9,319.8,312.81,320.85,313Z"/><path class="cls-51" d="M346.8,174.67c1.63,1.36,3.64,1.75,5.55,2.38v6.39c-.83-.63-1.12-1.92-2.19-.51-.6.82-.83-1-1.19-1.66-.23.54-.47,1.08-.89,2l-1-4c-.1,1.36-.16,2.2-.23,3.23-.73-1-.1-2-.72-2.94-.09,1-.17,1.9-.3,3.35-.63-2.74.15-4.75.24-6.92.76.4.15,1.19.69,1.73Z"/></g></g><path class="cls-52" d="M69.86,261.36c.33.51,1.14,1.26.25,1.56s-1.9.19-.74,1.51c.53.6,0,.83-.52.62-1.25-.46-.93.13-.62.83a1.1,1.1,0,0,1-.34,1.5c-.7.3-1.13-.46-1.64-.83s-.71-2.53-2-.61a2.41,2.41,0,0,1-1.17-.57c-.63-.66-.85-2.19-2.21-.68-.27.29-.82-.18-1.08-.63-1.2-2.1-3.25-3.61-4.06-6a1,1,0,0,1-.11-1.19c.94-.72,1.55.14,2.27.47a3.08,3.08,0,0,0,3.43,1.17C64.68,257.66,67.68,258.32,69.86,261.36Z"/><path class="cls-53" d="M0,208.33c1.91-1,3,.44,4.09,1.46,2.88,2.69,4.78,6.27,7.89,8.75.51.28,1.16.35,1.45,1A2.9,2.9,0,0,1,12,222.9c-1,2-4,1.26-4.95,3.55-.23.57-.78-.19-1.17-.42-.63-.38-.69-.82-.47-1.51s1.74-1.91-.69-2.14c-.94-.09-.72-1.44.18-2.12.77-1.32,1.46-2.75,3-2.23-2.06-1.12-3.55-3.56-5.78-5.15C1.28,211.4.22,210.06,0,208.33Z"/><path class="cls-54" d="M46.53,264.22c-2.27.9-4.14-.19-6-1.21a3.38,3.38,0,0,1-.1-3.71c.82-1.87,2.67-1.86,4.25-2.34,2.52-.46,5,0,7.51.29a1.77,1.77,0,0,1,1.13.91C53,262.39,50.73,264.45,46.53,264.22Z"/><path class="cls-55" d="M50.53,273.27c-1.84-.88-4.1-1.32-4.27-4C47.56,267,49,265,52,264.92c1.15,0,1.2-1,1.51-1.77a1.84,1.84,0,0,1,1.82-.9c.43.19.72.46.52,1,0,2-.43,4.09.39,6.1.26.64.47,1.63-.22,2.06-.87.55-1.09-.75-1.74-1-.47,4.16-.47,4.16-2.44,2.92-.71-.55-.59-1.25-.33-2,.09-.37-.6-.08-.22-.09.15,0,.22.06.17.18C51.19,272.05,51.32,272.89,50.53,273.27Z"/><path class="cls-56" d="M20.18,222.91c-2.22.14-.08,1.35-.48,1.93-3.23.38-4.4-2.11-5.84-4.21a4,4,0,0,1-.17-1.71c.46-1.11,1.5-1.59,2.43-2.19l1-.17c2.18-1,4-2.76,6.4-3.29,2.06-.45,4.2-1,5.72,1.21-1.72,2.63-5.16,3.24-6.88,5.87-1.14.82-2-.53-3.27-.34C19.71,220.91,20.58,221.7,20.18,222.91Z"/><path class="cls-57" d="M64.37,249l-.22.59c-.92,2-2.71,3.28-3.94,5a2.68,2.68,0,0,1-3.94.78c-.75-1.4.36-2.3,1-3.2a13.88,13.88,0,0,0,2.56-7.2A18.84,18.84,0,0,1,64,240.7c.83-.58,1.63-1.28,2.7-.46,1.12,1.63-.8,2.65-.81,4a13.11,13.11,0,0,0-.61,3.34C65.2,248.22,64.71,248.56,64.37,249Z"/><path class="cls-58" d="M56.37,255.2c1.29-.63,3.25,0,3.45-2.67.07-.85,2-3.3,4.33-2.94,2.34,2.88,2.27,5-.23,6.62a17.87,17.87,0,0,0-3.06,1.21C58.51,258.39,56.54,257.34,56.37,255.2Z"/><path class="cls-59" d="M52.39,257.82c-2.63.62-5.28.21-7.92.09-2.31-.52-4.67-1.84-6.84.35-1.83-.61-3.64-1.23-4.5-3.21a4.56,4.56,0,0,1-.31-.42c.7-2,2.41-1.8,4-1.74a35.37,35.37,0,0,1,10,2.36l2.34.31C51,255.12,52.67,255.06,52.39,257.82Z"/><path class="cls-60" d="M46.77,255.25c-4.63-.69-9.21-2.27-13.94-.62H30.91c-1.29-.57-2.78-.47-4-1.26-.59-1.71.76-1.56,1.68-1.7A28.5,28.5,0,0,1,46.77,255.25Z"/><path class="cls-61" d="M14.14,219.93l5.56,4.91a5.71,5.71,0,0,1,.23,4.58c-.28.76-.78,1.24-1.42.22-.34-1.43-2.53-.95-2.68-2.59-.91-.16-2.14.38-2.4-1.14-.12-1.19-.84-2.26-.78-3.48C12.71,221.36,12.61,220.15,14.14,219.93Z"/><path class="cls-62" d="M56.37,255.2c.91,2.57,2.8,1.84,4.48,1.18,1.06-.42,2-1,3.07-.17l1,1.07c-2.36,1.37-4.79,2-7.41.75a1.59,1.59,0,0,1-1.57-1.12c-1-.19-1.33-.87-1.19-1.83l.49-1.14a55.11,55.11,0,0,1,3.24-6.7c.37-.68.49-1.9,1.78-1.77.4,1.49,1.06,2.83-.32,4.37A41.89,41.89,0,0,0,56.37,255.2Z"/><path class="cls-63" d="M60.25,245.47c-2.39,2.4-3.12,5.78-5,8.47,1.69-5.77,4.26-11,9.29-14.59,1.09-.77,2.74-2.61,4.2-.15-.69.48-1.16,1.43-2.24,1.06A22,22,0,0,0,60.25,245.47Z"/><path class="cls-64" d="M57.5,258c2.43-.66,4.94-.48,7.41-.75,2.51.3,4.4,1.38,5,4.08-1.33-.09-2-1.35-3.19-1.74-1.56-.53-3.36-1.08-4.65-.11C59.55,261.34,58.62,259.69,57.5,258Z"/><path class="cls-65" d="M54,263.59c-.05,2.46-.8,3.17-2.8,2.62a1.58,1.58,0,0,0-1.88.86,5.2,5.2,0,0,1-3.09,2.21,4.82,4.82,0,0,1,1.07-3.88C49.68,262.81,51.94,262.2,54,263.59Z"/><path class="cls-66" d="M54,263.59a13.73,13.73,0,0,0-6.7,1.81,1.16,1.16,0,0,0-.8-1.18,10,10,0,0,0,6.39-5.65c.64-.34,1.06,0,1.41.48.24,1.15,1.7,2,.86,3.42Z"/><path class="cls-67" d="M2.54,212.48c3.14,1.4,5,4.3,7.78,6.4a8.4,8.4,0,0,0-5.47,1.38l-.39-1.67C3.76,216.57,2,214.88,2.54,212.48Z"/><path class="cls-68" d="M54,259.27l-1-.7-.53-.75c-.41-1.76-2.17-1.53-3.28-2.26.11-1.3.85-1.43,1.91-1.09a8.73,8.73,0,0,0,3.72.61l1.19,1.83c-.08.39-.16.78-.25,1.18l-1.13.54C54.45,258.93,54.38,259.26,54,259.27Z"/><path class="cls-69" d="M20.18,222.91a5,5,0,0,0-1.76-1.6c-.9-.49-3.12,0-2.39-1.72.46-1.1,2.44-1.57,4.08-1.17A2.8,2.8,0,0,1,22,220.23c.43,0,.54.18.33.56C21.68,221.57,21.23,222.54,20.18,222.91Z"/><path class="cls-70" d="M29,214.49c-4.45-2.12-8.12.35-11.92,2.08,3.41-2.88,7-5.21,11.76-4,1.39.34,3.18.71,1.14,2.64C29.42,215.3,29.13,215,29,214.49Z"/><path class="cls-71" d="M33.13,255.05c1.62.74,2.7,2.37,4.54,2.72,1.94-.77,2.91.06,3.22,2a5.64,5.64,0,0,0-.38,3.27l-.26,0c-.93-3.66-4-4.85-7-6.17C32.17,256.39,32.18,255.74,33.13,255.05Z"/><path class="cls-72" d="M66.48,240.26a3.43,3.43,0,0,1,2.24-1.06c-.79,2.7-2.4,5.12-2.78,8A2.19,2.19,0,0,1,64.37,249l.77-1.59a11.34,11.34,0,0,1,.06-2.91C64.92,242.87,67.14,242,66.48,240.26Z"/><path class="cls-73" d="M2.54,212.48a16,16,0,0,1,1.92,6.1A19.17,19.17,0,0,1,0,208.33Z"/><path class="cls-74" d="M15.83,227.05c1.55.18,3.73-.29,2.68,2.59-1.48-.12-.25,1.64-1.42,1.86C15.65,230.36,14.89,229,15.83,227.05Z"/><path class="cls-75" d="M54,259.27l.59-.64c.83,2.49,3.63,4.1,3.46,7.31-1.55-.54-1.3-2-2.17-2.7-.22-.26-.44-.51-.65-.77Z"/><path class="cls-76" d="M29,214.49l1,.69c-2.32,2.2-5.6,3.08-7.68,5.61l-.33-.56A23.91,23.91,0,0,1,29,214.49Z"/><path class="cls-77" d="M16.12,216.73,14.19,219c-.25.75-.84.58-1.39.54-1.05.32-.82-.43-.82-1C12.58,216.14,14.86,217.61,16.12,216.73Z"/><path class="cls-78" d="M12.8,219.52l1.39-.54c0,.32,0,.63,0,1-2,1.8-.17,4-.71,6-.5-1-1-2-1.48-3C12.23,221.77,12.52,220.65,12.8,219.52Z"/><path class="cls-79" d="M26.91,253.38a3.89,3.89,0,0,1,4,1.26C29.36,254.9,27.83,255.12,26.91,253.38Z"/><path class="cls-80" d="M50.53,273.27l.83-3.77.47,0v3.8Z"/><path class="cls-81" d="M40.89,259.74c-1.22-.41-1.73-2-3.22-2,.23-1,.21-2.66,1.67-2.39,1.86.35,4.15.23,5.13,2.53Z"/><path class="cls-82" d="M65.2,244.49a6.36,6.36,0,0,1-.06,2.91C64.85,246.42,64.45,245.45,65.2,244.49Z"/></g></g></svg>