<svg xmlns="http://www.w3.org/2000/svg" viewBox="0 0 190.21 142.83"><defs><style>.cls-1{fill:#e6e7f7;}.cls-2{fill:#e9eaf8;}.cls-3{fill:#f0a22b;}.cls-4{fill:#fcfdfc;}.cls-5{fill:#fcc441;}.cls-6{fill:#fcc443;}.cls-7{fill:#fbc543;}.cls-8{fill:#f0aa14;}.cls-9{fill:#efeef7;}.cls-10{fill:#141444;}.cls-11{fill:#f4bc33;}.cls-12{fill:#736a86;}.cls-13{fill:#755f55;}.cls-14{fill:#846674;}.cls-15{fill:#755f56;}.cls-16{fill:#d99006;}.cls-17{fill:#f6c76d;}.cls-18{fill:#ef9e2a;}.cls-19{fill:#f4bb5b;}.cls-20{fill:#1f1d45;}.cls-21{fill:#fdfdfd;}.cls-22{fill:#f0a811;}.cls-23{fill:#eb8625;}.cls-24{fill:#eea511;}.cls-25{fill:#d4d6f4;}.cls-26{fill:#93727e;}.cls-27{fill:#f7c768;}.cls-28{fill:#141543;}.cls-29{fill:#f3b625;}.cls-30{fill:#c47107;}.cls-31{fill:#eacc92;}.cls-32{fill:#f8ca42;}.cls-33{fill:#181745;}.cls-34{fill:#191743;}.cls-35{fill:#e9a732;}.cls-36{fill:#8e6d7d;}.cls-37{fill:#6a607e;}.cls-38{fill:#f3e1bd;}.cls-39{fill:#765c57;}.cls-40{fill:#f9ecda;}.cls-41{fill:#f9f4ed;}.cls-42{fill:#f2af21;}.cls-43{fill:#312b60;}.cls-44{fill:#665d7c;}.cls-45{fill:#dadae6;}</style></defs><title>bookings01</title><g id="图层_2" data-name="图层 2"><g id="图层_1-2" data-name="图层 1"><path class="cls-1" d="M25.82,120.91c0-.12,0-.25-.05-.37.59-.94,1.55-.85,2.44-.86,4.49,0,9-.07,13.45,0,1.11.32,2.22,0,3.33,0a2.13,2.13,0,0,0,2.08-1.52c.51-1.16-.65-1.21-1.17-1.68a1.82,1.82,0,0,1-.48-.62c-.06-1.26,1-1.59,1.8-2.1,1.94-1.25,4.15-2,6.12-3.16a21.08,21.08,0,0,0,3.9-3c1.08-1.08.88-1.93-.51-2.55s-3-.21-4.46-.08a6.55,6.55,0,0,0-3.41.75c-1.46.51-.43,2-.79,3-1.85,2.75-3.78,5.43-5.89,8a4.63,4.63,0,0,1-3.58-.07,4.21,4.21,0,0,1,0-5.61c2.35-3.21,4.73-6.51,8.34-8.47C55.79,97.72,58.41,87.76,57,80.63a9.41,9.41,0,0,0-3.11-5.55,2.07,2.07,0,0,1-1-1.61,2.17,2.17,0,0,1,1.69-1.53c1.91,0,3,1.34,3.88,2.69A15.58,15.58,0,0,1,61,83.19c0,2.27.28,2.47,2.52,2.52,4.49.11,4.49.11,4.49-4.29,0-6.51,0-13,0-19.53,0-4.2-.71-4.89-5-4.9-6.31,0-12.62,0-18.93,0-1,0-2,.16-2.81-.63C41,55.15,42,55.12,42.66,55a13.11,13.11,0,0,1,3.13-.07,2.5,2.5,0,0,0,2.92-2A21.36,21.36,0,0,1,51,48c.86-1.38.69-1.64-1-1.65-5.56,0-11.13,0-16.69,0-1.11,0-2.24.09-3.17-.74A2.24,2.24,0,0,1,29.42,44c.08-2.74-.77-5.55.57-8.21a4.16,4.16,0,0,1,2.81-.64c3.87-.06,7.73.07,11.6-.09a77.39,77.39,0,0,0,14,.16c.79-.05,1.58-.08,2.36-.08q36.36,0,72.72,0c1.29,0,2.64-.26,3.86.45.89.75.58,1.66.23,2.51-2,4.8-4,9.57-6,14.34a9.87,9.87,0,0,1-3.11,3.76,55,55,0,0,1-11,6.89,3.16,3.16,0,0,1-2.27.42,1.27,1.27,0,0,1-.51-.41,4.73,4.73,0,0,1-.47-2.48c-.21-2.27-1.41-3.59-3.65-3.62q-11-.16-22.09,0c-2.22,0-3.3,1.11-3.33,3.31-.09,7.83,0,15.66,0,23.49,0,1.33.6,1.89,1.92,1.89q12.63,0,25.26,0c1.3,0,1.94-.54,1.93-1.88,0-2.5,0-5,0-7.5,0-1.65-.43-1.85-1.93-1-1.3.78-2.66,1.43-4,2.19-2,1.17-3.17.91-4.56-1-1.57-2.11-2.92-4.37-4.46-6.5a2.76,2.76,0,0,0-2.45-1.27,2.36,2.36,0,0,1-2.4-2.56,2.3,2.3,0,0,1,2.65-2.09c3.47.43,7,0,10.43.34,1.52.32,1.68,1.22,1,2.45-.24.47-.56.88-.82,1.34-.17.28-.38.57-.12.89s.59.16.89,0c1.73-.6,3.56-.8,5.28-1.43a6.91,6.91,0,0,1,2.89-.42c5.59-.46,11.06-1.34,16.18-3.86,2-1,3-.1,3.15,2.22.29,4.87-.64,9.7-.45,14.58a34.12,34.12,0,0,1,.21,4.52c-.08.89.66,1.22,1.05,1.79a3,3,0,0,1,.37,1.71c-.09,6,.72,11.9.42,17.87a2.28,2.28,0,0,1-2.83,2.24,4,4,0,0,0-.6,0c-23.61-.1-47.22.44-70.83.25-.73,0-1.45,0-2.17,0a2.27,2.27,0,0,0-2.17,1.4,44.2,44.2,0,0,1-4.08,6.95c-1.07,1.51-1.29,3.65-2.14,5.4a3.15,3.15,0,0,1-.33,1.63,8.56,8.56,0,0,0-1.19,2.45c-2.35,6.54-6.72,11.59-12,15.92a1.14,1.14,0,0,1-.57.11c-3.07,0-6.14,0-9.21,0-.69,0-1.46.22-2-.44l-.78-8.24c.59-.47,1.11-.15,1.62.16A8.24,8.24,0,0,0,38.77,133a24.73,24.73,0,0,0,6-8.63c1-2.24.68-2.67-1.7-2.69-4.85,0-9.7,0-14.55,0A3.21,3.21,0,0,1,25.82,120.91Z"/><path class="cls-2" d="M163.94,36c.9-1.67.24-3.47.41-5.2.08-.84,0-1.7,0-2.76a13,13,0,0,1,5,4.24A37.22,37.22,0,0,1,177.42,56c0,6-.44,12.06-.76,18.09-.48,8.94,1.82,17.43,5,25.7,2.76,7.18,4.64,14.53,4,22.3-.66,8-3.43,14.92-9.87,20.06-.49.6-1.19.44-1.82.44-3.58,0-7.16,0-10.74,0-1.49-.33-1.47-1.64-1.78-2.74a11.38,11.38,0,0,1-.29-1.93c-.08-.66-.39-1.1-1.11-1.11a1,1,0,0,0-1.17,1.05,3.05,3.05,0,0,1-2.65,2.74c-1.7.45-3.15,1.53-4.85,2-1.77,0-3.55-.08-5.31,0s-2.49-.43-2.51-2.15a9.84,9.84,0,0,0-.38-1.72,4.81,4.81,0,0,1-.12-.76c-.07-.74-.36-1.24-1.2-1.22a1.07,1.07,0,0,0-1.16,1.07c-.17,1.64-1.1,2.12-2.68,2.07a10.45,10.45,0,0,0-6,2,2.7,2.7,0,0,1-1.77.66q-30.52,0-61,0c-.93-.1-1.14-.55-.57-1.3a3.59,3.59,0,0,1,1.65-1,62.24,62.24,0,0,0,18.89-13,38.45,38.45,0,0,1,6-5c13.34.16,26.68,0,40,.07a9.61,9.61,0,0,1,2.93.19c1.54,1.26,1.18,3.12,1.34,4.74s.38,3.38.48,5.08a1.48,1.48,0,0,0,1.81,1.56c1.19-.11,2.79.65,3.23-1.29a57.63,57.63,0,0,0,.81-6.43c.15-1.3.19-2.63,1.24-3.62a15.47,15.47,0,0,1,8.13,0c1.49,1.14,1.3,2.93,1.68,4.48a36.33,36.33,0,0,1,.74,4.86c.18,1.78,1.11,2.12,2.64,2.09,1.78,0,1.62-1.26,1.79-2.46a67.5,67.5,0,0,0,.36-8.65,4,4,0,0,1,.41-2.1c1.27-1,1-2.48,1-3.83-.15-3-.16-6-.29-9.06.49-1.48,0-3,0-4.44a22.63,22.63,0,0,0,.31-4.11q0-16,0-31.92c0-1.7-.43-3.39,0-5.09a3.14,3.14,0,0,1,.53-2.05c2.14-3,1.8-6.25.72-9.55a126.26,126.26,0,0,0-4.68-12.23,2.6,2.6,0,0,1-.31-2.07C161.42,34.92,162.21,34.85,163.94,36Z"/><path class="cls-3" d="M137.51,36.39c-.81-.66-1.77-.37-2.65-.37Q91,36,47.16,36c-.92,0-1.83-.05-2.75-.08.26-1.28,1.33-1.09,2.18-1.11,2.69-.08,5.38,0,8.07,0A2.62,2.62,0,0,0,57,34a1.93,1.93,0,0,0,.57-1.79c-.22-.58-.87-.47-1.38-.54-1-.13-2.06-.32-2.25-1.52-.23-1.38,1.13-1.36,1.88-1.88,1.88-1.27,1.82-1.77-.41-3.48-.59-.81-1.25-.32-1.92-.14-2.16.56-5.8-1.52-6.44-3.65-.11-.36.1-.61.37-.82,1.32-.81,2.45.11,3.65.37l87.66.06c.78,0,1.57,0,2.36.07,1.08,1,.44,2.2.27,3.29-.42,2.66-.14,3,2.51,2.65a2.37,2.37,0,0,1,1.53.13,5.1,5.1,0,0,1,.83,5.14A2.77,2.77,0,0,1,144,33a7.53,7.53,0,0,0-5.21,2.81C138.5,36.16,138.15,36.61,137.51,36.39Z"/><path class="cls-4" d="M38.4,116.15l4.08,0a.75.75,0,0,1,.62-.09c1.53,1.44,1.31,2.77-.74,4.44l-16.59.06c-1.54-.33-1.66-1.46-1.47-2.7s1.11-1.76,2.4-1.69c1,.06,2.07,0,3.1-.05,2.56-1.67,2.55-1.67,1.91-4.82a22,22,0,0,1-.8-3.25c0-.91.11-1.75,1.37-1A36.82,36.82,0,0,1,32,95.6a19.32,19.32,0,0,0-.22-7.23c-.89-3-3.4-4.32-6.47-3.54A9.84,9.84,0,0,0,18,93.41c-.32,3.46.37,6.5,3.18,8.87A37.79,37.79,0,0,1,25,106.19c.6.68,1.27,1.39.85,2.45-.18,0-.44.12-.53,0a88.69,88.69,0,0,1-7.54-7.21c-4.08-4.83-2-14.38,3.57-17.44A9.87,9.87,0,0,1,29,83.39c1.11.3,1.58.18,1.54-1.08-.07-2.7-.06-5.39-.08-8.09a2.77,2.77,0,0,1-.74-2c0-3.58-.19-7.17.12-10.76a8.26,8.26,0,0,0,.06-1.11,87,87,0,0,1-.12-11.07,5.67,5.67,0,0,0,.12-1.08c.15-.92-.4-2,.61-2.71,7,0,14,0,21.05,0,1.64,0,1.82.36.9,1.71a22.17,22.17,0,0,0-3.34,7.29c-.26,1.09-.94,1.23-1.87,1.29-2,.11-4-.35-6,.28a1,1,0,0,1-.44.63c-2.78,1.16-3.19,3.41-3.14,6.13.12,6.69,0,13.39,0,20.09,0,.59,0,1.18,0,1.77s0,1,.51,1.18,1-.3,1.28-.7A17.6,17.6,0,0,0,42,79.63,14.53,14.53,0,0,1,46.37,73a8,8,0,0,1,5-2.13c1.19,0,2.42,0,2.88,1.49-.25.57-.49,1.13-1.21,1.23-.4.63-1.06.69-1.71.83a6.08,6.08,0,0,0-4.93,4.36c-2.31,9.2-7,17.59-8.92,26.92-.32,1.6-1.23,3-1.19,4.74a12.7,12.7,0,0,0,0,2,3.67,3.67,0,0,1-.23,1.14c-.51,1.26-.23,2,1.25,2A1.69,1.69,0,0,1,38.4,116.15Z"/><path class="cls-5" d="M51.07,20.56l-4,.07c-.63.91-1.6.79-2.51.8-2.82,0-5.65,0-8.47,0-3.45.05-5,1.58-5.17,5.06-.11,2-.6,3.89-.17,5.88a1.65,1.65,0,0,1-.68,1.74c-.93.34-1.31-.34-1.68-1-1-1.63-1.84-3.32-2.74-5s-.41-3.65-.21-5.39a43.43,43.43,0,0,1,2-8.88,53,53,0,0,0-2,9.58c-.06.56.16,1.36-.6,1.47s-1-.59-1.22-1.13c-1.82-4.06-3.71-8.1-5.21-12.31-1.05-3-2.58-5.74-3.25-8.84.77-2.8,4.07-3,6.69-2.4C26.48,1.34,30.38,3.9,34,6.88c4.47,3.66,8.62,7.71,13.37,11.05Z"/><path class="cls-6" d="M30.52,45.52,30.31,48c-1.59.25-2.27-1.18-3.18-1.94A78.07,78.07,0,0,0,13,37a3.25,3.25,0,0,1-1.76-1.48A90,90,0,0,1,12.46,7.83c.34-1.68.56-3.54,2.25-4.62.87.18,1,1,1.26,1.61C18.47,10.88,20.73,17,23.45,23c.6,1.31,1.55,2.43,1.91,3.86.44,1.73.26,2.05-1.51,1.59a17.15,17.15,0,0,0-3.9-.34c1,0,2,0,2.94.05,3,.08,4.46,2,5.53,4.42a10.15,10.15,0,0,0,1.72,2.62,1.91,1.91,0,0,1,0,.89C30.46,39.22,29.92,42.4,30.52,45.52Z"/><path class="cls-7" d="M30.42,61.37q0,6.42,0,12.85C29.2,74,28.75,72.84,28.09,72c-5.74-7.21-11.27-14.57-14.5-23.32a31.93,31.93,0,0,1-2.4-12.29c.88-.4,1.5.28,2.16.61A72.06,72.06,0,0,1,28.4,46.93a8.37,8.37,0,0,1,2,2.17V60.47c-.51.54-1,.13-1.42-.09C27.22,59.47,25.39,58.73,24,58,25.86,59.1,28.41,59.72,30.42,61.37Z"/><path class="cls-8" d="M25.87,108.64a23.06,23.06,0,0,0-5.76-6.17c-5.2-3.82-3.85-15.36,3.54-18.08,5.12-1.88,9.44.82,9.32,6.25-.14,6-.64,12.09,0,18.35-1-.5-.73-1.54-1.6-2.08.34,1.18.67,2.21.94,3.26a24.32,24.32,0,0,1,.56,2.5c.5,3.5.49,3.51-3,3.43C29,113.34,28.07,110.66,25.87,108.64Z"/><path class="cls-9" d="M25.82,120.91c6.17,0,12.34,0,18.51,0,2,0,2.42.48,1.78,2.35a23.36,23.36,0,0,1-8.84,12,4.91,4.91,0,0,1-4.47.84,2.36,2.36,0,0,0-1.35-.13,3,3,0,0,1-3.81-1.5c-.17-.27-.66-.35-1-.53A91.42,91.42,0,0,1,25.82,120.91Z"/><path class="cls-10" d="M145.14,26.74a11.41,11.41,0,0,1-1.56.79,2.68,2.68,0,0,1-2.77-.27,2.32,2.32,0,0,1-.45-2.56,17.7,17.7,0,0,0,.73-4l.06,0c1-.62,1.2.32,1.5.86.53.92,1.13,1.15,1.74.2.73-1.13,1.4-2.23,3.24-1.65-1.42-1-2.18-2.6-4-2.39a1.54,1.54,0,0,1-1.37-.64,7.23,7.23,0,0,1-2.69-4.2c-.59-1.8.33-3.21,2-4s3.26-.74,4.41.78a2.24,2.24,0,0,0,2.43,1.09c.48-.08,1.27,0,1.47.32,1.06,1.65,3,2.51,3.92,4.15,1.13,1.93-.09,3.63-1,5.3.25,2.15-.82,3.81-2,5.45-.1.08-.22.19-.33.18A8.31,8.31,0,0,0,145.14,26.74Z"/><path class="cls-11" d="M150.45,25.68c.92-1.68,1.23-3.62,2.32-5.23a30,30,0,0,0,5.1.18,5.92,5.92,0,0,1,6.06,5.91c.07,3.14,0,6.29,0,9.43-1.16.4-2.63-.62-3.59.76a.38.38,0,0,1-.54.07,3.67,3.67,0,0,1-1-1.4,5.86,5.86,0,0,0-5.34-3.33,3.44,3.44,0,0,1-2.55-.79C149.86,29.49,149.12,27.67,150.45,25.68Z"/><path class="cls-12" d="M143.9,138.22a9.15,9.15,0,0,1,.25,1.13c.28,2.9.28,2.9,3.3,2.88h4.27a31.07,31.07,0,0,1,11.09,0l13,0h14.42v.66H0v-.66H39.22a3.43,3.43,0,0,1,2.34-.77c2.92,0,5.83-.1,8.74.09,5.34-.21,10.68-.08,16-.08a2.37,2.37,0,0,1,2.12.76l27.56.07,34.85.05c2.66-.89,5.42-.35,8.13-.49a11.14,11.14,0,0,0,3.11-.18c1.31-.45.67-1.83,1.15-2.7A1.45,1.45,0,0,1,143.9,138.22Z"/><path class="cls-13" d="M29.8,35.67a40.53,40.53,0,0,1-2.36-4.07,4.6,4.6,0,0,0-3.87-2.81,27.05,27.05,0,0,0-6.23-.07c2.52-1.52,5.2-1,8.05-.42-2.15-4.94-4.2-9.67-6.24-14.39-1.53-3.55-2.52-7.32-4.44-10.7l.42-.53c1.32,1.38,1.72,3.23,2.38,4.92,2,5.14,4,10.27,6.37,15.26.26.57.32,1.28,1.06,1.68a43.38,43.38,0,0,1,3.21-13.39c.76.91.2,1.48,0,2a52.69,52.69,0,0,0-2.29,10.15c-.67,4.38,1.91,7.45,4,10.73C30.55,34.62,30.93,35.18,29.8,35.67Z"/><path class="cls-14" d="M142.26,17.05c.78-.07,1.55-.16,2.33-.22.31,0,.81-.15.92,0a3.43,3.43,0,0,0,2.59,1.81c.56.06.69,1.45,0,2.23-.86,1-1.54.33-2.2-.33a3,3,0,0,0-.35.53c-.38,1.15-.84,2.46-2.2,2.4-1.2,0-1.38-1.35-1.65-2.37,0-.18-.38-.29-.58-.43A6.08,6.08,0,0,0,142.26,17.05Z"/><path class="cls-15" d="M30.38,49.1c-3.93-3.23-7.82-6.52-12.29-9-2.28-1.27-4.6-2.46-6.9-3.69-.14-.3-.32-.6.05-.88A74.81,74.81,0,0,1,30.31,48C30.33,48.39,30.36,48.75,30.38,49.1Z"/><path class="cls-16" d="M151.38,31.26c2.59-.05,5.17-.12,7.06,2.17a5.86,5.86,0,0,1,1.59,3.3c1.57,5,1.67,10.16,1.57,15.29-.08,3.85.73,7.68.24,11.52-.08,2,0,4.06,0,6.09,0,2.63-.86,3.7-3.46,4.48-2.65.56-5.21,1.57-8,1.66-3.32.15-6.59.83-10,.26-2.83-.47-3.21.06-3.23,2.87,0,1.78,0,3.55,0,5.32,0,.85,0,1.74-.88,2.24-1.39.38-1.29-.52-1.29-1.44q0-9.73.06-19.47c0-2.22,0-2.24-1.87-1.22-5,2.68-10.46,3.26-15.93,3.92a1.21,1.21,0,0,1-1-.44,4,4,0,0,1-.84-4.44,109.56,109.56,0,0,0,10.15-5.92c2.93-2.12,5.26-4.48,6.52-8.05,1.55-4.43,3.63-8.68,5.48-13,1.71-3.54,4.89-4.27,8.4-4.39A5.56,5.56,0,0,1,151.38,31.26Z"/><path class="cls-17" d="M108.05,65.2c-3.6,0-7.21.43-10.79-.33a1.8,1.8,0,0,0-2.19.9,1.44,1.44,0,0,0,.3,1.8c.68.71,1.46,1,2.26.29s1.09,0,1.45.49c1.85,2.72,3.76,5.4,5.53,8.16.76,1.18,1.4,1.47,2.67.68,2.06-1.29,4.23-2.39,6.35-3.58.86-.48,1.33-.41,1.32.74,0,3.61,0,7.23,0,10.85,0,1-.43,1.38-1.42,1.38q-14,0-28,0c-.92,0-1.27-.38-1.27-1.3,0-8.62,0-17.23.06-25.85,0-2,1.66-3.32,4.1-3.34,5.26,0,10.53,0,15.79,0,1.9,0,3.81,0,5.72,0,3.48,0,5,1.58,5.12,5,0,.72.07,1.44.1,2.16-.65,1.47-2,1.37-3.29,1.57S109.24,64.36,108.05,65.2Z"/><path class="cls-18" d="M54.22,72.31c-3.1-1.52-6.78-.27-9.19,3.12A20.73,20.73,0,0,0,42.46,81a16.87,16.87,0,0,1-2.87,5.57c-.47.57-1,1.11-1.84.82s-.85-1-.85-1.63c0-8.62,0-17.23.07-25.84,0-2.22,1.57-3.43,4.25-3.82L63.31,56c4.38,0,5.52,1.12,5.52,5.45,0,7.76,0,15.53,0,23.29,0,1.45-.36,2-1.86,1.92a39.76,39.76,0,0,0-5.12,0c-1.33.07-1.72-.44-1.67-1.71a16.94,16.94,0,0,0-1.91-9C57.39,74.3,56.29,72.74,54.22,72.31Z"/><path class="cls-19" d="M138.2,122.79l-41.76.08c-.65,0-1.31,0-2,0a5.28,5.28,0,0,1-3.17.82c-12,0-24.11,0-36.16,0-1,0-2.14.2-2.88-.83-.08-.1-.25-.24-.22-.3.9-2.21.77-4.81,2.53-6.68a17.44,17.44,0,0,0,3.5-6.11A2.61,2.61,0,0,1,61,107.88q36.87,0,73.75,0c.88,0,2.12.47,2.13-1.18l0-.2v-.19c1,.41.86,1.14.57,1.93-.81,1.05-2,.88-3.08.89-8.34,0-16.69.18-25-.07-3.78-.12-5.84,1.81-7.58,4.57-1.33,2.11-2,4.56-3.24,6.74-.56,1-.06,1.29.87,1.3h1.78q16.95,0,33.89,0c1,0,2.12-.22,3.05.5A.47.47,0,0,1,138.2,122.79Z"/><path class="cls-20" d="M137,108.32a3.23,3.23,0,0,0-.1-1.66q-.31-10.09-.61-20.2c0-3.27,0-6.55-.07-9.82,0-1,.18-1.61,1.39-1.51a116.73,116.73,0,0,0,13,0,2.77,2.77,0,0,1,.75,2.71c-.6,4.45-1.06,8.92-1.79,13.35-.31,1.89.12,3.77.14,5.66a24.08,24.08,0,0,0-.63,7c.25,5.47-.48,10.88-.85,16.32a3.25,3.25,0,0,1-1.08,2.45c-.41,3.58-.87,7.15-1.21,10.74-.09,1-.3,1.51-1.45,1.43-1.63-.12-3.61.48-4.82-.25s-.51-3-.76-4.56c-.38-2.38-.44-4.82-.65-7.23l-.06-.38a3.31,3.31,0,0,1-1-2c-.16-2.92-.49-5.81-.77-8.72C136.24,110.52,136.06,109.3,137,108.32Z"/><path class="cls-21" d="M52.27,122.89l42.21,0c-1.83,2.86-4.57,4.84-7,7a63.56,63.56,0,0,1-14.65,10.09c-1.45.71-3.15.92-4.37,2.1H50.3a2.07,2.07,0,0,1-.8-1.91c.71-5.4.58-10.93,2.35-16.18Z"/><path class="cls-22" d="M38.4,116.15l-.19,0c-4.06-.07-4.06-.07-2.53-3.9a54.76,54.76,0,0,1,3.55-7c2.46-4.62,5.22-9.09,7-14.07a44.66,44.66,0,0,0,1.66-5.73A54,54,0,0,1,41.57,101q-2.37,4.17-4.61,8.45c-.26.49-.27,1.4-1.25,1.18a64.31,64.31,0,0,1,4.13-15.68,106.43,106.43,0,0,0,5-14.65,9.93,9.93,0,0,1,1.84-3.88A6.52,6.52,0,0,1,53,73.54c5.1,3,5.57,8,5,13.11-.83,7.79-4.68,13.45-11.77,17.26-3.24,1.74-5.72,5-7.55,8.36C38.06,113.48,38.85,114.88,38.4,116.15Z"/><path class="cls-23" d="M29.8,35.67c.62-.51.22-1.07.07-1.62.09-2.72,0-5.44.22-8.17.3-3.15,2.25-5.24,5.43-5.26,3.86,0,7.73,0,11.6,0A22.61,22.61,0,0,1,50,23.2a2.91,2.91,0,0,0,3.75.6c1-.46,1.77-.59,2,.76a1.85,1.85,0,0,1-.47.84C54,27,54,27.28,56,28.34c.29.16.57.33.62.69-.59.68-2.28-.32-2.13,1s1.59.71,2.49.8,2,0,1.94,1.33a3.78,3.78,0,0,1-3.19,3.41c-3.07,0-6.14,0-9.21,0a3.22,3.22,0,0,0-2.09.31l-14.26.14Z"/><path class="cls-24" d="M42.79,116.2l-.15-.08h-.16c.88-3,3.05-5.21,5.11-7.45.73-2.34,2.58-3.46,4.68-4.32a8.18,8.18,0,0,1,4.44-.22,2.61,2.61,0,0,1,2.18,1.76c.35,1.14-.41,1.8-1.18,2.46a29.4,29.4,0,0,1-7.77,4.85,16.35,16.35,0,0,0-4.37,2.58C44.84,117.25,43.78,116.46,42.79,116.2Z"/><path class="cls-25" d="M51.85,124.08c-.44,4.93-.83,9.86-1.36,14.78-.12,1.11-.18,2.2-.19,3.31H39.22a2.79,2.79,0,0,1,1.16-1.75A34.33,34.33,0,0,0,51,125.14,1.73,1.73,0,0,1,51.85,124.08Z"/><path class="cls-26" d="M108.05,65.2c.06-1.36,1.12-1.07,1.89-1.06a12.45,12.45,0,0,0,5.17-.85.53.53,0,0,1,.25.08,13.49,13.49,0,0,1,.84,4.44c-2.24.71-4.4,1.75-6.82,1.78-.5,0-.6.36-.84.68-.68.91-1.17.28-1.74-.23s-1-.83-.3-1.7S108.73,66.82,108.05,65.2Z"/><path class="cls-9" d="M42.79,116.2a6.58,6.58,0,0,0,2.78-.41l.54.23c.9.3,2.46,0,2.07,1.61-.32,1.33-.85,2.82-2.69,2.87-1,0-2.09,0-3.13,0,.3-.7.55-1.42.9-2.1A1.57,1.57,0,0,0,42.79,116.2Z"/><path class="cls-27" d="M52.27,104.36l-4.68,4.32c-.52-3.56-.53-3.57,3.15-4.18C51.24,104.42,51.76,104.41,52.27,104.36Z"/><path class="cls-28" d="M148.93,96.92c-1.08-5.08.58-10,1-15a65,65,0,0,0,.63-6.82c2.51-.49,4.94-1.36,7.5-1.61,1.33,1.11,1.08,2.7,1.28,4.16a85.11,85.11,0,0,1,1,8.73c.77,2.73.24,5.67,1.26,8.37.54,3.75,1.14,7.49,1.43,11.27a84.62,84.62,0,0,1,.76,12.11,6.55,6.55,0,0,1-.53,2.87c-.14,4.12-.33,8.25-.4,12.38,0,1.12-.36,1.4-1.46,1.41-4.2,0-4.19.06-4.85-4-.44-2.71-.93-5.42-1.39-8.13a2.55,2.55,0,0,1-1.12-1.76c-1.65-6.31-3.1-12.68-4.87-19A11,11,0,0,1,148.93,96.92Z"/><path class="cls-29" d="M148.93,96.92c.77,5.13,2.61,10,3.75,15q1.22,5.36,2.47,10.7a54.21,54.21,0,0,1-8.06,0c.8-8.22,1.24-16.46,1.4-24.72A1,1,0,0,1,148.93,96.92Z"/><path class="cls-30" d="M161.24,63.78c-.3-5.18-.43-10.36-.48-15.55,0-3.32-.53-6.65-.87-10a2.84,2.84,0,0,1,.14-1.53.58.58,0,0,0,.32,0,100.4,100.4,0,0,1,5.49,13.68c1.35,4.06,1.35,7.82-1.56,11.22C163.75,63,163.14,64.31,161.24,63.78Z"/><path class="cls-31" d="M161.24,63.78c1.27-.35,2.07-1.37,3-2.15q0,21,0,41.92c-1.11-.25-1.06-1.17-1.15-2-1-9.42-.76-18.87-.74-28.31,0-2.28.73-4.53.37-6.84-.08-.56.11-1.2-.22-1.44a9.91,9.91,0,0,1,.26,3.92c-.69,5-.34,10.1-.43,15.16,0,.91.13,1.86-.59,2.62a1.48,1.48,0,0,1-2.12-.13q-.81-6.49-1.63-13c3.09-1.32,3.19-1.48,3.17-4.82C161.2,67.07,161.23,65.42,161.24,63.78Z"/><path class="cls-32" d="M161.59,86.56c0-4.47-.24-9,.11-13.38.23-2.83,1-5.63.88-8.54a6.51,6.51,0,0,1,.8,3.9,210.11,210.11,0,0,0,0,25c.19,3.29.13,6.74.9,10l0,4.27c-1.26,0-1-1.52-1.88-1.92-.37-2.41-.77-4.82-1.12-7.24-.17-1.22-.25-2.45-.37-3.68.42-1.4,0-2.8,0-4.2S160.32,87.78,161.59,86.56Z"/><path class="cls-33" d="M143.9,138.22a12.62,12.62,0,0,0-.1,1.37c0,3.33.59,3.09-3.18,3.1-2.56,0-5.13,0-7.69,0-.71,0-1.47.19-2.07-.38,2-2.57,4.77-3.31,7.85-3.09.94.07,1.46,0,1.23-1-.53-2.31.82-2.27,2.49-2.32C144.58,135.77,143.7,137.26,143.9,138.22Z"/><path class="cls-34" d="M162.81,142.2c-.27.48-.75.48-1.2.48l-8.86,0a1.07,1.07,0,0,1-1-.44,8.14,8.14,0,0,1,4.94-2.59c1.37-.25,1.68-.83,1.47-2.06-.15-.94-.19-1.94,1.28-1.68,1,.18,2.69-.75,2.59,1.49A16.85,16.85,0,0,0,162.81,142.2Z"/><path class="cls-35" d="M162.39,105.9c1.48-.19,1.47,1.07,1.88,1.92,0,3.7,0,7.4.09,11.11a2.12,2.12,0,0,1-1.11,2.1Q162.82,113.47,162.39,105.9Z"/><path class="cls-36" d="M151.38,31.26c-1.76.72-3.63.61-5.47.74-.3-1.74-.12-3.56-.77-5.26,1.28-2.83,3.31-1.87,5.31-1.06A18.54,18.54,0,0,0,151.38,31.26Z"/><path class="cls-37" d="M56.6,29c-1.37.08-2.76,0-3.07-1.65s.82-2.45,2.29-2.82a2.3,2.3,0,0,1,2.23,1.79C58.3,27.59,57.55,28.39,56.6,29Z"/><path class="cls-38" d="M35.71,110.6c1-.74,1.34-1.92,1.87-2.95,3.16-6.12,6.88-12,9-18.6a31.72,31.72,0,0,0,1.38-5.93c0-.45,0-1,.84-1.17-1.24,11.53-7.88,20.6-13.08,30.28C35.61,111.69,35.33,111.14,35.71,110.6Z"/><path class="cls-39" d="M30.42,61.37a48.92,48.92,0,0,1-8.53-4.11l.23-.51,8.26,3.72C30.39,60.77,30.4,61.07,30.42,61.37Z"/><path class="cls-40" d="M56.39,65.26c-2.23,0-4.46,0-6.69,0-.45,0-1.21.26-1.19-.57,0-.56.62-.58,1.09-.58l13.76,0c.4,0,.86,0,.89.54s-.54.64-1,.64H56.39Z"/><path class="cls-41" d="M47.19,64.93a1.46,1.46,0,0,1-1.63,1.48,1.35,1.35,0,0,1-1.39-1.53,1.45,1.45,0,0,1,1.64-1.52C46.75,63.4,47.16,64,47.19,64.93Z"/><path class="cls-42" d="M137,108.32q.57,7.05,1.16,14.09l-40.59,0c-.42,0-1,.18-1.2-.38-.15-.41.27-.69.52-1a15.11,15.11,0,0,0,2.34-4.3,22.19,22.19,0,0,1,2.54-4.88,8.66,8.66,0,0,1,7.84-3.76C118.71,108.48,127.85,108.3,137,108.32Z"/><path class="cls-43" d="M38.82,24.6c1.4.12,2.27.81,2.25,2.11a2.29,2.29,0,0,1-2.34,2.42,2,2,0,0,1-2.23-2.19C36.5,25.43,37.53,24.8,38.82,24.6Z"/><path class="cls-44" d="M47.35,29.05c-1.38-.13-2.21-.74-2.19-2.11a2.18,2.18,0,0,1,2.44-2.25c1.35,0,2,.83,1.94,2.17A2.12,2.12,0,0,1,47.35,29.05Z"/><path class="cls-45" d="M161.59,86.56a46.41,46.41,0,0,1,0,6.67A2.21,2.21,0,0,1,160.9,95a54.93,54.93,0,0,1-1.22-8.46Z"/></g></g></svg>