<svg xmlns="http://www.w3.org/2000/svg" viewBox="0 0 219.75 192.81"><defs><style>.cls-1{fill:#ebeded;}.cls-2{fill:#3f3d56;}.cls-3{fill:#fefefe;}.cls-4{fill:#5b5a6f;}.cls-5{fill:#f1f1f1;}.cls-6{fill:#575469;}.cls-7{fill:#59576a;}.cls-8{fill:#e5e5e5;}.cls-9{fill:#f8a827;}.cls-10{fill:#e6e6e6;}.cls-11{fill:#f8a726;}.cls-12{fill:#2f2e41;}.cls-13{fill:#feb7b7;}.cls-14{fill:#9f616a;}</style></defs><title>cs01</title><g id="图层_2" data-name="图层 2"><g id="图层_1-2" data-name="图层 1"><path class="cls-1" d="M0,61.79A27.24,27.24,0,0,1,4.74,47C6,45.15,7.42,43.47,8.8,41.72c.84-1.07.83-2.55,1.22-3.84a31.79,31.79,0,0,1,6.26-11.55c3.9-4.55,8.78-7.71,14-10.4,4.75-2.45,9.63-4.64,14.4-7C47.34,7.54,49.91,6,52.5,4.52a37,37,0,0,1,11.2-4,38.2,38.2,0,0,1,10-.42A35.54,35.54,0,0,1,89.09,4.85a34.92,34.92,0,0,1,8.37,6.69A31.5,31.5,0,0,1,104,22c1.15,3,1.66,6.31,3.25,9.22s4,5.08,6.08,7.49c.39.44.75.06,1.07-.1A56,56,0,0,1,127.13,34c.41-.1.91.06,1.23-.35a5.33,5.33,0,0,1,2.51-.7,67.81,67.81,0,0,1,15.53-.38A55.75,55.75,0,0,1,168,39a52.5,52.5,0,0,1,21,19.43,53.34,53.34,0,0,1,6.21,14.87,34.31,34.31,0,0,0,9.33,16.34,51.06,51.06,0,0,1,11.58,17.18,41.5,41.5,0,0,1,3,14.82c.23,12.26-3.83,23.09-11,32.79A44.78,44.78,0,0,1,190,168.72a58.56,58.56,0,0,1-18.61,4.72c-3.31.3-6.62.35-9.93.49-6.63.29-13.26.27-19.89.16-3.91-.07-7.82-.19-11.74-.19a4.28,4.28,0,0,0-2.44.38c-.22.14-.35-.09-.45-.26a4.61,4.61,0,0,1-.11-1.43V152.44c0-2.2.05-2.24,2.32-2.24H178a7.77,7.77,0,0,0,2.25-.2,2.4,2.4,0,0,0,2-2.58c0-6.51,0-13,0-19.54a2.69,2.69,0,0,0-2.57-2.65c-.52,0-1,0-1.56,0H129.18a3.91,3.91,0,0,1-2-.22,2,2,0,0,1-.39-1.58q0-15.52,0-31.06a3.41,3.41,0,0,1,.42-1.85A2.72,2.72,0,0,0,127.5,89c0-4.16,0-8.31,0-12.47a3.07,3.07,0,0,0-.41-1.72,3.81,3.81,0,0,1-.31-2.11c0-6.72,0-13.43,0-20.15a12.59,12.59,0,0,0-9.46-12.38,10.06,10.06,0,0,0-2.73-.33H66a12.45,12.45,0,0,0-11.9,10.81c-.25,2.28-.22,4.55-.25,6.83,0,1.8-.2,2-2,2H4.6a9.19,9.19,0,0,0-2,.09,2.5,2.5,0,0,0-2,1.72C.43,61.51.36,61.8,0,61.79Z"/><path class="cls-2" d="M0,61.79c.43-1.06.83-2.14,2.14-2.43a.53.53,0,0,1,.07.44C1,61,.8,62.55.82,64.2c.06,5.35,0,10.7,0,16,0,2.91.77,3.67,3.72,3.68H55.48c.77,0,1.61-.19,2.28.43a.51.51,0,0,1,0,.64,3,3,0,0,0-.27,1.75q0,43.89,0,87.78a9.75,9.75,0,0,0,4.75,8.88,8.9,8.9,0,0,0,4.69,1.28q23.86,0,47.73,0a9.37,9.37,0,0,0,9-6.83c.1-.34.19-.69.31-1a3.56,3.56,0,0,0,.21-1.41V153a3.55,3.55,0,0,0-.27-1.51c0-1,.68-1.35,1.54-1.47,1.59,0,1.59,0,1.59,1.59q0,10.35,0,20.7a12.1,12.1,0,0,0,.17,2.61,3.44,3.44,0,0,1-.27,2.33,12.37,12.37,0,0,1-2.24,5.93c-.1,1-.94,1.47-1.49,2.16a13.6,13.6,0,0,1-9.31,3.51h-47a13.28,13.28,0,0,1-12.33-7.72,5.09,5.09,0,0,1-.34-1.37c-1-3.29-.59-6.66-.67-10,0-.48,0-1-.07-1.43a1.72,1.72,0,0,1-.36-1.33c-.06-.64,0-1.28,0-1.92V87.49c0-2.31,0-2.31-2.29-2.31h-22c-4.76,0-9.51,0-14.27,0a3.2,3.2,0,0,1-2-.38l-8.61-.07C1.14,84.67,0,83.55,0,80.81Q0,71.3,0,61.79Z"/><path class="cls-3" d="M127.2,174.29a1.09,1.09,0,0,1,1.17-.74c3.28,0,6.57-.15,9.83.06,6,.39,11.9.16,17.85.17,4.61,0,9.24-.13,13.85-.49a57.79,57.79,0,0,0,22.1-5.87,49.77,49.77,0,0,0,10-6.86,47.56,47.56,0,0,0,10-12.65,52,52,0,0,0,6.21-17.34,43.05,43.05,0,0,0-1.95-22.33,50,50,0,0,0-9.44-15.63c-2.51-2.83-5.31-5.41-7.39-8.6a40.36,40.36,0,0,1-5.1-12.55,45.92,45.92,0,0,0-3-8.16,49.87,49.87,0,0,0-5.53-9,51.78,51.78,0,0,0-10.33-10.21,59.19,59.19,0,0,0-24.33-10.56c-5.12-1-10.32-.86-15.49-.72a73,73,0,0,0-7.31.91c-.45-.51-.34-.85.32-.94,2.09-.28,4.14-.68,6.26-.78,2.31-.11,4.62-.23,6.93-.19a59,59,0,0,1,19.7,3.7,55.87,55.87,0,0,1,10.62,5.19,51,51,0,0,1,9.05,7.17,55.43,55.43,0,0,1,6.8,8,47,47,0,0,1,5.87,11.32c1.12,3.35,2.13,6.75,3.25,10.1a27.45,27.45,0,0,0,6.57,10.57,67.61,67.61,0,0,1,8.51,10.3,44.91,44.91,0,0,1,7.11,18.7,47.11,47.11,0,0,1-.44,14.94A55.87,55.87,0,0,1,210.59,152a45.77,45.77,0,0,1-12.73,13,52.6,52.6,0,0,1-19.53,8,79.53,79.53,0,0,1-12.43,1.32c-8.67.38-17.33.08-26,.19-3.51,0-7,0-10.53,0-.86,0-1.4.11-1.26,1.16a1,1,0,0,1-1,1.26A5.61,5.61,0,0,1,127.2,174.29Z"/><path class="cls-3" d="M54.25,179.72a16.66,16.66,0,0,0,3.07,4.9c0,.51-.46.5-.79.57a8.52,8.52,0,0,1-2,.26c-4-.15-8,.14-12,.29q-7.55.28-15.07.83a105,105,0,0,0-11.2,1.19,2.5,2.5,0,0,0-1.5.55,1.92,1.92,0,0,0,1.36.59,86.47,86.47,0,0,0,9.76,1.1c3.35.22,6.7.39,10,.64,2,.15,3.92.2,5.86.24,3.44.08,6.87.25,10.3.36,5,.15,10.08,0,15.1.23,11.47.43,23,.2,34.42.13,4.39,0,8.79,0,13.18-.19,6.74-.28,13.49-.34,20.23-.74,6.1-.36,12.21-.56,18.27-1.4a11,11,0,0,0,3.64-.87,2.47,2.47,0,0,0-1.61-.66,93.76,93.76,0,0,0-9.89-1.1c-5.1-.38-10.2-.54-15.3-.89-1.68-.12-3.36,0-5-.09-.68-.06-1.57.11-1.82-.91l1.43-1.61c.31,1.12,1.1,1.2,2.15,1.27,4.28.25,8.58.31,12.87.62,2.77.19,5.56.33,8.32.57a44.23,44.23,0,0,1,9.29,1.35c.74.22,1.43.52,1.45,1.36s-.78,1.27-1.51,1.48a30.42,30.42,0,0,1-6.21,1c-4.35.36-8.71.66-13.07,1-1.71.11-3.43.16-5.13.19-3.51.07-7,.26-10.52.37s-7.27,0-10.88.21c-6.23.41-12.46.14-18.69.19-9.59.07-19.19.1-28.79,0-4-.05-8.06-.06-12.08-.23-4.3-.18-8.59-.32-12.89-.47s-8.34-.39-12.5-.72a73.32,73.32,0,0,1-10.76-1.18,16.84,16.84,0,0,1-1.72-.48A1.37,1.37,0,0,1,13,188.36,1.39,1.39,0,0,1,14.08,187a22.79,22.79,0,0,1,4.9-.93q6.52-.69,13.07-1c3.18-.16,6.35-.33,9.53-.47,4.34-.2,8.68-.39,13-.46.26,0,.59.09.73-.25s-.13-.5-.29-.72C54.29,182.12,53.38,181.12,54.25,179.72Z"/><path class="cls-1" d="M53.51,167.09a2.33,2.33,0,0,1,0,1.2,25.14,25.14,0,0,1-6.49-4,43.82,43.82,0,0,1-13.14-17.18,42.08,42.08,0,0,1-3.84-14,38.84,38.84,0,0,1,3-19,55.08,55.08,0,0,1,10-15.2,5.45,5.45,0,0,0,1.46-2.73A48.84,48.84,0,0,1,45.87,91c.3-.93.11-1.21-.87-1.21q-6,.06-12,0c-4.42,0-8.85-.17-13.11-1.46-2.65-.8-5.32-1.65-7.44-3.6a5.83,5.83,0,0,1,1.91,0,32.21,32.21,0,0,0,10.36,3.18,29.77,29.77,0,0,0,4.53.37c4.31-.21,8.61.34,12.93.24a23.19,23.19,0,0,0,2.63-.15c2-.27,2.9.68,2.38,2.55-.62,2.24-1.12,4.5-1.66,6.75a3.75,3.75,0,0,1-1.06,1.71,51.74,51.74,0,0,0-10.35,15.71A38.74,38.74,0,0,0,31.25,127,34.53,34.53,0,0,0,32.45,139a49.43,49.43,0,0,0,9,18,40.7,40.7,0,0,0,10.88,9.26A5.1,5.1,0,0,1,53.51,167.09Z"/><path class="cls-4" d="M127.2,174.29c0,.88,0,1.76,0,2.64l-.21.28q0-12.54,0-25.1c0-1.77,0-1.77-1.75-1.86.19-.54.67-.5,1.1-.54s1,0,1.55,0h50.86c2.3-.05,3.28-1,3.29-3.33q0-8.7,0-17.39c0-2.33-1-3.24-3.33-3.24q-33.82,0-67.65,0c-2.46,0-3.36.87-3.37,3.3q0,8.58,0,17.16c0,2.54.95,3.44,3.49,3.5,2.17.06,2.93.79,3,3s0,4.63,0,6.95a2.28,2.28,0,0,0,.3,1.48c1.18-1.27,2.34-2.45,3.44-3.68,1.71-1.9,3.41-3.82,5.21-5.63.27-.28.51-.65,1-.51a1.16,1.16,0,0,1,.51,1.12c0,7.83,0,15.67,0,23.51,0,.35.07.73-.23,1-.53-.52-.38-1.19-.38-1.81q0-10.56,0-21.11a6.76,6.76,0,0,0-.08-1.47c-1,1.21-2,2.27-3,3.33-1.73,1.89-3.44,3.79-5.23,5.61-.52.52-1,1.27-1.92.88s-.82-1.29-.82-2.08c0-2.4,0-4.8,0-7.2,0-2-.18-2.12-2.09-2.19-3-.12-4.34-1.46-4.37-4.41q-.08-8.76,0-17.51c0-3.06,1.51-4.46,4.54-4.47,3.88,0,7.76,0,11.63,0a7.44,7.44,0,0,1,1.56.1c1,.32,2,0,3,.24H178c.52,0,1.05,0,1.56,0a3,3,0,0,1,3,3q0,9.78,0,19.56a2.91,2.91,0,0,1-2.84,3c-.48,0-1,0-1.44,0q-24.88,0-49.78,0c-1.15,0-1.46.27-1.45,1.44C127.2,159.34,127.18,166.82,127.2,174.29Z"/><path class="cls-2" d="M127.18,124.84a3.74,3.74,0,0,1-2.9,0,1.55,1.55,0,0,0,0-.23,12,12,0,0,1,0-1.8V53a5.52,5.52,0,0,0-.16-2c-1-3.58-2.92-6.26-6.58-7.47a12.1,12.1,0,0,0-3.69-.33h-3.59c-.74,0-1.07.27-1.13,1-.32,3.75-1.92,5.2-5.72,5.2q-13,0-26,0a4.76,4.76,0,0,1-5-3.49,5.73,5.73,0,0,1-.19-1.43c0-1.29,0-1.3-1.39-1.31-1.16,0-2.32.07-3.48,0-5.14-.35-9.56,3.8-9.77,9.5-.06,1.56,0,3.12,0,4.68,0,1.31.12,1.43,1.45,1.44,4.44,0,8.87,0,13.31,0,.83,0,1.72-.08,2.21.85,0,.28-.24.36-.48.42-23.15-.13-46.3,0-69.45-.06a3.68,3.68,0,0,1-2.33-.33l0-.29a2.79,2.79,0,0,1,1.75-.24q24.17,0,48.34,0c1.09,0,1.42-.26,1.38-1.36a54,54,0,0,1,.06-6.36A12.81,12.81,0,0,1,66.74,39.34q23.64,0,47.27,0A12.91,12.91,0,0,1,127.13,52.5c0,7,0,14.07,0,21.11,0,.44-.3,1.06.58,1.18.34,0,.21.55.21.85q0,7.08,0,14.16c0,.42.11.88-.55,1-.39.06-.25.46-.25.71Q127.16,108.17,127.18,124.84Z"/><path class="cls-3" d="M74.35,59.63a3.09,3.09,0,0,0-2-.52c-4.68,0-9.35,0-14,0-1,0-1.21-.28-1.16-1.2.12-2.31-.17-4.64.17-6.94a9.57,9.57,0,0,1,9.42-8.23c1.92,0,3.83,0,5.83,0-.06.59-.14,1.12-.15,1.65A4.38,4.38,0,0,0,76.75,49q13.85.08,27.69,0a4.34,4.34,0,0,0,4.26-5.1c-.1-1,.13-1.22,1.08-1.17,1.51.08,3,0,4.55,0a9.57,9.57,0,0,1,9.81,7.5l.15.46a2.86,2.86,0,0,1,.1,1.3q0,35.78,0,71.54a2.86,2.86,0,0,1-.1,1.3h0l-13.54,0c-2.73,0-3.9,1.19-3.9,4,0,5.47,0,10.95,0,16.42,0,.64,0,1.28,0,1.92a3.09,3.09,0,0,0,3.33,3.27c3.09-.06,3,.18,3,3.09,0,2.43,0,4.87,0,7.31,0,.58,0,1.15.66,1.39s.94-.27,1.29-.64c2.86-3.1,5.73-6.22,8.58-9.33a3.3,3.3,0,0,0,.31-.51l.29.14v25.06c-1.47,5.55-4.83,8.14-10.57,8.14q-23.34,0-46.67,0a9.61,9.61,0,0,1-9.56-7.25,10.5,10.5,0,0,1-.37-2.84q0-44.56,0-89.13c0-.34-.36-.93.38-1a1.88,1.88,0,0,1,1,.62c2.06,2.43,4.36,4.65,6.42,7.08.87,1,1.92,1.91,2.73,3a.92.92,0,0,0,1,.45c.51-.17.51-.66.51-1.1,0-2.72,0-5.43,0-8.14,0-1.89.37-2.24,2.24-2.27a5.61,5.61,0,0,0,1.77-.17,2.88,2.88,0,0,0,2.21-2.92c0-6.34,0-12.69,0-19C75.5,61.23,74.78,60.51,74.35,59.63Z"/><path class="cls-3" d="M124.05,151.29l-7.33,7.88c-.66.7-1.31,1.41-2,2.11-.22.24-.38.58-.76.46s-.36-.58-.36-.92c0-2.76,0-5.52,0-8.28,0-2.1-.42-2.51-2.52-2.52-3,0-3.82-.84-3.82-3.86q0-8.7,0-17.39c0-2.49.92-3.43,3.37-3.43H179c2.23,0,3.25,1,3.25,3.19q0,9.12,0,18.23c0,2.23-1.06,3.26-3.34,3.26H126.79c-.54,0-1.13-.18-1.62.22C124.62,150.4,124.37,150.88,124.05,151.29Z"/><path class="cls-3" d="M2.16,59.65c.64,0,1.28-.09,1.91-.09q33.9,0,67.79,0a4.71,4.71,0,0,1,2.23.3,2.24,2.24,0,0,1,1.47,2.25q0,9.69,0,19.4a3,3,0,0,1-3.06,3c-.48,0-1,0-1.44,0-1.33,0-1.72.39-1.73,1.7,0,2.72,0,5.43,0,8.15,0,.28,0,.55,0,.83a.93.93,0,0,1-.49.9c-.4.18-.69-.09-1-.33C67,94.91,66.16,93.91,65.3,93c-2.35-2.6-4.82-5.09-7.09-7.77a3.88,3.88,0,0,1-.42-.58c-.55-.48-1.21-.32-1.84-.32H4.14c-2.84,0-3.68-.85-3.68-3.73,0-5.91,0-11.83,0-17.75A3.24,3.24,0,0,1,2.16,59.65Z"/><path class="cls-1" d="M53.51,167.09a17,17,0,0,1-5-3c-7.07-5.11-11.69-12-14.75-20.12a44.32,44.32,0,0,1-2.63-10.73,37.15,37.15,0,0,1,2.52-17.75,50.24,50.24,0,0,1,9.73-15.47,10,10,0,0,0,2.36-4.6c.35-1.51.69-3,1.16-4.5.52-1.65-.41-2.51-2.13-2.28a37,37,0,0,1-8.08,0c-2.1-.18-4.23-.07-6.35-.07a34,34,0,0,1-14.17-2.72,5,5,0,0,1-1.8-1.15c.36,0,.72-.06,1.07-.06q18.41,0,36.8,0c1,0,1.37.15,1.37,1.28q-.06,40,0,80.07C53.58,166.38,53.54,166.73,53.51,167.09Z"/><path class="cls-5" d="M123.27,184.75a3.14,3.14,0,0,0,2.24.57c3.19-.16,6.37.22,9.56.29,3.93.08,7.87.34,11.78.71a55.92,55.92,0,0,1,9.89,1.37c.4.11.9.14.95.58s-.51.62-.93.73a43.92,43.92,0,0,1-7.4,1.11c-4.59.38-9.19.66-13.79,1-1.79.11-3.58.09-5.37.21-3.82.23-7.66.1-11.48.31-4.91.27-9.82,0-14.72.24-11.55.46-23.09.21-34.64.14-4.3,0-8.62,0-12.92-.18-5-.24-9.95-.31-14.93-.5-3.06-.12-6.12-.23-9.17-.47-5.58-.44-11.2-.48-16.7-1.66-.65-.14-1.76-.14-1.72-.88s1.13-.67,1.83-.8A88.2,88.2,0,0,1,27,186.25c4.36-.25,8.73-.53,13.1-.72,4.74-.21,9.47-.46,14.21-.44a9.93,9.93,0,0,0,3-.47,14.47,14.47,0,0,0,10.59,3.85q22.61-.12,45.2,0A14,14,0,0,0,123.27,184.75Z"/><path class="cls-4" d="M57.79,84.61c1.84,1.65,3.38,3.58,5.06,5.38s3.4,3.7,5.11,5.54c.2.23.4.58.77.44s.34-.58.34-.94V86.41c0-1.63.52-2.13,2.16-2.15.51,0,1,0,1.55,0a2.6,2.6,0,0,0,2.55-2.65c0-6.47,0-12.94,0-19.41a3.18,3.18,0,0,0-1.26-2.33l.26-.23a3,3,0,0,1,1.48,2.81c0,6.31,0,12.63,0,18.94a3.07,3.07,0,0,1-3.29,3.32c-3.5-.06-3,.33-3,3.18,0,2.39,0,4.79,0,7.19,0,.54,0,1.05-.61,1.32s-1-.14-1.32-.52L57.54,84.81Z"/><path class="cls-4" d="M124.29,124.86c0-.51.06-1,.06-1.55q0-34.92,0-69.84c0-.92,0-1.84-.06-2.75.39.4.25.91.25,1.36q0,35.85,0,71.68C124.54,124.13,124.7,124.57,124.29,124.86Z"/><path class="cls-6" d="M82.17,171.23a18.42,18.42,0,1,1,18.57-18.33A18.4,18.4,0,0,1,82.17,171.23Z"/><path class="cls-7" d="M100.52,70.64A18.46,18.46,0,1,1,82,89,18.45,18.45,0,0,1,100.52,70.64Z"/><path class="cls-8" d="M145.87,142.61q15.65,0,31.3,0c.9,0,1.63.22,1.79,1.17a1.42,1.42,0,0,1-1.19,1.68,4.84,4.84,0,0,1-1.08,0H115.05a2.09,2.09,0,0,1-1.84-.61c-.33-.4-.58-.76-.34-1.29s.53-1,1.22-1h31.78Z"/><path class="cls-8" d="M135.43,139.26c-7,0-14,0-21,0a1.49,1.49,0,0,1-1.65-1.07,1.22,1.22,0,0,1,.77-1.46,2.43,2.43,0,0,1,1.05-.12q21,0,42.09,0c.95,0,1.57.23,1.63,1.26.06.86-.58,1.39-1.68,1.39Z"/><path class="cls-9" d="M115.62,127.91a2.65,2.65,0,0,1,2.66,2.66,2.73,2.73,0,0,1-2.7,2.66,2.78,2.78,0,0,1-2.74-2.75A2.7,2.7,0,0,1,115.62,127.91Z"/><path class="cls-10" d="M38,80H7.56c-1.75,0-2.7-.53-2.75-1.51s1-1.6,2.78-1.6H68.85c1.27,0,2.17.68,2.15,1.58S70.18,80,68.82,80Z"/><path class="cls-8" d="M27.51,73.75H6.77c-1.27,0-1.94-.47-2-1.39s.68-1.49,2-1.49H48.31c.84,0,1.66.09,2,1a1.39,1.39,0,0,1-.56,1.69,2.05,2.05,0,0,1-1.39.23Z"/><path class="cls-9" d="M5,65a2.59,2.59,0,0,1,2.6-2.7,2.77,2.77,0,0,1,2.73,2.76,2.8,2.8,0,0,1-2.72,2.64A2.64,2.64,0,0,1,5,65Z"/><path class="cls-3" d="M73,168.22A17.91,17.91,0,0,1,66.5,144.1c3.56-6.23,9.06-9.45,16.17-9.28s12.47,3.68,15.72,10A17.92,17.92,0,0,1,92,167.94c-.5-.15-.74-.58-1-.95a10.6,10.6,0,0,0-16.58-.19C73.94,167.3,73.69,168,73,168.22Z"/><path class="cls-11" d="M73,168.22a10.9,10.9,0,0,1,7.77-5.42,10.65,10.65,0,0,1,10.75,4.46c.17.22.33.46.49.68C85.7,171.67,79.37,171.81,73,168.22Z"/><path class="cls-3" d="M91.61,104.66a15.56,15.56,0,0,1-6.68-6.49,17.78,17.78,0,0,1-.21-17.84,18,18,0,0,1,21.8-8.25c7.64,2.9,12.36,9.66,11.93,17.8A17.06,17.06,0,0,1,108.7,105c-.92-.37-1.47-1.2-2.24-1.76A10.38,10.38,0,0,0,92.7,104,2.07,2.07,0,0,1,91.61,104.66Z"/><path class="cls-11" d="M91.61,104.66a10.86,10.86,0,0,1,17.09.33A16.81,16.81,0,0,1,97,106.74,13.66,13.66,0,0,1,91.61,104.66Z"/><path class="cls-12" d="M77.94,157.45c-4.68-1.75-6.78-8.1-4.16-12.59a9.07,9.07,0,1,1,15.43,9.52c-.64-.19-.37-.7-.33-1.09a6.5,6.5,0,0,0-.43-3.17,13.84,13.84,0,0,1-8.72,1.14c-.39,0-.86-.13-1-.54s.32-.37.56-.56a2.18,2.18,0,0,0-.87-.26c-1.67-.43-1.91-.29-2.2,1.43a6.45,6.45,0,0,0,1.18,5C77.64,156.66,78.06,156.93,77.94,157.45Z"/><path class="cls-13" d="M77.94,157.45a6.75,6.75,0,0,1-1.64-7.59c.24-.63.5-.92,1.23-.59a7.45,7.45,0,0,0,2.74.58c-.25.68-1,.47-1.35.83,2.56,1,7.88.38,9.59-1.22a6.58,6.58,0,0,1,.65,4.06c0,.29-.32.6,0,.86-.59.79-.93,1.72-1.59,2.49A6.88,6.88,0,0,1,77.94,157.45Z"/><path class="cls-12" d="M93.55,92.56a8.73,8.73,0,0,1-.75-9.07A1.3,1.3,0,0,0,92.7,82a3.16,3.16,0,0,1-.16-3.4,2.19,2.19,0,0,1,2-1.46,2.32,2.32,0,0,1,2.12,1.61c.18.45.25.54.72.37a9.07,9.07,0,0,1,8.27.7c.5.31.64.12.9-.26a1.86,1.86,0,0,1,2.28-.82,2.2,2.2,0,0,1,1.64,1.86,3.14,3.14,0,0,1-.44,2.64,2.27,2.27,0,0,0-.4,2.26,8.73,8.73,0,0,1-4.59,9.85c-.49-.57.1-.89.32-1.24a6.37,6.37,0,0,0,.84-5.28c-.34-1.16-.51-1.24-1.72-.93l-1.24.29c.47.45.58,1-.12,1.1a13.63,13.63,0,0,1-8.34-.73c-.22-.09-.36-.31-.56-.52a6.83,6.83,0,0,0-.49,3.62A.84.84,0,0,1,93.55,92.56Z"/><path class="cls-14" d="M93.55,92.56a7,7,0,0,1,.57-5c1.58,1.6,6.19,2.24,9.4,1.29-.33-.39-1.07-.2-1.15-.9a6,6,0,0,0,2.27-.45c1-.53,1.47-.16,1.78.85a6.86,6.86,0,0,1-1,6.23c-.16.23-.58.34-.39.76-2.24,1.6-4.61,2.47-7.39,1.45A7.5,7.5,0,0,1,93.55,92.56Z"/></g></g></svg>