<svg xmlns="http://www.w3.org/2000/svg" viewBox="0 0 372.6 54.42"><defs><style>.cls-1{fill:#efecdf;}.cls-2{fill:#efece0;}.cls-3{fill:#fff;}</style></defs><title>资源 27decoration01</title><g id="图层_2" data-name="图层 2"><g id="图层_1-2" data-name="图层 1"><path class="cls-1" d="M357.56,5.41a.65.65,0,0,0,0-.54,3,3,0,0,1,.29-2.25A5.08,5.08,0,0,1,362.21,0a5.79,5.79,0,0,1,3.7,1.07,3.7,3.7,0,0,1,1.6,2.67,3.47,3.47,0,0,1-.65,2.62c-.27.34-.56.66-.83,1,.19.2.39.06.54,0a5.35,5.35,0,0,1,4.1.85,3.72,3.72,0,0,1,1.92,3.46A3.94,3.94,0,0,1,370,15.23a5.6,5.6,0,0,1-5.71-.51,1,1,0,0,0-.16-.12.28.28,0,0,0-.27,0c-.1,0-.09.12-.06.2a3.56,3.56,0,0,1,.06,1.3,3.79,3.79,0,0,1-1.92,3,5.22,5.22,0,0,1-2.85.89,5.69,5.69,0,0,1-3.45-1,4.12,4.12,0,0,1-1.79-3.06,3.35,3.35,0,0,1,.68-2.26c.18-.27.42-.52.63-.78.08-.09.24-.18.12-.3a.32.32,0,0,0-.33,0,3,3,0,0,1-1,.09c-2.61,0-4.51-1.36-5-3.47a3.71,3.71,0,0,1,2-4.12,5.81,5.81,0,0,1,5.85-.11C357,5.09,357.15,5.41,357.56,5.41Z"/><path class="cls-1" d="M273.11,18.21a2.19,2.19,0,0,0-.08,1A3.15,3.15,0,0,1,270.84,22a4.32,4.32,0,0,1-4.19-.6,3.1,3.1,0,0,1-1.24-2.19,3.14,3.14,0,0,1,.83-2.1c.08-.1.21-.16.22-.33-.2-.16-.47-.08-.72-.09a6.17,6.17,0,0,1-1.6-.12c-1.34-.42-2.54-1.7-2.46-2.91a3.25,3.25,0,0,1,.77-2.1,4,4,0,0,1,3.12-1.21,3.54,3.54,0,0,1,2.21.66.47.47,0,0,0,.49.1,3,3,0,0,1,.65-2.63,3.59,3.59,0,0,1,1.83-1.16,4.22,4.22,0,0,1,4.17.92c1.41,1.49,1.22,3-.29,4.51,2.74-.3,4.46.57,5,2.74a2.69,2.69,0,0,1-1.43,2.93A4.5,4.5,0,0,1,273.11,18.21Z"/><path class="cls-1" d="M215.64,50.66c-.13.52,0,1-.16,1.54a3.4,3.4,0,0,1-3,2.19,3.7,3.7,0,0,1-3.63-1.5,2.59,2.59,0,0,1,.21-3.26.58.58,0,0,1,.14-.13c.09-.09.2-.18.09-.31s-.19-.06-.31,0a4.69,4.69,0,0,1-1.54-.08,3.14,3.14,0,0,1-2.6-2.77,2.84,2.84,0,0,1,1.7-2.75,4,4,0,0,1,3.73,0c.22.11.43.24.67.37.24-.27.14-.56.13-.81a2.81,2.81,0,0,1,1.51-2.49,4,4,0,0,1,3.22-.37,3.09,3.09,0,0,1,2.48,2.93,2.58,2.58,0,0,1-.58,1.51c-.05.07-.12.12-.17.19-.28.4-.24.47.29.48a7.07,7.07,0,0,1,1.13,0c1.94.39,3.22,1.83,2.83,3.61a3.52,3.52,0,0,1-3.25,2.43,4,4,0,0,1-2.45-.6C216,50.75,215.89,50.63,215.64,50.66Z"/><path class="cls-1" d="M166,15.12a1.31,1.31,0,0,0,.09-.74,2.57,2.57,0,0,1,1.84-2.4,3.5,3.5,0,0,1,3.36.3,2.46,2.46,0,0,1,.78,3.59s0,0-.05.05-.27.26-.18.42.33.11.5.1a3.74,3.74,0,0,1,2.24.59,2.44,2.44,0,0,1,1.16,2.5,3.13,3.13,0,0,1-2.91,2.37,3.18,3.18,0,0,1-1.56-.25c-.32-.12-.62-.27-.95-.42-.2.18-.12.39-.12.57a2.7,2.7,0,0,1-1.93,2.56,3.59,3.59,0,0,1-3.41-.43,2.52,2.52,0,0,1-1.17-2.13,2.38,2.38,0,0,1,.46-1.29c.09-.13.21-.26.31-.39a.2.2,0,0,0,0-.23c0-.08-.14-.08-.24-.05a3,3,0,0,1-1.45-.07c-1.83-.44-2.87-2.19-2.09-3.68a3.49,3.49,0,0,1,4.48-1.34C165.42,14.87,165.67,15,166,15.12Z"/><path class="cls-1" d="M117.09,44.59a.58.58,0,0,0-.08.52,2.47,2.47,0,0,1-2.13,2.29c-1.12.27-3-.35-3.34-1.66a2.13,2.13,0,0,1,.33-2c.26-.35.2-.47-.29-.44a3.36,3.36,0,0,1-2.26-.78,2.21,2.21,0,0,1,0-3.09A3.24,3.24,0,0,1,113,39c.39.18.49.14.5-.24a2.33,2.33,0,0,1,.61-1.6,3,3,0,0,1,2.7-.86,2.55,2.55,0,0,1,2.1,1.41,2,2,0,0,1-.22,2.2c-.06.1-.21.17-.15.36.42.11.89,0,1.34.16a2.46,2.46,0,0,1,2.08,2.28c0,1.73-2.23,3-4.26,2C117.48,44.69,117.32,44.55,117.09,44.59Z"/><path class="cls-1" d="M7,42.94a2.79,2.79,0,0,1-.37,1.3,2.46,2.46,0,0,1-3.11.84,1.76,1.76,0,0,1-1-2.64l.15-.21c.09-.16,0-.27-.18-.3a1.37,1.37,0,0,0-.35,0A2.19,2.19,0,0,1,0,40.37a2,2,0,0,1,1.64-2.22,2.67,2.67,0,0,1,1.71.16c.51.24.58.2.6-.31a2.2,2.2,0,0,1,2.3-1.87c1.45.08,2.12.7,2.32,1.85a1.5,1.5,0,0,1-.34,1.12c-.26.32-.19.43.25.42a2.31,2.31,0,0,1,2.35,1.55c.32,1-.73,2.22-1.93,2.27A3.53,3.53,0,0,1,7,42.94Z"/><path class="cls-2" d="M61.85,27.39a1.66,1.66,0,0,1-1-.19c-.26-.17-.39-.08-.41.16a2.24,2.24,0,0,1-.35.95,2.17,2.17,0,0,1-2.27.86,1.91,1.91,0,0,1-1.57-1.12,1.77,1.77,0,0,1,.15-1.5c.22-.37.15-.44-.33-.47-1.51-.09-2.45-1.15-2-2.34a2.19,2.19,0,0,1,2.46-1.19.76.76,0,0,0,.2.06c.3,0,.56.33.85.2s.08-.48.15-.72a2.23,2.23,0,0,1,3.35-1,1.51,1.51,0,0,1,.64,2.16,1.38,1.38,0,0,0-.14.27.19.19,0,0,0,.19.26,3.71,3.71,0,0,1,.68.12,1.91,1.91,0,0,1,1.63,1.65,1.82,1.82,0,0,1-1.4,1.75A3.4,3.4,0,0,1,61.85,27.39Z"/><path class="cls-3" d="M166.08,19.07a3.37,3.37,0,0,0,.91-2.61,5.32,5.32,0,0,0,3.25.7,4.4,4.4,0,0,0-.85,1.33c-.14.44.05.9-.11,1.31a.24.24,0,0,1-.29,0,3.22,3.22,0,0,0-2.07-.6A1.52,1.52,0,0,1,166.08,19.07Z"/></g></g></svg>