<svg xmlns="http://www.w3.org/2000/svg" viewBox="0 0 184.49 37.76"><defs><style>.cls-1{fill:#ebeded;}</style></defs><title>decoration02</title><g id="图层_2" data-name="图层 2"><g id="图层_1-2" data-name="图层 1"><path class="cls-1" d="M46.27,1.21a6.09,6.09,0,0,1,4.08,1.13A2.07,2.07,0,0,0,52,2.6c4.37-.93,9.41,2.33,8.37,8.14A6.78,6.78,0,0,1,51.63,16a1.61,1.61,0,0,0-1.56.08A8,8,0,1,1,44.25,1.37,13.43,13.43,0,0,1,46.27,1.21Z"/><path class="cls-1" d="M86.39,28.6a7.14,7.14,0,0,1,4.33-6.82,7.43,7.43,0,0,1,8.09.82,5.1,5.1,0,0,1,1.83,2,9.18,9.18,0,0,0,3.09,3.72c2.16,1.64,2.24,5.45.29,7.75a5.84,5.84,0,0,1-7.23.8,1.81,1.81,0,0,0-1.4-.35,7.9,7.9,0,0,1-8.07-3.77A6.65,6.65,0,0,1,86.39,28.6Z"/><path class="cls-1" d="M142.31,9.34a6.71,6.71,0,1,1-13.42-.05A3.21,3.21,0,0,0,128.13,7a4.41,4.41,0,0,1,.49-5.86A4.08,4.08,0,0,1,134.18,1a8.86,8.86,0,0,0,3.89,2.14A6.36,6.36,0,0,1,142.31,9.34Z"/><path class="cls-1" d="M175.42,32.21a4,4,0,0,1-3-6.69,2.44,2.44,0,0,0,.67-1.95,5.73,5.73,0,0,1,10.59-3.12,5.61,5.61,0,0,1-2.77,8.11,2.83,2.83,0,0,0-2.06,1.71A3.53,3.53,0,0,1,175.42,32.21Z"/><path class="cls-1" d="M5.61,2.69c2.86-.29,5.54,2.53,5.47,5.51a5.61,5.61,0,0,1-5.59,5.52A5.53,5.53,0,0,1,0,8,5.28,5.28,0,0,1,5.61,2.69Z"/></g></g></svg>