<svg xmlns="http://www.w3.org/2000/svg" viewBox="0 0 11.12 11.11"><defs><style>.cls-1{fill:#fea063;}.cls-2{fill:#fff;}.cls-3{fill:#fe9a48;}.cls-4{fill:#fe8f4e;}.cls-5{fill:#6c6369;}.cls-6{fill:#848183;}.cls-7{fill:#fdc03d;}.cls-8{fill:#6b6369;}.cls-9{fill:#fe8e4c;}.cls-10{fill:#6a6268;}.cls-11{fill:#696167;}.cls-12{fill:#ada7a6;}.cls-13{fill:#fe9d5b;}.cls-14{fill:#7c736b;}.cls-15{fill:#fefefe;}.cls-16{fill:#6e666c;}</style></defs><title>doge02</title><g id="图层_2" data-name="图层 2"><g id="图层_1-2" data-name="图层 1"><circle class="cls-1" cx="5.77" cy="5.77" r="5.35"/><circle class="cls-2" cx="5.2" cy="5.2" r="5.2"/><path class="cls-3" d="M7.64,8.93a1.48,1.48,0,0,0-.25-.35c-.09-.13-.2-.25-.31-.38s0,0,0-.08.06,0,.08,0c.28.07.56.05.84.12.11,0,.23,0,.34,0s0,0,0-.07C8.22,8,8.11,7.76,8,7.54S7.7,7,7.56,6.67c0,0,0,0,0-.06a8.39,8.39,0,0,1,.84.3s.1,0,.15,0,.06,0,.06,0a.33.33,0,0,0,0-.14c-.11-.28-.24-.56-.35-.85s-.25-.66-.38-1a4.45,4.45,0,0,0-.26-.48L7.33,4s0,.06,0,.09a4.17,4.17,0,0,1,.08.49,2.35,2.35,0,0,1,0,.7,2,2,0,0,1-.22.59,2.87,2.87,0,0,1-.55.65c-.19.2-.37.39-.57.58a1.37,1.37,0,0,0-.34.55c-.08.21-.18.41-.26.62s0,.11.07.14c.3.07.59.13.88.22l.69.15a3.9,3.9,0,0,1,.46.12A.14.14,0,0,0,7.64,8.93Z"/><path class="cls-4" d="M3.55,4.32l.27.39a.1.1,0,0,0,.12,0,3.76,3.76,0,0,1,.75,0A1.79,1.79,0,0,1,5.32,5a.47.47,0,0,1,.18.29A3.28,3.28,0,0,0,5.71,6a1.62,1.62,0,0,0,.2-.36c.1-.2.18-.4.29-.59s.21-.18.32-.27.12-.07.14-.13a0,0,0,0,0,0,0c-.11,0-.17-.16-.25-.24a3,3,0,0,1-.49-.52,4.43,4.43,0,0,1-.51-.55.12.12,0,0,0-.06-.06l0,0c-.23-.06-.24-.07-.18-.29a.13.13,0,0,0,0-.06.11.11,0,0,0-.14,0,.59.59,0,0,1-.5.18.49.49,0,0,0-.28.11,1.14,1.14,0,0,0-.45.63,2.54,2.54,0,0,1-.18.41S3.51,4.27,3.55,4.32Z"/><path class="cls-5" d="M5.11,2.81a.09.09,0,0,1,0,0c0,.06-.09.16-.06.2a.47.47,0,0,0,.24.13h.06A.43.43,0,0,0,5.46,3c.13-.32.26-.66.36-1,0,0,0,0,0-.06.07.2.09.41.18.61a.22.22,0,0,1,0,.14.19.19,0,0,0,0,.08.34.34,0,0,1,0,.14v0c0,.06,0,.12,0,.18a.25.25,0,0,0,0,.12.09.09,0,0,1,0,.12.07.07,0,0,0,0,.05c.07,0,.13,0,.19,0l.52,0c.06,0,.12,0,.09-.09s-.08-.15-.1-.23,0-.07,0-.1h0s0-.08,0-.1h0s0-.07,0-.1a1.47,1.47,0,0,0-.15-.34c-.2-.41-.41-.81-.64-1.2,0-.05-.06-.12-.12-.12s-.06.07-.08.12l-.36.9c-.06.15-.12.31-.19.47a.26.26,0,0,0-.09.14A0,0,0,0,0,5.11,2.81Z"/><path class="cls-6" d="M7,3.32s0,.08-.05.07a1.8,1.8,0,0,0-.73,0h0a.05.05,0,0,0-.08,0c-.06.12-.14.23-.2.34s0,0,0,.06S6,3.94,6,4s.21.23.33.33.18.2.29.28a.53.53,0,0,0,.13-.26c.06-.25.15-.49.2-.75a.64.64,0,0,0,0-.2S7,3.33,7,3.32Z"/><path class="cls-7" d="M5.11,2.81v0a.33.33,0,0,0,0-.14,1.8,1.8,0,0,0-.72.13,2.14,2.14,0,0,0-.74.44.46.46,0,0,0-.21.28.3.3,0,0,1,0,.38C3.44,4,3.3,4,3.21,4a.79.79,0,0,1-.3.08,2.53,2.53,0,0,1,.64.26c.14-.27.21-.57.37-.83a.71.71,0,0,1,.63-.42A.52.52,0,0,0,5,2.89.2.2,0,0,1,5.11,2.81Z"/><path class="cls-8" d="M3.88,2.94c.15,0,.19-.18.22-.32a5.27,5.27,0,0,0,.14-.57s0,0,.06-.08a4.24,4.24,0,0,1,.21.51c0,.09.08.12.17.11a2.21,2.21,0,0,0,.25,0c.06,0,.05,0,0-.09L4.33,1.37s0-.05-.06-.05,0,0,0,.05a1.53,1.53,0,0,0-.14.46c-.06.24-.12.48-.16.73A.82.82,0,0,0,3.88,2.94Z"/><path class="cls-9" d="M4.43,7.41c0-.13,0-.24,0-.35a2.83,2.83,0,0,0-.08-.4c-.06-.15,0-.31-.09-.47s-.1-.05-.15-.07A1.62,1.62,0,0,0,3.63,6s0,0-.06,0,0,0,0,.05a4.29,4.29,0,0,1,.66,1.06A1,1,0,0,0,4.43,7.41Z"/><path class="cls-10" d="M2.18,4.09H2c-.14,0-.2.1-.13.23A1.58,1.58,0,0,0,2,4.47c.06.08.12.14.24,0a.75.75,0,0,0,.25-.25c.06-.09,0-.17-.09-.18H2.18Z"/><path class="cls-11" d="M2.67,5.21a.94.94,0,0,1-.49-.41s0,.06,0,.09a.63.63,0,0,0,.35.53c.09,0,.11,0,.15,0s0-.06,0-.06S2.71,5.23,2.67,5.21Z"/><path class="cls-12" d="M2.67,5.21s.05,0,0,.1a2.26,2.26,0,0,0,.58.09c.18,0,.35-.06.52-.08a1.28,1.28,0,0,1,.34-.06s.09,0,.13,0a.73.73,0,0,0-.36,0,.09.09,0,0,1,0,0A4.74,4.74,0,0,1,3,5.3,2.37,2.37,0,0,1,2.67,5.21Z"/><path class="cls-13" d="M4.47,8.19a1.6,1.6,0,0,0-.14-.53A2.2,2.2,0,0,1,4.26,8c0,.06,0,.14.09.13S4.41,8.22,4.47,8.19Z"/><path class="cls-14" d="M3.5,3.86a.22.22,0,0,0,0-.38c-.12.08-.05.18,0,.27Z"/><path class="cls-4" d="M5.16,2.63a.18.18,0,0,0,0,.14c.06,0,0-.1.08-.14Z"/><path class="cls-6" d="M6.84,3s0,.09,0,.1S6.89,3,6.84,3Z"/><path class="cls-6" d="M6.79,2.9s0,.09,0,.1S6.85,2.91,6.79,2.9Z"/><path class="cls-6" d="M6.74,2.8s0,.09,0,.1S6.8,2.82,6.74,2.8Z"/><path class="cls-15" d="M5.9,3.8c.06-.13.15-.23.21-.36s0-.07.07-.07v0a.09.09,0,0,0,0-.1V3.1c0-.06,0-.14,0-.19h0s0-.11,0-.15V2.67s0-.1,0-.14a5.49,5.49,0,0,0-.21-.69c-.14.46-.32.91-.5,1.35a2.66,2.66,0,0,0,.41.47S5.81,3.8,5.9,3.8Z"/><path class="cls-16" d="M4.69,4a1.15,1.15,0,0,0-.14-.27.27.27,0,0,0-.46.07C4,4,4,4,4.17,4l.16.06a.14.14,0,0,0,.14,0A.47.47,0,0,1,4.69,4Z"/><path class="cls-6" d="M6.14,2.91c0,.06,0,.14,0,.19S6.22,3,6.14,2.91Z"/><path class="cls-6" d="M6.05,2.53c0,.05,0,.11,0,.14S6.13,2.56,6.05,2.53Z"/><path class="cls-6" d="M6.1,2.76c0,.05,0,.12,0,.15S6.17,2.79,6.1,2.76Z"/><path class="cls-6" d="M6.19,3.23v.1C6.25,3.3,6.25,3.26,6.19,3.23Z"/></g></g></svg>