<svg xmlns="http://www.w3.org/2000/svg" viewBox="0 0 22.47 22.47"><defs><style>.cls-1{fill:#fea063;}.cls-2{fill:#fff;}.cls-3{fill:#fe9a48;}.cls-4{fill:#fe8f4e;}.cls-5{fill:#6c6369;}.cls-6{fill:#848183;}.cls-7{fill:#fdc03d;}.cls-8{fill:#6b6369;}.cls-9{fill:#fe8e4c;}.cls-10{fill:#6a6268;}.cls-11{fill:#696167;}.cls-12{fill:#ada7a6;}.cls-13{fill:#fe9d5b;}.cls-14{fill:#7c736b;}.cls-15{fill:#fefefe;}.cls-16{fill:#6e666c;}.cls-17{fill:#dc3545;}</style></defs><title>doge_msg01</title><g id="图层_2" data-name="图层 2"><g id="图层_1-2" data-name="图层 1"><circle class="cls-1" cx="11.24" cy="11.24" r="11.24"/><circle class="cls-2" cx="11.32" cy="11.24" r="10.27"/><path class="cls-3" d="M16.14,18.59a4.29,4.29,0,0,0-.49-.69c-.19-.26-.41-.5-.62-.74,0-.05-.09-.09-.06-.16s.11,0,.16,0c.54.14,1.11.11,1.65.24.22.06.45,0,.67.07s.06-.08,0-.14c-.22-.43-.44-.86-.65-1.3L16,14.13A.4.4,0,0,1,16,14a15.55,15.55,0,0,1,1.66.59.88.88,0,0,1,.3.1c.06,0,.13,0,.13-.1a1.18,1.18,0,0,0,0-.27c-.23-.57-.49-1.12-.7-1.7s-.5-1.3-.76-1.94a6.06,6.06,0,0,0-.51-.94c-.18-.29-.37-.56-.55-.84-.08.05-.06.12,0,.17.07.32.11.65.16,1a5.24,5.24,0,0,1,0,1.37,3.6,3.6,0,0,1-.45,1.17,6.12,6.12,0,0,1-1.08,1.3c-.37.38-.74.76-1.13,1.12a2.73,2.73,0,0,0-.67,1.1c-.15.41-.34.81-.51,1.22-.06.14-.07.23.15.28.57.14,1.16.26,1.73.42s.91.18,1.35.3a8.66,8.66,0,0,1,.91.24A.26.26,0,0,0,16.14,18.59Z"/><path class="cls-4" d="M8.05,9.49c.18.26.36.51.53.77.07.09.13.1.26.09a6.6,6.6,0,0,1,1.47,0,3.36,3.36,0,0,1,1.23.48.8.8,0,0,1,.37.57,5.53,5.53,0,0,0,.41,1.27,2.94,2.94,0,0,0,.4-.71c.2-.38.36-.78.57-1.16s.41-.36.63-.52.23-.14.28-.27,0-.08,0-.09c-.21-.1-.34-.32-.5-.48a6.69,6.69,0,0,1-1-1,11.21,11.21,0,0,1-1-1.08.81.81,0,0,0-.12-.14l-.09,0c-.45-.12-.47-.15-.36-.59a.14.14,0,0,0,0-.11.24.24,0,0,0-.28.1A1.21,1.21,0,0,1,9.9,7a.94.94,0,0,0-.56.21,2.35,2.35,0,0,0-.89,1.25,5.21,5.21,0,0,1-.35.81C8.06,9.31,8,9.39,8.05,9.49Z"/><path class="cls-5" d="M11.15,6.52a.32.32,0,0,1,0,.09c-.06.13-.17.32-.11.4a.89.89,0,0,0,.47.25h.11a.79.79,0,0,0,.25-.42c.25-.65.5-1.31.7-2a.24.24,0,0,1,.06-.11A11.85,11.85,0,0,0,13,6a.42.42,0,0,1,.07.29.44.44,0,0,0,0,.16.66.66,0,0,1,.09.27.14.14,0,0,0,0,.06.54.54,0,0,1,0,.35.86.86,0,0,0,0,.23.18.18,0,0,1,0,.25.17.17,0,0,0,0,.1c.13.09.25,0,.37,0,.34,0,.68,0,1,.05.12,0,.25,0,.17-.17s-.14-.3-.19-.46,0-.14-.09-.18h0c-.07,0,0-.14-.1-.19h0c-.06,0,0-.14-.09-.19a2.94,2.94,0,0,0-.3-.68c-.39-.8-.81-1.59-1.27-2.36-.06-.1-.12-.24-.23-.25s-.12.15-.16.25c-.23.59-.47,1.17-.7,1.76l-.38.93a.77.77,0,0,0-.19.28A.1.1,0,0,0,11.15,6.52Z"/><path class="cls-6" d="M14.82,7.52c0,.05,0,.15-.08.13a3.72,3.72,0,0,0-1.45,0s0,0,0,0a.14.14,0,0,0-.17.07c-.12.23-.28.44-.39.68a.14.14,0,0,0,0,.11c0,.19.16.27.27.37s.41.46.65.65.34.4.57.55a.91.91,0,0,0,.25-.51c.13-.49.3-1,.4-1.47a1.4,1.4,0,0,0,.07-.4C14.91,7.6,14.9,7.53,14.82,7.52Z"/><path class="cls-7" d="M11.15,6.52V6.43a.9.9,0,0,0,.08-.28,3.62,3.62,0,0,0-1.42.26,4.73,4.73,0,0,0-1.47.87c-.17.15-.37.29-.4.55a.63.63,0,0,1,0,.75c-.12.26-.4.18-.59.25A1.9,1.9,0,0,1,6.79,9a5,5,0,0,1,1.26.51c.29-.52.41-1.13.74-1.63A1.4,1.4,0,0,1,10,7a1.06,1.06,0,0,0,.88-.36A.38.38,0,0,1,11.15,6.52Z"/><path class="cls-8" d="M8.7,6.76c.32-.1.39-.34.45-.62S9.37,5.4,9.43,5c0,0,.07-.09.11-.15a8.51,8.51,0,0,1,.42,1,.27.27,0,0,0,.34.21A2.7,2.7,0,0,0,10.78,6c.13-.05.1-.11.06-.19-.42-.71-.84-1.41-1.25-2.13,0,0,0-.09-.11-.09s-.06.06-.08.09a3,3,0,0,0-.27.93C9,5.06,8.88,5.53,8.8,6A1.92,1.92,0,0,0,8.7,6.76Z"/><path class="cls-9" d="M9.79,15.6a1.16,1.16,0,0,0-.1-.7,6.71,6.71,0,0,0-.15-.78c-.12-.3-.09-.62-.18-.93,0-.16-.19-.1-.29-.13a2.51,2.51,0,0,0-.85-.24c-.05,0-.1,0-.13,0s0,.07.06.1A10,10,0,0,1,9.45,15,1.87,1.87,0,0,0,9.79,15.6Z"/><path class="cls-10" d="M5.35,9H5c-.28,0-.39.21-.25.45A3.55,3.55,0,0,0,5,9.79c.13.17.24.27.48.1A1.67,1.67,0,0,0,6,9.4.22.22,0,0,0,5.81,9H5.35Z"/><path class="cls-11" d="M6.32,11.25a1.76,1.76,0,0,1-1-.8c-.09,0-.07.12-.05.18a1.26,1.26,0,0,0,.7,1c.17.07.22,0,.29-.09s0-.13.11-.13S6.39,11.29,6.32,11.25Z"/><path class="cls-12" d="M6.32,11.25c0,.06.1.11.09.19a4,4,0,0,0,1.14.19c.35,0,.68-.12,1-.17a4,4,0,0,1,.69-.11.32.32,0,0,0,.26-.07,1.55,1.55,0,0,0-.71,0,.93.93,0,0,0-.1.05,8.52,8.52,0,0,1-1.67.1A4.62,4.62,0,0,1,6.32,11.25Z"/><path class="cls-13" d="M9.87,17.13a2.93,2.93,0,0,0-.28-1,5.4,5.4,0,0,1-.13.72c0,.13,0,.29.18.27S9.76,17.19,9.87,17.13Z"/><path class="cls-14" d="M8,8.58a.44.44,0,0,0,0-.75c-.24.16-.1.36,0,.54A1.29,1.29,0,0,0,8,8.58Z"/><path class="cls-4" d="M11.24,6.15a.32.32,0,0,0-.08.28c.12,0,.1-.19.16-.28Z"/><path class="cls-6" d="M14.54,6.88c0,.07,0,.16.09.18S14.65,6.9,14.54,6.88Z"/><path class="cls-6" d="M14.45,6.69c0,.08,0,.17.1.19S14.57,6.71,14.45,6.69Z"/><path class="cls-6" d="M14.36,6.5c0,.08,0,.18.09.19S14.48,6.52,14.36,6.5Z"/><path class="cls-15" d="M12.71,8.47c.11-.25.29-.46.4-.71,0-.06.06-.15.15-.15V7.53a.17.17,0,0,0,0-.19V7.08c-.09-.11,0-.27-.1-.38h0c-.08-.08,0-.2-.09-.28V6.24C13,6.16,13.06,6,13,6a9.25,9.25,0,0,0-.41-1.36c-.29.91-.63,1.79-1,2.66a5.7,5.7,0,0,0,.82.94C12.5,8.29,12.53,8.47,12.71,8.47Z"/><path class="cls-16" d="M10.32,8.81A2.39,2.39,0,0,0,10,8.29a.53.53,0,0,0-.91.13c-.15.38-.18.37.16.49l.31.1a.28.28,0,0,0,.29,0A.83.83,0,0,1,10.32,8.81Z"/><path class="cls-6" d="M13.16,6.7c0,.13-.06.28.1.38C13.25,7,13.33,6.79,13.16,6.7Z"/><path class="cls-6" d="M13,6c0,.1-.05.22.08.28C13.06,6.14,13.15,6,13,6Z"/><path class="cls-6" d="M13.08,6.42c0,.1-.06.22.09.28C13.15,6.6,13.24,6.48,13.08,6.42Z"/><path class="cls-6" d="M13.27,7.34v.19C13.39,7.47,13.39,7.41,13.27,7.34Z"/><circle class="cls-17" cx="19.52" cy="3.57" r="2.95"/></g></g></svg>