<svg xmlns="http://www.w3.org/2000/svg" viewBox="0 0 81.31 81.27"><defs><style>.cls-1{fill:#fea063;}.cls-2{fill:#fff;}.cls-3{fill:#fe9a48;}.cls-4{fill:#fe8f4e;}.cls-5{fill:#6c6369;}.cls-6{fill:#848183;}.cls-7{fill:#fdc03d;}.cls-8{fill:#6b6369;}.cls-9{fill:#fe8e4c;}.cls-10{fill:#6a6268;}.cls-11{fill:#696167;}.cls-12{fill:#ada7a6;}.cls-13{fill:#fe9d5b;}.cls-14{fill:#7c736b;}.cls-15{fill:#fefefe;}.cls-16{fill:#6e666c;}</style></defs><title>doge</title><g id="图层_2" data-name="图层 2"><g id="图层_1-2" data-name="图层 1"><circle class="cls-1" cx="42.22" cy="42.18" r="39.09"/><circle class="cls-2" cx="38.05" cy="38.05" r="38.05"/><path class="cls-3" d="M55.89,65.28a14,14,0,0,0-1.82-2.55c-.71-.95-1.51-1.84-2.28-2.74-.15-.18-.36-.33-.24-.58s.43-.17.61-.12c2,.5,4.09.4,6.1.9.81.2,1.67-.07,2.5.24.23.09.21-.3.12-.5q-1.2-2.41-2.41-4.82-1.61-3.18-3.2-6.36c-.05-.08,0-.21,0-.38a56.38,56.38,0,0,1,6.14,2.16,3.92,3.92,0,0,1,1.11.37c.23.17.49,0,.48-.35a3.11,3.11,0,0,0-.08-1c-.84-2.09-1.79-4.15-2.58-6.27-.9-2.42-1.85-4.81-2.79-7.21a23.51,23.51,0,0,0-1.92-3.48c-.65-1.05-1.34-2.07-2-3.11-.32.18-.24.45-.2.63A34.91,34.91,0,0,1,54,33.73a18.81,18.81,0,0,1-.07,5.08,13.17,13.17,0,0,1-1.66,4.34,21.73,21.73,0,0,1-4,4.78c-1.37,1.43-2.75,2.85-4.21,4.18a10,10,0,0,0-2.46,4.07c-.58,1.53-1.28,3-1.9,4.52-.21.51-.25.84.54,1,2.14.52,4.3,1,6.42,1.56,1.64.48,3.36.67,5,1.12A25.68,25.68,0,0,1,55,65.3,1,1,0,0,0,55.89,65.28Z"/><path class="cls-4" d="M25.93,31.59l2,2.83c.24.35.46.38.93.35a24.27,24.27,0,0,1,5.45.11,12.2,12.2,0,0,1,4.58,1.78,3.06,3.06,0,0,1,1.35,2.09,21.6,21.6,0,0,0,1.52,4.74,11.1,11.1,0,0,0,1.47-2.63c.76-1.42,1.36-2.91,2.11-4.33.5-.94,1.54-1.31,2.35-1.93.39-.29.86-.49,1-1,0-.11.09-.27,0-.32-.81-.38-1.26-1.18-1.86-1.78a22.57,22.57,0,0,1-3.59-3.78,39.92,39.92,0,0,1-3.69-4,1.48,1.48,0,0,0-.44-.49,1.21,1.21,0,0,0-.32-.11c-1.68-.42-1.75-.53-1.34-2.16a.49.49,0,0,0,0-.41c-.45-.21-.78.07-1,.36a4.45,4.45,0,0,1-3.61,1.34A3.36,3.36,0,0,0,30.7,23a8.54,8.54,0,0,0-3.29,4.63,20.57,20.57,0,0,1-1.3,3C26,30.93,25.7,31.22,25.93,31.59Z"/><path class="cls-5" d="M37.39,20.58a1.16,1.16,0,0,1-.08.32c-.24.48-.65,1.21-.44,1.49a3.12,3.12,0,0,0,1.77.92,1.84,1.84,0,0,0,.41,0A3.36,3.36,0,0,0,40,21.75c.95-2.41,1.85-4.83,2.61-7.31a.86.86,0,0,1,.22-.42c.53,1.47.62,3.05,1.28,4.46a1.44,1.44,0,0,1,.25,1.05,1.6,1.6,0,0,0,.1.61,2.11,2.11,0,0,1,.32,1,.85.85,0,0,0,.09.22,2.32,2.32,0,0,1,.18,1.3,2.73,2.73,0,0,0,.08.85.74.74,0,0,1,0,.93.49.49,0,0,0,.09.37c.48.3.92-.07,1.39-.08,1.26,0,2.5.15,3.76.16.45,0,.93.14.65-.61,0-.66-.52-1.11-.7-1.7-.22-.18-.1-.51-.33-.69h0c-.23-.17-.12-.51-.33-.69h0c-.25-.16-.13-.51-.34-.7A11.07,11.07,0,0,0,48.19,18c-1.43-3-3-5.9-4.7-8.75-.22-.38-.44-.9-.86-.91s-.45.54-.6.9c-.85,2.18-1.72,4.35-2.59,6.53-.46,1.15-.93,2.29-1.39,3.44a2.72,2.72,0,0,0-.71,1A.41.41,0,0,0,37.39,20.58Z"/><path class="cls-6" d="M51,24.29c-.06.19,0,.54-.31.48a13.44,13.44,0,0,0-5.36,0s-.08-.07-.12-.11a.46.46,0,0,0-.63.26c-.44.85-1,1.62-1.43,2.49a.46.46,0,0,0,0,.41c0,.71.58,1,1,1.38.87.73,1.5,1.72,2.4,2.4s1.27,1.51,2.12,2a3.31,3.31,0,0,0,.91-1.87c.5-1.82,1.12-3.61,1.49-5.46a4.92,4.92,0,0,0,.24-1.47C51.34,24.57,51.31,24.34,51,24.29Z"/><path class="cls-7" d="M37.39,20.58l0-.32a2.85,2.85,0,0,0,.3-1,13,13,0,0,0-5.26.95,16.48,16.48,0,0,0-5.42,3.23,3.35,3.35,0,0,0-1.51,2,2.34,2.34,0,0,1,.08,2.79c-.45,1-1.46.65-2.19.91a7.63,7.63,0,0,1-2.17.58,19.12,19.12,0,0,1,4.66,1.88c1.08-1.95,1.53-4.19,2.72-6.05,1.05-1.63,2.32-3.14,4.59-3.07a3.85,3.85,0,0,0,3.23-1.34A1.52,1.52,0,0,1,37.39,20.58Z"/><path class="cls-8" d="M28.35,21.49c1.15-.37,1.43-1.29,1.64-2.3.3-1.41.83-2.77,1-4.21,0-.18.26-.33.43-.54A30.88,30.88,0,0,1,33,18.15a1,1,0,0,0,1.26.76A9.38,9.38,0,0,0,36,18.58c.48-.19.39-.39.21-.69L31.63,10c-.1-.18-.15-.35-.4-.34s-.23.2-.31.33a11,11,0,0,0-1,3.42c-.45,1.75-.93,3.5-1.21,5.28A6.94,6.94,0,0,0,28.35,21.49Z"/><path class="cls-9" d="M32.36,54.2A4.35,4.35,0,0,0,32,51.6a21.31,21.31,0,0,0-.58-2.86c-.41-1.11-.31-2.32-.66-3.46-.18-.6-.71-.37-1.05-.49a10.63,10.63,0,0,0-3.17-.89c-.17,0-.37-.07-.47.09s.1.27.2.39a35.55,35.55,0,0,1,4.83,7.73A7,7,0,0,0,32.36,54.2Z"/><path class="cls-10" d="M15.93,29.88H14.75c-1,0-1.44.76-.92,1.67a9.91,9.91,0,0,0,.84,1.12c.48.63.89,1,1.79.38a6.2,6.2,0,0,0,1.84-1.8.82.82,0,0,0-.68-1.35H15.93Z"/><path class="cls-11" d="M19.52,38.12a6.62,6.62,0,0,1-3.55-3c-.33.15-.25.45-.21.67.34,1.64.91,3.08,2.63,3.82.61.27.79,0,1.07-.33.13-.16.09-.46.39-.48C20.17,38.36,19.79,38.26,19.52,38.12Z"/><path class="cls-12" d="M19.52,38.12c.18.19.39.37.33.68a13.78,13.78,0,0,0,4.23.69c1.28-.08,2.5-.42,3.75-.61a12.93,12.93,0,0,1,2.55-.42,1.13,1.13,0,0,0,.95-.24,5.44,5.44,0,0,0-2.63,0c-.13,0-.24.17-.36.18-2.07.11-4.12.67-6.2.39A24.44,24.44,0,0,1,19.52,38.12Z"/><path class="cls-13" d="M32.67,59.87c-.33-1.27-.21-2.69-1-3.83a21.58,21.58,0,0,1-.46,2.67c-.18.48-.15,1.06.66,1C32.12,59.66,32.27,60.1,32.67,59.87Z"/><path class="cls-14" d="M25.63,28.22a1.65,1.65,0,0,0-.08-2.79c-.88.59-.36,1.35-.18,2A3.88,3.88,0,0,0,25.63,28.22Z"/><path class="cls-4" d="M37.74,19.23a1.21,1.21,0,0,0-.3,1c.44-.21.39-.71.61-1.05Z"/><path class="cls-6" d="M50,21.9c0,.28-.11.62.33.69C50.31,22.31,50.38,22,50,21.9Z"/><path class="cls-6" d="M49.65,21.21c0,.29-.12.63.33.69C50,21.62,50.08,21.28,49.65,21.21Z"/><path class="cls-6" d="M49.31,20.51c0,.29-.14.65.34.7C49.62,20.94,49.74,20.59,49.31,20.51Z"/><path class="cls-15" d="M43.18,27.79c.41-.92,1.09-1.69,1.48-2.63.08-.19.22-.53.56-.53l0-.3a.59.59,0,0,0,0-.7l-.06-1c-.31-.42,0-1-.34-1.41h0c-.28-.3,0-.75-.3-1.05l0-.66c-.28-.29,0-.75-.31-1.05-.56-1.65-.71-3.43-1.5-5-1.07,3.38-2.36,6.63-3.67,9.87a19.52,19.52,0,0,0,3,3.45C42.42,27.14,42.51,27.8,43.18,27.79Z"/><path class="cls-16" d="M34.32,29.08a8.55,8.55,0,0,0-1-1.94,2,2,0,0,0-3.4.49c-.53,1.4-.67,1.37.59,1.8.39.13.79.22,1.18.38a1,1,0,0,0,1.05-.08A3.15,3.15,0,0,1,34.32,29.08Z"/><path class="cls-6" d="M44.87,21.25c.11.47-.23,1.05.34,1.41C45.17,22.17,45.49,21.59,44.87,21.25Z"/><path class="cls-6" d="M44.22,18.5c0,.37-.16.81.31,1.05C44.47,19.19,44.8,18.71,44.22,18.5Z"/><path class="cls-6" d="M44.57,20.21c.08.35-.22.82.3,1.05C44.82,20.9,45.15,20.42,44.57,20.21Z"/><path class="cls-6" d="M45.27,23.63v.7C45.72,24.1,45.72,23.87,45.27,23.63Z"/></g></g></svg>