<svg xmlns="http://www.w3.org/2000/svg" viewBox="0 0 210.83 162.34"><defs><style>.cls-1{fill:#f4f1f8;}.cls-2{fill:#ebeded;}.cls-3{fill:#eceeee;}.cls-4{fill:#3f3d56;}.cls-5{fill:#ff6584;}.cls-6{opacity:0.1;}.cls-6,.cls-9{isolation:isolate;}.cls-7{fill:#f9a826;}.cls-8{fill:#ffb9b9;}.cls-9{opacity:0.2;}.cls-10{fill:#2f2e41;}.cls-11{fill:#575a89;}.cls-12{fill:#a0616a;}</style></defs><title>nothing01</title><g id="图层_2" data-name="图层 2"><g id="图层_1-2" data-name="图层 1"><path class="cls-1" d="M79,30.43H24.2c3.43-1.43,6.25-3,8.38-6,2.26-3.18,5.54-3.8,8.94-1.85,3.22,1.85,4.69.67,6.52-2.24C53,12.58,61,12.08,67.28,19,70.82,22.85,75.56,25.4,79,30.43Z"/><path class="cls-1" d="M87.31,40.3H67.42a6.48,6.48,0,0,0,3-2.17,2.28,2.28,0,0,1,3.24-.68c1.17.67,1.71.25,2.37-.81,1.79-2.83,4.72-3,7-.51C84.36,37.54,86.08,38.47,87.31,40.3Z"/><path class="cls-1" d="M55.57,24.42H0A45.36,45.36,0,0,0,8.5,23.1a23,23,0,0,1,9.08-.41,12.8,12.8,0,0,0,6.62-.5c5-1.72,13.18-1.83,19.53-.31C47.32,22.74,52.12,23.3,55.57,24.42Z"/><path class="cls-1" d="M38.09,47H56.92a6,6,0,0,1-2.88-2A2.23,2.23,0,0,0,51,44.44c-1.1.61-1.61.22-2.24-.73C47,41.14,44.25,41,42.1,43.24,40.89,44.52,39.26,45.36,38.09,47Z"/><path class="cls-2" d="M19.27,108.38a3.77,3.77,0,0,1,2-1.79,1.28,1.28,0,0,0,.7-.81A4.32,4.32,0,0,1,29,104.06a4.25,4.25,0,0,1-.14,6.41,1,1,0,0,0-.48.86,5,5,0,1,1-9.74-1.83A8.57,8.57,0,0,1,19.27,108.38Z"/><path class="cls-2" d="M47.17,96.25A4.47,4.47,0,0,1,45,91.68a4.63,4.63,0,0,1,3.13-4,3.22,3.22,0,0,1,1.67-.3,5.76,5.76,0,0,0,3-.4c1.59-.6,3.64.63,4.21,2.43a3.65,3.65,0,0,1-2,4.1,1.12,1.12,0,0,0-.65.63,5,5,0,0,1-4.69,3A4.14,4.14,0,0,1,47.17,96.25Z"/><path class="cls-2" d="M55.61,60.18a4.21,4.21,0,1,1-4.51,7.1,2,2,0,0,0-1.45-.35,2.75,2.75,0,0,1-2.94-2.21,2.55,2.55,0,0,1,1.79-3,5.65,5.65,0,0,0,2.43-1.35A4,4,0,0,1,55.61,60.18Z"/><path class="cls-2" d="M78.77,50.26a2.51,2.51,0,0,1-4.54-.64,1.56,1.56,0,0,0-.81-1A3.59,3.59,0,0,1,75.3,42a3.51,3.51,0,0,1,3.37,4.17,1.77,1.77,0,0,0,.22,1.66A2.22,2.22,0,0,1,78.77,50.26Z"/><path class="cls-2" d="M6.5,130.42a3.38,3.38,0,0,1,4.74-1.06,3.51,3.51,0,0,1,1.06,4.8,3.46,3.46,0,0,1-4.85,1A3.3,3.3,0,0,1,6.5,130.42Z"/><path class="cls-3" d="M161.06,132.5c-7.2,7.08-14.24,14.33-21.63,21.21-9.06,8.43-19.67,11-31.29,6.24-11.31-4.65-16.28-13.9-17-25.77,0-.42.19-1,0-1.25-13-19.58-.09-36.85,4.42-55.13,5.84-23.6,32.8-36.5,53.31-24.11a21.4,21.4,0,0,0,11.61,3.43c14,.16,24.24,7.08,29.13,20.1s1.34,24.87-7.94,34.85C175.11,119.15,168,125.71,161.06,132.5Z"/><path class="cls-3" d="M107,144.88c-12.19,0-24.38.27-36.55-.08-14.92-.43-26.25-7.18-32.18-21.13-5.77-13.57-2.21-25.73,7.26-36.5.33-.38,1-.67,1-1.08C52,58.22,77.7,54.34,97.05,42.46c25-15.35,59.08-3.6,66.22,24.41a25.84,25.84,0,0,0,7.07,12.77c11.93,12,14.83,26.61,8,41.94S158.45,144.09,142,144.8C130.37,145.3,118.68,144.89,107,144.88Z"/><ellipse class="cls-4" cx="92.17" cy="141.17" rx="42.99" ry="1.54"/><circle class="cls-5" cx="72.12" cy="57.18" r="15.38"/><ellipse class="cls-4" cx="54" cy="135.94" rx="12.97" ry="1.2"/><path class="cls-4" d="M77.62,141.27s10.76-28.69,4.83-46.35S71.83,78,71.83,78s-8-2.07-17.94,4-12.55,7.86-18.21,5.38S28.92,81,15.12,81.4c0,0,7.32-4,14.49-.42s12,5.52,19.31,0S66.31,68.29,76.1,72.57c0,0-7.17-7-9.52-7s-13.38-1.1-17-4.83c0,0-5.1-3.58-14.21,5.24s-6.89,8.83-15,8.14A35.84,35.84,0,0,1,5.88,69.39s9.52,3.87,15.31,1.94S32,62.08,37.06,59.6s8.14-5.8,15-2.21c0,0-2.9-11.86-8.42-10.9s2.62-2.76,2.62-2.76-1.51-20.14-4.41-21.52-1.11-5-6.49-5.65c0,0,6.63-.83,7.87,3.72s9.79,29.11,9.79,29.11,5.25,10.48,11,8S61.89,41,61.89,41L52,36.42s7.45-.27,12,4,4.83,18.07,4.83,18.07S80.24,60.15,83,66.36c0,0,1.79-5.52-1.66-8.83a16.27,16.27,0,0,1-2.64-4,35.07,35.07,0,0,1-3.42-21.08c.52-3.53.83-7,.27-7.8C74.31,22.9,69.07,11.86,68.65,9s.42-9,.42-9,.13,7.45,1.79,9.8,6.35,13.93,6.35,13.93,0,14.62,3.86,21.8S92.38,60.7,92,65.94v3s8.28-7.86,7.72-10.49-1.24-8.82-6.48-12.55-8.69-9.66-5-18.21S92,17.66,92,17.66L89.48,28.28S88.1,37.8,92,41.11a101.7,101.7,0,0,1,9,9.38l-1.1-19.86,3.59,7.86s7.72-9.93,16.83-13.24S135,10.35,135,10.35l7.73-6.07-6.35,7.58s-1.93,9-12.83,15.32S105.63,42.91,105.21,48.7s-.83,10.9-.83,10.9,20.42-.69,25-9.66,5-26.76,9.39-29.66a108.43,108.43,0,0,1,12.69-6.48l-9.25,7.58s-1.93,6.21-1.51,10.63-3,8.55-3,8.55L135,48.29l-2.9,6.62s11.87.27,18.08,7.31,21.66,9.11,21.66,9.11l-8.7,2.34A80.31,80.31,0,0,1,147,65.81c-7.86-5.11-7-9.66-16.83-4.56S107,70.64,107,70.64s7.72-3.59,21.65,5.1-6.89-1.52-13.1,1.79S106.45,76.71,104,85s-7,30.91-1.79,43.6l5.24,12.69Z"/><path class="cls-6" d="M129.56,49.94c-3.69,7.29-17.87,9.11-23,9.54-.15,1.87-.24,3.05-.24,3.05s20.42-.69,25-9.66,5-26.76,9.38-29.66c.47-.31,1-.62,1.52-.94.15-.56.25-.89.25-.89l9.25-7.58A108.43,108.43,0,0,0,139,20.28C134.53,23.18,134.12,41,129.56,49.94Z"/><path class="cls-6" d="M105.77,36a29.3,29.3,0,0,1-.47,5.42s7.72-9.93,16.83-13.24c.54-.34,1.08-.68,1.64-1,10.9-6.35,12.83-15.32,12.83-15.32L143,4.28l-7.73,6.07s-5.66,11.59-14.76,14.9C114.25,27.5,108.69,32.84,105.77,36Z"/><path class="cls-6" d="M93.85,68.87v3s8.28-7.86,7.73-10.48c-.43-2-.93-6.11-3.49-9.6a30.65,30.65,0,0,1,1.81,6.66c.4,1.88-3.75,6.46-6.12,8.9A6.13,6.13,0,0,1,93.85,68.87Z"/><path class="cls-6" d="M82.75,48.05c.06.14.13.27.2.41,2.12,3.93,5.31,8.1,7.69,11.94C88.71,56.6,85.36,52.25,82.75,48.05Z"/><path class="cls-6" d="M89.47,42.17a13.67,13.67,0,0,1,0-9.77,30,30,0,0,1,.23-4.12L91.87,19a84.41,84.41,0,0,1-3.42,8.74C85.8,33.83,86.79,38.59,89.47,42.17Z"/><path class="cls-6" d="M150.4,62.22c-4.31-4.88-11.33-6.51-15.24-7L134,57.84s11.86.27,18.07,7.31c3.44,3.9,9.73,6.28,14.64,7.62l5.35-1.44S156.6,69.26,150.4,62.22Z"/><path class="cls-6" d="M66,60.32c5.8-2.48-2.2-16.42-2.2-16.42l-.22-.1c2,4.21,4.88,11.82.75,13.59-3.87,1.66-7.49-2.47-9.47-5.39l.11.32S60.19,62.8,66,60.32Z"/><path class="cls-6" d="M84.88,69.29s1.75-5.38-1.53-8.71a11.28,11.28,0,0,1-.14,5.78c-2.14-4.8-9.47-6.88-12.68-7.58.12,1.6.14,2.65.14,2.65S82.12,63.08,84.88,69.29Z"/><path class="cls-6" d="M91.87,19a6.13,6.13,0,0,0,.31-1.33Z"/><path class="cls-6" d="M23,74.28l.09,0C28.87,72.32,33.84,65,38.94,62.53s8.14-5.8,15-2.21a28,28,0,0,0-3.54-8.18,32.46,32.46,0,0,1,1.87,5.25c-6.9-3.59-9.94-.27-15,2.21S27.2,69.39,21.4,71.33,6.09,69.39,6.09,69.39a35.84,35.84,0,0,0,14.49,4.69Z"/><path class="cls-6" d="M80.51,141.27c2.53-7.75,8.61-29.18,3.82-43.42a56.72,56.72,0,0,0-5.6-12.58,72,72,0,0,1,3.93,9.65c5.93,17.66-4.83,46.35-4.83,46.35Z"/><path class="cls-6" d="M26.63,82.51a13.94,13.94,0,0,1,4.86,1.4c5.67,2.84,9.87,4.63,15,2.55,1.17-.62,2.47-1.38,4-2.29l.35-.26C58.12,78.39,68.19,71.22,78,75.5c0,0-2-1.94-4.2-3.79-9-2.2-18,4.23-24.66,9.27C41.82,86.5,37,84.57,29.82,81s-14.49.42-14.49.42C20.66,81.24,24.1,81.72,26.63,82.51Z"/><path class="cls-6" d="M40.64,20.87a3.63,3.63,0,0,0,.56.73A4.42,4.42,0,0,0,40.64,20.87Z"/><path class="cls-6" d="M65.85,43.35a6.07,6.07,0,0,1,.59.65,10.29,10.29,0,0,0-2.27-3.58c-4.55-4.27-12-4-12-4l9.34,4.28A13.56,13.56,0,0,1,65.85,43.35Z"/><path class="cls-6" d="M75.76,24.69c.56.82.25,4.27-.27,7.8a35,35,0,0,0,3.42,21.08,24.35,24.35,0,0,0,1.47,2.52,35,35,0,0,1-3.21-20.67c.51-3.53.83-7,.26-7.8C76.19,25.83,71,14.79,70.54,11.9a19.21,19.21,0,0,1-.09-3.39C69.38,5.47,69.28,0,69.28,0s-.83,6.07-.42,9S74.52,22.9,75.76,24.69Z"/><path class="cls-6" d="M88.7,5.62a3.63,3.63,0,0,0-.25-.79S88.56,5.13,88.7,5.62Z"/><path class="cls-6" d="M40,19.52a7.34,7.34,0,0,1,3.69,1.38c-.07-.23-.13-.44-.18-.62-1.24-4.55-7.87-3.72-7.87-3.72C38.61,16.94,39.38,18.22,40,19.52Z"/><path class="cls-4" d="M74.26,135.38a11.71,11.71,0,0,0,4.36,5.88,10,10,0,0,0-3.57-13.16A11.71,11.71,0,0,0,74.26,135.38Z"/><path class="cls-7" d="M75.71,134.59a11.7,11.7,0,0,1,3,6.67A11.69,11.69,0,0,1,72,138.41a11.66,11.66,0,0,1-3-6.66A11.72,11.72,0,0,1,75.71,134.59Z"/><path class="cls-7" d="M66.76,36a11.65,11.65,0,0,1-3.08,6.64,11.72,11.72,0,0,1-2.24-7A11.75,11.75,0,0,1,64.53,29,11.69,11.69,0,0,1,66.76,36Z"/><path class="cls-7" d="M37.06,12.24a11.67,11.67,0,0,1,4.35,5.89,11.66,11.66,0,0,1-7.19-1.38,11.67,11.67,0,0,1-4.35-5.89A11.66,11.66,0,0,1,37.06,12.24Z"/><path class="cls-7" d="M30,58.07A11.7,11.7,0,0,1,34.29,64a11.71,11.71,0,0,1-7.19-1.39,11.69,11.69,0,0,1-4.34-5.89A11.74,11.74,0,0,1,30,58.07Z"/><path class="cls-7" d="M46.9,75.65a11.75,11.75,0,0,1,4.35,5.9,11.7,11.7,0,0,1-7.19-1.39,11.67,11.67,0,0,1-4.35-5.89A11.74,11.74,0,0,1,46.9,75.65Z"/><path class="cls-7" d="M94.72,18.94a11.72,11.72,0,0,1-4.31,5.92,11.71,11.71,0,0,1-.84-7.28,11.66,11.66,0,0,1,4.32-5.91A11.62,11.62,0,0,1,94.72,18.94Z"/><path class="cls-7" d="M125,21.78a11.72,11.72,0,0,1-4.59,5.71,11.68,11.68,0,0,1-.5-7.31,11.67,11.67,0,0,1,4.59-5.7A11.66,11.66,0,0,1,125,21.78Z"/><path class="cls-7" d="M157.8,61.78a11.67,11.67,0,0,1-5.94,4.27,11.65,11.65,0,0,1,1.47-7.17,11.68,11.68,0,0,1,5.94-4.28A11.69,11.69,0,0,1,157.8,61.78Z"/><path class="cls-8" d="M106.36,87.64s-.32,1.2.33,1.64.88,2.52.88,2.52l-1.31,3.61-3.51.66-1.31-2.52V89.83a10.6,10.6,0,0,0,.32-2.41C101.65,86.87,106.36,87.64,106.36,87.64Z"/><path class="cls-9" d="M106.36,87.64s-.32,1.2.33,1.64.88,2.52.88,2.52l-1.31,3.61-3.51.66-1.31-2.52V89.83a10.6,10.6,0,0,0,.32-2.41C101.65,86.87,106.36,87.64,106.36,87.64Z"/><path class="cls-10" d="M109.87,108.34l2.85.55a23.07,23.07,0,0,1,0,3.94c-.22.77-.44,1.65-.22,1.86s-1,5.81-.88,6.14a5.11,5.11,0,0,1,.22,2c-.11.66-.44.44-.22,1.1s.44.76.22,1.2-1.31,11.06-1.64,11.17-3.29.22-3.29,0,1-1.86.66-2.3.11-7.88.11-8.21.66-.88.33-1.1-.55-.44-.44-.76.33-.44.11-.77-.22-6.9-1-7.12c0,0-1,4.82-.65,6s-.11,1.65-.11,1.65l1.53,1.31-2.08,3.94-2.19-2.51s0-.66-.44-.77-.66-.22-.66-.55a21.28,21.28,0,0,0-.76-2.41s-2.19-6.9-1.1-10.41,1.52-3.38,1.52-3.38Z"/><polygon class="cls-8" points="111.62 131.02 112.83 132.33 112.39 135.95 111.4 135.95 109.87 132.55 111.62 131.02"/><path class="cls-10" d="M112.39,133.43s-.44,1-.77.76-.43-.54-.93-.54-.93.1-.82.32,1.42,2.63,1.42,2.63a3.1,3.1,0,0,1,0,2.63c-.65,1.43,1.76,2.19,2.2.66a11.58,11.58,0,0,0,.43-3.94,28,28,0,0,1,.55-4.06,12.59,12.59,0,0,0-2.31-.84A7.22,7.22,0,0,1,112.39,133.43Z"/><path class="cls-10" d="M109.43,135.84l.44,1.31a4.44,4.44,0,0,0,.44,2c.44.66.87,2.08-.88,2.19a3.69,3.69,0,0,1-2.52-.54s.33-.88,0-1.21,0-1,0-1l.33-2.62Z"/><path class="cls-10" d="M106.47,124.88h1l4.93,6.46s-.88,2.09-2.19,2.31c0,0-.22-.11-1.21-.77a33.48,33.48,0,0,1-3.61-3.95l-.33-1.86Z"/><circle class="cls-8" cx="104.06" cy="85.56" r="3.51"/><path class="cls-7" d="M108.34,90.05l-1.1-.44s-.11,3.83-2.19,3.83-4.27-.54-4.27-1.64-1.75,2-1.75,2,1.64,11,1.53,11.07,1.2,5.91,1.2,5.91,5.59.22,7.45-.55a4.31,4.31,0,0,0,2.41-2.19l-.76-9.64-1.54-7.45Z"/><path class="cls-11" d="M106.47,89.06a.85.85,0,0,1,1.1,0c.66.44,4.71,1.43,4.71,1.75V95a1.6,1.6,0,0,1-.22,1.09c-.33.44-1.09,2.08-.66,2.85s2.09,9.64,1.76,10.74a6.53,6.53,0,0,1-1.21,2.08s-4.71-10-4.71-12.82.05-6.34.05-6.34Z"/><path class="cls-11" d="M111.29,90.92h1S116,98,116,99.47s-2.41,9.31-2.62,9.42-.88-1.21-.88-1.21L112,103.3s1.1-2.63.77-3.07-2-3.83-2-3.83Z"/><path class="cls-11" d="M101.6,89.06a10.27,10.27,0,0,0-1.48,1.21c-.22.33-3.5,2.19-3.61,2.63S99,97.06,99,97.06s1.09,6.13,1.09,6.57.44,7.89.44,7.89,4.49,1.31,4.49.55.11-11.73-.55-14.14S101.6,89.06,101.6,89.06Z"/><path class="cls-8" d="M102.31,111.74s3.73,5,1.75,4.93-3.28-4.39-3.28-4.39Z"/><path class="cls-11" d="M97.82,92.57l-1.31.33s-1.1,9.64-.44,10.95,4.16,9.86,4.16,9.53,3.08-.91,3-1.22-.78-1.63-1-2.07a2.48,2.48,0,0,1-.44-1.53c.11-.55-1.2-2.89-1.2-2.89s-.33-1.38-.44-2S99,95.74,99,95.74Z"/><path class="cls-10" d="M107.5,82.84a.86.86,0,0,0-.4-.48,1.79,1.79,0,0,0-.08-.65c-.22-.6-.73-.57-1.22-.84-.21-.12-.2-.22-.31-.41a1.62,1.62,0,0,0-.62-.6,2.37,2.37,0,0,0-1-.4c-.78,0-1.37.64-2.12.86-.32.09-.68.1-1,.19a.9.9,0,0,0-.71.63c0,.15,0,.3,0,.45s-.32.5-.5.74a1.73,1.73,0,0,0,0,1.87,2.08,2.08,0,0,0,.24.34,2,2,0,0,0,.25.79,4,4,0,0,0,1.46,1.38,3,3,0,0,1-.09-.59.31.31,0,0,1,0-.19c.06-.13.24-.17.37-.24a.83.83,0,0,0,.38-.75,8.68,8.68,0,0,1,0-.88.43.43,0,0,1,.17-.35.62.62,0,0,1,.33-.08,3.85,3.85,0,0,0,1.62-.28,2.38,2.38,0,0,1,.51-.24,1.12,1.12,0,0,1,1.08.51c.24.34.36.74.58,1.08a1.17,1.17,0,0,0,1,.62.18.18,0,0,0,.13-.06.3.3,0,0,0,0-.1l0-1.54A2.08,2.08,0,0,0,107.5,82.84Z"/><ellipse class="cls-4" cx="165.62" cy="144.81" rx="21.55" ry="1.54"/><path class="cls-11" d="M158.08,141.21s-1.84,1.55-2.81,1.46-2.81-.1-2,1,4,1.65,5.32,1.75,4.36.19,4.17-.39-.39-3.29-1.16-3.49A31.85,31.85,0,0,0,158.08,141.21Z"/><path class="cls-11" d="M168.64,139.69s-1.36,2-2.31,2.16-2.74.66-1.7,1.48,4.26.51,5.6.24,4.24-1,3.9-1.49-1.26-3.07-2-3.05A32.78,32.78,0,0,0,168.64,139.69Z"/><path class="cls-10" d="M157,111.28s-1.24,8.53-.95,10.08.48,4,.48,4a14.92,14.92,0,0,0,0,3c.19,1,1.36,10.17,1.36,10.37a2.57,2.57,0,0,0,0,1.25c.19.49.58.1,0,.88s-.2,1-.1,1,3.87.39,4.07,0-.1-.48,0-1,.19-.59.38-.68.58.09.29-.39-1-1.06-.77-1.36a9.65,9.65,0,0,0-.1-2.42s-.19-4.74-.29-7.65a20.29,20.29,0,0,1,.87-5.9,11.09,11.09,0,0,0,2.52,6.48c2.52,3,3.78,8.62,3.78,8.62a2.09,2.09,0,0,1,.29,1.65c-.29.77-1.16.29-.29.77s3.87-.19,4.16-.48-.39-.68-.19-1.45,1-.58.29-1-.87-.29-.87-.68-1.75-8.81-4.46-11.23l-.19-8.81s2.42-6.2-.1-6.78S157,111.28,157,111.28Z"/><path class="cls-12" d="M158.76,88.34S160.4,92.41,160,93s4.74-1.94,4.74-1.94a47.7,47.7,0,0,1-1.64-4.55C163.12,86,158.76,88.34,158.76,88.34Z"/><circle class="cls-12" cx="159.97" cy="85.77" r="3.58"/><path class="cls-7" d="M164.76,89.4s-2.52-.29-3.78,1.26a16.58,16.58,0,0,0-1.45,1.94s-3,4.84-2.42,7.26c.14.22.27.45.39.68a39.1,39.1,0,0,1,0,6.68,4.71,4.71,0,0,0-.2,2.42c.2,1.26-1.54,3.3.49,3.68s3.58.1,4.26-.77.1-1.45,2.23-1.45a5.15,5.15,0,0,0,3.48-1.46s-1.06-1.16-.67-1.35,0-.68-.2-1.16-.19-.88.1-.88.1-.19-.1-.67,3.39-8.82,1.26-11.24S165,90.57,165,90.57,165.34,89.11,164.76,89.4Z"/><path class="cls-12" d="M159.24,98.6v4.27l-3.1,10.26s-2,5.33,0,5.33,1.93-5.09,1.93-5.09l4.37-7.7s1.74-6.1,1.55-6.58S159.24,98.6,159.24,98.6Z"/><path class="cls-7" d="M160.89,92.31a3.61,3.61,0,0,0-2.13,4.26c.77,3.1,0,3,0,3s4-.38,5.23.49l.29-1.17S165.44,92.21,160.89,92.31Z"/><path class="cls-10" d="M158.74,83.08a1.41,1.41,0,0,1-1.34-.21,1.06,1.06,0,0,1-.3-1.27,1.62,1.62,0,0,1,1-.71,9.07,9.07,0,0,1,2.62-.6,2.44,2.44,0,0,1,1.26.17c.19.1.35.24.54.34a6.29,6.29,0,0,0,1.12.34,2.84,2.84,0,0,1,1.71,1.58,3.46,3.46,0,0,1,.21.78,4.33,4.33,0,0,1-.23,2.17c-.41,1.1-1.28,2.06-1.32,3.23-.53-.38-.73-1.07-1.16-1.57a2.09,2.09,0,0,0-1.22-.71.67.67,0,0,1-.36-.14.56.56,0,0,1-.14-.31l-.36-1.71a1.49,1.49,0,0,0-.45-.94,1.55,1.55,0,0,0-.59-.21,9.64,9.64,0,0,0-1.52-.13"/><path class="cls-2" d="M150.88,105.94a3.82,3.82,0,0,1,2-1.78,1.3,1.3,0,0,0,.7-.81,4.32,4.32,0,0,1,7.11-1.73,4.26,4.26,0,0,1-.13,6.42,1,1,0,0,0-.49.85,5,5,0,1,1-9.74-1.82A8.69,8.69,0,0,1,150.88,105.94Z"/><path class="cls-2" d="M178.78,93.82a4.47,4.47,0,0,1-2.17-4.58,4.63,4.63,0,0,1,3.13-4,3.23,3.23,0,0,1,1.67-.31,5.69,5.69,0,0,0,3-.39c1.59-.6,3.63.63,4.2,2.43a3.65,3.65,0,0,1-2,4.1,1.14,1.14,0,0,0-.65.62,4.93,4.93,0,0,1-4.69,3A4.22,4.22,0,0,1,178.78,93.82Z"/><path class="cls-2" d="M187.22,57.75a4.2,4.2,0,1,1-4.5,7.1,2,2,0,0,0-1.46-.35,2.77,2.77,0,0,1-2.94-2.22,2.54,2.54,0,0,1,1.79-3A5.65,5.65,0,0,0,182.54,58,4,4,0,0,1,187.22,57.75Z"/><path class="cls-2" d="M210.38,47.83A2.37,2.37,0,0,1,207.91,49a2.41,2.41,0,0,1-2.07-1.8,1.54,1.54,0,0,0-.81-1,3.59,3.59,0,0,1,1.88-6.65,3.51,3.51,0,0,1,3.37,4.17,1.8,1.8,0,0,0,.22,1.66A2.2,2.2,0,0,1,210.38,47.83Z"/><path class="cls-2" d="M138.11,128a3.37,3.37,0,0,1,4.74-1.06,3.5,3.5,0,0,1,1.06,4.8,3.46,3.46,0,0,1-4.85,1A3.3,3.3,0,0,1,138.11,128Z"/></g></g></svg>