<svg xmlns="http://www.w3.org/2000/svg" viewBox="0 0 339.06 290.53"><defs><style>.cls-1{fill:#eaeff1;}.cls-2{fill:#383a4b;}.cls-3{fill:#d4d0cf;}.cls-4{fill:#232e4b;}.cls-5{fill:#ec8a42;}.cls-6{fill:#efa035;}.cls-7{fill:#565b67;}.cls-8{fill:#6d6e78;}.cls-9{fill:#71717a;}.cls-10{fill:#46335d;}.cls-11{fill:#224162;}.cls-12{fill:#d7d2d1;}.cls-13{fill:#5f3559;}.cls-14{fill:#2d486c;}.cls-15{fill:#eeb63d;}.cls-16{fill:#1c2b42;}.cls-17{fill:#232f4d;}.cls-18{fill:#d7d2d2;}.cls-19{fill:#ec9341;}.cls-20{fill:#f0be43;}.cls-21{fill:#283759;}.cls-22{fill:#f1c047;}.cls-23{fill:#eea132;}.cls-24{fill:#ee794d;}.cls-25{fill:#d7d1d2;}.cls-26{fill:#edaf34;}.cls-27{fill:#09a9b8;}.cls-28{fill:#e89731;}.cls-29{fill:#dc7d48;}.cls-30{fill:#f2c54e;}.cls-31{fill:#cf8556;}.cls-32{fill:#d48e4b;}.cls-33{fill:#35315b;}.cls-34{fill:#393240;}.cls-35{fill:#d5d0d0;}.cls-36{fill:#efa831;}.cls-37{fill:#d6d3d3;}.cls-38{fill:#eb7c44;}.cls-39{fill:#efb030;}.cls-40{fill:#f0b52f;}.cls-41{fill:#ed9539;}.cls-42{fill:#efb22f;}.cls-43{fill:#eaeef1;}.cls-44{fill:#d6d2d1;}.cls-45{fill:#ea7d46;}.cls-46{fill:#f1b831;}.cls-47{fill:#ea764c;}.cls-48{fill:#c86f66;}.cls-49{fill:#d7d4d4;}.cls-50{fill:#efb233;}.cls-51{fill:#e8edef;}.cls-52{fill:#e9eff0;}.cls-53{fill:#e0794e;}.cls-54{fill:#e8eef0;}.cls-55{fill:#d8d5d2;}.cls-56{fill:#d8d5d6;}.cls-57{fill:#ebeff2;}.cls-58{fill:#e7e9e9;}.cls-59{fill:#aeb5c2;}.cls-60{fill:#b1b6c3;}.cls-61{fill:#e7eef0;}.cls-62{fill:#e4e7e1;}.cls-63{fill:#dcdfe3;}.cls-64{fill:#8d754c;}.cls-65{fill:#e2a341;}.cls-66{fill:#c68447;}.cls-67{fill:#eceff0;}.cls-68{fill:#ec8d41;}.cls-69{fill:#eb8d33;}.cls-70{fill:#a8aebc;}.cls-71{fill:#dcdadb;}.cls-72{fill:#59345a;}.cls-73{fill:#232d44;}.cls-74{fill:#222c46;}.cls-75{fill:#46bccc;}</style></defs><title>products01</title><g id="图层_2" data-name="图层 2"><g id="图层_1-2" data-name="图层 1"><path class="cls-1" d="M305.81,248.31c4.66-3.55,7.41-9.05,12.51-12.14.72-.43,1.16-1.57,2.21-1,.8.4.62,1.34.59,2.06-.55,12.52-1,25-4.39,37.24-1.61,5.76-5.68,9.48-9.41,13.6-.94,1.21-2.17.88-3.39.66-1.57-1.45-.7-3,.3-4,9-9,9.35-20.82,10.8-32.29.26-2.11.26-4.26.55-6.92a155.34,155.34,0,0,0-15.05,17c2.64.87,4.93.27,7.11.57,1.54.22,3.31.39,3.64,2.2.38,2-1.32,2.84-2.91,3.44-2.81,1-5.77.88-8.7.93-5.26.09-7.43,2.78-6.58,8.11.24,1.51.82,2.95,1.1,4.45.19,1,.37,2.19-.66,2.77-1.27.72-2.15-.29-2.92-1.13-3.27-3.54-4.23-11.53-1.38-15.45,1.85-2.53,1.79-4.72.79-7.38a23,23,0,0,0-6.52-8.83,136.09,136.09,0,0,0-12.84-10c.95,6.38,3.71,12.81-3,18,11.24,4.88,9.15,14.66,8.52,23.68-.31,4.53-2.64,5.29-6.46,2.86-.28-.18-.47-.51-.85-.51a1.66,1.66,0,0,1,.58,1,1.38,1.38,0,0,1-.81,1.56c-2.69.08-5.4.78-8-.46-.89-2.76.37-5.69-.69-8.47-.62-1.61-.56-3.49-2-4.78-1.75-1.36-4.21-2.23-3.76-5.19.58-11.71.14-23.43.25-35.14.06-6.11-.24-12.24.08-18.33A69.55,69.55,0,0,0,251,191.58c-1.55-6.35-3.45-12.62-4.4-19.12a40.09,40.09,0,0,1-.24-10.55c.3-1.29-.33-2.62.15-3.9,2.48-4.52,2.45-9.57,2.58-14.45.16-5.6,1-11.15,1-16.75a13,13,0,0,1,4.26-9.49c2.29-2.21,4.52-4.48,6.73-6.77,2.77-2.86,3.92-6.12,2.82-10.11-1-3.43-1.68-6.92-2.66-10.34-1.88-6.89-4.11-13.67-6.38-20.45S248.15,59,241.08,58a55.07,55.07,0,0,0-10.64-.83,6.07,6.07,0,0,1-3.72-.6c-2.55-2.25-1.07-4.54-.05-6.82.52-.71,1.09-1.39,1.61-2.1,5.46-7.56,2-15.6-7.36-16.87-2.13-.29-4.29-.32-6.42-.77-1.12-.23-2.27-.34-3,.95a3.53,3.53,0,0,0,0,3.62c.77,1.47,2.27,2.4,2.94,4,1.95,4.12-.13,8.22,0,12.32a9.22,9.22,0,0,1,.19,2.22c-.24,2.72.31,4.76,3.69,4.56a1.64,1.64,0,0,1,1.25.75A1.86,1.86,0,0,1,219,60.6c-8.92,3.17-12.06,10.38-13.62,18.94-1.28,7-3,13.89-3,21a9.6,9.6,0,0,1-1.71,6.12c-1.79,1.42-3.63.72-5.4,0a103.89,103.89,0,0,1-11.42-5.2c-6.8-3-14.16-1.94-20.92-3,3.16.25,6.42.9,8.93,3.7,1.09,1.22,2.84,1.62,4.39,2.17a18.42,18.42,0,0,1,7.31,4.64,87.14,87.14,0,0,1,8.38,6.57c1.16,1,2.68,2.08,2.14,3.72-.62,1.87-2.65,1.7-4.26,1.75-3.54.11-7.1.07-10.65.07-2.52-.39-5.12,0-7.61-.62-1.65-.86-3.2-1.82-5.25-1.78-4,.08-5.88,2.93-4.15,6.46.75,1.55,5.14,2,7.23.63.62-.39,1-1.08,1.7-1.49a4.74,4.74,0,0,1,2.42-.56,12.19,12.19,0,0,1,4-.15c5.11-.15,10.24-.91,15.3.54,1.37,1.14,2,2.82,3,4.26,1.54,2.36,1.44,4.77-1.18,6.56a4.66,4.66,0,0,1-1.48.31c-7.83.8-9.83,2.57-11.78,10.07-2.9,11.13-1.14,9.29-12.71,10-12.14.72-24.3.92-36.43,1.95-7.3.62-14.69.76-22,1-1.27,0-2.59.12-3.4-1.2-2-14.32-3.94-28.65-5.43-43-1.24-12-3-23.93-4.36-35.9C95.79,68.09,94.87,58,93.69,47.89q-1.51-13.05-3.37-26A77,77,0,0,1,90,7c.15-3.07,2.39-5,5.29-5.89a24.25,24.25,0,0,1,7.16-.94C140.75.18,179,.51,217.27,0c15.14-.2,25,6.7,32.14,19.05,9,15.56,14.34,32.59,19.71,49.6,6.06,19.19,11.41,38.57,16.27,58.1,4.92,19.74,9.16,39.62,12.55,59.67q4.35,25.71,7.23,51.65a95.49,95.49,0,0,1,.66,10.26,2.47,2.47,0,0,1-1.85.21c-9.36-4-19.41-6-27.93-9.56,6.32,4.91,14.47,9.22,18.49,17.85.78,1.67,1.59,1.29,2.47.15,1.56-2,3.31-3.86,4.86-5.87A6.83,6.83,0,0,1,305.81,248.31Z"/><path class="cls-2" d="M106.75,157.11q19.81-.87,39.62-1.75c9.52-.43,19-1,28.57-1.28,2.35-.07,3.51-.71,3.79-3.06a34.92,34.92,0,0,1,1-4.45c2.47-9.72,4.13-11.17,14.09-12.39a7.73,7.73,0,0,0,1.44-.45,8.87,8.87,0,0,0,5.53-4.78c1.76-3.3,5.6-5.07,7-8.78a2.54,2.54,0,0,1,2.72.83,3.76,3.76,0,0,1-.06,4,16,16,0,0,1-3.26,3.15,7.49,7.49,0,0,0-3.15,6.92c-.23,1.25-.6,2.46-.92,3.69-1.22,4.22-1.28,8.68-2.62,12.86-.89,2.77-.35,4.83,2.27,6.23a2.24,2.24,0,0,1,.07,1.76c-1.77,2.37-4.17,2.39-6.5,1.32s-2.21-3.53-1.76-5.69c.84-4.12,1.87-8.2,2.75-12.31.28-1.35.86-2.68.12-4.16-5.35,21.31-9.62,42.87-14.51,64.28-1.44,7.88-3,15.73-4.52,23.6-.84,4.44.85,7.37,4.4,9.63a56.77,56.77,0,0,0,5.05,2.69c10,5,12.3,9.59,10.53,20.52a34,34,0,0,1-.79,3.74,54,54,0,0,1-.92,7.18c-1.33,6.58-5.41,10.18-12.08,10.7a38.91,38.91,0,0,1-7.24,0A21.13,21.13,0,0,1,175,281a3.58,3.58,0,0,1-1.53-1.08c-3.74-4.26-7.06-4.09-10.35.54a3.08,3.08,0,0,1-1.13,1c-1.18.21-1.82-.57-2.44-1.37a3,3,0,0,1-.41-2.35c3.16-3.82,8.83-5.24,14.63-3,3.88,1.49,7.75,1.37,11.65,1.08,4.52-.34,6.9-4.24,5.38-8.3a12.64,12.64,0,0,0-9-3.73c-15.4-.53-30.79-.65-46.2-.18-13.76.42-27.53.07-41.31.11-1.77,0-3.59-.15-5.27.61-1.35.6-2.51,1.49-2.27,3.15.23,1.5,1.48,2,2.82,2.13a41.39,41.39,0,0,0,4.59.13c15.17.15,30.34-.3,45.51.24a69,69,0,0,1,12.11,0c3.06-.84,6.17.55,9.22-.25a77,77,0,0,1,8.59.24c5.07-.64,10.13.21,15.2.15a2.87,2.87,0,0,1,2.6,1.24c.31,2.79-1.62,3.57-3.71,3.68-3.51.18-7,.48-10.53-.55a17.74,17.74,0,0,0-9.72,0A10.13,10.13,0,0,1,159,275a121.69,121.69,0,0,1-17.81-.11c-10,.85-20-.07-30.27-.63-.1,1.79,1.39,2.79,1.13,4.18a2,2,0,0,1-.81,1.47c-1.16.39-1.89-.33-2.69-1-4.44-3.58-6.41-3.26-9.76,1.56a3.49,3.49,0,0,1-1.09,1c-1,.34-1.89-.26-2.85-.23-3.87.06-7-1-8.11-5.23-.49-1.8-2.39-2.53-3.49-3.91-1.88-2.36-2.63-4.93-1.25-7.74s3.35-4.76,6.83-4.2c15.15,0,30.36.8,45.44-.22,15.66-1,31.28-.62,46.91-.95,3.22-.07,6.38.14,9.27,1.77,1.64.93,2.4.59,2.91-1.36,2.09-8,0-12.58-7.67-15.91-4.37-1.91-8.49-4.13-11.38-8.1-1.34-1.84-3.37-2.18-5.42-2.34-6.47-.49-12.93-1.17-19.38-1.84-5.65.07-11.2-.92-16.78-1.53a2.67,2.67,0,0,1-2.12-1.4c-9.2-1-18.41-1.9-27.59-3.05-6.52-.82-13.17-.64-19.55-2.54-2.3-.75-2.84-2.73-3.13-4.74a77.83,77.83,0,0,1-.83-8.22c-.23-5.19-1.84-10.16-2.26-15.33-.66-7.94-2.26-15.78-2.84-23.74a6.11,6.11,0,0,1,.78-4c-.05-7.59.1-7.69,7.91-8.11S98.86,157.61,106.75,157.11Z"/><path class="cls-1" d="M88.34,260.44c-2.47,1.14-4.77,2.44-5.54,5.37-.63,2.36-.08,4.6,1.84,5.8,2.45,1.53,4.42,2.91,4.23,6.21-.07,1.33,1.33,1.71,2.56,1.75,1.52.06,3,.1,4.58.15.88,2,1.53,4.15,2.24,6.25.37,1.08.82,2.16-.67,2.79-9.54.34-19.07.07-28.59.13-1,0-2.07.1-2.81-.84-1.79-3.22-2.71-6.85-4.87-9.91a6.22,6.22,0,0,0-4.58-3C52.3,274.62,49,271.93,46,269c-2.36-2.24-2.88-4.91-.25-7.31,1.64-1.49,1.31-3.19,1.13-4.92-.44-4.26,1.65-6,5.61-4.48a26.26,26.26,0,0,1,9.07,5.53c1,.93,1.83,2,3.92,2.19-3-3.89-5.69-7.39-7.58-11.39a15.65,15.65,0,0,1-1.69-7.74c.27-4.62,3.42-6.71,7.6-4.7,4.73,2.26,7.55,6.27,9.22,11.14.28.84.44,1.72.68,2.58,1.12,4.18,2,4.44,5.12,1.41a9.72,9.72,0,0,1,4-2.82c3.46-1,5.84.83,5.78,4.42,0,2.29-.16,4.58-.24,6.86C88.88,260,88.87,260.26,88.34,260.44Z"/><path class="cls-3" d="M88.34,260.44a4.68,4.68,0,0,1,0-.64l48.34-.09a1.76,1.76,0,0,1,1.53-1c4.58.63,4.93-4,7.4-6,1.09-.86-.27-1.45-.85-2-5.23-5-4.73-12.61,1.34-16.36,1.84-1.13,2-3.19,3.46-4.34,7.74.64,15.49,1.3,23.23,1.93a2.49,2.49,0,0,1,2.44,1.46c1.81,4.2,5.52,6.16,9.43,7.88,1.16.51,2.33,1,3.47,1.59,6.57,3.31,8.57,7.47,7.11,14.69-.48,2.37-.95,4.75-1.57,7.85-4.39-5.56-10.31-5.07-16.18-5.06Q132.94,260.48,88.34,260.44Z"/><path class="cls-4" d="M259,273.15c2,4.61,4.34,9.16,1.79,14.33-.85.94,1.21,1.16.5,2.07-26.48.28-53,.4-79.44,0,0-2.12,2.6-1.58,3.18-3.12a10,10,0,0,1,9.84-5.9c3.67.06,6.36-2.36,9.36-3.95s5.64-4,9.29-4.18a9.57,9.57,0,0,1,6.16.37c2.71,2.91,4.94,6.09,5.3,10.22.19,2.16.82,3.38,2.88,1.32a10.87,10.87,0,0,1,7.2-3c4.42-.36,7.74-3,11-5.6,1.38-1.1,2.52-2.52,4.28-3.12C253.36,271.31,256.07,274,259,273.15Z"/><path class="cls-5" d="M75.18,166.69q2.76,21.66,5.53,43.33c-1.64.54-2.54-.65-2.93-1.74-2.4-6.74-8.31-10.79-12.26-16.33A16.24,16.24,0,0,0,63,188.6c-1.62-6.15-2.24-12.47-3.23-18.72-.36-2.23.57-2.57,2.43-2.61C66.56,167.16,70.87,166.89,75.18,166.69Z"/><path class="cls-1" d="M149.6,230.05c0,2.59.65,5-3.42,5.75s-5.2,11.85-.93,13.71A20.37,20.37,0,0,1,147.9,251c.63.41,1.36.94,1.27,1.75-.1,1-1.08.89-1.8,1-1.4.14-2.82.89-2.79,2.15.12,4.76-3.16,3.87-6,3.89-.64,0-1.27,0-1.9,0-2.09-9.18-4.19-18.36-6.22-27.56-.28-1.25-1.35-2.61.1-3.85Z"/><path class="cls-6" d="M63,188.6a2.8,2.8,0,0,1,2.32,1.13C69.11,195.51,75.59,199.17,78,206c.52,1.5,1.09,3.16,2.71,4,1.51,4.1,0,8.86,2.75,12.69-4.16.74-8.36.16-12.53.41a2.38,2.38,0,0,1-2.85-2.28C66.38,210.1,64.11,199.44,63,188.6Z"/><path class="cls-7" d="M186.38,288.17c-1.19,1.5-3.22.23-4.52,1.38-19.07.94-38.15-.38-57.23.12-6.61.17-13.22-.47-19.83.71-3.36.6-6.76-.78-10.23-.77-30.23.1-60.46,0-90.7,0-1.26,0-2.52-.14-3.78-.23a.31.31,0,0,1-.09-.23,1.61,1.61,0,0,1,.2-.33c1.35-.59,2.76-.3,4.15-.3q44.85,0,89.7,0c1.35,0,2.8.47,4.07-.43-1.86-2.49-2.19-5.37-2.11-8.35l1.37,1.48c1.2.43,1.09,1.55,1.39,2.5,1,3.09,2.9,4.36,6,4s4.5-2.08,4.66-5.06c.06-1.13,0-2.34,1.24-3l.64-.69c2.38.3,1.9,2.13,2,3.67-.43,3.1.8,4,4,4,12.93-.19,25.87-.14,38.81,0,2.53,0,3.88-.33,3.11-3.31a3,3,0,0,1,1.32-3.65l1.22,1.53c1,.39,1.1,1.28,1.28,2.17.63,3.13,2.63,4.52,5.75,4.36s4.67-1.77,5-4.76c.1-1,.18-2.05,1.31-2.54l1.43-.69c1.93,3.44,1.72,4.74-1.2,6.93C179,287.15,183.05,285.3,186.38,288.17Z"/><path class="cls-8" d="M261.3,289.55c-.59-.36-1.44-.58-1.68-1.1s.5-.95,1.18-1c2.66,1.43,5.49.41,8.23.54,4.32-.46,8.53-1.6,12.93-1.51,5.57.11,11.14,0,16.72.05,1.76,0,3.6-.12,4.89,1.48l3.75,0h31.74c-.49,2-1.38,1.67-2,1.67q-37.31,0-74.61,0A9,9,0,0,1,261.3,289.55Z"/><path class="cls-9" d="M98.12,288.07c.12,1.43-1,.81-1.55.81q-48.18,0-96.37,0c1.5-1.06,3.21-.58,4.82-.59q30.59-.13,61.16-.2Z"/><path class="cls-10" d="M247.5,161.76c-.47,10.05,2.56,19.51,4.85,29.1-4.06-.8-6.06,1.78-7.5,4.85-2.65,5.62-8.45,8.34-11.87,13.24a1.78,1.78,0,0,1-2.43.28c-1.21-.82-1.36-2.13-1.61-3.4-.78-3.39-1.41-6.83-3.28-9.86-2.34-5.83-1.69-11.33,1.2-16.89,3.54-6.79,8.84-12.42,12.17-19.33-3.41-1.71-8.08.08-10.7-3.86-1.14-3.38-.6-6.82-.42-10.25-.26-5.5-.64-11,.2-16.49,1-2.57,3.59-2.59,5.69-3.18,2.64-.74,2.85-1.86,1.4-4a35.61,35.61,0,0,1-3.23-4.67,3.66,3.66,0,0,1,1.27-3.08c3.74-3.67,6.84-7.91,10.53-11.61,1.95-2,4.14-3.41,7-3.53a5.16,5.16,0,0,0,4.78-3.22,19.1,19.1,0,0,1,3.33-4.65c.93-1,1.83-2.24,3.54-1.55.43,1.31.77,2.66,1.32,3.93,4.37,10,1.32,17.75-7.26,23.72-3.57,2.48-4.87,5.77-5,10-.31,7.76-.9,15.5-1.41,23.25-.17,2.68.5,5.67-2.53,7.38C245.42,159.21,246.62,160.48,247.5,161.76Z"/><path class="cls-11" d="M262.43,89.67A17.26,17.26,0,0,0,256.62,97c-.74,1.8-2,3.48-3.79,3.29-5.51-.55-8.18,3.3-11.21,6.65s-6.17,7-9.24,10.57c-.11,1.21-.76,1.88-2,1.61a1.92,1.92,0,0,1-1.4-2c-.12-2.24-.33-4.46-.67-6.67-.24-9.88.5-19.74,1-29.6.24-5.31.94-10.59.51-15.91-.37-1.66-1.7-2.73-2.51-4.12s-1.82-3.05-.58-4.84a49.64,49.64,0,0,1,18.82,1.55,13.46,13.46,0,0,1,9.07,8A151.77,151.77,0,0,1,262.43,89.67Z"/><path class="cls-12" d="M303.57,288,269,288c-.44-2.13-3-2.24-4.07-4.2,2.6-.26,4,1.71,5.79,2.56,2.11,1,3.53,1.34,3.95-1.67.8-5.72,1-11.4-.62-17-.92-3.09-3.37-4.64-6.27-5.64-1.18-.41-2.81-.65-2.91-2.1-.12-1.83,1.65-1.48,2.82-1.76,2.62-.63,2.61-2.95,2.8-4.88a23.33,23.33,0,0,0-3.19-14.22c4.83,1.55,7.62,4.57,10.81,6.91,4.4,3.24,8.88,6.51,11.71,11.34,2.21,3.79,3.74,7.5.38,11.88-3.06,4-1.28,11.49,3.31,15.58a55.73,55.73,0,0,1-1.79-6.49c-.8-5.36.62-11.33,7.77-10.16a19.49,19.49,0,0,0,9.07-.78c1-.32,2.13-.75,1.9-2-.2-1-1.37-1-2.25-1-2.3,0-4.59,0-6.89,0-.93,0-2.12.86-2.75-.42-.51-1.07.29-2,.92-2.74,2.82-3.43,5.67-6.85,8.58-10.21,2.17-2.5,4.89-4.49,6.69-7.33.39-.6,1-1.36,1.84-1s.71,1.32.62,2c-1.18,9.31-1.51,18.75-4.12,27.84A25.41,25.41,0,0,1,306.47,284,12.05,12.05,0,0,0,303.57,288Z"/><path class="cls-13" d="M230.8,208.5c.25.07.67.25.71.18,3.15-5.06,9.18-7.49,11.83-13a36.36,36.36,0,0,1,2.18-3.58c1.83-2.89,3.93-4.3,6.83-1.23,2.13,6.93,3.86,13.85,3.75,21.26-.27,17.87-.1,35.74-.15,53.61,0,1.49.32,3.08-.61,4.47-1.25,1.93-3,1.91-5,1.38s-2.63-2-3.08-3.59q-4.65-16.73-9.94-33.26a6.86,6.86,0,0,1-.12-1.13c-1.87-6.12-4.18-12.11-5.38-18.43-.25-1.29-1.42-2-1.85-3.25A3,3,0,0,1,230.8,208.5Z"/><path class="cls-14" d="M209.94,121.28l-2.2-.77A4.22,4.22,0,0,1,204,122c-4.32-.66-5.35-1.61-5.3-5.87,0-3.21-1.08-6.68,1.48-9.53a189.77,189.77,0,0,1,5.36-33.86c1.84-7.25,6.09-11.13,13-12.69,1.51,1.32.89,2.88.53,4.42-1.33,8.25-3.38,16.37-4.53,24.68-1.29,9.29-2,18.62-2.86,27.94a9.22,9.22,0,0,1-.74,3.32A2.14,2.14,0,0,1,209.94,121.28Z"/><path class="cls-15" d="M133.92,20.05q-13.39,0-26.79,0c-2.76,0-5.48-.41-5.52-3.8s2.84-3.73,5.51-3.73l54.36,0c2.66,0,5.07.49,5,3.78s-2.33,3.84-5,3.84c-9.19,0-18.38,0-27.57,0Z"/><path class="cls-16" d="M219.33,58.92c-6.52-.23-6.52-.23-5.94-7.88,1.22-1.83,3.07-1.47,4.85-1.45,3.35,0,4.07-.69,4.2-4.36.09-2.46.44-5.07-3.48-4.74a6.1,6.1,0,0,1-5.47-2.17c-2.18-1.22-3.9-2.73-4-5.52-.13-3.81,1.81-5.42,5.38-4.06,2.58,1,5.25.64,7.88,1,3.08.37,5.73,1.23,6.46,4.76a2.36,2.36,0,0,0,.45,1c4.23,5.26,3.67,10-1.75,14.54-2.63.68-1.82,3-2.06,4.68C225.27,58.61,223.44,59.9,219.33,58.92Z"/><path class="cls-17" d="M200.14,106.57c0,2.42.19,4.85,0,7.25-.35,3.81,0,6.93,4.77,7.37,1.54,2.29.7,4.11-1.62,4.75-3.4.93-7,1.62-10.18-.81l-16-.22c-1.57-3.27-1.38-3.84,1.74-5h15.72l-12-10.15c-.59-3.28-1.12-6.55,1.83-9.12C189.83,102.11,194.34,106.05,200.14,106.57Z"/><path class="cls-18" d="M305.81,248.31c-3.45,4.22-6.91,8.44-10.82,13.24-3.68-12.73-15.25-17.19-23.49-25.29,11.18,4.84,23.48,6.3,34.33,12.07Z"/><path class="cls-19" d="M135.91,81.38h18c1.71,0,3.54,0,3.55,2.36s-1.58,2.89-3.62,2.89c-12.11,0-24.22,0-36.33,0-1.77,0-3.52-.37-3.63-2.51-.12-2.47,1.79-2.74,3.7-2.74h18.36Z"/><path class="cls-20" d="M135.45,41.51H117.51c-1.93,0-3.77-.34-3.67-2.78.1-2.28,2-2.34,3.67-2.34l35.88-.07c1.87,0,3.8.13,3.8,2.63s-1.95,2.62-3.8,2.63c-6,0-12,0-17.94,0Z"/><path class="cls-21" d="M130.06,61.18h-13c-1.74,0-3.54-.08-3.45-2.47s1.93-2,3.42-2q13.17,0,26.35,0c1.57,0,3.26-.05,3.24,2.2s-1.57,2.32-3.21,2.32H130.06Z"/><path class="cls-22" d="M158.58,46.2h10.33c1.73,0,3.53.07,3.61,2.37s-1.54,2.7-3.36,2.71c-7,0-14,0-21,0-1.77,0-3.52-.46-3.48-2.64s1.87-2.41,3.61-2.41h10.33Z"/><path class="cls-23" d="M184.41,100.6c-.36,3.09-.37,6.25-1.83,9.12-7.54-4.16-14.62-9.24-23.06-11.89C167.93,98.12,176.48,96.43,184.41,100.6Z"/><path class="cls-24" d="M158.45,66.89c3.17,0,6.35,0,9.52,0,1.94,0,3.73.33,3.69,2.75,0,2.15-1.64,2.6-3.47,2.6q-10.08,0-20.17-.07c-2,0-3.22-.84-3.12-2.92s1.64-2.3,3.27-2.3h10.28Z"/><path class="cls-25" d="M184,42.33a34.05,34.05,0,0,1-8.43-.82c-1.35-.29-2.56-.87-2.59-2.36s1.07-2,2.52-2.28a57.64,57.64,0,0,1,19,0c1.38.24,2.49.72,2.51,2.34s-1.11,2-2.44,2.42C191.54,42.55,188.48,42.18,184,42.33Z"/><path class="cls-26" d="M213.49,38.32c2.85.24,5.55,1.67,8.58.49,1.41-.56,1.85.93,1.85,2.15a67.32,67.32,0,0,1-.13,6.82c-.25,2.49-1.66,4-4.35,3.51a24.58,24.58,0,0,0-6.05-.25C212.83,46.8,214.26,42.57,213.49,38.32Z"/><path class="cls-27" d="M171,125.07c.26,2.38-.64,3.6-3.18,3.2a2.41,2.41,0,0,0-.38,0c-7.35.08-8.41-1.2-7-8.61a3.4,3.4,0,0,1,.46-1.41c1.53-2,9.36-.79,10.43,1.51a5.61,5.61,0,0,1,.66,1.11A3.93,3.93,0,0,1,171,125.07Z"/><path class="cls-28" d="M219.33,58.92c4.33-.18,6.32-2.34,5.93-6.75-.15-1.72,0-3.6,2.65-2.18-1,1.87-2.18,3.71-1.19,6-.31,3.34,3.2,4.68,3.91,7.48-3.16,4.6-9.72,4.55-12.39-.09l.3-3.34Z"/><path class="cls-29" d="M193.08,125.13c2.67-.07,5.35-.34,8-.15,3,.22,4.31-.74,3.8-3.79a3.61,3.61,0,0,1,2.86-.68c.63,2.07.16,3.52-1.8,4.84-2.4,1.61-4.59,3.46-5.29,6.69s-3.32,1.88-5.36,1.7c.13-2,1.45-4.32-1.88-5.35C192,127.94,192.61,126.3,193.08,125.13Z"/><path class="cls-30" d="M117.75,46.22c1.7,0,3.54,0,3.64,2.33.1,2.56-1.81,2.74-3.68,2.74s-3.92-.1-3.9-2.57S115.9,46.23,117.75,46.22Z"/><path class="cls-31" d="M171.31,120.3a1.1,1.1,0,0,1,0-.54l7.52.11c-3.07.82-1.63,3.2-1.75,5l-3.73,0C171.67,123.82,172.67,121.53,171.31,120.3Z"/><path class="cls-32" d="M249.69,270.59l5.64-.39c-.28,2.89,1.85,2.75,3.7,2.95l-9.12.7A2.29,2.29,0,0,1,249.69,270.59Z"/><path class="cls-33" d="M247.5,161.76c-1.68-.42-3.11-1.24-2.64-3.22.35-1.5,1.57-1.21,2.65-.61C247.51,159.21,247.51,160.49,247.5,161.76Z"/><path class="cls-34" d="M171.31,120.3c3.66.2,1.39,3.06,2.05,4.59l-2.33.18C170.86,123.47,170.52,121.85,171.31,120.3Z"/><path class="cls-33" d="M230.8,208.5c.06,1.32.12,2.65.19,4,1.89,4.9.82,9.36-2,13.57-2.38.56-2.33-1.34-2.56-2.71a43.37,43.37,0,0,1-.19-6.45,15.85,15.85,0,0,0-1-5.19c-1.92-5.44-2.55-5.56-6.28-1.41a76.49,76.49,0,0,1-5.87,6.46c-2.74,2.44-4.75,2.44-7.68.22-1.67-2.51-.75-5.66-2.08-8.26-1.7-14.29-1.88-28.64-1.76-43a21.4,21.4,0,0,1,.85-6.38v-1.26a2.33,2.33,0,0,1,1.07-2.41c2.23-1.13,4.61-.76,7-.76,4.54,1,9.07-.25,13.61-.06,1.77.07,3.59-.1,4.91,1.46l9.69,1.71c2.29.4,2.54,1.29,1.33,3.36-3.82,6.54-8.84,12.28-12.29,19.07-2.57,5.06-3,10-.56,15.18.12,3.68,1.95,6.93,2.66,10.47C231,206.54,230.11,207.84,230.8,208.5Z"/><path class="cls-35" d="M204.88,209.06c.5,2.62,1,5.25,1.51,7.87,3.24,5,2.6,10.78,3.49,16.22,1.74,10.65,2.42,21.46,4.63,32a18.35,18.35,0,0,1,.18,4.19,3,3,0,0,1-1.18,2.22c-.68.42-1.63.73-2.14.25-3.78-3.57-9.23-3.88-13.28-6.88a4.92,4.92,0,0,1-1.62-2.06c.3-2.12.55-4.26.92-6.37,1.12-6.28-1.07-11.27-6.64-14.42-2.64-1.5-5.52-2.57-8.22-4-4.17-2.17-6.93-6.78-5.67-11.61,2-7.69,2.76-15.7,4.93-23.39,3.87-.11,6.7,2.05,8.51,5,1.67,2.73,3.39,3.47,6.23,2.35a6.7,6.7,0,0,1,5.23-.18C203.43,211.07,204,209.74,204.88,209.06Z"/><path class="cls-1" d="M204.88,209.06c-.1,1-.2,2-.33,3.35-3.32-1.33-6.49-1.62-9.73.16a3.39,3.39,0,0,1-4.77-1.92c-1-2.54-1.84-4.52-5-4.76-1.3-.1-1.21-2.86-3.22-2.75,1.46-9.92,4-19.63,6.08-29.43,2.5-11.65,5.16-23.28,7.61-35,.44-2.12,1.19-3.44,3.43-2.86s.85,2.22.62,3.37q-1.68,8.21-3.51,16.38c-1.06,4.84-.86,5.11,3.91,4.46a16,16,0,0,0,2.53-.79,7.69,7.69,0,0,1,.48,1.76C203,177.1,203.43,193.1,204.88,209.06Z"/><path class="cls-36" d="M136.4,192.72a45.16,45.16,0,0,0,6.48-.06c3.74-.55,4.24,1.06,3.63,4.25-1.71,9-3.26,18-4.82,27-.37,2.14-1.06,3.4-3.64,3.05-5.16-.7-10.35-1.19-15.54-1.65-1.78-.16-2.08-1-1.84-2.54,1.44-9.16,2.91-18.32,4.25-27.49.26-1.76,1-2.38,2.7-2.34,2.93.07,5.86,0,8.78,0Z"/><path class="cls-37" d="M187,271.59l-2.15-.44c-2.58-1.42-5.95-1-8-3.81-.74-1-2.17,0-3,.67a36.12,36.12,0,0,1-4.25,3.14h-8.45c-1.51-.51-3.68-.64-3.16-2.93.55-2.44,2.67-2.84,4.85-2.46s4.37,1.7,6.83-1.4c-5.35.74-10.23-2.12-14.69,2.11-2.52,2.38-3.89-.88-5.67-1.92a9.71,9.71,0,0,0-2.28-.18c-1.9,0-4-.56-5.66.29-2.05,1.06-.19,3.26-.7,4.88a3.9,3.9,0,0,1-.91,1.64q-25.23.06-50.46.15c-2.3,0-4.08-.78-4.6-3.11s.79-4.14,2.87-5.28a8.19,8.19,0,0,1,4.09-.72q45.1,0,90.22,0c4.31,0,8.4.83,10.69,5.19A8.89,8.89,0,0,1,187,271.59Z"/><path class="cls-38" d="M99.11,219.74c.84-8.31,1.65-16.27,2.43-24.23.16-1.59.7-2.61,2.55-2.6q8.2,0,16.4-.14c2.16,0,2.82.7,2.46,3-1.43,8.77-2.69,17.57-3.94,26.38-.3,2.12-1.33,2.75-3.36,2.51-4.91-.59-9.84-1.13-14.77-1.55C98,222.83,99.31,220.78,99.11,219.74Z"/><path class="cls-39" d="M151.73,166.46c-.68,7.59-2.48,15-3.65,22.53-.27,1.76-1.31,1.92-2.68,1.91-5.72,0-11.44-.06-17.17,0-1.77,0-2.65-.52-2.33-2.41,1.15-6.76,1.5-13.63,3.13-20.31,1.51-2.35,4.06-1.53,6.19-2,4.09-1,8.31-.23,12.42-1.09A3.93,3.93,0,0,1,151.73,166.46Z"/><path class="cls-40" d="M174.77,163.78c-1.75,8.33-3.52,16.65-5.21,25-.31,1.53-1,2.17-2.55,2.15-5.1-.06-10.2-.07-15.29-.06-1.56,0-1.88-.59-1.59-2.12,1.48-7.87,2.84-15.77,4.24-23.65.15-.21.27-.54.46-.59C161.42,162.7,168,161.16,174.77,163.78Z"/><path class="cls-41" d="M126.41,168.88q-1.2,9.8-2.42,19.61c-.19,1.53-.77,2.47-2.64,2.43-5.58-.12-11.16-.09-16.74,0-1.75,0-2.52-.44-2.24-2.42.84-6,1.52-12.06,2.27-18.09,2.07-2.65,5.18-1.44,7.79-2.05,3.84-.91,7.81-.29,11.71-.56A2.42,2.42,0,0,1,126.41,168.88Z"/><path class="cls-42" d="M149.58,227.77c-6.43-.18-6.46-.19-5.38-6.7,1.34-8,2.83-16,4.06-24.07.46-3,1.45-4.46,4.83-4.17a112.57,112.57,0,0,0,11.47-.08c2.41-.05,4.08.23,2.83,3.41a55,55,0,0,0-1.77,7c-.91,1.94-2.63,1.71-4.29,1.6-2.27-.15-3.46.94-3.26,3.16.42,4.6-1.2,9.07-.85,13.66.1,1.38-.26,2.78-1.65,3.12C153.3,225.29,152.17,228,149.58,227.77Z"/><path class="cls-43" d="M160.52,279.68c.08,2.78-.23,5.63,2.17,8.36H110.6l1.65-5.23c1.41-1.67,3.36-1.56,5.25-1.57,6.34,0,12.68-.06,19,0,2.68,0,4.21-.61,3.33-3.72a4.07,4.07,0,0,1,.58-4,131.39,131.39,0,0,1,18.4,0c1.67,1.33.67,3,.67,4.62Z"/><path class="cls-44" d="M87.48,190.7c-7.09.43-7.16.44-8.09-6.47-.87-6.55-1.55-13.12-2.37-19.67-.32-2.53.6-3.91,3.21-4,7-.33,14-.67,21-1,1.09,0,2.57-.31,2.15,1.62-.69,3.24-.13,6.63-1.25,9.81-3.55,2.69-7.84,1.45-11.76,2.1-4.94.82-5,.49-4.15,5.53.47,2.62,1,5.22,1.67,7.81C88.2,187.86,88.85,189.38,87.48,190.7Z"/><path class="cls-1" d="M196.47,262.91c3.74,1,6.52,4.36,10.82,4.17.92,0,2,1.45,2.83,2.38s1.55,2.06,3.09,1.79a1.38,1.38,0,0,1-.05,2.08c-2.89,1.59-5.79,3.17-8.67,4.77-3.84,2.13-7.37,4.7-12.29,4.2-3.69-.37-5.14,2.63-5.82,5.87h-11.7c1.23-2.85,2.14-5.53,1.79-8.42,2.67,0,5.34,0,8-.1,6.12-.21,9.57-3.17,10.74-9.23C195.7,267.93,196.05,265.41,196.47,262.91Z"/><path class="cls-45" d="M83.43,192.83c4.58-.06,9.16,0,13.74-.22,2.31-.09,2.87,1,2.64,3-.93,8-1.89,15.91-2.68,23.89-.24,2.53-1.35,3.31-3.69,2.83a7.2,7.2,0,0,0-1.14-.06c-8.48-.48-8.48-.48-8.93-9.22,3.86-1.47,4.82-4.21,3.68-8a10.85,10.85,0,0,1-.17-3.82A10,10,0,0,0,83.43,192.83Z"/><path class="cls-46" d="M188.17,161.8c-1.89,8.94-3.86,17.87-5.62,26.84-.46,2.34-1.89,2.27-3.6,2.32-7.84.21-7.95.2-6.31-7.19s2.88-14.67,5.17-21.8A8.44,8.44,0,0,1,188.17,161.8Z"/><path class="cls-47" d="M87.48,190.7C86,185.69,85,180.6,84,175.48c-.49-2.55-.09-3.75,2.84-3.79,5.07-.06,10.14-.46,15.22-.71-.51,5.92-1,11.83-1.52,17.76-.15,1.88-1.27,2.21-2.84,2.16C94.31,190.8,90.89,190.76,87.48,190.7Z"/><path class="cls-48" d="M179.31,203.33c-1.49,7.84-3,15.66-4.43,23.51-.41,2.31-1.34,3.17-3.77,3.07-8.18-.33-8.33-.27-6.91-8.14,1.3-7.2,2.33-14.47,4.43-21.5a4.53,4.53,0,0,0,3.58.94C174.69,200.78,177.4,201.11,179.31,203.33Z"/><path class="cls-49" d="M140.42,273.54c2.44,9.24,2.44,9.24-7.14,9.24l-21,0c-.32-1.27.26-2.76-.93-3.82-.36-2.48-2.69-3.51-4.15-5.45Z"/><path class="cls-50" d="M210.21,156.23l-7,.12c-1.63-1.25-1.51-3.07-1.55-4.82-.09-4.5.36-9,.3-13.5.21-1.14.1-2.38,1.08-3.27,1.84-3.41,4.57-6.25,6.27-9.75a4,4,0,0,0,.62-3.74c.1-.2.19-.42.27-.63,2.66-.2,3.51.56,2.88,3.68a104.49,104.49,0,0,0-1.91,11.92c-.08,1-.18,2-.3,3-.36,3.23.37,5.75,4,6.59,2.08,1.86,2.8,4.48,3.74,6.94.79,2.06.4,3.42-2.31,3.29A22.72,22.72,0,0,0,210.21,156.23Z"/><path class="cls-51" d="M126.41,168.88l-21.77,1.47a12.89,12.89,0,0,1,.19-2.25c.74-2.77-.87-6.66,1.42-8.2,2.11-1.41,5.63-.73,8.53-.9,3.54-.2,7.09-.27,10.63-.51,1.64-.1,2.37.39,2.11,2.13C127.1,163.36,126.78,166.12,126.41,168.88Z"/><path class="cls-52" d="M151.73,166.46,129,168.17c0-9.85,0-9.86,9.45-10.33q6.83-.34,13.66-.62a5.48,5.48,0,0,1,1.27.3C152.85,160.52,152.29,163.49,151.73,166.46Z"/><path class="cls-53" d="M149.58,227.77c1.93-1.36,2.39-4.73,5.76-4.18.52.09.92-.57.71-1.09-1.86-4.63,1.15-9,.64-13.66-.62-5.59.5-6.22,6-5.25a4.21,4.21,0,0,0,2.91-.41c-1.5,7.74-3.06,15.48-4.46,23.23-.29,1.6-1,2.24-2.5,2.12C155.63,228.3,152.55,228.76,149.58,227.77Z"/><path class="cls-51" d="M174.77,163.78l-20.4,1.32c.93-8.13.93-8.14,9-8.48,3.55-.15,7.11-.15,10.65-.4,2-.15,2.9.41,2.29,2.5C175.8,160.41,175.28,162.09,174.77,163.78Z"/><path class="cls-54" d="M185.33,153.46c-.92,0-1.69-.05-2.44,0-1.85.16-2.89-.05-2.06-2.42,1-2.85,1.42-5.91,2.4-8.77a8.33,8.33,0,0,1,8.81-5.83c1.25.06,1.81.21,1.45,1.7-1.06,4.42-1.93,8.88-3,13.31C189.77,154.82,186.9,152.56,185.33,153.46Z"/><path class="cls-55" d="M83.43,192.83c3.13-.41,4.52.83,4.58,4.12a99.11,99.11,0,0,0,1,11.67c.46,3.39-.46,5-4.13,4.35a6.38,6.38,0,0,0-1.5.08c-.81-5.79-1.57-11.59-2.45-17.37C80.59,193.56,81.14,192.5,83.43,192.83Z"/><path class="cls-56" d="M159.49,278.19c-1.14-1.41-.53-3.07-.67-4.62,8.24-.08,16.48-.12,24.72-.27,1.3,0,3.31.87,3.43-1.71a7.63,7.63,0,0,1,5.53-4.13c1.58,4.55-1.24,9.65-6.1,9.9s-9.9,1.52-14.43-2.31c-2.38-2-5.88-1.57-8.47.48C162.21,276.54,160.7,277.12,159.49,278.19Z"/><path class="cls-56" d="M150.26,263a21.68,21.68,0,0,0,1.43,2.19c1.22,1.49,2.69,2.13,3.07-.41.23-1.57.72-1.89,2.08-1.88,4.21,0,8.42,0,12.63,0,.74,0,1.6-.05,2,.81a2,2,0,0,1-.69,2.41c-1.92,1.58-4,2.84-6.61,1.57-.23-.11-.43-.28-.66-.4-1.62-.83-3.44-1-4.47.56-1.3,2,1.29,2.24,2.06,3.31H151.9C148.14,268.26,147.79,266.51,150.26,263Z"/><path class="cls-57" d="M150.26,263c-1.09,3.06.28,5.63,1.64,8.2l-12.21,0a48.72,48.72,0,0,0-1.06-5.56c-.68-2.18.2-2.75,2.15-2.72C143.94,263,147.1,262.94,150.26,263Z"/><path class="cls-58" d="M179.31,203.33c-2.07-.3-4.3.16-6.14-1.29a1,1,0,0,0-1.31.09c-2.53,1.82-2.81,1.65-3.23-1.86l.24-1.13c3.54-.44,3.38-3.83,4.76-6,8.09-.65,8.09-.65,6.34,7.25Z"/><path class="cls-59" d="M175,280.44c-.3,5.54-1.79,7.89-5.33,8.4-5,.72-7.53-1.74-8-7.63.81-3.08,2.49-5.18,5.91-5.48C171.33,275.42,173.59,277.27,175,280.44Z"/><path class="cls-60" d="M110.68,279.68c.18,5.87-1.38,8.58-5.22,9.13-5,.72-7.5-1.66-8.08-7.61.78-3.1,2.55-5.27,5.84-5.68S109,276.85,110.68,279.68Z"/><path class="cls-61" d="M188.17,161.8l-10.36.16c.17-2.13.06-5.21,1.77-5.85,2.71-1,6-.74,9-.77,1.35,0,.95,1.33.8,2.09C189.09,158.91,188.59,160.34,188.17,161.8Z"/><path class="cls-62" d="M202,138c1.74,6,.69,12.22,1.25,18.32-.26.57-.51,1.14-.76,1.71-5.79,0-4.85.74-3.75-4.81C199.71,148.16,200.88,143.1,202,138Z"/><path class="cls-56" d="M169.53,271.15c.73-2.49,2.75-3.86,4.72-5.22.59-.4,1.94-.81,2.06-.63,2.05,3.13,6.76,2.36,8.51,5.85Z"/><path class="cls-63" d="M102.59,273.35c-3.68,2.13-5.58,5.07-9.28,4.33-1.38-.28-2.74.06-2.75-2.12,0-2,1-2.27,2.58-2.23C95.92,273.4,98.7,273.35,102.59,273.35Z"/><path class="cls-64" d="M209.32,125c.09,4.66-2.8,7.39-6.27,9.75-.94-3,.27-5.31,2.66-7.11C206.9,126.75,208.12,125.89,209.32,125Z"/><path class="cls-65" d="M173.63,193.16c.15,2.39,1.36,4.94-2.19,6.32-1.29.51-1.74-.15-2.57-.34C169.75,196.58,168.28,192.15,173.63,193.16Z"/><path class="cls-1" d="M249.69,270.59c.07,1.09.15,2.17.22,3.26-4.6,4.82-9.35,9.29-16.78,8.87a4.69,4.69,0,0,0-4.51,3c-.94,2.11-2.56,1.92-4.1,1.65-2.32-.39-.6-2.25-1-3.37-.73-2.1,1.67-5.44-2.65-6.28-.62-.12-.75-2.74-1.11-4.21a2.6,2.6,0,0,1-.27-2.84,2.54,2.54,0,0,1,.79-.84,40.86,40.86,0,0,0,9-4.5,18.14,18.14,0,0,1-4.72,1.85c-.75.14-1.59.23-2.08-.49-.63-.93,0-1.73.57-2.36,1.71-1.7,4-2.67,5.41-4.44-1.53.73-3.13,2.22-5.26,1a1.57,1.57,0,0,1-.39-1c2-3.68,6.3-5,8.39-8.25a25.38,25.38,0,0,1-3.45,2.07c-1.29.52-2.67,1.14-3.52-.7a2.33,2.33,0,0,1,.12-1.08c3.55-3.72,8-6.55,10.88-10.74a48.19,48.19,0,0,1-6.28,4.77c-.9.5-2,1-2.8,0a1.87,1.87,0,0,1,.36-2.74,119.23,119.23,0,0,0,9.84-10.14,1.32,1.32,0,0,1,2-.07c2.93,9.63,5.83,19.27,8.8,28.89C248,264.78,248.27,267.86,249.69,270.59Z"/><path class="cls-66" d="M220.14,270.55c-.12,1-.25,2-.37,3l-6.61-.18c0-.69,0-1.38.05-2.08l.51-1.32C216.09,267.73,218.25,267.78,220.14,270.55Z"/><path class="cls-67" d="M214.65,146.32c-5.11-.33-5.14-.33-5-5.69.06-3.29.29-6.58.3-9.87,0-2.77,2.05-4.88,2.12-7.74.05-1.8-.29-2.27-1.82-2.38,1-19.33,2.62-38.57,8-57.28,4.11,3.18,8.24,2.47,12.39.09,1.7,3.92.8,8,.65,12-.45,12.06-1.09,24.11-1.66,36.17,0,1.15,0,2.3,0,3.44,0,4.76,0,4.76-4.82,5.2-.17.21.14.29.22.51a7.67,7.67,0,0,0,4.53,5.13c.64.25.49,1.36.12,2.1-.05,4.58-.07,9.17-.14,13.75,0,1.39.24,2.83-.55,4.12C224.28,148.18,219.48,147.62,214.65,146.32Z"/><path class="cls-68" d="M214.65,146.32c4.77-.72,9.56-.44,14.34-.43l0,10.4-18.81-.06.32-.2c2.29-1.31,6.05,1.22,7-1.41.65-1.72-1.61-4.52-2.55-6.84A11.55,11.55,0,0,1,214.65,146.32Z"/><path class="cls-69" d="M229.68,128c-.38-1.63-1.45-2.11-3.05-2.18s-3.33.44-4.6-1.1c.45-1.67,2.36-1.32,3.22-2.4-1.33-1.22-3.68-.73-4.73-2.79,1.27-1.2,2.88-.86,4.24-.71,3.9.41,5.36-1.2,4.76-5a11.24,11.24,0,0,1,.1-2.24c0,1.78,0,3.55.17,5.29.28,2.42,1.37,2,2.59.57,3.74,1,4,4.88,6,7.31a.82.82,0,0,1-.69,1.36C234.87,126.1,232.63,128.61,229.68,128Z"/><path class="cls-70" d="M229.85,206.08c-1.78-3.27-3.32-6.59-2.66-10.47C228.37,199,229.9,202.35,229.85,206.08Z"/><path class="cls-1" d="M285.27,266.7c-2.28,0-4.56,0-6.38-1.67a1.12,1.12,0,0,1,.11-1,10.85,10.85,0,0,1,6.31,0,9.81,9.81,0,0,1,1.1.27c1.25.48,3.74-.78,3.56,1.39-.14,1.7-2.55.72-3.94,1A3.86,3.86,0,0,1,285.27,266.7Z"/><path class="cls-71" d="M238.35,233c-3.2,2.14-4.72,5.83-7.66,8.26-1.44,1.19-3.58,1.87-4.48,4.68a22,22,0,0,0,6-4,30.67,30.67,0,0,1,5.58-3.88c-2.38,6.51-7.15,10.82-13.08,14.06-1.28-1-1.35-2.39-1.16-3.78.84-6.39,2.2-12.69,3.19-19.05a4.35,4.35,0,0,1,1.84-3.19A68.78,68.78,0,0,0,231,212.47c.67-.39,1.07-.35,1.33.54C234.3,219.68,236.33,226.35,238.35,233Z"/><path class="cls-72" d="M228.55,226.13c-.57,7.4-2.39,14.6-3.47,21.91-.2,1.36-.27,2.74-.4,4.11a.5.5,0,0,0-.16.55,7.36,7.36,0,0,1-1.3,7.11l-.09.76a13.46,13.46,0,0,1-2.41,9.91,5.41,5.41,0,0,0-.58.07c-2-1.11-4.26-.6-6.42-.62-3.25-17.55-5.17-35.29-7.33-53,2.47,1.46,4.51.44,6.14-1.36,2.55-2.82,5-5.77,7.33-8.77,2.19-2.77,3.67-2.76,5.2.51,1.63,3.46,2.88,7,2.72,11C227.67,220.9,226.89,223.68,228.55,226.13Z"/><path class="cls-73" d="M172.76,282.22c-.11,2.75-1.37,4.75-4.25,4.85s-4.57-1.71-4.63-4.5a4.12,4.12,0,0,1,4.47-4.57C171,278,172.6,279.4,172.76,282.22Z"/><path class="cls-74" d="M103.72,287.05c-2.62-.28-4.32-1.86-4.23-4.68s1.72-4.6,4.54-4.65,4.57,1.47,4.67,4.4A5,5,0,0,1,103.72,287.05Z"/><path class="cls-71" d="M220.72,270.48q1.2-5,2.41-9.91c3.38.23,5.29-3.35,9-3.44-2,4.3-5.93,6.23-10,9.22,4-.44,6.45-2.48,10.3-3.68A15.32,15.32,0,0,1,220.72,270.48Z"/><path class="cls-71" d="M223.22,259.81a26.87,26.87,0,0,1,1.3-7.11c1.26,1.44,2.29.24,3.28-.37a48.93,48.93,0,0,1,6.21-3.57C232,254.05,227.73,257,223.22,259.81Z"/><path class="cls-75" d="M218.83,105.85c-2.23-.76-5.79.89-5.83-1.38-.05-2,3.59-.89,5.54-1s5.83-.72,5.67.79C223.89,107.39,220.39,104.52,218.83,105.85Z"/></g></g></svg>