<svg xmlns="http://www.w3.org/2000/svg" viewBox="0 0 173.81 107.73"><defs><style>.cls-1{fill:#1d2533;}.cls-2{fill:#d18202;}.cls-3{fill:#1f2635;}.cls-4{fill:#212735;}.cls-5{fill:#1d2433;}.cls-6{fill:#323038;}.cls-7{fill:#35343e;}.cls-8{fill:#c4800e;}.cls-9{fill:#c98419;}.cls-10{fill:#dc8363;}.cls-11{fill:#e6dbda;}.cls-12{fill:#e5dcdc;}.cls-13{fill:#e1d8da;}.cls-14{fill:#e4dadb;}.cls-15{fill:#484850;}.cls-16{fill:#454651;}.cls-17{fill:#cc8410;}.cls-18{fill:#c9685b;}.cls-19{fill:#fbfbfb;}.cls-20{fill:#fcfcfc;}.cls-21{fill:#1d2534;}.cls-22{fill:#fa9973;}.cls-23{fill:#f4e6d4;}.cls-24{fill:#e8cb9f;}.cls-25{fill:#e5dbda;}.cls-26{fill:#cfcbcf;}.cls-27{fill:#bb7e12;}.cls-28{fill:#ca7261;}.cls-29{fill:#fa9a73;}.cls-30{fill:#e38303;}.cls-31{fill:#fa7555;}.cls-32{fill:#f97557;}.cls-33{fill:#cbcdd7;}</style></defs><title>review01</title><g id="图层_2" data-name="图层 2"><g id="图层_1-2" data-name="图层 1"><path class="cls-1" d="M128.42,6.86c3-.64,6-1.31,9-1.9a2.18,2.18,0,0,0,1.74-1.24C140.05,2,142,1.34,143.41.25c.76-.57,2.55,0,3.78.32a5.45,5.45,0,0,1,3.25,2.79,5.51,5.51,0,0,1-1.36,7.11c-.26.19-.6.3-.63.68-.06.79.22,1.56-1.18,1.69-.81.07-.33,3,.68,3.62a26.2,26.2,0,0,0,2.72,1.44c4.69,2,6.54,5.66,6.92,10.59a58,58,0,0,1-1.54,20.26,23.37,23.37,0,0,1-2.24,5.41,8.73,8.73,0,0,0-1.11,4.89c.48,5.55.58,11.13,1.29,16.66.76,6-.05,12-.5,18-.14,1.93-.39,3.87-.59,5.8-.91.93-2,.69-3.07.43-1-.53-1-1.57-1.22-2.51-1.47-7.7-2.86-15.42-4.39-23.11-.65-3.33-1.71-6.57-2.11-9.57-.1-.58-.34-.23-.16-.36s.09,0,.11.12a15.11,15.11,0,0,1-.28,5.8c-1.56,9.11-3.05,18.25-5.82,27.1-.31,1-.46,2-1.54,2.55a5.49,5.49,0,0,1-3.6-.1,2.23,2.23,0,0,1-.84-2.16c.1-6-.34-11.91.27-17.86a7.85,7.85,0,0,0,0-1c-.18-5.91.49-11.79.37-17.7,0-2.24,0-2.24-2.08-2.82a1.8,1.8,0,0,1-1.6-1.19,16.66,16.66,0,0,1-.1-5.13,10.79,10.79,0,0,0,.37-3.15c0-.43.12-1,.62-1s.45.62.47,1,0,.9,0,1.34c0-.26,0-.53,0-.8a40.55,40.55,0,0,1,.88-7.69c.71-4.6,1.46-9.18,2.21-13.77a4,4,0,0,0-1.16-4,21,21,0,0,1-1.75-2.12A4.21,4.21,0,0,1,126.84,20c-1.27-1.74-2.69-3.36-4-5a9.39,9.39,0,0,1-1.44-2.13,3.26,3.26,0,0,1,1.48-4.53,12.61,12.61,0,0,1,4.37-1.58A1.35,1.35,0,0,1,128.42,6.86Z"/><path class="cls-2" d="M27.62,54.12a3.77,3.77,0,0,1-1.3-2c-4.25-9.84-2.56-19.43,1.19-28.94A4.74,4.74,0,0,1,30,20.54a49.72,49.72,0,0,1,4.75-2.06,3.45,3.45,0,0,0,2.51-2.68A2.13,2.13,0,0,1,39.08,14c1.36-1,2.69-.46,4,.05a2.75,2.75,0,0,1,1.11,1.74,5,5,0,0,0,2.72,3.45,11.27,11.27,0,0,1,5.87,8.11c.51,2.75,1.47,5.43,1.6,8.26a26.38,26.38,0,0,1-2.63,13.42c-.55,1.77-.73,3.68-1.91,5.22-.29.58-.32,1.37-1.18,1.49-1.19-.64-1.53-1.92-2.2-2.94a1.49,1.49,0,0,0-1.85-.8c-4,.93-8,.6-12,.55a3.23,3.23,0,0,1-1.94-.75c-.73-.57-1.12-.26-1.51.44S28.68,54,27.62,54.12Z"/><path class="cls-1" d="M27.62,54.12l2.21-4.07c1,2.27,3,2,4.86,2.09a64.52,64.52,0,0,0,8.9-.38c.87-.09,1.87-1,2.32-.68a10.28,10.28,0,0,1,1.84,2.81l1,1.66a2.17,2.17,0,0,1,.8,1.7c0,3.45.6,6.86.72,10.3.33,2.34,0,4.8,1.15,7A4.42,4.42,0,0,0,54.1,75H125a16.48,16.48,0,0,1,2.11,0c.63.08,1.21.25,1,1.1-.78.8-1.8.63-2.75.63q-17,0-34.07,0H53.79c-2.47,0-2.57.14-2.24,2.61.82,6.2.27,12.42.38,18.63a2,2,0,0,1-.73,1.74,5.25,5.25,0,0,1-4,.06,3.07,3.07,0,0,1-1.1-2.1c-1.53-6.14-3.17-12.26-4.56-18.44A8.13,8.13,0,0,0,41,77.43a1.09,1.09,0,0,0-1.37-.57c-.58.13-.52.61-.49,1,.51,6.41-.38,12.75-.93,19.11-.1,1.14,0,2.43-1.2,3.21a3.76,3.76,0,0,1-3.49-.29c-.85.09-1-.38-1.14-1.14-1.06-8.2-2.17-16.4-2.85-24.65C29,68.05,28.46,62,27.92,55.88,27.87,55.29,27.72,54.71,27.62,54.12Z"/><path class="cls-3" d="M152.71,101.29c.17,1.44.47,2.87.5,4.31,0,1.27.58,1.45,1.68,1.44,5.67-.05,11.35,0,17,0h1.89c-.1.84-.58.65-.89.65l-51.1,0c-.1,0-.21,0-.32,0a.72.72,0,0,1-.16-.69,4.08,4.08,0,0,1,3.2-2.42c1.88-.38,3.32-1.73,5-2.6a6.36,6.36,0,0,1,1.7-.92,5.11,5.11,0,0,1,3.23.24c1,1,.58,2.36.78,3.54s.64,1.78,1.87,1.64h.32c5.19.79,8.85-2,12.36-5.23C150.76,101,151.76,100.33,152.71,101.29Z"/><path class="cls-4" d="M52,107.65c-6.87,0-13.74.08-20.61.08q-14.52,0-29,0a5.39,5.39,0,0,1-2.3-.2c.47-.75,1.18-.46,1.74-.46,7.58,0,15.15,0,22.73,0,.8,0,1.57.1,2-.9.27-.62,1-.72,1.7-.79a7.66,7.66,0,0,0,5.37-3.51c1.08-.89,2.27-.64,3.46-.34,1,.58.88,1.63,1,2.56.31,2.36.32,2.38,2.67,2.39,1.29,0,2.58,0,3.87,0,1.9,0,2.32-.41,2.54-2.3.11-.94-.09-2,.61-2.77a3.61,3.61,0,0,1,3.2-.16c.92.53,1,1.48,1.09,2.38a14,14,0,0,1,.4,3.35A1.48,1.48,0,0,1,52,107.65Z"/><path class="cls-5" d="M43.11,14.46a19.51,19.51,0,0,0-4-.44,7.38,7.38,0,0,0-.38-2.55,3.38,3.38,0,0,1-.76-3.26c-.84-3.79.41-5.72,3.24-6.15a1,1,0,0,0,.6-.21C43.5,0,45.27.15,47.09,1.68a2,2,0,0,1,.41.66,6,6,0,0,1-1,4.4,7,7,0,0,0-.92,1.84,15.46,15.46,0,0,1-1,3.38C44.17,12.83,44.27,14,43.11,14.46Z"/><path class="cls-6" d="M47.11,2.4l0-.72c1.56,0,3.13-.09,4.7-.09h74.36c2.48,0,2.07-.25,2.13,2.19a12.15,12.15,0,0,0,.14,3.07l-1.13.34a3.41,3.41,0,0,1-.59-2.62c0-1.08-.49-1.59-1.57-1.57-.65,0-1.3,0-1.95,0H50C49,3,48,3.19,47.11,2.4Z"/><path class="cls-7" d="M52,107.65l0-.67c.84-.8,1.91-.61,2.92-.61h59.34c1.73,0,3.46,0,5.19,0a2.34,2.34,0,0,1,2.07.68v.6c-5.62,0-11.23,0-16.85.06H53.09C52.71,107.72,52.34,107.68,52,107.65Z"/><path class="cls-8" d="M37,101.69l-3.5.11c0-.63,0-1.25,0-1.87l3.62-.08A1.29,1.29,0,0,1,37,101.69Z"/><path class="cls-9" d="M152.71,101.29l-2.82.16a1.16,1.16,0,0,1-.11-1.91l3.12-.06A3.84,3.84,0,0,1,152.71,101.29Z"/><path class="cls-10" d="M37.94,8.21a9.94,9.94,0,0,1,.76,3.26C37.2,10.87,36.93,9.71,37.94,8.21Z"/><path class="cls-11" d="M121.5,107.05,92.43,107H52l-1-5.58a1.16,1.16,0,0,1,0-1.73c.67-.32.43-.94.43-1.44,0-6.8.49-13.63-.72-20.39-.25-1.41.22-1.71,1.57-1.7q36.68,0,73.34,0c.8,0,1.61-.06,2.42-.09-.3-5.43-.08-10.87-.14-16.31,0-.75-.11-1.54.6-2.09,0,0,.08.09.12.1,2.87.67,2.82.67,2.75,3.72-.28,12.05-.84,24.09-.73,36.14a3.88,3.88,0,0,0,.18,1.91c.79.63.74,1.28,0,1.93-.73,1.16-2,1.46-3.1,2.11s-2.29,1.68-3.82,1.63C122.57,105.16,122.57,106.79,121.5,107.05Z"/><path class="cls-12" d="M47.11,2.4l76.93,0c3.35,0,3.35,0,3.33,3.36,0,.49-.05,1-.08,1.46a13.22,13.22,0,0,0-3.8,1.28c-2.37,1.23-2.8,2.59-1.25,4.8,1.26,1.81,2.75,3.45,4.13,5.18.37.46.68,1,1,1.44a20.78,20.78,0,0,1,.45,5.62q0,9.82,0,19.65c0,2.2-.41,4.38-.44,6.59,0,1.84,0,3.68,0,5.52a7,7,0,0,1,.46,2.69c0,4.5,0,9,0,13.49,0,1.72-.14,1.86-1.83,1.86H51.6a2,2,0,0,1-1.26-.17l-.59-7.46a4.14,4.14,0,0,1,2.38-.33h64c2.92,0,3.14-.21,3.14-3.13,0-3.36.1-6.71-.09-10.07.25-2.51-.07-5,.26-7.55-.07-1.79.22-3.59-.27-5.35-.44-2.53-.13-5.07-.21-7.61,0-1.57,0-3.14-.07-4.71.67-5.54.3-11.12.38-16.68,0-2-.12-2.1-2.13-2.1H73c-.81,0-1.61,0-2.42-.07-.1,0-.23.07-.31,0a8.74,8.74,0,0,0-7.54,0c-5.53.08-11.05.1-16.58,0-.88-.19-.56-1.09-1-1.58a1.55,1.55,0,0,1,.4-1.35A6.12,6.12,0,0,0,47.11,2.4Z"/><path class="cls-11" d="M149.78,99.54c0,.64.07,1.27.11,1.91-.9,2-2.83,2.76-4.53,3.79-.36.22-1,.21-1.16.49-.88,1.79-2.48,1.23-3.88,1.27s-2.91,0-4.37,0c-.91,0-1.17-.28-1.2-1.18-.06-1.49-.29-3-.44-4.48a1.49,1.49,0,0,1,.1-1.84c.71-.27.56-1,.73-1.5,2.4-7.43,3.76-15.09,5.22-22.73.73-3.82,1.25-7.67,1.64-11.57a26.54,26.54,0,0,1,1.91,6.47c2.13,9.38,3.7,18.87,5.5,28.32C149.48,98.88,149.39,99.3,149.78,99.54Z"/><path class="cls-13" d="M128.66,21.16A9.66,9.66,0,0,0,130,22.78c2.25,1.79,2.31,4,1.83,6.63-1.22,6.64-2.15,13.33-3.2,20a3.77,3.77,0,0,1-.74-2.87c-.07-7.95,0-15.91,0-23.86C127.85,22.06,127.76,21.33,128.66,21.16Z"/><path class="cls-14" d="M141.64,9.88a4.78,4.78,0,0,1,.58,4.92c-.45,1-1.32,1.12-2.28,1.22s-1.15-.55-1.47-1.18c-.94-1.89-1.78-2.08-3.07-.56-.41.49-.66.34-1.06.17l-5.07-2.18a24.8,24.8,0,0,1,9.39-3.71A2.89,2.89,0,0,0,140,8.15C141.15,8.2,141.05,9.36,141.64,9.88Z"/><path class="cls-15" d="M50.34,75.15c1.51,0,3,.12,4.53.13q35.39,0,70.76,0c1.47,0,1.77-.41,1.76-1.8-.07-5.41,0-10.82,0-16.23a.91.91,0,0,0,1,.39c-.31,3.44-.06,6.89-.12,10.33,0,2.21,0,4.42,0,6.63,0,.48.31,1.08-.31,1.44-.31-.93-1.1-.5-1.66-.5l-74,0C51.64,75.53,50.88,75.86,50.34,75.15Z"/><path class="cls-16" d="M128.66,21.16c-.59.3-.35.86-.35,1.3q0,12.88,0,25.78c0,.41-.15.88.32,1.18.22.84-.28,1.53-.65,2.28V48.28c-.56,1.13.06,2.38-.57,3.48q0-15.93,0-31.86A1.78,1.78,0,0,0,128.66,21.16Z"/><path class="cls-17" d="M134.41,99.54c0,.62-.07,1.23-.1,1.84l-3.52.09,0-1.93A17.13,17.13,0,0,1,134.41,99.54Z"/><path class="cls-18" d="M141.64,9.88c-1-.13-.95-1.26-1.6-1.73.63-1.69-.07-3.58.91-5.25Z"/><path class="cls-19" d="M70.13,9.89c.46-.55,1.09-.38,1.67-.38,15.45,0,30.91,0,46.37,0,1.36,0,1.75.43,1.73,1.76-.08,5.18,0,10.35-.09,15.53a4,4,0,0,1-.6,2.16c-1.31,1.43-3.11,1.17-4.69,1.08a19.84,19.84,0,0,1-15.16-7.91,19.56,19.56,0,0,0-3.28-3.34,7.83,7.83,0,0,0-10.67,1.12,18.41,18.41,0,0,0-2.8,4.53C81.05,28,78.86,31.1,75,32.53a5.78,5.78,0,0,1-4.56.21,4.4,4.4,0,0,1-1-3.53c.38-.58.71-1.18,1.47-1.39.52-.15,1.08-.41,1.09-1,0-.84-.9-.27-1.22-.67a.39.39,0,0,0-.49-.05c-.37.89,0,2-.66,2.88-.7.31-.79-.49-1.2-.66,1.16,1.3,1.15,1.72-.06,2.92-1,1-1.29.93-3.76-1.3-.38.52.21,1.35-.78,1.83.79,0,1.39-.15,1.88.24a1.14,1.14,0,0,1,.32.37c.78,1.56.74,3-.67,4.19a17.31,17.31,0,0,1-8.53,3.62c-2.33.34-2.65.06-2.67-2.23A8.12,8.12,0,0,0,54,35.52a68.75,68.75,0,0,0-2.6-11.05,6.92,6.92,0,0,0-3.53-3.88,8.87,8.87,0,0,1-4.72-6.13c.58-.81.39-1.92,1.08-2.68.92-.33.89-1.48,1.66-1.94A2.54,2.54,0,0,1,47.4,9.5H61.66c.47,0,1-.08,1.36.35.3.83-.25,1.31-.78,1.79a8.74,8.74,0,0,0-1,.81c-.93,1.13-.48,2.51,1,2.58,3.62.19,7.24.12,10.86,0,.49,0,1-.08,1.12-.71a1.28,1.28,0,0,0-.65-1.22,4.53,4.53,0,0,0-1.35-.53A2.57,2.57,0,0,1,70.13,9.89Z"/><path class="cls-20" d="M119.55,54a5.61,5.61,0,0,1,.3,3c-.1,3.29.3,6.59-.24,9.87-.14.83-.47,1.14-1.26,1.08-.32,0-.65,0-1,0H52a3.82,3.82,0,0,1-2.21-.31l-1-12.14L49.48,54a4.38,4.38,0,0,1,2.78-.65c11.36,0,22.72,0,34.08,0,6.7,0,13.41-.07,20.1,0,3.62.05,7.24-.09,10.86,0C118.1,53.4,118.94,53.31,119.55,54Z"/><path class="cls-21" d="M119.55,54l-68.45,0c-.54,0-1.08,0-1.62,0,1.11-1.43,1.06-3.28,1.8-4.84A3.66,3.66,0,0,1,53,47.75c1.94-.93,3.84-2,5.78-2.88a9.13,9.13,0,0,0,4.78-5.22,9.42,9.42,0,0,1,1.65-3.47c1-1.24.85-2.61.4-4a.94.94,0,0,1,.47,0c-.2-.26-.29,0-.44.09-.58-.42-1.09.17-1.64.12s-1.3-.12-1.58-.87c.52-.47,1.15-.13,1.78-.34-.12-.18-.23-.33-.32-.49-.32-.58-.63-1.33.11-1.66s1.17.35,1.52.92c.16.26.15.69.36.87.74.64,1.51,1.34,2.24-.08a7.74,7.74,0,0,1,1.09-1.28l-2.41-1.91c.9-.31,1.53-.56,1.85.43A1.81,1.81,0,0,0,69.53,29l0,0,1.07,3.65a3.07,3.07,0,0,1,1,1.64c.57,1.58,1,3.21,1.48,4.8a11.21,11.21,0,0,0,5.1,6.47c1.21.71,2.36,1.52,3.54,2.28,2,1.35,4.1,2.6,6,4.09a1.53,1.53,0,0,0,2.39-.15c2.37-2.66,4.73-5.32,6.9-8.14a2.66,2.66,0,0,0,.52-1c.2-.86.11-1.42-1-1a3.76,3.76,0,0,1-2.39.09c-.47-.14-.91-.37-1-.94,0-.22.07-.52.26-.55,1.27-.17.56-2.34,2.17-2.13.43,0,.79.35,1.26.23,0-.58-.47-.95-.59-1.46-.18-.75-.39-1.56.19-2.15s1.11.34,1.7.38c.18-.07.22-.24.29-.38.31-.69.36-1.74,1.54-1.4.76.22,1.11,1.65.69,2.55a3.68,3.68,0,0,1-1.18,1.3c-.85.82-.17,1.86-.33,2.43a1.85,1.85,0,0,1,.47-.93,1.11,1.11,0,0,1,1.3-.37,1.06,1.06,0,0,1,.56,1.08,1.69,1.69,0,0,1-.18.95c-.87,1.41-.3,2.5.64,3.63,2.21,2.66,4.34,5.37,6.79,7.82.9.9,1.51,1,2.52.1a49.88,49.88,0,0,1,6.94-5,2.32,2.32,0,0,1,1.19-.45.67.67,0,0,1,.42.18C119.72,49,120,51.54,119.55,54Z"/><path class="cls-22" d="M65.19,36.18c-.92,4.66-3.14,8.25-7.83,10a65.7,65.7,0,0,0-6.08,3,4.28,4.28,0,0,1,.57-2A24,24,0,0,0,54,35.52a4.34,4.34,0,0,1,.25,2.68c-.16,1.51.54,1.71,1.78,1.54a18.62,18.62,0,0,0,8.08-3A12,12,0,0,1,65.19,36.18Z"/><path class="cls-23" d="M47.17,44.66c.14-3.47-.88-6.89-.32-10.37C47.85,37.71,48.54,41.15,47.17,44.66Z"/><path class="cls-24" d="M30.18,41.42a17.06,17.06,0,0,1,.59-5.36C31.46,37.43,31.36,38.49,30.18,41.42Z"/><path class="cls-25" d="M37,101.69c0-.61.06-1.23.08-1.84.73-3,.68-6.11,1.05-9.16a54.68,54.68,0,0,0,.29-13.1c-.06-.56-.42-1.51.7-1.36.85.11,2.08-.8,2.47.9.91,4,1.86,8,2.91,12,.94,3.54,1.57,7.16,2.82,10.61,1,.38.87,1,.43,1.79-.08,1.54.1,3.09-.52,4.61-.26.65-.41,1-1.15.94-2.42-.06-4.85-.06-7.26,0-.93,0-1.18-.33-1.25-1.2C37.5,104.45,37.24,103.07,37,101.69Z"/><path class="cls-26" d="M38.58,63.49Q39.89,69,41.2,74.6c.16.67-.19,1-.77.8s-2,.77-2-.93c0-2.38,0-4.76,0-7.13V63.52Z"/><path class="cls-27" d="M47.79,101.49c-.19-.59,0-1.27-.43-1.79a15.88,15.88,0,0,1,3.58,0c0,.58,0,1.15,0,1.73Z"/><path class="cls-28" d="M45.85,9.84c-.19,1-.07,2.17-1.66,1.94l1-3.27C46,8.65,45.72,9.35,45.85,9.84Z"/><path class="cls-29" d="M99.08,36.81c.87-.69,1.76-1.37,1-2.67-.13-.23-.31-.55-.51-.59-.38-.08-.5.32-.59.61-.22.71-.39,1.44-.61,2.27-.67-.59-.88-1.47-1.84-1.79A2.58,2.58,0,0,0,97,37.28a8.18,8.18,0,0,1,.7.88,1,1,0,0,1,0,1.07c-.28.31-.58,0-.85-.16-.45-.2-.88-.43-1.31-.64-5.38-1.19-8.28.12-10.82,4.89-.66,1.24-1.41,2.43-2,3.69-.26.53-.51,1.1-1.19,1.22a35.93,35.93,0,0,1-5.28-3.39,9.3,9.3,0,0,1-3.32-4.66q-1.17-3.76-2.32-7.53c5.13.1,8.58-2.4,10.78-6.9a31.07,31.07,0,0,1,2.91-5.42c3.64-4.7,9.13-5.13,13.39-1,.89.87,1.64,1.87,2.45,2.82,4.45,5.17,10,7.82,16.88,7.19.75-.07,1.49-.29,2.23-.43.57.52.37,1.21.37,1.83,0,3.52,0,7,0,10.57a2,2,0,0,0-.1.21A19.46,19.46,0,0,0,114.23,47c-.69,1.07-1.65,1.08-2.7.52a12.28,12.28,0,0,1-4.79-4.5A10.69,10.69,0,0,0,100,38.07C99.39,37.91,98.91,37.58,99.08,36.81Z"/><path class="cls-30" d="M70.13,9.89c.76,1.12,1.24,2.49,3.05,2.35.69-.05,1.22.65,1.57,1.28.63,1.11.14,2.14-1.13,2.16-3.94.05-7.88,0-11.82,0a1.68,1.68,0,0,1-1.73-1.42,2.22,2.22,0,0,1,1.18-2.6A4,4,0,0,0,63,9.85C65.62,8,67.36,8,70.13,9.89Z"/><path class="cls-29" d="M119.74,46.54l-.13,0-.11-.07a5.17,5.17,0,0,1,0-5.07l.11-.1A17.57,17.57,0,0,1,119.74,46.54Z"/><path class="cls-21" d="M69.53,29c0-.87,0-1.73,0-2.59a1.43,1.43,0,0,1,1-1.61c.54.32,0,1,.42,1.29.66-.14,1.25-.64,1.87-.53C73.21,28.24,71,28.22,69.5,29Z"/><path class="cls-31" d="M81.49,48.23c1.32-2.41,2.49-4.92,4-7.21a7.48,7.48,0,0,1,10-2.59c-.28.13-.92.12-.83.26,1.2,1.72-.81,1.3-1.34,2.06a2.86,2.86,0,0,0,3.49.17c1.23-.66,1.34-.05,1.37.94a2.63,2.63,0,0,1-.6,1.79c-2.48,3.12-5.05,6.17-7.78,9.09-.44.48-.81.79-1.48.3C86.08,51.41,83.78,49.83,81.49,48.23Z"/><path class="cls-32" d="M119.49,41.42c0,1.69,0,3.38,0,5.07-3.07,2.1-6.37,3.92-8.91,6.73-.52.58-.85.37-1.3-.08a123.56,123.56,0,0,1-8.93-10.31c-.57-.73-.26-1.24,0-1.9s1.24-1.83.32-2.27-1.13,1-1.58,1.64a1.28,1.28,0,0,0-.13.29c-.83-2.69-.83-2.82.09-3.78a2.07,2.07,0,0,0,1.54,1,9.64,9.64,0,0,1,6.36,4.6,12.4,12.4,0,0,0,4.84,4.66,1.33,1.33,0,0,0,2.12-.54A13.1,13.1,0,0,1,118,42.05,2.71,2.71,0,0,1,119.49,41.42Z"/><path class="cls-33" d="M65.62,32.24c0-.3-.18-.79.16-.85s.69.26.94.51c.5.51-.09.83-.25,1.35l-.88-1.06Z"/></g></g></svg>