<svg xmlns="http://www.w3.org/2000/svg" viewBox="0 0 333.38 258"><defs><style>.cls-1{fill:#d1d8d8;}.cls-2{fill:#b9bac7;}.cls-3{fill:#efecdf;}.cls-4{fill:#efd9e1;}.cls-5{fill:#c1c2cc;}.cls-6{fill:#f4f0f8;}.cls-7{fill:#f9f7f6;}.cls-8{fill:#fecf3e;}.cls-9{fill:#f0d8e2;}.cls-10{fill:#484168;}.cls-11{fill:#fac93a;}.cls-12{fill:#fbfafa;}.cls-13{fill:#8c6982;}.cls-14{fill:#786d82;}.cls-15{fill:#fea063;}.cls-16{fill:#484468;}.cls-17{fill:#f4f1f8;}.cls-18{fill:#49446b;}.cls-19{fill:#fcd043;}.cls-20{fill:#fd9485;}.cls-21{fill:#f0ad53;}.cls-22{fill:#453f64;}.cls-23{fill:#fbfbfc;}.cls-24{fill:#f2dce4;}.cls-25{fill:#f0dee3;}.cls-26{fill:#fcfcfc;}.cls-27{fill:#f9f8f8;}.cls-28{fill:#f9ae72;}.cls-29{fill:#9792a4;}.cls-30{fill:#fe8d77;}.cls-31{fill:#fbfaf9;}.cls-32{fill:#fd9578;}.cls-33{fill:#f9e6a3;}.cls-34{fill:#6c6772;}.cls-35{fill:#f8e5d8;}.cls-36{fill:#facb4f;}.cls-37{fill:#f2ced9;}.cls-38{fill:#c3952c;}.cls-39{fill:#eecfbb;}.cls-40{fill:#e7d5d3;}.cls-41{fill:#b0abbd;}</style></defs><title>timeplan01</title><g id="图层_2" data-name="图层 2"><g id="图层_1-2" data-name="图层 1"><path class="cls-1" d="M333.38,244.13v13.08c-2.48,1.27-5.15.62-7.71.62q-147.75.06-295.48,0c-12.17,0-12.17,0-11.33-12.3,2.37-2.29,5.35-1.34,8.08-1.4,39.54-.85,79.09-.61,118.62-.78a35.48,35.48,0,0,1,6.17-.73,11.11,11.11,0,0,1,1.9-.33c1-.09,1.93-.12,2.9-.2,1.33-.21,2.67.11,4-.18a75.32,75.32,0,0,1,16.78-.07,16.19,16.19,0,0,0,3.81.19c.57.07,1.16.14,1.74.18s1.14,0,1.7.06c1.88.06,3-1.76,4.77-2a12.63,12.63,0,0,1,2-.12c8.6.12,17.2-.44,25.77.39a183,183,0,0,1,35.72-.15c7.87.85,15.28-1.06,22.92-.37,3.68.34,7.36.3,10.87,1.61,4.66,1.1,9.47-.1,14.14.87,8.4,3.2,17.07,1.19,25.63,1.24C328.75,243.8,331.1,243,333.38,244.13Z"/><path class="cls-2" d="M333.38,244.13a153.55,153.55,0,0,1-26.51,1.29c-2.12,0-4.38.47-6.18-1.24.43-1.23,1.1-2,2.54-1.4l30.15,0Z"/><path class="cls-3" d="M118.72,80.54c6-10.85,12.69-21.65,21.9-29.7A203.89,203.89,0,0,0,160,31c4.51-5.15,11.92-6,17.81-9.18,1.71-.93,3.78-1.35,5.25-2.54C197.84,7.37,215.81,4.94,233.61,2.12A194.76,194.76,0,0,1,278.88.67c11.82.89,21.83,9.79,24.85,20.75,2.79,10.12,1.78,20.22,2,30.28.39,20.39,1.38,40.81,1.07,61.16-.22,14.73-.87,29.5-.65,44.24.17,11-2.32,22.36-.78,32.84,2.17,14.76-2.15,29.45,1.6,43.91.88,3.42-.58,5.93-3.54,7.66-3.4.44-6.77,1.31-10.25.71-2-1.75-2.7-4.31-3.86-6.59-1.83-13.53-5.55-26.63-8.9-39.82-1.75-6.67-1.4-13.55-2-20.33-.27-2.94,0-6-2.31-8.42a9.62,9.62,0,0,1-2.91-7.49c0-.42.07-.85.08-1.28.09-3.2,4.54-6.15.94-9.44-2.9-2.65-12-2.84-15.26-.49-2.47,1.78-5.41,2.58-8.18,4.34,2.49,3.9,5.88,3,9.2,2.16,5.19-1.31,9.37,0,12.45,4.52a2.75,2.75,0,0,1-.19,1.92c-6,7.68-6,16.45-4.62,25.47.52,3.09.21,6.25.92,9.32.95,4.41.91,8.92,1.5,13.36.38,2.81-.12,5.59-2.8,7.37-4,1.28-6.33-1.57-8.06-4a17.49,17.49,0,0,0-7.76-6.14c-1.47-4.95-.35-10-.22-14.91.28-11.48-5.29-19.41-14.25-25.58-1.43-1-3-1.75-4.44-2.76-6.09-4.34-7.76-9.46-4-15.81,9.77-16.33,5.48-32.31-.6-48.27-1.89-5-5.45-8.37-11.37-8.23s-8.6,4.4-10.91,9-1.93,9.3-2,14.09c-.16,11.7-4.88,17.69-16.5,21a34,34,0,0,1-13.08-5.42c-4.86-3.26-10.15-5.6-16.36-5.73-10.95-.25-20.78-5-31-8.37-4.67-1.53-9.65-1.78-12.69-6.74s-2.47-8,3.38-9.66A162.08,162.08,0,0,1,154.1,93.6c-3.57-.83-7.06-.07-10.52-.29C132.8,93.9,126.58,85.63,118.72,80.54Z"/><path class="cls-3" d="M59.88,242.75Q45.33,195.32,67.8,151.1c5.21-10.21,9.07-21.21,16.87-30,2.35-3.43,4.62-2.17,6.64.26a13.7,13.7,0,0,1,3.18,8.8c-1.14,6.62-2.46,13.21-2.31,20a9.24,9.24,0,0,1-4.1,7.81c-12.49,9.15-15.84,20.7-9.3,34.91a7.17,7.17,0,0,1,.56,3.84c-1.5,3.53-1.36,7.13-.58,10.81,2.08,9.84,5.33,19.16,11,27.62,1.7,2.55,5,5.78.14,8.75-8.41.41-16.81.11-25.21.16C63,244.11,61.16,244.28,59.88,242.75Z"/><path class="cls-4" d="M92.74,130.72c-2.15-3.66-.13-10.81-8.07-9.59,1.83-6.64,6.9-11.54,9.51-17.74,1.32-3.13,3.75-5.79,3.27-9.7-.35-2.91,2.36-2.44,4.23-2.62q14,0,27.92,0c4.65,0,9.3,3.14,14,0,4.33,0,8.65,0,13,0,1.49,0,3.39-.12,3.53,1.93.13,1.84-1.61,2.45-3.08,2.84a13.21,13.21,0,0,1-3.86.4c-12.48-.53-24.37,3-36.43,5.29-2,.39-4,2.39-2.74,3.12,3.18,1.84,2.67,8.56,8.55,6.5,1.51-.53,2.3.85,3.44,1.31,3.52,1.44,6.69,4.33,11,2.91.56-.18,1.57-.22,1.83.1,6.43,8,15.68,4.63,23.75,5.85,3.19.48,5.44,2.62,8.15,3.91,5.5,2.62,10.74,5.78,16.09,8.71a11.91,11.91,0,0,1-4.49,10.54c-4,1.76-7.56.51-11-1.48-3-1.72-6.17-3.14-8.92-5.1-4.65-3.31-7.2-1.72-9.09,2.85-3.12,1.13-4-1.69-5.52-3.23-4.25-4.29-6.16-4.41-10.76-.28-1.59,1.42-3,3.07-5.26,3.45-6.86.26-10.4-4-13.16-9.22.47-1.13-.3-.74-.28-.64.33,2.24-.83,3.55-2.92,4.18-2.53.14-3.66-1.8-5.06-3.39-5.34-6.07-6.31-6.22-13.39-2.1C95.6,130.27,94.36,131.13,92.74,130.72Z"/><path class="cls-5" d="M59.88,242.75l31.4-.06c7.63-2.29,8.19-8,7.92-14.8s-1.12-13.49.89-20.12a4.47,4.47,0,0,1,1.39-1.8,2.08,2.08,0,0,1,2.11.37c3.13,4,1.86,8.77,2,13.25.2,5,.06,10,.07,15,0,3.8,1.75,5.56,5.57,5.55,7.18,0,14.37,0,21.55,0,3.87,0,5.47-1.89,5.49-5.64,0-3.23-.33-6.58,1.64-9.49a2.32,2.32,0,0,1,1.85-.92c3.68,2.16,2.82,5.89,3,9.15.15,3.53.35,6.85,3.9,8.79a1.68,1.68,0,0,1,.22,1.93c-1.68,1.93-4,1.47-6.09,1.47q-61.69,0-123.38,0c0-.84-.07-1.68-.1-2.52Z"/><path class="cls-6" d="M143.55,91.05c-1.17,2.31-3.27,2.59-5.55,2.59-11.11,0-22.22,0-33.33,0-1.66,0-3.88.45-3-2.58,2.83-3.57,4.65-8.45,11.2-5.16,1.76.89,4.21-3.09,5.84-5.37,4.45-.4,7.74,1.68,10.66,4.78C133.2,89.38,137.72,91.88,143.55,91.05Z"/><path class="cls-7" d="M292.81,241.38c3.54-.38,7.1-2.76,10.6.13l-.18,1.27-2.54,1.4-14.3-.14c-.59-1.64.15-2.72,1.49-3.56C289.7,239.8,291.42,239.74,292.81,241.38Z"/><path class="cls-8" d="M132.23,139.66c1.48-1.83,2.87-3.74,4.46-5.46,3.45-3.7,8.62-3.31,12.08,1,1.46,1.79,2.62,3.83,3.91,5.76,3.4,1.33,3,4.64,3.82,7.3a39.16,39.16,0,0,0,5.68,13.7,44,44,0,0,1,6.91,23.46c0,2.18-.05,4.36.9,6.41.85,3.5,1.26,7-1.37,10-5.79,1.82-7,6.07-6.77,11.62.37,7.6.18,15.21.06,22.82,0,3,.16,6.22-3.27,7.88l-2.8,0c-3-2-3.46-5.77-5.83-8.22-.65-3.79-1-7.58.41-11.3a6.54,6.54,0,0,0,1.78-6.76,3.11,3.11,0,0,1-2,.49,3.18,3.18,0,0,1-1.22-1.11c-1.16-1.46-.21-3.86-2.25-4.87-2.81,1-6.14,4.72-7.54-1.42a35.74,35.74,0,0,0,.45-6.88c-.19,2,.66,4.68-2.6,5.58-6.06-1.21-9.19-5-9.59-11.06.28-2.65,1.69-4.85,2.94-7.1,5.54-10,5.85-19.66-1.61-28.92a11.56,11.56,0,0,1-2.62-5.14C126.74,151,125.41,143.93,132.23,139.66Z"/><path class="cls-9" d="M287.55,241.75,286.39,244c-2.84-1.48-5.91-1.24-8.95-1.25q-30.36-.06-60.71-.15c-2-2.06-2.16-4.52-1.51-7.15a9.68,9.68,0,0,1,2.11-3.56c2.81-2.25,6.4-2.62,9.61-3.89,8.59-3.42,14.8-9.75,20.74-16.46a18,18,0,0,0,3.72-3.72l.8-.38c3-4,5.38-4.78,6.61,1.23.79,3.82,5.45,4.66,6.63,8.24.49,5.53-4.49,8.23-6.45,12.5-.43.75-1.06,1.38-1.48,2.14-.52.93-1.4,2.2-.06,2.78s1.45-1.25,2.18-2c5-6.7,11.95-11.79,15.16-20,1.51-3.83,4.44-3.37,6.41.65,1.73,3.53,2,7.48,2.65,11.29.73,4,1.56,8.05,2.63,12C286.77,238.18,287.51,239.9,287.55,241.75Z"/><path class="cls-10" d="M158.64,244.08q.15-16.61.29-33.21c.1-9.62.12-9.62,9.42-10.15,4-3.05,8.06-3.18,12.19-.25a4.7,4.7,0,0,1,1.17,2.95c-.46,12.29.65,24.61-.82,36.88a8.27,8.27,0,0,1-1.27,3.62C172.64,245.05,165.64,244.52,158.64,244.08Z"/><path class="cls-11" d="M179.62,243.92c-1.07-14.27-.6-28.52.28-42.77,5.89-2.76,10.72-.14,11.76,6.91a68,68,0,0,1,0,17.57c-.56,5.18,2.5,11-2.54,15.39l-.33,0-.31.13c-3.47-1.87-4.11,2.22-6.32,3Z"/><path class="cls-12" d="M189.16,241q.18-7.74.37-15.48c2.09-1.5,4.22-.77,6.13.19,5.7,2.84,11.82,3.94,18.05,4.68,2.22.7,4.6,1.28,3.23,4.52l-.21,7.72c-7.25,0-14.51.11-21.76.12C192.88,242.77,190.62,243.18,189.16,241Z"/><path class="cls-13" d="M151.46,236c4.21,1.22,3.37,5.16,4.37,8.1l-3.14.07a7.22,7.22,0,0,1-.62-1,4.66,4.66,0,0,0,.7.95c-1.38,2-2.61.13-3.9-.15a3.13,3.13,0,0,0-.27-1.28c-1.86-2.46-1.53-4.66.8-6.61A2.21,2.21,0,0,1,151.46,236Z"/><path class="cls-14" d="M182.2,244.13c.11-1.06.2-2.13.34-3.2.25-2,.63-4.27,3.06-4.15,2.28.11,2.79,2.32,2.92,4.35-.61,2.27-1,4.9-4.43,3,.54-.68-.12.26.4-.44,0,.21-.22.34-.31.52Z"/><path class="cls-15" d="M249.43,212.68c-6.13,7.93-13.37,14.51-23,18-2.58.94-5.25,2-8.16,1.36-3.25-3.25-3-7.33-.09-9.8,4.67-3.9,7.63-9.17,11.47-12.62-2.64,2.14-4.52,6-7.51,8.86-1,1-2,2.72-3.73,2.06-2-.76-1.72-2.67-1.68-4.48.24-10.25,0-20.5.1-28.44,0,6.58,0,15.46,0,24.35,0,1.69.43,3.86-1.56,4.6s-3.28-1.09-4.17-2.48c-4.32-6.76-9.82-12.79-12.68-20.47.64-6.85-1.12-12.68-6.64-17.23-3.69-3-4.4-7.73-5.85-12s-4.31-8.07-5.34-12.55c-.67-2.91-1.84-6,1.22-8.38,1.16-3.43,2.19-6.92,4.91-9.54,2.21-1.35,4.37-2.81,6.65-4,5.76-3.1,8.44-7.57,7.84-14.34-.66-7.44,0-14.74,4.64-21.18,6-8.27,17.66-8.92,22.16.17,8.64,17.44,14.18,35.68,2.2,54.26-2.94,4.57-3,9.25,2.16,11.68,20.73,9.87,24.23,26.68,19.8,47h0C251.21,209.17,251.15,211.37,249.43,212.68Z"/><path class="cls-16" d="M284.78,238.21c-3.66-8.93-2.95-19-7.15-28-1.67,11.1-10.24,16.9-17.17,23.89-4.14.33-3.65-2.62-3.69-5.19L265.44,217c3.33-2,2.59-5.21,2.15-8.17-.63-4.29-1.49-8.56-1.1-12.94,5.45-3.85,10-3.87,15.71-.05A142,142,0,0,1,291.13,236C290,239.68,287.57,239.4,284.78,238.21Z"/><path class="cls-17" d="M292.92,60.22H232.71c3.77-1.57,6.87-3.26,9.21-6.56,2.48-3.51,6.09-4.19,9.83-2,3.54,2,5.16.73,7.18-2.46,5.42-8.57,14.28-9.12,21.16-1.56C284,51.88,289.19,54.69,292.92,60.22Z"/><path class="cls-18" d="M272.06,159.47c-1.44-.32-3.36.4-4.24-1.07-2.17-3.63-4.79-2.6-7.7-1.23-3.81,1.78-7.56,2.16-10.61-1.53-1.21-1.47-3.33-2.88-2.62-4.89s3.06-.66,4.65-1c.62-.15,1.56,0,1.86-.39,5.51-7,12-5.13,19.53-3.73,5.66,1,5.54,3,5,6.9-.4,2.69-2,4.73-3.72,6.73A1.62,1.62,0,0,1,272.06,159.47Z"/><path class="cls-19" d="M282.2,195.79l-15.71.05c-1.67-3-.79-6.16-.89-9.28a1.75,1.75,0,0,1,.25-.59c2.93-2.84,5.75-8.77,6.57-13.42.52-3,1-6.11,4.75-6.93,2.64,1.64,3.53,4.23,3.71,7.11C281.36,180.41,281.76,188.1,282.2,195.79Z"/><path class="cls-20" d="M277.17,165.62c-3.43,6.27-4.8,12.54.22,18.86-3.76,1.83-8.23-.47-11.79,2.08-.47-3.62-1.22-7.22-1.36-10.86-.25-6.69,2.64-12,7.82-16.23l2.13-.25C275.18,161.35,276.18,163.48,277.17,165.62Z"/><path class="cls-21" d="M284.78,238.21l6.35-2.2c1,1.65,3.44,2.86,1.68,5.37l-5.26.37C285.34,241.57,284.72,240.16,284.78,238.21Z"/><path class="cls-22" d="M127.79,157.62c11.9,13.17,12.19,24.45,1,40.59-1.16,4.72-4.68,7-8.88,8.61a24.22,24.22,0,0,1-8.05,2.31c-4.69.54-8.12-.86-8.81-6.12-.13-4.12,0-8.25-.06-11.63-.75,4.45,1.31,9.84-1.1,14.91a1.78,1.78,0,0,0-.22,1.13C93.87,212,81,206.34,78,197.05c-1.21-2.74-2.59-5.42-3.58-8.24A27.13,27.13,0,0,1,85.9,156.45c2.79-1.76,3.9-3.46,3.65-6.67a38.33,38.33,0,0,1,3.19-19.06c9.22-10.26,13.93-9.49,21.86,3.58,3.19,1.64,3.84,4.66,3.79,7.76-.09,5.08.57,9.49,6.2,11.54C126.23,154.19,126.83,156.18,127.79,157.62Z"/><path class="cls-23" d="M78,197.05c6.7,6.15,13.66,11.7,23.65,10.37,0,8.49,0,17-.08,25.49-.13,9.79,2.4,10.19-10.33,9.78-6.92-11.06-13.12-22.44-15.2-35.56C75.51,203.57,74.15,199.78,78,197.05Z"/><path class="cls-24" d="M181.84,143.48c0,5.63,1,11,4.64,15.52a6.1,6.1,0,0,1,1.58,5.26,7.75,7.75,0,0,1-7.76,6c-4.65-1.94-6.69-6.47-9.68-10-4.49-5.32-9.21-10.16-16.37-11.68q-.78-3.81-1.57-7.64a28.17,28.17,0,0,1,.34-5.14c.93-3.73,2.56-5,6.36-2.29,4.69,3.32,9.9,5.92,14.89,8.82C176.63,143.69,179.28,143.28,181.84,143.48Z"/><path class="cls-25" d="M127.79,157.62c-3.06-1.05-5.41-3.55-8.75-4.11-3-.49-2.63-3-2.57-5.14a41.85,41.85,0,0,0-1.87-14.07c2.24-1,2.94-2.94,2.91-6,4.93,4.71,7.89,10.68,14.72,11.37C129.69,145.38,128.75,151.51,127.79,157.62Z"/><path class="cls-26" d="M104.43,203.39c0,2.94,1.92,3.5,4.35,3.57,4,.11,7.66-1.18,11.44-2,2.32,1.2,3,3.53,4,5.68a20,20,0,0,0,4.69,6.9c1.93,1.73,4.06,4,6.67,3.36,2.93-.74,1.23-4.14,2.17-6.18.51-1.54.64-3.44,3.06-3.09.39,1.91,1.37,1.71,2.55.69,1.41-1.22,2.8-2.45,4.2-3.68,3.27.76,1.18,3,.55,3.75-3,3.72-4.43,8.23-7,12.15-.05,4.58-.22,9.16-.11,13.73.07,3.39-1.38,4.63-4.7,4.59-9.59-.12-19.19-.17-28.78,0-4.07.08-4.61-2.06-4.58-5.33.06-10.47,0-20.93,0-31.4C102.16,204.53,102.12,203.32,104.43,203.39Z"/><path class="cls-27" d="M150.33,236.16c-2.05,1.78-2,4.13-1.73,6.51-4.55.82-6.85-.68-6.44-5.71.33-4,.14-8.09.17-12.14,1.62-3.29,3.14-6.68,7.66-6.59l0,0c3.2,2.49,1,5.53.84,8.36C150.57,229.74,151.26,233,150.33,236.16Z"/><path class="cls-28" d="M150,218.23c-2.57,2.17-3.45,6.31-7.65,6.59a4.16,4.16,0,0,0-1.19-.3c-1-4.82.44-8.69,4.18-11.92,1.09-.94,3.26-1.69,2.23-4,2.43-1.38,2.46.54,2.51,2C150.16,213.14,150,215.68,150,218.23Z"/><path class="cls-29" d="M104.43,203.39l-1.49,2.74a5.14,5.14,0,0,1-1,.16V180.73l2.52,0Z"/><path class="cls-30" d="M180.19,169.49l7.87-5.23a27.88,27.88,0,0,0,8.67,13.8,12.54,12.54,0,0,1,3.06,15.35c3.25,9.31,9.73,16.6,15.46,24.33,3.39,4.58,2.27,12.18-2.52,14.44-8.53.56-15.89-2.94-23.2-6.64,0-5.15,0-10.3-.12-15.44-.14-6.75-2.41-8.84-9.52-8.95l-11.54-.43a26,26,0,0,0-.81-9c1.36-6.56,2.68-13.14,7.17-18.49C176.17,171.49,177.16,169,180.19,169.49Z"/><path class="cls-31" d="M180.19,169.49c-6,6.39-8.28,14.91-12.65,22.23-.6-12.06-2.78-23.59-10.6-33.39-2.22-2.79-2.14-6.41-2.69-9.77,2-3,4.18-1.84,6.54-.34C169.19,153.57,174.6,161.6,180.19,169.49Z"/><path class="cls-32" d="M139.44,215.29c-.5,3,2,7.28-1.66,8.76s-6.95-1.51-9.75-3.88c-4.69-4-6.91-9.28-7.81-15.23l8.6-6.73c.61,5.34,4.78,8,8.37,11.12C140.81,210.24,138,213.58,139.44,215.29Z"/><path class="cls-33" d="M139.44,215.29l-2.25-6c3.13-4.17-.3-9.57,2.81-14.94,1.68,6.4,1,11.83.81,17.23C140.35,212.84,139.89,214.06,139.44,215.29Z"/><path class="cls-28" d="M150.33,236.16q-.2-9-.38-18l2.38-2.79c1.41,2.92,2.11,5.88.54,9-2.78,3.61-.94,7.77-1.41,11.65A2.41,2.41,0,0,1,150.33,236.16Z"/><path class="cls-34" d="M152.87,224.36l-.54-9c.45-1.42.67-3,3.19-3.18a22,22,0,0,0-.37,10.57C155.45,224.07,154,224.36,152.87,224.36Z"/><path class="cls-35" d="M212.73,232.18c5-4.24,3.65-9.31,1-13.8-3.91-6.69-8.61-12.92-12.79-19.46-1-1.56-3.57-3.1-1.18-5.51q7.29,11,14.59,22l1.3-.43V176.84l1.82-.05c1.78,14-.17,28.24,1.17,43.78l15.8-18.2c-1.88,6.63-6.54,11.31-11,15.85-4,4.08-6.06,8.23-5.15,13.82l-1.38,2.89C216.56,232.45,214.51,232.51,212.73,232.18Z"/><path class="cls-36" d="M256.77,228.88c.31,2.38,2.19,3.65,3.69,5.19-.23,1.85-.47,3.71-.8,6.35C255,236.84,252.28,233.73,256.77,228.88Z"/><path class="cls-37" d="M249.43,212.68a10.77,10.77,0,0,1,2.78-5.21C252.31,209.75,251.87,211.75,249.43,212.68Z"/><path class="cls-38" d="M168.17,212.66c-.5,1.23-1.32,1.43-2.14,1.11-.45-.17-1.06-.89-1-1.24.22-1,1.16-1.14,2-.87C167.5,211.81,167.85,212.36,168.17,212.66Z"/><path class="cls-39" d="M152.77,244.1c-2.42-1-3.31-2.56-1.59-5,2.56,1.18,1,3.45,1.51,5.11Z"/><path class="cls-40" d="M184.18,244.21c.36-1.68-1.17-3.88,1.67-5.16,1.08,2.4.79,4.08-1.76,5.08Z"/><path class="cls-41" d="M112,192.48c-.12,3.65-1.61,5.17-3.36,7.71C108.54,196.78,110,195.14,112,192.48Z"/><path class="cls-17" d="M143,29.49H45.94C52,27,57,24.23,60.8,18.9c4-5.65,9.83-6.75,15.85-3.29,5.71,3.28,8.32,1.19,11.57-4C97-2.17,111.24-3,122.34,9.14,128.62,16,137,20.56,143,29.49Z"/><path class="cls-17" d="M158.17,47.67h-36a11.66,11.66,0,0,0,5.51-3.93,4.12,4.12,0,0,1,5.89-1.22c2.11,1.21,3.08.44,4.29-1.47,3.24-5.13,8.54-5.46,12.66-.93C152.82,42.68,155.94,44.36,158.17,47.67Z"/><path class="cls-17" d="M100.68,18.9H0c6.31-.57,11.49-1.19,15.41-2.39,4.15-1.28,10.18-1.53,16.43-.75,5.92.74,8.63.27,12-.89,9.06-3.12,23.87-3.32,35.37-.57C85.72,15.86,94.43,16.88,100.68,18.9Z"/><path class="cls-17" d="M69,59.85h34.11a11.09,11.09,0,0,1-5.22-3.56,4,4,0,0,0-5.57-1.11c-2,1.1-2.92.4-4.06-1.33-3.07-4.65-8.09-5-12-.85C74.07,55.33,71.12,56.85,69,59.85Z"/></g></g></svg>