<svg xmlns="http://www.w3.org/2000/svg" viewBox="0 0 180.63 164.42"><defs><style>.cls-1{fill:#ebeded;}.cls-2{fill:#3f3d56;}.cls-3{fill:#2f2e41;}.cls-4{fill:#e5e5e5;}.cls-5{fill:#feb7b7;}.cls-6{fill:#f1f1f1;}.cls-7{fill:#d6d8db;}.cls-8{fill:#fefefe;}.cls-9{fill:#f8a726;}.cls-10{fill:#f8a826;}.cls-11{fill:#f8a827;}.cls-12{fill:#fefdfc;}</style></defs><title>trainer01</title><g id="图层_2" data-name="图层 2"><g id="图层_1-2" data-name="图层 1"><path class="cls-1" d="M118.5,38.86a31.86,31.86,0,0,1,11.43-11.11,31.17,31.17,0,0,1,11.63-4.15,35.33,35.33,0,0,1,12,.25,33.69,33.69,0,0,1,24.82,21,33.11,33.11,0,0,1,2.23,12.73,32.66,32.66,0,0,1-6.6,19.2,4.46,4.46,0,0,0-.75,2c-.87,5.09-4,8.07-8.82,9.43a3.81,3.81,0,0,1-1.07.08c-1.28,0-2.56,0-3.84,0-1.88.08-2.2.58-1.51,2.27A52.8,52.8,0,0,1,161.89,105,53.76,53.76,0,0,1,160,126.65a52.1,52.1,0,0,1-8.44,16.64,53.41,53.41,0,0,1-33,20.26,49.39,49.39,0,0,1-11.89.79A53.26,53.26,0,0,1,70.15,147a1.81,1.81,0,0,0-1.52-.69c-1.16,0-2.32,0-3.48,0-.38,0-.82.16-1.09-.28a2.69,2.69,0,0,1,1.84-.32c6.72,0,13.43,0,20.14,0,1.21,0,2.15-.14,2.69-1.44.36-.85.92-.85,1.38,0A2.73,2.73,0,0,0,93,145.77c6.12,0,12.23,0,18.34,0,1.74,0,1.77,0,1.77-1.72,0-.64,0-1.28,0-1.91,0-1,.62-1.37,1.45-1.62a5.28,5.28,0,0,0,3.56-3.59,4.29,4.29,0,0,0-.89-4.57,2.74,2.74,0,0,1-.65-3.33,5.48,5.48,0,0,1,.68-1.64,3,3,0,0,1,1.65.12c1.28.26,1.34.24,1.65-1,1.06-4.18,2.14-8.36,3.43-12.47,1.74-5.57,3.43-11.15,6.31-16.28,1-1.81.71-3.83.46-5.75a57.83,57.83,0,0,0-3.63-12.77,239.9,239.9,0,0,0-10.29-23.34,4.09,4.09,0,0,0-2.45-2.43,1.19,1.19,0,0,1-1-.82A40.05,40.05,0,0,1,116.1,43C117.4,41.88,117.73,40.24,118.5,38.86Z"/><path class="cls-2" d="M113.44,52.63c2.42.67,3.49,2.52,4.5,4.65,4.51,9.55,9,19.13,12,29.3a24.63,24.63,0,0,1,1.34,9.29,4.3,4.3,0,0,1-.52,1.83c-2.93,5-4.54,10.43-6.25,15.87-1.43,4.52-2.63,9.11-3.78,13.7-.2.8-.46,1-1.21.7a22.22,22.22,0,0,0-2.17-.55c-1.85-.12-3.37-1.11-4.94-1.94a13.52,13.52,0,0,1-2.47-1.66,3.21,3.21,0,0,1-.86-3.5,21,21,0,0,0,.92-5.52c.16-.16.61.11.52-.49a4.6,4.6,0,0,1,.4-1.9c.94-5.6,2.26-11.13,3.37-16.69a5.35,5.35,0,0,0-.16-2.48A27.71,27.71,0,0,1,113,88.38c-.38,3.54-.23,7.53-2.11,11.14a3.37,3.37,0,0,0,0,2.91,3,3,0,0,1-.83,3.78c-.82.71-.72,1.3,0,2.11a4.22,4.22,0,0,1,1,3.92c-.41.73-.11,1.78-1,2.32a83.49,83.49,0,0,1-15.35,2.26c-7,.4-14,.41-21.06.37a39.89,39.89,0,0,1-7.13-.78,24.84,24.84,0,0,1-2.41-1,1.89,1.89,0,0,1-.24-3.36,5.39,5.39,0,0,1,1.79-.15c2.79,0,5.59,0,8.39,0a4,4,0,0,0,4.1-3.2,9,9,0,0,0,.26-2.37q0-28.72,0-57.46a8.38,8.38,0,0,0-1.39-4c0-.08,0-.2,0-.23,1.72-1.34,3.39-2.92,5.7-3,4.47-.1,8.94,0,13.41,0a1.87,1.87,0,0,1,2,1.29,7.49,7.49,0,0,0,5.13,4.89c1.91.67,3.73,1.62,5.59,2.45a3.34,3.34,0,0,1,1.28.85A19.65,19.65,0,0,0,113.44,52.63Z"/><path class="cls-3" d="M66.19,116.13c7,1.05,14,.81,21,.67,4.64-.1,9.29-.4,13.92-.85,2.67-.27,5.2-1.12,7.82-1.56.41-.07.76-.21,1.12.07.07,0,.1.08.09.14s0,.09,0,.09c.55,1.7-.19,3.3-.55,4.87s-.6,3,.57,4.29a1.32,1.32,0,0,1,.06,1.26c-.72,2.85-1.2,5.75-2.12,8.56-1.17,3.55.84,6.34,4.11,7,.66.14,1.28.23,1.23,1.11,0,1.08,0,2.17.14,3.24.1.85-.14,1.08-1,1.07-3.64,0-7.27,0-10.91,0-3.08,0-6.16-.06-9.24,0-1.23,0-2.05-.26-2.47-1.45a4,4,0,0,0-.48-.82c-.09,0-.19,0-.2.08-.41,2.05-1.79,2.22-3.6,2.2-7.2-.11-14.4-.06-21.59-.07q-.39-3.83-.76-7.63a43.58,43.58,0,0,1,1.57-20.22C65.12,117.46,65.16,116.46,66.19,116.13Z"/><path class="cls-1" d="M24.68,108.22c-.48-.78-.19-1.63-.22-2.45-.05-1.44,0-2.88,0-4.32,0-.7-.19-1-.95-1.22A30.45,30.45,0,0,1,12.21,94.7,31.23,31.23,0,0,1,2.15,81.31,29.11,29.11,0,0,1,0,69.78,30.77,30.77,0,0,1,6.9,50.5,30.29,30.29,0,0,1,22.44,40.09a30.5,30.5,0,0,1,25,3.33,1.48,1.48,0,0,1,.26.24c-.53.5-1.2.37-1.82.37-5.12,0-10.24,0-15.35,0a8.31,8.31,0,0,0-2.38.24,3.89,3.89,0,0,0-2.89,3,10.6,10.6,0,0,0-.22,2.38q0,7.08,0,14.15a3.06,3.06,0,0,1-.3,1.86c-.46.41-1,.22-1.48.16a5.19,5.19,0,0,0-4.7,1.51,5.42,5.42,0,0,0-1,6.18,5.33,5.33,0,0,0,5.75,2.73c.54-.1,1.18-.49,1.58.3a5.9,5.9,0,0,1,.14,1.78q0,13.89,0,27.78C25.07,106.86,25.23,107.61,24.68,108.22Z"/><path class="cls-4" d="M24.42,65.75c.44-.38.25-.9.25-1.35,0-5.15,0-10.29,0-15.44a5.31,5.31,0,0,1,1-3.58,4.77,4.77,0,0,1,3.91-1.71H47.72c6.16-.11,12.31.4,18.47.24a5.16,5.16,0,0,1,2.09-.37c2,0,3.9,0,5.85,0A3.46,3.46,0,0,1,77,44.64c1.7,1.68,1.69,3.8,1.68,6q-.1,28.21-.13,56.44c0,3.55-1.82,5.31-5.32,5.28-3.2,0-6.39,0-9.59,0a2.59,2.59,0,0,1-1.36.36H57.69a1.91,1.91,0,0,1-1.34-.39H29.67c-2.8,0-4.8-1.66-5-4.07q0-16,0-31.94a1.5,1.5,0,0,1-.35-1.11c0-3,0-6,0-9A1.25,1.25,0,0,1,24.42,65.75Z"/><path class="cls-3" d="M76.59,21.78a5.47,5.47,0,0,0-1.35-4c-.1-.09-.17-.37-.13-.41,1.2-1,0-1.21-.49-1.64-.24-.2-.42-.42-.09-.67s.4-.47.11-.79-.12-.6.19-.77c2.61-1.43,4.91-3.39,7.84-4.29A29,29,0,0,1,93.2,8c1.1.08,2.21.55,3.35.73.46.07.62.47.5.93-.22.89.32,1.24,1,1.45a10.79,10.79,0,0,0,1.75.4,4.65,4.65,0,0,1,4.22,3.68c.57,1.9.88,3.86,1.61,5.74.6,1.55,0,3.23-.58,4.78a20.07,20.07,0,0,1-5.71,8.43A3,3,0,0,1,97.1,35c-.26-.47.09-.83.26-1.21a18,18,0,0,0,1.53-5.27c.21-1.72-.44-2.22-2-1.57l-.33.14c-2.41,1-2.79.8-3.45-1.77a7.42,7.42,0,0,1-.26-3.31c.11-.54,0-.7-.58-.66a29.71,29.71,0,0,1-10.06-1c-1.9-.52-3.74-.38-5.16,1.25A.48.48,0,0,1,76.59,21.78Z"/><path class="cls-5" d="M76.59,21.78c1.45-2.14,3.5-2.26,5.74-1.73a33.38,33.38,0,0,0,5.5,1.06,22.76,22.76,0,0,0,5.62-.21A8.55,8.55,0,0,0,94,27c.23.6.47.73,1,.44.82-.4,1.68-.74,2.52-1.1s1.38-.12,1.59.8a8.85,8.85,0,0,1-.42,4A21.5,21.5,0,0,1,97.11,35a15.53,15.53,0,0,1-3.79,2.64c-.58.86-1.55.91-2.43,1.07a12.88,12.88,0,0,1-8.13-1,2.08,2.08,0,0,1-1.22-1.07,12.24,12.24,0,0,1-5.36-8.12,11.86,11.86,0,0,1,.17-5.2A3.9,3.9,0,0,0,76.59,21.78Z"/><path class="cls-1" d="M81.54,36.72a12.63,12.63,0,0,0,11.78,1,42.05,42.05,0,0,1,7,3.25,28.87,28.87,0,0,1,9.5,9.41,3.58,3.58,0,0,1,.27.78c-3.46-1.34-6.79-3-10.17-4.47a2.45,2.45,0,0,1-1.14-1.74c-.78-2.46-2.31-3.22-4.89-3-3.49.27-7,.11-10.53,0a5.38,5.38,0,0,0-3.24.92c-1,.67-2.06,1.2-3.1,1.79-2.37-1.18-4.91-.62-7.38-.73-1.15,0-2.31,0-3.46,0a29,29,0,0,1,12-6.36A15.07,15.07,0,0,0,81.54,36.72Z"/><path class="cls-1" d="M42.92,14.15c-3.78.48-7.27-3.48-7.21-7A7.24,7.24,0,0,1,42.89,0a7,7,0,0,1,7.18,7.09C50.13,11.28,46.39,14.58,42.92,14.15Z"/><path class="cls-1" d="M56.35,112.29l7.32,0c-.86,1.89-.59,2.52,1.38,3.28.39.15.86.14,1.14.53a26.18,26.18,0,0,0-2.65,9.45,83.78,83.78,0,0,0-.24,12.87c-1.15-3.82-3.37-7.19-4.45-11a51.16,51.16,0,0,1-2.25-12.75A13.52,13.52,0,0,1,56.35,112.29Z"/><path class="cls-6" d="M118.5,38.86c-.34.49-.14,1.09-.33,1.61A4.08,4.08,0,0,1,116.1,43c-2.37.38-3.86-.35-4.54-2.21a3.42,3.42,0,0,1,1.8-4.09,3.57,3.57,0,0,1,4.18,1C117.85,38,117.84,38.71,118.5,38.86Z"/><path class="cls-6" d="M48.8,29.75a2.93,2.93,0,0,1-3.24-3.24A3.48,3.48,0,0,1,48.75,23a3.42,3.42,0,0,1,3.51,3.46A3.16,3.16,0,0,1,48.8,29.75Z"/><path class="cls-6" d="M33.08,124.52a3.15,3.15,0,0,1,3.36-3.35,3.43,3.43,0,0,1,3.36,3.32,3.32,3.32,0,0,1-3.37,3.4A3.14,3.14,0,0,1,33.08,124.52Z"/><path class="cls-5" d="M113.41,141.81a.86.86,0,0,0-.85-.75,5.65,5.65,0,0,1-4.59-8.19c.91-2,1-4.31,1.62-6.45.23-.85.36-1.71.54-2.57,1.13.64,2.22,1.34,3.38,1.91s2.54,1.11,3.81,1.66c-.23.89-.42,1.79-.73,2.64a1.21,1.21,0,0,0,.38,1.46c3.55,3.34,1.1,8.51-2.41,9.34C114.05,141,113.4,141,113.41,141.81Z"/><path class="cls-1" d="M110.79,112.23a5.31,5.31,0,0,0-1.68-4.43c-.4-.38-.49-.71,0-1.06,1.94-1.46,2-3.3,1.13-5.36a1.25,1.25,0,0,1,0-1.16c2.09-3.72,2-7.9,2.47-12a1.41,1.41,0,0,1,.26-.75,61.5,61.5,0,0,1,1.73,7.12c.18,1.35-.45,2.8-.74,4.2C113,103.4,112,108,111,112.52,110.8,112.55,110.68,112.49,110.79,112.23Z"/><path class="cls-7" d="M110.79,112.23l.24.29c-.13.74-.23,1.48-.41,2.21s-.34,0-.51,0a.31.31,0,0,0,0-.23A8,8,0,0,1,110.79,112.23Z"/><path class="cls-5" d="M24.42,65.75a2.14,2.14,0,0,1,.26,1.38q0,4.58,0,9.15a5.67,5.67,0,0,1-7.87-3.9C15.93,68,19.55,64.63,24,65.7A2.5,2.5,0,0,0,24.42,65.75Z"/><path class="cls-8" d="M51.52,47.27c6.16,0,12.32.06,18.48,0a5,5,0,0,1,5.35,5.33c-.14,4.51.07,9-.06,13.55-.37,12.79-.14,25.58-.22,38.36a4,4,0,0,1-4.2,4.2c-8.32,0-16.64.14-25,0a17.67,17.67,0,0,1-13.54-6.88C29.18,97.92,28,93.43,28,88.47c.07-11.2,0-22.4,0-33.59a38.43,38.43,0,0,1,.25-4.29,4.23,4.23,0,0,1,4.14-3.32Q42,47.26,51.52,47.27Z"/><path class="cls-9" d="M57,95.47a7.08,7.08,0,0,1,7.1-7.18,7.19,7.19,0,1,1,0,14.38A7.15,7.15,0,0,1,57,95.47Z"/><path class="cls-10" d="M51.68,68.81H66.07c1.55,0,2.33.62,2.32,1.78s-.84,1.81-2.33,1.81q-14.52,0-29,0c-1.58,0-2.44-.79-2.3-2.06.12-1,.81-1.53,2.19-1.53Z"/><path class="cls-11" d="M51.56,80.71H37.29a4.74,4.74,0,0,1-1.19-.08A1.62,1.62,0,0,1,34.74,79a1.7,1.7,0,0,1,1.12-1.78,3.67,3.67,0,0,1,1.54-.18H65.7a6,6,0,0,1,1.19.07A1.7,1.7,0,0,1,68.37,79a1.65,1.65,0,0,1-1.7,1.67c-1,0-1.92,0-2.88,0Z"/><path class="cls-9" d="M51.55,60.47c4.92,0,9.83,0,14.75,0a1.91,1.91,0,0,1,1.89,1,1.69,1.69,0,0,1-.12,1.82,1.81,1.81,0,0,1-1.65.79q-14.87,0-29.73,0a1.75,1.75,0,0,1-1.95-1.79c0-1.11.74-1.79,2.06-1.8Z"/><path class="cls-10" d="M39.8,55.72c-1.08,0-2.15,0-3.23,0a1.69,1.69,0,0,1-1.83-1.64,1.72,1.72,0,0,1,1.69-1.93q3.41-.11,6.81,0a1.68,1.68,0,0,1,1.63,2A1.65,1.65,0,0,1,43,55.71C42,55.74,40.88,55.72,39.8,55.72Z"/><path class="cls-12" d="M67.88,92.7c-.11.19-.24.47-.41.73-1.11,1.67-2.21,3.33-3.33,5-.69,1-1.14,1-1.9.06-.49-.63-1-1.27-1.45-1.9-.35-.46-.55-1,0-1.39s.93-.06,1.3.38c1.15,1.39,1.16,1.38,2.14-.1.73-1.1,1.46-2.2,2.2-3.28a.76.76,0,0,1,1-.36A.84.84,0,0,1,67.88,92.7Z"/></g></g></svg>