<svg xmlns="http://www.w3.org/2000/svg" viewBox="0 0 246.81 225.02"><defs><style>.cls-1{fill:#efecdf;}.cls-2{fill:#2b2d41;}.cls-3{fill:#f9a600;}.cls-4{fill:#fecf3e;}.cls-5{fill:#feac00;}.cls-6{fill:#fbfbf9;}.cls-7{fill:#6f6c71;}.cls-8{fill:#fd864b;}.cls-9{fill:#fd844b;}.cls-10{fill:#fc7f45;}.cls-11{fill:#fcfbfb;}.cls-12{fill:#edeaec;}.cls-13{fill:#2d2f42;}.cls-14{fill:#3f3e47;}.cls-15{fill:#fa884d;}.cls-16{fill:#2f2c3e;}.cls-17{fill:#e9e8ea;}.cls-18{fill:#ece9eb;}.cls-19{fill:#444347;}.cls-20{fill:#efeded;}.cls-21{fill:#eeebec;}.cls-22{fill:#6d6a6b;}.cls-23{fill:#f6f4f1;}.cls-24{fill:#f1eff1;}.cls-25{fill:#757275;}.cls-26{fill:#f9f8f7;}.cls-27{fill:#f2edee;}.cls-28{fill:#332f37;}.cls-29{fill:#72717c;}.cls-30{fill:#726e6f;}.cls-31{fill:#926012;}.cls-32{fill:#676063;}.cls-33{fill:#686266;}.cls-34{fill:#706c6e;}.cls-35{fill:#d1c9c9;}.cls-36{fill:#633f16;}.cls-37{fill:#d1c9c8;}.cls-38{fill:#643d0b;}.cls-39{fill:#fbfbfb;}.cls-40{fill:#cfc7c7;}.cls-41{fill:#d39a21;}.cls-42{fill:#fd8549;}.cls-43{fill:#d2c8ca;}.cls-44{fill:#272328;}.cls-45{fill:#2c2c40;}.cls-46{fill:#d3cdcd;}.cls-47{fill:#312f3c;}.cls-48{fill:#9596a3;}.cls-49{fill:#9e9fad;}.cls-50{fill:#acaab5;}.cls-51{fill:#676369;}.cls-52{fill:#fbfbfc;}.cls-53{fill:#3e3437;}.cls-54{fill:#423845;}.cls-55{fill:#f8a602;}.cls-56{fill:#faf9f8;}.cls-57{fill:#7d7a7f;}.cls-58{fill:#f4f1f8;}.cls-59{fill:#fea063;}</style></defs><title>training04</title><g id="图层_2" data-name="图层 2"><g id="图层_1-2" data-name="图层 1"><circle class="cls-1" cx="92.33" cy="135.4" r="73.88"/><path class="cls-1" d="M52.13,71.11C57,61.82,62.39,52.55,70,45.55A171.27,171.27,0,0,0,86,28.4c3.71-4.45,10-5.29,14.86-8.13,1.42-.83,3.16-1.22,4.38-2.26C117.45,7.62,132.58,5.19,147.56,2.43A164.73,164.73,0,0,1,185.79.26c10,.5,18.65,7.81,21.43,17,2.57,8.49,1.93,17,2.3,25.53.77,17.23,2,34.47,2.19,51.67.12,12.44-.12,24.94.38,37.39.37,9.32-1.49,18.94,0,27.77,2.14,12.42-1.2,24.93,2.27,37.07.82,2.87-.36,5-2.82,6.55-2.87.44-5.7,1.25-8.66.81-1.75-1.44-2.37-3.58-3.39-5.48-1.84-11.4-5.25-22.39-8.36-33.47-1.62-5.6-1.46-11.42-2.12-17.14-.29-2.47-.1-5.11-2.13-7.06a8.11,8.11,0,0,1-2.62-6.27c0-.36,0-.72,0-1.09,0-2.7,3.71-5.28.6-8-2.5-2.18-10.2-2.15-12.9-.09-2.06,1.55-4.52,2.29-6.83,3.84,2.19,3.24,5,2.41,7.82,1.63,4.36-1.22,7.92-.16,10.61,3.55a2.35,2.35,0,0,1-.11,1.63c-5,6.62-4.74,14-3.37,21.62.5,2.6.3,5.28,1,7.86.89,3.7.95,7.51,1.55,11.26.38,2.36,0,4.72-2.21,6.28-3.34,1.17-5.39-1.19-6.9-3.25a14.81,14.81,0,0,0-6.69-5c-1.34-4.15-.5-8.41-.5-12.59,0-9.71-4.87-16.29-12.57-21.32-1.23-.81-2.59-1.41-3.81-2.24-5.24-3.53-6.76-7.83-3.69-13.27,7.92-14,4-27.42-1.52-40.78-1.7-4.14-4.78-7-9.77-6.72s-7.19,3.9-9,7.83-1.43,7.9-1.39,12c.11,9.89-3.76,15-13.5,18.08a29,29,0,0,1-11.17-4.31C95.74,108.85,91.22,107,86,107c-9.26,0-17.67-3.82-26.35-6.43-4-1.19-8.19-1.3-10.86-5.42s-2.26-6.74,2.65-8.23A137.31,137.31,0,0,1,82.29,81.4c-3-.62-6,.09-8.89,0C64.3,82.11,58.87,75.25,52.13,71.11Z"/><path class="cls-2" d="M122.19,175.93c0-8.14-.15-16.28-.12-24.42,0-1.65-.21-2.37-2.12-2.59a15.87,15.87,0,0,1-12.78-8.58,14.47,14.47,0,0,0-10.66-7.64c-9.24-1.83-13.55-12.06-8.39-19.56a12.32,12.32,0,0,1,3.7-3.38c3.33-2.09,4-3.8,3-7.53a12.54,12.54,0,0,1,6.24-14.6,13.57,13.57,0,0,0,7.57-10.13c1.49-7.3,6.92-11.65,14.21-11.46,7.71.2,13.33,4.83,14.21,12.3.62,5.15,3.09,8.32,7.92,10,3.84,1.31,5.93,4.36,7.28,8,.46,1.09-.32,1.81-.85,2.55a9,9,0,0,0-1.72,5.76,60.57,60.57,0,0,1-.58,6.32,7.38,7.38,0,0,1-2,4.31c-3.3,3.76-3.67,8.11-2.76,12.76.13.65.34,1.27.53,1.9,1.21,4,.67,5.37-3,7.59a7.25,7.25,0,0,0-4.48,4,14.53,14.53,0,0,1-11.26,8.17c-1.86.3-2.53,1.21-2.51,3.11.09,6.45,0,12.9,0,19.35a8,8,0,0,1-.56,3.65C122.87,176,122.58,176.31,122.19,175.93Z"/><path class="cls-3" d="M141.54,136.88c.69-.55,1.36-1.11,2.06-1.64a2.77,2.77,0,0,0,.88-3.69,18.83,18.83,0,0,1-1.43-8.81,11.9,11.9,0,0,1,2.89-7.44,9,9,0,0,0,2.54-6.35c0-1.1.24-2.2.19-3.29a12,12,0,0,1,3.6-9.34c2.4-1.58,4.87-2.85,7.9-2.83a11.71,11.71,0,0,1,12,10.8,12.49,12.49,0,0,1,.21,2.19,16.28,16.28,0,0,0,5.67,13.82c3.39,3.13,2.58,7.53,1,11.55a9.34,9.34,0,0,1-2.38,3.66c-3,2.62-3.48,6.24-4.16,9.8-.35,3.46-.93,4-5,4.42-1.28-.35-2.22.28-3.23,1-1.36.92-2.75,3-4.18,2.32-1.65-.8-.66-3.19-.67-4.85-.08-13,0-26,0-38.95q0,20.25,0,40.5a13.15,13.15,0,0,1,0,1.54c-.15,1.32-.78,1.21-1.59.52-1.38-.74-2.27-2.08-3.54-3a23.49,23.49,0,0,1-3.17-2.89,24.86,24.86,0,0,0,3.07,2.82c1.28.84,2.14,2.19,3.51,2.93a4,4,0,0,1,2,4.22c-.19,2.47.14,5-.16,7.44a1.76,1.76,0,0,1-.41.63,3,3,0,0,1-2.31.47c-7.79-1.06-16.4-7.47-17.87-16.2a23.69,23.69,0,0,1,0-6.78A6.3,6.3,0,0,1,141.54,136.88Z"/><path class="cls-4" d="M63.55,176.92c-6.23,0-11.91-1.45-16.36-6.19-5.67-6-5.33-14.68,1.12-19.78a9,9,0,0,0,3.74-7.9,22,22,0,0,1,1.49-9.49c2.4-5.41,7.12-8.28,12.6-7.49,5.16.74,9,5,9.64,10.79a37.44,37.44,0,0,1,.23,5.5,9.58,9.58,0,0,0,3.5,8.15c5.86,5,5.14,12.23,2.31,17-.85,1.42-1.57,3.38-3.88,3.2A7.53,7.53,0,0,0,73.86,175c-1.79,2.39-6.06,3.42-9.18,2.22-.9-2.4-.71-3.08,1.09-4.44,1.46-1.11,2.87-2.27,4.36-3.33-1.63,1.09-3.07,2.44-4.71,3.53-1,.67-1.76.56-1.68-.79.61-9.8,0-19.61.3-29.41-.07,4.28,0,8.57-.06,12.86,0,.55.28,1.27-.44,1.56s-1-.37-1.46-.75A28.56,28.56,0,0,0,60,154.55c3.81,2.09,4.53,5.42,4.08,9.35-.22,2,0,4-.05,5.94,0,.87.33,2-1.06,2.29-.24.05,0,.13,0,.14,1.59.95,1.22,2.5,1.21,3.95C64.11,176.58,64,176.89,63.55,176.92Z"/><path class="cls-5" d="M122.19,175.93l.69-.46c.61-.74,1.1-1.67,2.26-1.66a2,2,0,0,1,1.51.77,27,27,0,0,0,7.43,5.65c1.26.7,2.48,1.62,2.27,3.39a4.06,4.06,0,0,1-1,1.38,1.61,1.61,0,0,1-.78.37c-1.64.12-2.33.81-1.76,2.53a5.7,5.7,0,0,1,0,2.81,44.4,44.4,0,0,0-1.14,9.06,3.67,3.67,0,0,1-1.85,3.48c-2.71.73-4.13-1.32-5.82-2.73-.5-.42-.76-1.08-1.22-1.55a1.41,1.41,0,0,0-1.19-.45,23.51,23.51,0,0,1-10.72-2.59c-3.38-1.61-6.4-1.51-9.08,1.46a7.34,7.34,0,0,1-5.53,2.22c-1.43,0-2.1-.72-1.72-2.08,1-3.56-.3-5.82-3.51-7.49-2.71-1.4-3.07-2.72-2-5.61s2.67-5.33,6.11-5.75c5.82-.6,11.66-.18,17.48-.34C115.94,178.25,119.25,177.8,122.19,175.93Z"/><path class="cls-2" d="M205.24,142.54c-.6,4-.58,8.12-1.46,12-1.88,8.26.19,16.18,1,24.23-.6,3-3.95,5.18-7.53,4.92-2.3-1-2.9-3.33-4.09-5.19a16.93,16.93,0,0,1-1.63-3.78c-.11-.26-.31.21-.06.06.1-.07.18,0,.14.15-.68,2.84-1.67,5.51-4.09,7.38a10.58,10.58,0,0,1-8.82-3.92,6.6,6.6,0,0,1-.26-4.9c1.25-5,3.38-9.61,5.42-14.29a3.17,3.17,0,0,1,1.59-1.73c3.19-.79,6.43-.28,9.64-.39,2.76-.1,2.91-.16,3-2.83a16.53,16.53,0,0,1,.77-4.31,52.24,52.24,0,0,0,2.13-9,3.22,3.22,0,0,1,1-2.4c.28-.16.47-.09.57.22l.43.28C204.56,139.66,205.72,140.55,205.24,142.54Z"/><path class="cls-4" d="M202.07,138.59a27.73,27.73,0,0,1-1.41,8.64,23.41,23.41,0,0,0-1.65,9c.06,1.21-.36,1.7-1.62,1.67-3.95-.09-7.91-.1-11.86-.14-.82-.91-.65-2-.66-3.1,0-2.1,0-4.2-.05-6.3,0-3.64.74-7.33-.88-10.84a2.64,2.64,0,0,1-.08-1.5q2.82-4.59,5.63-9.15c.6-1,1.24-1.9,2.62-1.34a13.3,13.3,0,0,0,2.75,0c.34-.14.8-.18,1-.43,2-2.49,4.16-1.3,6.23-.28,2.54,1.25,4.4,3.36,6.21,5.5a1.53,1.53,0,0,1-.16,2.45c-1.93,1.79-3.83,3.63-5.73,5.46-1.16-.24-1.6-1.35-2.34-1.88A13.77,13.77,0,0,1,202.07,138.59Z"/><path class="cls-6" d="M95.08,178.68c-2.41,1.65-4.63,3.42-5.68,6.35-.74,2.06-.05,3.29,1.7,4.23,4.8,2.59,5.52,4.39,3.8,9.48a7.43,7.43,0,0,0,6.93-2.38,6.59,6.59,0,0,1,7.47-1.74c4.27,1.52,8.39,3.53,13.11,3.26.26,0,.55.42.82.65.4.47.16.85-.19,1.21a1.59,1.59,0,0,1-.63.26l-.68.08a20.87,20.87,0,0,1-8.59-1.5c-1.31-.45-2.57-1.06-3.88-1.56a6.44,6.44,0,0,0-7.15,1.19,11.19,11.19,0,0,1-5.58,2.93,3.33,3.33,0,0,0-2.6,2.69c-.34,1.33.53,2.1,1.6,2.82,1.63,1.1,1.54,1.9-.14,3.4a8.39,8.39,0,0,1-3.12,0,21.29,21.29,0,0,1-3.8-4.71c-.72-1.14-.9-2.32.43-3.13-.67.32-1,1.14-1.69,1.56-1.52.91-2.22,2-1.15,3.77a1.67,1.67,0,0,1-.55,2.48,5.4,5.4,0,0,1-3.16-.12c-1.76-2-2.16-4.41-2.17-6.92a3.58,3.58,0,0,1,2.21-3.3c2.86-1.35,3.76-3.78,3.78-6.63a23.74,23.74,0,0,1,1.61-8.35c.2-.51.67-1.12.16-1.63s-1.24-.16-1.85,0a13.31,13.31,0,0,1-3.63.84,10.36,10.36,0,0,1-8.78-4.11c-1.55-1.84-.88-3.65-.33-5.53a6.05,6.05,0,0,1,2.74-3.53c.56-.41,1.2-1,1.85-.07a6.79,6.79,0,0,0,1.75,4.43c-.43.58-1,.47-1.58.32s-1.17-.81-1.74,0a2.34,2.34,0,0,0-.22,2.48c1.23,2.67,4.26,4,7.61,3.16a34,34,0,0,1,5.59-1.2c0-1.14-1.81-1.24-1.34-2.51Z"/><path class="cls-7" d="M82.28,209.52l3.5,0a5.36,5.36,0,0,1,6.21,0l3.49,0a6.81,6.81,0,0,1,3.78-.92c6.23,0,12.46,0,18.69,0,2.73,0,3-.29,3-3.06,0-1.25,0-2.49,0-3.74a2.87,2.87,0,0,1,.94-2.36l.44,0c1.24,2,.38,4.23.64,6.34.12,1-.38,2.08.74,2.76,3.17.18,6.33-.07,9.49.17a7.6,7.6,0,0,1,2.38,0c1.6-.2,3.21.19,4.8-.09a31.09,31.09,0,0,1,4.53.14c3.08-.25,6.16-.13,9.24-.16,3.61,0,3.76-.15,3.77-3.69,0-12.48,0-25,0-37.44,0-1.3-.25-2.68.84-3.75a.44.44,0,0,1,.15-.25,1,1,0,0,1,.71.39,6.14,6.14,0,0,1,.33,3q0,18.91,0,37.84a5.75,5.75,0,0,0,.61,3.39c.6.78,1.47.51,2.23.52,2.61.07,5.22-.08,7.51.08a28.39,28.39,0,0,1-5.13-2.67c-.78-.53-1.88-1.15-.88-2.42,2.36-.4,3.95,1.23,5.79,2.18a11,11,0,0,0,4.72,2.55c1.24.61,2.6-.23,3.86.27,9.37-.07,18.73,0,28.1-.06,2.32.58,4.77.35,7,1.19,8.8,0,17.6,0,26.4,0,.62,0,1.68-.64,1.89.7a54,54,0,0,1-5.68.37c-9.13.07-18.27-.21-27.4-.15-9.41.07-18.82.14-28.22.1-6.3,0-12.59.12-18.89.06a21.87,21.87,0,0,1-4.35-.4l-4.93,0a4.1,4.1,0,0,1-1.92.34c-6.36-.09-12.71,0-19.07-.14-4.66-.09-9.35.13-14,.14a5.22,5.22,0,0,1-2.79-.39l-5.37.06c-4.49.71-9,.33-13.53.27-3.63,0-7.26-.24-10.9,0a5.37,5.37,0,0,1-2.79-.33l-4,0c-3,.24-6,.12-8.94.15-7.59.07-15.18-.23-22.76.17a1.93,1.93,0,0,1-1.25-.32H27.25a2.81,2.81,0,0,1,2.68-1c7,0,13.92-.07,20.88.05,1.78,0,3-.38,3.91-1.93.25-.47.5-.91,1.16-.63a1.61,1.61,0,0,1,.55.25c.85.68,1.27,1.41.59,2,5.67-.08,11.67.05,17.4,0-2.64-1.55-2.85-4.25-2.44-7.19a1.19,1.19,0,0,1,1.7.47c1.51,2.19,4.16,3.19,5.58,5.46C79.94,209.12,81.56,208.44,82.28,209.52Z"/><path class="cls-8" d="M205.24,142.54c-.35-1.43-1.72-2.2-2.3-3.48a29.71,29.71,0,0,0,5.74-5.05c1-1,1.42-.82,2.14.22a18.79,18.79,0,0,1,3.55,10,74.66,74.66,0,0,1-.23,11.19,4.75,4.75,0,0,0,.63,3.58c.74,1,1.36,2.14.3,3.38a2.18,2.18,0,0,1-2.57.71,2.75,2.75,0,0,1-1.72-3.21c.59-5.68-1.46-10.64-4.05-15.48A4.52,4.52,0,0,0,205.24,142.54Z"/><path class="cls-9" d="M197.33,183.32c3.26-.26,5.54-2.1,7.45-4.56a24.62,24.62,0,0,1,3.16,6.45c1.18,3.51,2.23,7.07,3.33,10.6-.11,1.62-1.18,2.33-2.56,2.76-1.52.05-2.44-1-3.22-2-2.63-3.52-5.24-7.07-7.59-10.79C197.44,185,196.88,184.28,197.33,183.32Z"/><path class="cls-10" d="M183.86,136c3.32,3.62,1.47,8,1.88,12.12-1.44-.64-2.66-.12-3.94.6-3.37,1.92-7.25,2.72-10.6,4.74a2.49,2.49,0,0,1-2.53,0c-.25-.14-.45-.36-.68-.52-2.1-1.46-2.15-1.92-.33-3.75a5,5,0,0,1,1.57-.72,3.19,3.19,0,0,0,3.29-3.18c.1,1.36.51,1.91,1.77.79A64.67,64.67,0,0,0,183.86,136Z"/><path class="cls-11" d="M88,177.4c.46.91,1.49.84,2.21,1.31.45.3.82.63.73,1.23a.91.91,0,0,1-.88.84c-3.13-.32-5.87,1.7-9,1.46-2.41-.19-5.43-2.33-6.09-4.61-.45-1.54.57-2.65,1.27-3.8.34-.57.9-.32,1.25.17a2.26,2.26,0,0,0,2.2,1.14A14.67,14.67,0,0,0,88,177.4Z"/><path class="cls-12" d="M157.63,210.46l82.32-.05c.73,0,1.46,0,2.19-.08a4.2,4.2,0,0,1,4,.14c-3,.81-6.08.67-9.1.73-7.08.15-14.17.05-21.27-.19-5-.18-10.13.13-15.2.16-7.28,0-14.56.39-21.82,0-5.71-.28-11.38.45-17.08.1A8.92,8.92,0,0,1,157.63,210.46Z"/><path class="cls-13" d="M213.43,209.94c-2.18-.17-4.49.7-6.49-.86a1.56,1.56,0,0,1,.83-2.73c2.65-.66,2.94-2.2,2.22-4.42a1.87,1.87,0,0,1,.08-1.09c.85-1.22,1.64-2.54,3.45-2.37a11.38,11.38,0,0,0,3.35,2.43c.66.29,1.36.64,1,1.61a2.83,2.83,0,0,1,0,.29c-.19.79-.94,1.18-1.29,1.85a2.22,2.22,0,0,1-.4.41,8.33,8.33,0,0,0-2.15,2.16.88.88,0,0,1-.24.27.64.64,0,0,0,.24-.27,6.08,6.08,0,0,1,1.73-1.77.46.46,0,0,1,.49.2l-2.7,3.84C213.81,209.74,213.77,209.88,213.43,209.94Z"/><path class="cls-14" d="M72.12,202.09c.18,1.23,1.55,2.33.4,3.71.69-.09-.53,2,1,.92.16-.11.51-.18.45.11-.6,2.66,1.5,1.86,2.74,2.18.33.09.74.06.94.76H55.15c1.64-.38,2.05-1.19.69-2.43,1.73-.13,2-1.54,2.55-2.78.43-.6-.21-1.81.86-1.94,1.3-.16,1.5,1.32,1.92,2s1.24,1.61,1.82,1.55c1-.1.18-1.43.73-2a1.51,1.51,0,0,1,1,1,2.4,2.4,0,0,1-.06,1.69,5.4,5.4,0,0,1-1.78,1.64c1.74-.15,3.2.2,4.77.15,2.55-.09,2.06-1.4,1.8-2.88A2.71,2.71,0,0,1,72.12,202.09Z"/><path class="cls-15" d="M197.22,120.67c.06,2.74-.85,3.77-3.43,3.91-.94,0-1.79,0-1.8-1.26a1,1,0,0,0-.36-.76c-3.29-2.09-1.74-5.06-1.44-7.8,3.33-1.55,5.35-.55,5.73,3C196.05,118.92,197,119.61,197.22,120.67Z"/><path class="cls-16" d="M197.22,120.67a2.18,2.18,0,0,1-2.11-2.69c.17-2-.23-3.42-2.8-2.86a5.63,5.63,0,0,1-2.12-.36,17.27,17.27,0,0,1-1.07-1.36,1.43,1.43,0,0,1,0-1.65c.44-.63,1-.37,1.54-.12a11.48,11.48,0,0,0,4.51.59c2.62,0,3.58,1,3.43,3.61C198.49,117.51,198.75,119.36,197.22,120.67Z"/><path class="cls-17" d="M243,224c-.22,1.16-1.14.95-1.91.95-10.82,0-21.64,0-32.45,0-.46,0-1.51.53-1.29-.78.35-.38.81-.29,1.24-.29,10.76.07,21.52-.39,32.28-.22A3.49,3.49,0,0,1,243,224Z"/><path class="cls-18" d="M114.9,210.46l37.8,0c-.51.83-1.34.8-2.15.78-6.35-.14-12.71-.07-19.07-.24-4.64-.13-9.35.2-14,.24C116.53,211.3,115.5,211.5,114.9,210.46Z"/><path class="cls-19" d="M243,224l-32.57.07c-1,0-2.05.05-3.08.07l-2.44-.16c.59-.88,1.34-.53,1.95-.53q17.15-.07,34.27-.08C241.82,223.37,242.68,223,243,224Z"/><path class="cls-20" d="M51.91,104.57a6.44,6.44,0,0,1,4.4-2.92.79.79,0,0,1,1.27,0c2,.79,3.89,2.12,6.28,1.73.76-.13,1.27.55,1.66,1.2a1.46,1.46,0,0,1-1.31.67A95.38,95.38,0,0,1,52.62,105,1,1,0,0,1,51.91,104.57Z"/><path class="cls-21" d="M82.31,210.48l27.22,0a2.5,2.5,0,0,1-1.77.75c-4.51-.11-9,.23-13.54-.24a34.51,34.51,0,0,0-8.06.06C84.85,211.26,83.44,211.64,82.31,210.48Z"/><path class="cls-22" d="M51.91,104.57l13.61,0c1.75,0,3.51,0,5.27.07.49,0,1.38-.27.87.84a1.62,1.62,0,0,1-1.4.46c-4.61,0-9.22,0-13.83,0a2.21,2.21,0,0,1-1.45-.4c-1.07,0-2.14,0-3.21-.06-.36,0-.79-.14-.75-.56S51.61,104.71,51.91,104.57Z"/><path class="cls-23" d="M63.71,98.24c1.83-3.28,4.93-3.31,7.87-2.69,3.33.71,5.52,3.07,6.58,6.55C74.2,97.49,70.09,93.58,63.71,98.24Z"/><path class="cls-24" d="M45.31,210.5h33c-2.21.94-4.59.53-6.84.51-4.24,0-8.47-.09-12.71,0-2.61.07-5.26-.17-7.89-.17a12.89,12.89,0,0,0-3.71.27C46.43,211.35,45.61,211.53,45.31,210.5Z"/><path class="cls-25" d="M213.43,209.94l.14-.45,31.05,0a4.35,4.35,0,0,1,1.74.08c1,.48.11.65-.25.86l-4-.14a4,4,0,0,0-2.56-.35Q226.5,209.94,213.43,209.94Z"/><path class="cls-26" d="M213.52,198.47l-3,2.33c-2.23-.24-2.78-1-1.87-2.68l2.57-2.31C212.75,196.08,213.23,197.19,213.52,198.47Z"/><path class="cls-27" d="M55,105.58l16.68-.07c.54.79-.06.89-.59.9q-7.48,0-15,0A1,1,0,0,1,55,105.58Z"/><path class="cls-28" d="M64.22,205.12l-.5-1-.09-24.6c0-.88-.05-1.76-.08-2.63l.18-.91c.92-.08.58.81.91,1.18a4.3,4.3,0,0,1,.51,2.76c0,7.32,0,14.64,0,22C65.14,203,65.38,204.3,64.22,205.12Z"/><path class="cls-29" d="M58.39,204.56a.49.49,0,0,0,0,.21,2.66,2.66,0,0,1-.27,3.07c-.56.7-1.48-.48-2.32-.5a1.12,1.12,0,0,1,0-.32A2.42,2.42,0,0,1,58.39,204.56Z"/><path class="cls-30" d="M84.39,104.82h6.3v.54A13.91,13.91,0,0,1,84.39,104.82Z"/><path class="cls-31" d="M202.07,138.59a8.09,8.09,0,0,1-3.21-3.38l3.55,3c0,.18.07.36.1.55Z"/><path class="cls-32" d="M197,223.18a3.6,3.6,0,0,1,3.17-.06A3,3,0,0,1,197,223.18Z"/><path class="cls-13" d="M217.91,202.51c.28.06,1.25-.79.69.34a15.68,15.68,0,0,1-2.33,2.8l-.07-.07a.59.59,0,0,1,0-.91l0,0c.5-.82,1.3-1.42,1.8-2.24Z"/><path class="cls-33" d="M81.52,104.83c-.84.12-1.67.84-2.85,0Z"/><path class="cls-34" d="M57.58,101.67l-1.27,0a3.1,3.1,0,0,1-.62-.13c-.21-.09-.4-.3,0-.33a23,23,0,0,1,2.35,0c.24,0,.68.08.15.4A1.71,1.71,0,0,1,57.58,101.67Z"/><path class="cls-15" d="M194.86,125.53a3.06,3.06,0,0,1-2.75,0Z"/><path class="cls-35" d="M158.82,163.7q0,22.2.08,44.39c0,1-.26,1.47-1.36,1.46-4.24-.05-8.49,0-12.73-.05-.26-.26-.45-.67-.77-.77-3.24-1.1-4.27-4-5.48-6.71a16.07,16.07,0,0,0-1.27-2.79c-2.62-3.82-1.75-8.29-2.45-12.46-.13-.82.46-1.53.38-2.35l.81-1.06c.46-.52-.23-1.14.13-1.67a2.31,2.31,0,0,0,.67-2.56c0-2.55,0-2.61,2.54-2.31a1.76,1.76,0,0,0,2.15-1.35c1.21-1.32.91-2.13-.83-2.45-1.61-.66-2.94-1.59-3.32-3.44-.14-.7-.64-.9-1.26-1a2,2,0,0,1-1.45-.86c-1.21-1.62-1.32-1.66-2.36.19s-3,2.6-3.79,4.44a5,5,0,0,1-1.38,1.07c-.62.51-1.45.4-2.12.75s-1.14,1.31-2.13,1.27c0-8.2,0-16.39-.06-24.59,0-1.29.32-1.7,1.66-1.85,5.48-.61,9.87-2.89,12.23-8.28.88-2,2.79-3.12,4.84-3.87a16.81,16.81,0,0,0,3,20.34A20.69,20.69,0,0,0,158.82,163.7Z"/><path class="cls-36" d="M167.66,149.21a1.73,1.73,0,0,1-.33,1.36c-.73,1.12-.59,1.26.87,1.26.53,0,.53,0,.52,1.31a8.89,8.89,0,0,1-2.08,8.9c-1.71,2-3.89,3.38-6.77,2.36a.89.89,0,0,1-.2-.94,4.19,4.19,0,0,1,2.41-1.4,7.49,7.49,0,0,0,4.67-7.49c-.11-1.09-1-1.75-1.44-2.67-.13-.29-.4-.34-.74-.27-1.45.28-3.82,3-3.89,4.59s0,2.93,0,4.39a3.23,3.23,0,0,1-.66,2.47c-.23.22-.35.53-.66.66l-.35-.29c0-2.19-.07-4.38.05-6.57s-.07-4-2-5.42l.16-.17c1.16.82,1.82,1,1.78-.9-.1-3.59-.06-7.18,0-10.77a3.72,3.72,0,0,0-1.55-3.46c1.82.21,1.48-.92,1.48-1.76,0-8.58,0-17.16.06-25.74a3.58,3.58,0,0,1,.65-2.79v47.26l5-3.66C165.61,148.78,166.58,148.34,167.66,149.21Z"/><path class="cls-36" d="M149.9,128l5.93,6.69c-1.66-1.39-4-3.79-6.35-6.24Z"/><path class="cls-36" d="M154,148.81a18.47,18.47,0,0,1-4.77-4.56,24.85,24.85,0,0,1,4.93,4.39Z"/><path class="cls-36" d="M157.07,151.46a8.65,8.65,0,0,1-3.08-2.65l.16-.17a10.31,10.31,0,0,1,3.08,2.65Z"/><path class="cls-37" d="M64.22,205.12q0-14.06.08-28.11a.81.81,0,0,1,.31-.46c2.58.75,5-.19,7.51-.61,1-.17.78-1.12,1.23-1.63,0,6.74,5.8,10.58,12.16,8.05a6,6,0,0,1,1.65-.54c.77-.07,1.69-.3,2.25.46s-.12,1.39-.44,2c-1.79,3.34-1.92,7-2.11,10.66a5.69,5.69,0,0,1-3.69,5.24c-2.36,1-2.54,2.75-2,4.87.38,1.49.73,3,1.1,4.47-.66,0-1.32-.05-2,0-1,.1-1.71,0-1.87-1.3-.1-.81-.8-1.33-1.64-1.76-1.94-1-3.27-2.75-4.67-4.38a5,5,0,0,0-1.64,2.22c-.22.67-1.14-.11-1.23.68,0,0,.08.12.13.13a2.7,2.7,0,0,0,.41.07,5.33,5.33,0,0,1-3.41,3.24,1.54,1.54,0,0,1-2.22-1.56A2.69,2.69,0,0,0,64.22,205.12Z"/><path class="cls-38" d="M64.61,176.55c-.11.15-.21.31-.31.46l-.57-1c.58-2.92-1.9-4.12-3.71-6,1.64.2,2.08,1.59,3.39,2a120.26,120.26,0,0,0,.21-13c0-.81-.74-1.23-1.25-1.73-1.4-1.4-2.82-2.77-4.12-4.28,2,1,3.09,2.89,5.34,4.38V141.21h.69v32.21l7.8-5.85.36.47c-2.07,1.62-4.06,3.36-6.23,4.82A3.17,3.17,0,0,0,64.61,176.55Z"/><path class="cls-38" d="M59.32,169.54a40.68,40.68,0,0,1-4.62-5Z"/><path class="cls-39" d="M135.22,184.42c.13.06.37.11.38.18a51,51,0,0,1,.55,7.87,5.18,5.18,0,0,0,.31,2.8c1.69,3.47,3,7.15,4.91,10.5.5.86,1,1.55,2.13,1.59,1.36,0,1.7.92,1.31,2.14a15.9,15.9,0,0,1-4.41.08c-2.55-1.49-4.13-4-6.17-5.74A11.44,11.44,0,0,0,136,207a1.44,1.44,0,0,1-.45,2.5l-2.19,0c-2-1.23-3-3.3-4.11-5.19a1.13,1.13,0,0,1,.13-1.41,3.56,3.56,0,0,0,1.39-3.45,24.33,24.33,0,0,1,.79-7.4,9.4,9.4,0,0,0-.15-6c-.49-1.16-.33-1.87,1.2-1.5A4.53,4.53,0,0,0,135.22,184.42Z"/><path class="cls-40" d="M129.39,202.94c.94,2.43,3.07,4.14,4,6.6l-10.52-.06a43,43,0,0,1-.06-10.08l.44-.87C125.16,200.17,126.48,202.67,129.39,202.94Z"/><path class="cls-41" d="M125,174.2c.29-.78,1-.91,1.68-1.21,3.1,2.15,5.94,4.66,9.16,6.66a1.4,1.4,0,0,1,.64,2c-.09.57,0,1.19-.46,1.66a3.08,3.08,0,0,0-1.62-2A35.83,35.83,0,0,1,125,174.2Z"/><path class="cls-37" d="M159.87,164.07c5-.4,7.56-2.73,8.3-7.69.16-1.08.37-2.16.55-3.24a2.9,2.9,0,0,0,2.51-.43c4-2.85,9-3.36,13-6.26,1.63-1.19.84,1.26,1.54,1.7l-.21,9.62a108.9,108.9,0,0,0-6.21,15.67,7.74,7.74,0,0,0,0,4.76c1,2,.33,4,.12,6-.47,4.7-1.42,9.33-1.92,14-.24,1.27-.9,2.4-1.26,3.64-.48,1.49-1.68,1.84-3.05,1.95a23.15,23.15,0,0,1-5.81-.56,2.5,2.5,0,0,0-2.59.6c-.23.87-.26.92.57,1.36a79.8,79.8,0,0,1,7.56,4.31H159.82c-.39-.52-.23-1.13-.24-1.7q0-21,0-42.05C159.59,165.18,159.4,164.56,159.87,164.07Z"/><path class="cls-35" d="M208.7,198.12c-.36,1.59,1,1.93,1.87,2.68-.24.8.33,1.39.55,2.06.83,2.56.32,3.53-2.33,3.92-1.47.21-2.12.82-1.85,2.3-.54.72-1.34.45-2,.46q-12.49,0-25,0c-.75,0-1.87.5-2.06-.91-.73-2.11.75-3.83,1-5.76,1.28-1,.71-2.52.88-3.82a5.64,5.64,0,0,0,2.73-3.25,56.53,56.53,0,0,0,3.73-11.4,4.32,4.32,0,0,1,1.36-2.66c1.85-2.31,2.62-5.21,4.31-7.9,1.72,3.32,3,6.76,5.48,9.47,2.73,4.52,5.9,8.74,9,13C206.92,197.12,207.5,198.06,208.7,198.12Z"/><path class="cls-42" d="M187.54,181.75a56.88,56.88,0,0,1-4.9,15.84c-.63,1.41-1.43,2.14-3,1.92-1.28.6-2.09.12-2.57-1.11-1-1.4-.19-2.85,0-4.23.67-5.33,1.48-10.65,2.24-16A14.17,14.17,0,0,0,187.54,181.75Z"/><path class="cls-35" d="M121.94,199.41c0,2.78-.06,5.56,0,8.34,0,1.23-.22,1.88-1.66,1.86-8.26-.08-16.53-.08-24.79-.11.4-.76,1.5-1.71-.24-2.11A2.78,2.78,0,0,1,92.9,204c.22-1.72,1.17-3.35,3-3.65a10.94,10.94,0,0,0,5.89-3.06c2.64-2.44,5.63-2.13,8.58-.79A29.44,29.44,0,0,0,121.94,199.41Z"/><path class="cls-43" d="M92,209.47l-6.21,0a2.67,2.67,0,0,0-.75-2.17,2,2,0,0,1,.3-3.24,22.71,22.71,0,0,1,5.83-3.31c0,.26,0,.36,0,.39-3.25,2.54-3.26,2.57-.46,5.91C91.28,207.79,92.1,208.37,92,209.47Z"/><path class="cls-44" d="M122.79,199.4l.06,10.08c-.95-.14-.45-.87-.46-1.3,0-2.91,0-5.83,0-8.74A.53.53,0,0,1,122.79,199.4Z"/><path class="cls-45" d="M179.05,203c1,1.25-.15,2.28-.37,3.39a14.34,14.34,0,0,1-.84,2.23c-.68,2-1.89.56-2.9.45-1.65-.93-3.44-1.62-5-2.66l-5.1-2.6c-.55-2.18,1-1.87,2.14-1.64a40.75,40.75,0,0,0,6.22.92c1.2.06,2.16-.19,2.5-1.52C177.31,200.83,178.34,201.53,179.05,203Z"/><path class="cls-46" d="M135.56,209.51c.43-.9.64-1.49-.45-2.36-1.61-1.28-1.57-3.62-2.43-5.51,2.8,2.46,5.76,4.7,7.72,7.94Z"/><path class="cls-47" d="M159.87,164.07q0,22.71-.05,45.43c-.94-.5-.46-1.38-.46-2.06q-.06-21.84,0-43.7l.51-.56,0,.06Z"/><path class="cls-37" d="M169.9,206.43a15.26,15.26,0,0,1,5,2.66A12.83,12.83,0,0,1,169.9,206.43Z"/><path class="cls-48" d="M216.19,204.67c0,.3,0,.6,0,.91-1,.25-1.22,1.39-2.06,1.82l-.38.16.14-.39A5.83,5.83,0,0,1,216.19,204.67Z"/><path class="cls-49" d="M218,202.46a3.31,3.31,0,0,1-1.8,2.24A2.9,2.9,0,0,1,218,202.46Z"/><path class="cls-50" d="M214.14,207.4a6,6,0,0,1-2,2.3,5.88,5.88,0,0,1,1.81-2.53A.53.53,0,0,0,214.14,207.4Z"/><path class="cls-51" d="M64.16,206.87c1.37,2.33,2.84.75,3.64-.28.61-.77,1.36-.91,2-1.4.81.16,1.72.42,1.71,1.35s-.88.72-1.59.45c.19.86,1,.84,1.26,1.31a1.45,1.45,0,0,1,.3.75c0,.35-.38.35-.68.35-3.05,0-6.11-.07-9.17-.13-.18,0-.36-.21-.68-.4A7.35,7.35,0,0,1,64.16,206.87Z"/><path class="cls-52" d="M128.11,172.45a1.56,1.56,0,0,1,.77-2.19,7.58,7.58,0,0,0,3.22-3.71c.34-.78.83-1.63,1.93-1.46s1.09,1,1.11,1.84.42,1.11,1.27.86c1.31-.38,2,.15,1.79,1.53-.33,2.15,2,2,2.69,3.25a3.14,3.14,0,0,1,.83,3.08c.74.63,1.07,1.2-.08,1.77-.7.34-1.54.65-2.11.32-1.85-1.07-2.21-.12-2.27,1.45a1.69,1.69,0,0,1-1.67-.17,31.64,31.64,0,0,1-6.78-4.74C128.33,173.79,127.62,173.33,128.11,172.45Z"/><path class="cls-53" d="M128.11,172.45c2.44,3.07,6,4.56,9.15,6.74.79,1.15,1.53,2.29-.77,2.51-.35-1.58-1.84-1.9-2.93-2.66-2.54-1.74-5.42-3.09-6.87-6C126.92,172.17,127.33,171.84,128.11,172.45Z"/><path class="cls-54" d="M141.72,175.65c-1.18-.78-.95-2-.83-3.08,1,.06,2.41-.48,2.64,1C143.68,174.63,143.26,175.79,141.72,175.65Z"/><path class="cls-55" d="M159.83,163.18c0-2.19.16-4.4,0-6.58a4.05,4.05,0,0,1,2.25-4.29c1.32-.75,2.39-1.91,4.09-2.6-.32,1.46-.2,2.68,1.15,3.4.37.2.34.6.39,1a8.05,8.05,0,0,1-7.82,9.17Z"/><path class="cls-56" d="M179.05,203l-3.39-1.43c.21-1.18.18-2.47,1.43-3.19l2.57,1.11c.34.57,1.62.11,1.45,1C180.89,201.6,180.49,202.81,179.05,203Z"/><path class="cls-57" d="M135.72,172.16c-.15-.14-.41-.25-.41-.39a.51.51,0,0,1,.54-.53.6.6,0,0,1,.43.36C136.38,172,136,172,135.72,172.16Z"/><path class="cls-58" d="M90.62,60.62H29.11c3.85-1.61,7-3.33,9.41-6.71,2.53-3.57,6.22-4.27,10-2.08,3.62,2.08,5.27.75,7.33-2.51C61.42,40.57,70.48,40,77.5,47.73,81.48,52.1,86.8,55,90.62,60.62Z"/><path class="cls-58" d="M63.78,53.91H0A51.3,51.3,0,0,0,9.76,52.4a26.49,26.49,0,0,1,10.41-.47c3.75.47,5.47.17,7.6-.57,5.74-2,15.13-2.1,22.41-.36C54.31,52,59.82,52.64,63.78,53.91Z"/><circle class="cls-59" cx="215.64" cy="51.47" r="29.33"/><path class="cls-58" d="M226.43,84H166.21c3.77-1.57,6.87-3.26,9.21-6.56,2.49-3.51,6.1-4.19,9.84-2,3.53,2,5.15.73,7.17-2.46,5.42-8.57,14.28-9.12,21.16-1.56C217.48,75.61,222.69,78.42,226.43,84Z"/></g></g></svg>