<svg xmlns="http://www.w3.org/2000/svg" viewBox="0 0 314.83 258"><defs><style>.cls-1{fill:#d1d8d8;}.cls-2{fill:#b9bac7;}.cls-3{fill:#efecdf;}.cls-4{fill:#efd9e1;}.cls-5{fill:#c1c2cc;}.cls-6{fill:#f4f0f8;}.cls-7{fill:#f9f7f6;}.cls-8{fill:#fecf3e;}.cls-9{fill:#f0d8e2;}.cls-10{fill:#484168;}.cls-11{fill:#fac93a;}.cls-12{fill:#fbfafa;}.cls-13{fill:#8c6982;}.cls-14{fill:#786d82;}.cls-15{fill:#fea063;}.cls-16{fill:#484468;}.cls-17{fill:#f4f1f8;}.cls-18{fill:#49446b;}.cls-19{fill:#fcd043;}.cls-20{fill:#fd9485;}.cls-21{fill:#f0ad53;}.cls-22{fill:#453f64;}.cls-23{fill:#fbfbfc;}.cls-24{fill:#f2dce4;}.cls-25{fill:#f0dee3;}.cls-26{fill:#fcfcfc;}.cls-27{fill:#f9f8f8;}.cls-28{fill:#f9ae72;}.cls-29{fill:#9792a4;}.cls-30{fill:#fe8d77;}.cls-31{fill:#fbfaf9;}.cls-32{fill:#fd9578;}.cls-33{fill:#f9e6a3;}.cls-34{fill:#6c6772;}.cls-35{fill:#f8e5d8;}.cls-36{fill:#facb4f;}.cls-37{fill:#f2ced9;}.cls-38{fill:#c3952c;}.cls-39{fill:#eecfbb;}.cls-40{fill:#e7d5d3;}.cls-41{fill:#b0abbd;}</style></defs><title>training03</title><g id="图层_2" data-name="图层 2"><g id="图层_1-2" data-name="图层 1"><path class="cls-1" d="M314.83,244.13v13.08c-2.48,1.27-5.15.62-7.71.62q-147.75.06-295.48,0c-12.17,0-12.17,0-11.32-12.3,2.36-2.29,5.34-1.34,8.07-1.4,39.54-.85,79.09-.61,118.62-.78a35.48,35.48,0,0,1,6.17-.73,11.11,11.11,0,0,1,1.9-.33c1-.09,1.93-.12,2.9-.2,1.33-.21,2.67.11,4-.18a75.23,75.23,0,0,1,16.77-.07,16.19,16.19,0,0,0,3.81.19c.58.07,1.16.14,1.74.18s1.14,0,1.7.06c1.88.06,3-1.76,4.77-2a12.63,12.63,0,0,1,2-.12c8.6.12,17.2-.44,25.77.39a183,183,0,0,1,35.72-.15c7.87.85,15.29-1.06,22.92-.37,3.68.34,7.36.3,10.87,1.61,4.66,1.1,9.47-.1,14.14.87,8.4,3.2,17.07,1.19,25.63,1.24C310.2,243.8,312.55,243,314.83,244.13Z"/><path class="cls-2" d="M314.83,244.13a153.55,153.55,0,0,1-26.51,1.29c-2.12,0-4.38.47-6.18-1.24.43-1.23,1.1-2,2.54-1.4l30.15,0Z"/><path class="cls-3" d="M100.18,80.54c6-10.85,12.68-21.65,21.89-29.7A203.89,203.89,0,0,0,141.48,31c4.51-5.15,11.93-6,17.81-9.18,1.71-.93,3.78-1.35,5.25-2.54C179.29,7.37,197.26,4.94,215.07,2.12A194.66,194.66,0,0,1,260.33.67c11.82.89,21.83,9.79,24.85,20.75,2.79,10.12,1.78,20.22,2,30.28.39,20.39,1.38,40.81,1.07,61.16-.22,14.73-.87,29.5-.65,44.24.17,11-2.32,22.36-.78,32.84,2.17,14.76-2.15,29.45,1.6,43.91.88,3.42-.58,5.93-3.54,7.66-3.4.44-6.77,1.31-10.25.71-2-1.75-2.7-4.31-3.86-6.59-1.83-13.53-5.55-26.63-8.9-39.82-1.75-6.67-1.4-13.55-2-20.33-.27-2.94,0-6-2.31-8.42a9.62,9.62,0,0,1-2.91-7.49c0-.42.07-.85.08-1.28.09-3.2,4.54-6.15.94-9.44-2.9-2.65-12-2.84-15.26-.49-2.47,1.78-5.41,2.58-8.18,4.34,2.49,3.9,5.88,3,9.2,2.16,5.19-1.31,9.37,0,12.45,4.52a2.75,2.75,0,0,1-.19,1.92c-6,7.68-6,16.45-4.62,25.47.52,3.09.21,6.25.92,9.32.95,4.41.91,8.92,1.5,13.36.38,2.81-.12,5.59-2.8,7.37-4,1.28-6.33-1.57-8.06-4a17.44,17.44,0,0,0-7.76-6.14c-1.47-4.95-.35-10-.22-14.91.28-11.48-5.29-19.41-14.25-25.58-1.43-1-3-1.75-4.44-2.76-6.09-4.34-7.76-9.46-4-15.81,9.77-16.33,5.49-32.31-.6-48.27-1.89-5-5.45-8.37-11.37-8.23s-8.6,4.4-10.91,9-1.93,9.3-2,14.09c-.16,11.7-4.88,17.69-16.5,21a34,34,0,0,1-13.08-5.42c-4.86-3.26-10.14-5.6-16.36-5.73-10.95-.25-20.78-5-31-8.37-4.67-1.53-9.65-1.78-12.69-6.74s-2.47-8,3.38-9.66a162.08,162.08,0,0,1,36.69-5.61c-3.57-.83-7.06-.07-10.52-.29C114.25,93.9,108,85.63,100.18,80.54Z"/><path class="cls-3" d="M41.33,242.75q-14.55-47.43,7.92-91.65c5.21-10.21,9.07-21.21,16.87-30,2.35-3.43,4.62-2.17,6.64.26a13.7,13.7,0,0,1,3.18,8.8c-1.14,6.62-2.46,13.21-2.31,20a9.24,9.24,0,0,1-4.1,7.81c-12.49,9.15-15.84,20.7-9.3,34.91a7.17,7.17,0,0,1,.56,3.84c-1.5,3.53-1.36,7.13-.58,10.81,2.08,9.84,5.33,19.16,11,27.62,1.7,2.55,5,5.78.14,8.75-8.41.41-16.81.11-25.21.16C44.41,244.11,42.62,244.28,41.33,242.75Z"/><path class="cls-4" d="M74.19,130.72c-2.15-3.66-.13-10.81-8.07-9.59,1.83-6.64,6.9-11.54,9.51-17.74,1.32-3.13,3.75-5.79,3.27-9.7-.35-2.91,2.36-2.44,4.23-2.62q14,0,27.92,0c4.65,0,9.3,3.14,14,0,4.33,0,8.65,0,13,0,1.49,0,3.39-.12,3.53,1.93.13,1.84-1.61,2.45-3.08,2.84a13.21,13.21,0,0,1-3.86.4c-12.48-.53-24.37,3-36.43,5.29-2,.39-4,2.39-2.74,3.12,3.18,1.84,2.67,8.56,8.55,6.5,1.51-.53,2.3.85,3.44,1.31,3.52,1.44,6.69,4.33,11,2.91.56-.18,1.57-.22,1.83.1,6.43,8,15.68,4.63,23.75,5.85,3.19.48,5.44,2.62,8.15,3.91,5.5,2.62,10.74,5.78,16.09,8.71a11.91,11.91,0,0,1-4.49,10.54c-4,1.76-7.56.51-11-1.48-3-1.72-6.17-3.14-8.92-5.1-4.65-3.31-7.2-1.72-9.09,2.85-3.12,1.13-4-1.69-5.52-3.23-4.25-4.29-6.15-4.41-10.76-.28-1.59,1.42-3,3.07-5.26,3.45-6.86.26-10.4-4-13.16-9.22.47-1.13-.3-.74-.28-.64.33,2.24-.83,3.55-2.92,4.18-2.53.14-3.66-1.8-5.06-3.39-5.34-6.07-6.31-6.22-13.39-2.1C77.05,130.27,75.81,131.13,74.19,130.72Z"/><path class="cls-5" d="M41.33,242.75l31.4-.06c7.63-2.29,8.19-8,7.92-14.8s-1.12-13.49.89-20.12a4.47,4.47,0,0,1,1.39-1.8,2.08,2.08,0,0,1,2.11.37c3.13,4,1.86,8.77,2,13.25.19,5,0,10,.06,15,0,3.8,1.75,5.56,5.57,5.55,7.19,0,14.37,0,21.56,0,3.86,0,5.46-1.89,5.48-5.64,0-3.23-.33-6.58,1.64-9.49a2.32,2.32,0,0,1,1.85-.92c3.68,2.16,2.82,5.89,3,9.15.15,3.53.35,6.85,3.9,8.79a1.68,1.68,0,0,1,.22,1.93c-1.68,1.93-4,1.47-6.09,1.47q-61.7,0-123.38,0c0-.84-.07-1.68-.1-2.52Z"/><path class="cls-6" d="M125,91.05c-1.17,2.31-3.27,2.59-5.55,2.59-11.11,0-22.22,0-33.33,0-1.66,0-3.88.45-3-2.58,2.83-3.57,4.65-8.45,11.2-5.16,1.76.89,4.21-3.09,5.85-5.37,4.44-.4,7.73,1.68,10.65,4.78C114.65,89.38,119.17,91.88,125,91.05Z"/><path class="cls-7" d="M274.26,241.38c3.54-.38,7.1-2.76,10.6.13l-.18,1.27-2.54,1.4-14.3-.14c-.59-1.64.16-2.72,1.49-3.56C271.16,239.8,272.87,239.74,274.26,241.38Z"/><path class="cls-8" d="M113.68,139.66c1.48-1.83,2.87-3.74,4.46-5.46,3.45-3.7,8.62-3.31,12.09,1,1.45,1.79,2.61,3.83,3.91,5.76,3.39,1.33,3,4.64,3.81,7.3a39.16,39.16,0,0,0,5.68,13.7,43.9,43.9,0,0,1,6.91,23.46c.05,2.18,0,4.36.9,6.41.85,3.5,1.26,7-1.37,10-5.79,1.82-7,6.07-6.77,11.62.37,7.6.18,15.21.06,22.82-.05,3,.16,6.22-3.26,7.88l-2.81,0c-3-2-3.46-5.77-5.83-8.22-.65-3.79-1-7.58.41-11.3a6.52,6.52,0,0,0,1.78-6.76,3.11,3.11,0,0,1-2,.49,3.18,3.18,0,0,1-1.22-1.11c-1.16-1.46-.21-3.86-2.25-4.87-2.8,1-6.14,4.72-7.54-1.42a35.74,35.74,0,0,0,.45-6.88c-.19,2,.66,4.68-2.6,5.58-6.06-1.21-9.19-5-9.59-11.06.28-2.65,1.69-4.85,2.94-7.1,5.54-10,5.85-19.66-1.61-28.92a11.56,11.56,0,0,1-2.62-5.14C108.19,151,106.86,143.93,113.68,139.66Z"/><path class="cls-9" d="M269,241.75,267.84,244c-2.84-1.48-5.91-1.24-8.95-1.25l-60.71-.15c-2.05-2.06-2.16-4.52-1.51-7.15a9.68,9.68,0,0,1,2.11-3.56c2.81-2.25,6.4-2.62,9.61-3.89,8.59-3.42,14.8-9.75,20.74-16.46a18,18,0,0,0,3.72-3.72l.8-.38c3-4,5.38-4.78,6.61,1.23.79,3.82,5.45,4.66,6.63,8.24.49,5.53-4.49,8.23-6.45,12.5-.43.75-1.06,1.38-1.48,2.14-.52.93-1.4,2.2-.06,2.78s1.45-1.25,2.18-2c5-6.7,11.95-11.79,15.16-20,1.51-3.83,4.44-3.37,6.41.65,1.73,3.53,2,7.48,2.65,11.29.73,4,1.56,8.05,2.64,12C268.22,238.18,269,239.9,269,241.75Z"/><path class="cls-10" d="M140.1,244.08q.14-16.61.28-33.21c.1-9.62.12-9.62,9.42-10.15,4-3.05,8.06-3.18,12.19-.25a4.7,4.7,0,0,1,1.17,2.95c-.46,12.29.65,24.61-.82,36.88a8.27,8.27,0,0,1-1.27,3.62C154.09,245.05,147.09,244.52,140.1,244.08Z"/><path class="cls-11" d="M161.07,243.92c-1.07-14.27-.6-28.52.28-42.77,5.89-2.76,10.72-.14,11.76,6.91a68,68,0,0,1,0,17.57c-.56,5.18,2.5,11-2.54,15.39l-.33,0-.3.13c-3.48-1.87-4.12,2.22-6.33,3Z"/><path class="cls-12" d="M170.61,241q.18-7.74.37-15.48c2.09-1.5,4.23-.77,6.13.19,5.7,2.84,11.82,3.94,18,4.68,2.22.7,4.6,1.28,3.23,4.52l-.21,7.72c-7.25,0-14.51.11-21.76.12C174.33,242.77,172.07,243.18,170.61,241Z"/><path class="cls-13" d="M132.91,236c4.21,1.22,3.37,5.16,4.38,8.1l-3.15.07a7.22,7.22,0,0,1-.62-1,4.66,4.66,0,0,0,.7.95c-1.38,2-2.61.13-3.9-.15a3.13,3.13,0,0,0-.27-1.28c-1.86-2.46-1.53-4.66.8-6.61A2.21,2.21,0,0,1,132.91,236Z"/><path class="cls-14" d="M163.65,244.13c.11-1.06.21-2.13.34-3.2.25-2,.63-4.27,3.06-4.15,2.28.11,2.79,2.32,2.92,4.35-.61,2.27-1,4.9-4.43,3,.54-.68-.12.26.4-.44,0,.21-.22.34-.31.52Z"/><path class="cls-15" d="M230.88,212.68c-6.13,7.93-13.37,14.51-22.95,18-2.58.94-5.25,2-8.16,1.36-3.25-3.25-3.05-7.33-.09-9.8,4.67-3.9,7.63-9.17,11.48-12.62-2.65,2.14-4.52,6-7.52,8.86-1,1-2,2.72-3.73,2.06-2-.76-1.72-2.67-1.68-4.48.24-10.25,0-20.5.1-28.44,0,6.58,0,15.46,0,24.35,0,1.69.43,3.86-1.56,4.6s-3.28-1.09-4.17-2.48c-4.32-6.76-9.82-12.79-12.68-20.47.64-6.85-1.12-12.68-6.64-17.23-3.69-3-4.4-7.73-5.85-12s-4.31-8.07-5.34-12.55c-.67-2.91-1.84-6,1.22-8.38,1.16-3.43,2.19-6.92,4.91-9.54,2.21-1.35,4.37-2.81,6.65-4,5.76-3.1,8.44-7.57,7.84-14.34-.65-7.44,0-14.74,4.64-21.18,6-8.27,17.66-8.92,22.16.17,8.64,17.44,14.18,35.68,2.2,54.26-2.94,4.57-3,9.25,2.16,11.68,20.73,9.87,24.23,26.68,19.8,47h0C232.66,209.17,232.6,211.37,230.88,212.68Z"/><path class="cls-16" d="M266.23,238.21c-3.66-8.93-3-19-7.15-28-1.67,11.1-10.24,16.9-17.17,23.89-4.14.33-3.64-2.62-3.69-5.19L246.89,217c3.34-2,2.59-5.21,2.16-8.17-.64-4.29-1.5-8.56-1.11-12.94,5.45-3.85,10-3.87,15.71-.05A142,142,0,0,1,272.58,236C271.49,239.68,269,239.4,266.23,238.21Z"/><path class="cls-17" d="M274.37,60.22H214.16c3.77-1.57,6.87-3.26,9.21-6.56,2.48-3.51,6.09-4.19,9.83-2,3.54,2,5.16.73,7.18-2.46,5.42-8.57,14.28-9.12,21.16-1.56C265.43,51.88,270.64,54.69,274.37,60.22Z"/><path class="cls-18" d="M253.51,159.47c-1.44-.32-3.36.4-4.24-1.07-2.17-3.63-4.79-2.6-7.7-1.23-3.81,1.78-7.56,2.16-10.61-1.53-1.21-1.47-3.33-2.88-2.62-4.89s3.06-.66,4.65-1c.62-.15,1.56,0,1.86-.39,5.51-7,12-5.13,19.53-3.73,5.66,1,5.54,3,5,6.9-.4,2.69-2,4.73-3.72,6.73A1.62,1.62,0,0,1,253.51,159.47Z"/><path class="cls-19" d="M263.65,195.79l-15.71.05c-1.67-3-.79-6.16-.89-9.28a1.75,1.75,0,0,1,.25-.59c2.93-2.84,5.75-8.77,6.57-13.42.52-3,1-6.11,4.75-6.93,2.64,1.64,3.53,4.23,3.71,7.11C262.81,180.41,263.21,188.1,263.65,195.79Z"/><path class="cls-20" d="M258.62,165.62c-3.43,6.27-4.8,12.54.23,18.86-3.77,1.83-8.24-.47-11.8,2.08-.47-3.62-1.22-7.22-1.36-10.86-.25-6.69,2.64-12,7.82-16.23l2.13-.25C256.63,161.35,257.63,163.48,258.62,165.62Z"/><path class="cls-21" d="M266.23,238.21l6.35-2.2c1,1.65,3.44,2.86,1.68,5.37l-5.26.37C266.79,241.57,266.17,240.16,266.23,238.21Z"/><path class="cls-22" d="M109.24,157.62c11.9,13.17,12.19,24.45,1,40.59-1.16,4.72-4.68,7-8.88,8.61a24.22,24.22,0,0,1-8,2.31c-4.69.54-8.12-.86-8.81-6.12-.13-4.12,0-8.25-.06-11.63-.74,4.45,1.31,9.84-1.1,14.91a1.78,1.78,0,0,0-.22,1.13c-7.82,4.58-20.74-1.08-23.65-10.37-1.21-2.74-2.59-5.42-3.58-8.24a27.14,27.14,0,0,1,11.44-32.36c2.79-1.76,3.9-3.46,3.65-6.67a38.33,38.33,0,0,1,3.19-19.06c9.22-10.26,13.93-9.49,21.87,3.58,3.18,1.64,3.83,4.66,3.78,7.76-.09,5.08.57,9.49,6.2,11.54C107.68,154.19,108.28,156.18,109.24,157.62Z"/><path class="cls-23" d="M59.49,197.05c6.7,6.15,13.66,11.7,23.65,10.37,0,8.49,0,17-.08,25.49-.13,9.79,2.4,10.19-10.33,9.78-6.92-11.06-13.12-22.44-15.2-35.56C57,203.57,55.6,199.78,59.49,197.05Z"/><path class="cls-24" d="M163.29,143.48c0,5.63,1,11,4.64,15.52a6.1,6.1,0,0,1,1.58,5.26,7.75,7.75,0,0,1-7.76,6c-4.65-1.94-6.69-6.47-9.68-10-4.49-5.32-9.21-10.16-16.36-11.68q-.79-3.81-1.57-7.64a27.31,27.31,0,0,1,.33-5.14c.93-3.73,2.56-5,6.36-2.29,4.7,3.32,9.9,5.92,14.89,8.82C158.08,143.69,160.73,143.28,163.29,143.48Z"/><path class="cls-25" d="M109.24,157.62c-3.06-1.05-5.41-3.55-8.75-4.11-3-.49-2.63-3-2.57-5.14a42.1,42.1,0,0,0-1.86-14.07c2.23-1,2.93-2.94,2.9-6,4.93,4.71,7.89,10.68,14.72,11.37C111.14,145.38,110.2,151.51,109.24,157.62Z"/><path class="cls-26" d="M85.88,203.39c0,2.94,1.92,3.5,4.35,3.57,4,.11,7.66-1.18,11.44-2,2.32,1.2,3,3.53,4,5.68a20,20,0,0,0,4.69,6.9c1.93,1.73,4.06,4,6.67,3.36,2.93-.74,1.23-4.14,2.17-6.18.51-1.54.64-3.44,3.06-3.09.39,1.91,1.37,1.71,2.55.69,1.41-1.22,2.8-2.45,4.2-3.68,3.27.76,1.18,3,.55,3.75-2.94,3.72-4.43,8.23-7,12.15,0,4.58-.22,9.16-.11,13.73.07,3.39-1.38,4.63-4.7,4.59-9.59-.12-19.19-.17-28.78,0-4.06.08-4.61-2.06-4.58-5.33.06-10.47,0-20.93,0-31.4C83.61,204.53,83.57,203.32,85.88,203.39Z"/><path class="cls-27" d="M131.78,236.16c-2.05,1.78-1.95,4.13-1.73,6.51-4.55.82-6.85-.68-6.44-5.71.33-4,.14-8.09.18-12.14,1.61-3.29,3.13-6.68,7.65-6.59l0,0c3.2,2.49,1,5.53.84,8.36C132,229.74,132.71,233,131.78,236.16Z"/><path class="cls-28" d="M131.44,218.23c-2.57,2.17-3.45,6.31-7.65,6.59a4.16,4.16,0,0,0-1.19-.3c-1-4.82.44-8.69,4.18-11.92,1.09-.94,3.26-1.69,2.23-4,2.43-1.38,2.46.54,2.51,2C131.61,213.14,131.48,215.68,131.44,218.23Z"/><path class="cls-29" d="M85.88,203.39l-1.49,2.74a5.14,5.14,0,0,1-1,.16V180.73l2.52,0Z"/><path class="cls-30" d="M161.64,169.49l7.87-5.23a27.88,27.88,0,0,0,8.67,13.8,12.51,12.51,0,0,1,3.06,15.35c3.25,9.31,9.73,16.6,15.46,24.33,3.39,4.58,2.27,12.18-2.52,14.44-8.53.56-15.89-2.94-23.2-6.64,0-5.15,0-10.3-.12-15.44-.14-6.75-2.41-8.84-9.51-8.95l-11.55-.43a26,26,0,0,0-.81-9c1.36-6.56,2.68-13.14,7.17-18.49C157.62,171.49,158.61,169,161.64,169.49Z"/><path class="cls-31" d="M161.64,169.49c-6,6.39-8.28,14.91-12.65,22.23-.6-12.06-2.78-23.59-10.6-33.39-2.22-2.79-2.14-6.41-2.68-9.77,2-3,4.17-1.84,6.54-.34C150.64,153.57,156.06,161.6,161.64,169.49Z"/><path class="cls-32" d="M120.89,215.29c-.5,3,2,7.28-1.66,8.76s-7-1.51-9.75-3.88c-4.68-4-6.91-9.28-7.81-15.23l8.6-6.73c.61,5.34,4.79,8,8.37,11.12C122.26,210.24,119.41,213.58,120.89,215.29Z"/><path class="cls-33" d="M120.89,215.29l-2.25-6c3.13-4.17-.3-9.57,2.82-14.94,1.67,6.4,1,11.83.8,17.23C121.8,212.84,121.34,214.06,120.89,215.29Z"/><path class="cls-28" d="M131.78,236.16q-.19-9-.38-18l2.38-2.79c1.41,2.92,2.11,5.88.54,9-2.78,3.61-.94,7.77-1.41,11.65A2.41,2.41,0,0,1,131.78,236.16Z"/><path class="cls-34" d="M134.32,224.36l-.54-9c.45-1.42.67-3,3.19-3.18a22,22,0,0,0-.37,10.57C136.9,224.07,135.47,224.36,134.32,224.36Z"/><path class="cls-35" d="M194.18,232.18c5-4.24,3.65-9.31,1-13.8-3.91-6.69-8.61-12.92-12.79-19.46-1-1.56-3.57-3.1-1.18-5.51q7.29,11,14.59,22l1.3-.43V176.84l1.83-.05c1.77,14-.18,28.24,1.16,43.78l15.8-18.2c-1.88,6.63-6.54,11.31-11,15.85-4,4.08-6.06,8.23-5.15,13.82l-1.38,2.89C198,232.45,196,232.51,194.18,232.18Z"/><path class="cls-36" d="M238.22,228.88c.31,2.38,2.19,3.65,3.69,5.19-.23,1.85-.47,3.71-.8,6.35C236.46,236.84,233.74,233.73,238.22,228.88Z"/><path class="cls-37" d="M230.88,212.68a10.77,10.77,0,0,1,2.78-5.21C233.76,209.75,233.32,211.75,230.88,212.68Z"/><path class="cls-38" d="M149.62,212.66c-.5,1.23-1.32,1.43-2.14,1.11-.45-.17-1.06-.89-1-1.24.22-1,1.16-1.14,2-.87C149,211.81,149.3,212.36,149.62,212.66Z"/><path class="cls-39" d="M134.22,244.1c-2.42-1-3.31-2.56-1.59-5,2.56,1.18,1,3.45,1.51,5.11Z"/><path class="cls-40" d="M165.63,244.21c.36-1.68-1.17-3.88,1.67-5.16,1.08,2.4.79,4.08-1.76,5.08Z"/><path class="cls-41" d="M93.48,192.48c-.12,3.65-1.61,5.17-3.36,7.71C90,196.78,91.42,195.14,93.48,192.48Z"/></g></g></svg>