<svg xmlns="http://www.w3.org/2000/svg" viewBox="0 0 245.04 245.01"><defs><style>.cls-1{fill:#fefefe;}.cls-2{fill:#2b2d41;}.cls-3{fill:#f9a600;}.cls-4{fill:#fecf3e;}.cls-5{fill:#feac00;}.cls-6{fill:#fbfbf9;}.cls-7{fill:#6f6c71;}.cls-8{fill:#fd864b;}.cls-9{fill:#fd844b;}.cls-10{fill:#fc7f45;}.cls-11{fill:#fcfbfb;}.cls-12{fill:#edeaec;}.cls-13{fill:#2d2f42;}.cls-14{fill:#3f3e47;}.cls-15{fill:#fa884d;}.cls-16{fill:#2f2c3e;}.cls-17{fill:#e9e8ea;}.cls-18{fill:#ece9eb;}.cls-19{fill:#444347;}.cls-20{fill:#efeded;}.cls-21{fill:#eeebec;}.cls-22{fill:#6d6a6b;}.cls-23{fill:#f6f4f1;}.cls-24{fill:#f1eff1;}.cls-25{fill:#757275;}.cls-26{fill:#f9f8f7;}.cls-27{fill:#f2edee;}.cls-28{fill:#332f37;}.cls-29{fill:#72717c;}.cls-30{fill:#726e6f;}.cls-31{fill:#926012;}.cls-32{fill:#676063;}.cls-33{fill:#686266;}.cls-34{fill:#706c6e;}.cls-35{fill:#d1c9c9;}.cls-36{fill:#633f16;}.cls-37{fill:#d1c9c8;}.cls-38{fill:#643d0b;}.cls-39{fill:#fbfbfb;}.cls-40{fill:#cfc7c7;}.cls-41{fill:#d39a21;}.cls-42{fill:#fd8549;}.cls-43{fill:#d2c8ca;}.cls-44{fill:#272328;}.cls-45{fill:#2c2c40;}.cls-46{fill:#d3cdcd;}.cls-47{fill:#312f3c;}.cls-48{fill:#9596a3;}.cls-49{fill:#9e9fad;}.cls-50{fill:#acaab5;}.cls-51{fill:#676369;}.cls-52{fill:#fbfbfc;}.cls-53{fill:#3e3437;}.cls-54{fill:#423845;}.cls-55{fill:#f8a602;}.cls-56{fill:#faf9f8;}.cls-57{fill:#7d7a7f;}</style></defs><title>training01</title><g id="图层_2" data-name="图层 2"><g id="图层_1-2" data-name="图层 1"><path class="cls-1" d="M244.48,245q0-119.16,0-238.33c0-1.32-.1-2.65,0-4C244.65,1,244,.46,242.25.47c-11.45.07-22.9,0-34.35,0H1.34L0,.48C.12.35-.2,0,.24,0,.83.06,1.42,0,2,0Q122.48,0,242.94,0c1.65,0,2,.37,2,2q-.06,120.51-.06,241C244.9,243.68,245.4,244.52,244.48,245Z"/><path class="cls-2" d="M110.41,145.33c0-8.14-.14-16.29-.11-24.43,0-1.64-.22-2.36-2.13-2.59a15.8,15.8,0,0,1-12.77-8.57,14.48,14.48,0,0,0-10.66-7.64c-9.25-1.84-13.56-12.06-8.4-19.56a12.27,12.27,0,0,1,3.71-3.39c3.32-2.09,4-3.8,3-7.52A12.54,12.54,0,0,1,89.3,57a13.56,13.56,0,0,0,7.57-10.14c1.49-7.29,6.93-11.64,14.21-11.45,7.71.2,13.33,4.83,14.22,12.3.61,5.14,3.08,8.31,7.91,10,3.85,1.31,5.94,4.35,7.28,8,.46,1.1-.32,1.82-.85,2.55A9.09,9.09,0,0,0,137.92,74a60.82,60.82,0,0,1-.58,6.32,7.41,7.41,0,0,1-2,4.31c-3.3,3.75-3.67,8.11-2.76,12.76a19.51,19.51,0,0,0,.53,1.89c1.21,4,.67,5.38-3,7.59a7.31,7.31,0,0,0-4.48,4,14.57,14.57,0,0,1-11.26,8.18c-1.85.29-2.53,1.2-2.5,3.11.09,6.44,0,12.89,0,19.34a8,8,0,0,1-.56,3.66C111.09,145.44,110.81,145.7,110.41,145.33Z"/><path class="cls-3" d="M129.77,106.28c.68-.55,1.36-1.11,2-1.65a2.79,2.79,0,0,0,.89-3.69,18.59,18.59,0,0,1-1.43-8.81,11.86,11.86,0,0,1,2.88-7.43,9.07,9.07,0,0,0,2.55-6.36c0-1.09.23-2.19.19-3.28a12,12,0,0,1,3.59-9.35c2.41-1.57,4.87-2.85,7.9-2.82a11.69,11.69,0,0,1,12,10.79,12.58,12.58,0,0,1,.21,2.19,16.29,16.29,0,0,0,5.67,13.83c3.39,3.12,2.58,7.53,1,11.54a9.37,9.37,0,0,1-2.38,3.67c-3,2.61-3.48,6.23-4.15,9.79-.36,3.47-.94,4-5,4.43-1.28-.35-2.22.27-3.23,1-1.36.92-2.75,3-4.18,2.33-1.65-.81-.66-3.19-.67-4.86-.08-13,0-26,0-38.94,0,13.5,0,27,0,40.5a13.19,13.19,0,0,1,0,1.54c-.15,1.31-.77,1.21-1.58.52-1.39-.74-2.28-2.08-3.55-3a24.84,24.84,0,0,1-3.17-2.9,24.94,24.94,0,0,0,3.07,2.83c1.28.84,2.14,2.19,3.51,2.93,1.67.93,2.14,2.36,2,4.22-.2,2.47.13,5-.17,7.44a1.76,1.76,0,0,1-.41.63,3,3,0,0,1-2.3.46c-7.79-1-16.41-7.47-17.87-16.2a23.69,23.69,0,0,1,0-6.78A6.26,6.26,0,0,1,129.77,106.28Z"/><path class="cls-4" d="M51.77,146.31c-6.23,0-11.91-1.45-16.36-6.18-5.67-6-5.32-14.68,1.12-19.79a9,9,0,0,0,3.74-7.9A22,22,0,0,1,41.76,103c2.4-5.4,7.12-8.27,12.61-7.49,5.15.74,9,5,9.63,10.8a36,36,0,0,1,.23,5.49,9.59,9.59,0,0,0,3.51,8.16c5.86,5,5.13,12.23,2.3,17-.84,1.42-1.57,3.38-3.88,3.21a7.54,7.54,0,0,0-4.08,4.32c-1.78,2.39-6,3.42-9.18,2.23-.89-2.41-.71-3.09,1.1-4.45,1.45-1.1,2.86-2.27,4.36-3.32-1.64,1.09-3.08,2.43-4.72,3.52-1,.68-1.76.57-1.68-.78.61-9.8,0-19.62.31-29.42-.08,4.29,0,8.58-.06,12.87,0,.54.27,1.26-.45,1.55s-1-.36-1.46-.75c-.69-.64-1.34-1.32-2.12-1.94,3.8,2.09,4.52,5.42,4.08,9.36-.22,2,0,4-.06,5.94,0,.86.33,2-1.06,2.29-.24.05,0,.13,0,.13,1.6,1,1.22,2.51,1.21,4C52.33,146,52.21,146.29,51.77,146.31Z"/><path class="cls-5" d="M110.41,145.33l.69-.47c.62-.74,1.1-1.66,2.26-1.66a2,2,0,0,1,1.51.77,26.85,26.85,0,0,0,7.43,5.65c1.27.71,2.48,1.62,2.27,3.4a3.93,3.93,0,0,1-1,1.37,1.63,1.63,0,0,1-.78.38c-1.64.11-2.32.8-1.76,2.52a5.69,5.69,0,0,1,0,2.81,44.58,44.58,0,0,0-1.14,9.06,3.69,3.69,0,0,1-1.85,3.49c-2.7.73-4.12-1.32-5.82-2.74a19.4,19.4,0,0,1-1.22-1.55,1.38,1.38,0,0,0-1.18-.44A23.53,23.53,0,0,1,99,165.32c-3.37-1.61-6.4-1.5-9.08,1.47A7.33,7.33,0,0,1,84.39,169c-1.43,0-2.1-.72-1.72-2.08,1-3.55-.3-5.82-3.51-7.48-2.7-1.41-3.06-2.72-2-5.61s2.67-5.33,6.1-5.76c5.82-.6,11.66-.17,17.49-.33C104.17,147.64,107.47,147.19,110.41,145.33Z"/><path class="cls-2" d="M193.46,111.94c-.6,4-.58,8.12-1.46,12-1.88,8.26.2,16.19,1,24.24-.6,3-3.95,5.18-7.52,4.92-2.3-1-2.91-3.33-4.1-5.2a16.38,16.38,0,0,1-1.62-3.77c-.12-.26-.31.21-.07,0s.18,0,.14.16c-.68,2.84-1.66,5.51-4.09,7.38a10.62,10.62,0,0,1-8.82-3.92,6.6,6.6,0,0,1-.26-4.9,92.3,92.3,0,0,1,5.42-14.29,3.19,3.19,0,0,1,1.59-1.74c3.19-.78,6.43-.27,9.65-.39,2.75-.09,2.91-.16,3-2.82a16.61,16.61,0,0,1,.77-4.32,51.8,51.8,0,0,0,2.13-9,3.22,3.22,0,0,1,1-2.39c.28-.17.47-.09.57.22l.43.28C192.78,109.05,194,110,193.46,111.94Z"/><path class="cls-4" d="M190.29,108a28.11,28.11,0,0,1-1.4,8.64,23.4,23.4,0,0,0-1.66,9c.06,1.22-.36,1.71-1.62,1.68-4-.1-7.9-.11-11.86-.15-.82-.9-.64-2-.66-3.1,0-2.1,0-4.2-.05-6.3,0-3.63.74-7.33-.88-10.84a2.63,2.63,0,0,1-.07-1.5c1.87-3,3.74-6.11,5.62-9.15.6-1,1.24-1.89,2.62-1.34a12,12,0,0,0,2.75,0c.34-.13.8-.17,1-.42,2-2.49,4.17-1.31,6.23-.29,2.54,1.26,4.4,3.37,6.21,5.5a1.52,1.52,0,0,1-.16,2.45c-1.93,1.8-3.82,3.64-5.73,5.46-1.16-.23-1.6-1.35-2.34-1.88A13,13,0,0,1,190.29,108Z"/><path class="cls-6" d="M83.3,148.07c-2.4,1.66-4.63,3.43-5.68,6.36-.74,2.06,0,3.28,1.7,4.22,4.8,2.6,5.52,4.4,3.8,9.49a7.47,7.47,0,0,0,6.93-2.38A6.58,6.58,0,0,1,97.52,164c4.28,1.52,8.39,3.53,13.11,3.26.26,0,.55.42.83.64.4.48.15.85-.19,1.21a1.57,1.57,0,0,1-.64.27l-.68.08a21,21,0,0,1-8.58-1.5c-1.32-.45-2.58-1.06-3.88-1.56a6.44,6.44,0,0,0-7.16,1.19,11.2,11.2,0,0,1-5.57,2.93,3.3,3.3,0,0,0-2.6,2.69c-.35,1.32.52,2.1,1.59,2.82,1.63,1.1,1.55,1.9-.14,3.4a8.84,8.84,0,0,1-3.12,0,21.52,21.52,0,0,1-3.8-4.71c-.71-1.14-.9-2.32.43-3.13-.67.32-1,1.14-1.69,1.55-1.52.92-2.22,2-1.15,3.77a1.66,1.66,0,0,1-.55,2.48,5.49,5.49,0,0,1-3.16-.11c-1.76-2-2.15-4.41-2.17-6.92a3.58,3.58,0,0,1,2.22-3.3c2.86-1.35,3.75-3.79,3.77-6.63A23.53,23.53,0,0,1,76,154.1c.19-.52.66-1.12.15-1.63s-1.24-.17-1.85,0a14.12,14.12,0,0,1-3.62.84,10.37,10.37,0,0,1-8.78-4.12c-1.55-1.84-.88-3.64-.34-5.52a6,6,0,0,1,2.74-3.53c.57-.42,1.2-1,1.85-.07a6.9,6.9,0,0,0,1.75,4.43c-.43.58-1,.47-1.58.31s-1.17-.81-1.74,0a2.34,2.34,0,0,0-.22,2.47c1.23,2.67,4.26,4,7.61,3.17a34.06,34.06,0,0,1,5.59-1.21c0-1.14-1.8-1.23-1.33-2.5Z"/><path class="cls-7" d="M70.5,178.91l3.5,0a5.35,5.35,0,0,1,6.21,0l3.49,0a6.9,6.9,0,0,1,3.78-.93q9.34,0,18.69,0c2.74,0,3-.29,3-3.06,0-1.25,0-2.5,0-3.74a2.84,2.84,0,0,1,1-2.36l.43,0c1.24,2,.38,4.23.64,6.34.12,1-.38,2.07.74,2.76,3.17.17,6.33-.08,9.49.16a7.6,7.6,0,0,1,2.38,0c1.6-.19,3.21.2,4.81-.08a32.65,32.65,0,0,1,4.53.13c3.07-.24,6.16-.13,9.24-.15,3.6,0,3.76-.15,3.76-3.69,0-12.48,0-25,0-37.45,0-1.29-.25-2.68.83-3.74a.38.38,0,0,1,.15-.25,1,1,0,0,1,.72.39,6.21,6.21,0,0,1,.32,3q0,18.93,0,37.84a5.86,5.86,0,0,0,.61,3.4c.6.77,1.47.5,2.24.52,2.6.06,5.21-.08,7.51.07a27.45,27.45,0,0,1-5.14-2.66c-.77-.53-1.88-1.16-.88-2.43,2.36-.39,3.95,1.24,5.8,2.19a11.07,11.07,0,0,0,4.71,2.55c1.25.61,2.6-.24,3.86.27,9.37-.07,18.73,0,28.1-.06,2.32.57,4.77.35,7,1.19,8.8,0,17.6,0,26.4,0,.63,0,1.69-.65,1.89.7a53.77,53.77,0,0,1-5.67.36c-9.14.08-18.27-.21-27.41-.14-9.41.06-18.81.13-28.22.1-6.3,0-12.59.12-18.89.05a21.87,21.87,0,0,1-4.35-.39l-4.93,0a4.07,4.07,0,0,1-1.92.34c-6.36-.09-12.71,0-19.07-.13-4.66-.09-9.35.13-14,.13a5.33,5.33,0,0,1-2.79-.38l-5.37,0c-4.49.71-9,.33-13.52.28-3.64,0-7.27-.25-10.9,0a5.35,5.35,0,0,1-2.79-.32H66.48c-3,.25-6,.12-8.94.15-7.58.07-15.17-.23-22.76.18a2,2,0,0,1-1.25-.32h-18a2.8,2.8,0,0,1,2.68-1c7,0,13.92-.07,20.87,0,1.78,0,3-.39,3.91-1.93.26-.48.51-.92,1.16-.63a1.44,1.44,0,0,1,.55.25c.86.67,1.28,1.4.6,2.05,5.66-.08,11.66.05,17.39-.05-2.64-1.55-2.84-4.26-2.44-7.19a1.18,1.18,0,0,1,1.7.47c1.51,2.19,4.17,3.18,5.58,5.46C68.17,178.51,69.78,177.83,70.5,178.91Z"/><path class="cls-8" d="M193.46,111.94c-.35-1.43-1.71-2.2-2.3-3.48a29.76,29.76,0,0,0,5.74-5.06c1-1,1.42-.81,2.14.22a18.83,18.83,0,0,1,3.56,10,74.69,74.69,0,0,1-.24,11.19,4.76,4.76,0,0,0,.63,3.57c.74,1,1.37,2.15.3,3.38a2.19,2.19,0,0,1-2.57.72,2.77,2.77,0,0,1-1.72-3.22c.59-5.67-1.46-10.64-4.05-15.47A4.31,4.31,0,0,0,193.46,111.94Z"/><path class="cls-9" d="M185.55,152.71c3.26-.25,5.54-2.09,7.45-4.55a24.31,24.31,0,0,1,3.16,6.45c1.18,3.51,2.23,7.06,3.34,10.6-.11,1.61-1.18,2.33-2.57,2.75-1.52,0-2.43-1-3.22-2-2.63-3.53-5.24-7.07-7.59-10.8C185.66,154.42,185.1,153.68,185.55,152.71Z"/><path class="cls-10" d="M172.09,105.42c3.32,3.62,1.46,8,1.87,12.12-1.44-.63-2.66-.11-3.93.61-3.38,1.92-7.26,2.72-10.61,4.73a2.49,2.49,0,0,1-2.53,0c-.25-.15-.45-.36-.68-.53-2.1-1.46-2.14-1.92-.32-3.75a5.08,5.08,0,0,1,1.56-.72,3.18,3.18,0,0,0,3.29-3.18c.1,1.36.52,1.91,1.77.79A64.32,64.32,0,0,0,172.09,105.42Z"/><path class="cls-11" d="M76.24,146.8c.45.91,1.49.84,2.2,1.31.45.3.83.62.73,1.22s-.45.89-.87.85c-3.14-.32-5.88,1.7-9,1.45-2.41-.19-5.43-2.33-6.09-4.6-.45-1.55.57-2.65,1.27-3.81.34-.56.9-.32,1.25.17a2.29,2.29,0,0,0,2.2,1.15A14.76,14.76,0,0,0,76.24,146.8Z"/><path class="cls-12" d="M145.85,179.86l82.32-.05c.73,0,1.46-.05,2.2-.08a4.18,4.18,0,0,1,4,.14c-3,.81-6.08.67-9.1.73-7.08.15-14.17.05-21.26-.2-5.05-.17-10.14.14-15.21.17-7.27,0-14.56.38-21.81,0-5.72-.29-11.39.44-17.08.09A8.93,8.93,0,0,1,145.85,179.86Z"/><path class="cls-13" d="M201.65,179.33c-2.18-.17-4.49.7-6.48-.86-1.08-1.32-.38-2.42.82-2.72,2.65-.66,2.94-2.21,2.22-4.43a1.92,1.92,0,0,1,.08-1.08c.85-1.23,1.64-2.54,3.45-2.38a11.51,11.51,0,0,0,3.35,2.43c.66.3,1.36.65,1,1.62,0,.09,0,.19,0,.28-.19.79-1,1.18-1.3,1.86a2.16,2.16,0,0,1-.39.41,8,8,0,0,0-2.16,2.15.92.92,0,0,1-.24.28.53.53,0,0,0,.24-.27,6.08,6.08,0,0,1,1.73-1.77.45.45,0,0,1,.49.19l-2.7,3.85C202,179.13,202,179.28,201.65,179.33Z"/><path class="cls-14" d="M60.34,171.49c.18,1.23,1.56,2.33.4,3.71.7-.09-.53,2,1,.91.15-.1.5-.17.44.11-.6,2.66,1.5,1.87,2.74,2.19.33.08.75.06.94.75H43.37c1.64-.37,2.05-1.19.7-2.43,1.72-.13,2-1.54,2.54-2.78.44-.59-.2-1.81.86-1.94,1.3-.16,1.5,1.33,1.92,2s1.25,1.61,1.82,1.55c1-.1.19-1.43.74-2.05a1.51,1.51,0,0,1,1,1,2.35,2.35,0,0,1-.06,1.69,5.32,5.32,0,0,1-1.78,1.65c1.74-.16,3.2.2,4.77.14,2.55-.08,2.06-1.39,1.81-2.87A2.7,2.7,0,0,1,60.34,171.49Z"/><path class="cls-15" d="M185.45,90.07c.05,2.74-.85,3.76-3.44,3.9-.94.06-1.79,0-1.8-1.26a1,1,0,0,0-.35-.75c-3.3-2.09-1.75-5.06-1.45-7.8,3.33-1.55,5.35-.56,5.73,3C184.27,88.31,185.22,89,185.45,90.07Z"/><path class="cls-16" d="M185.45,90.07a2.19,2.19,0,0,1-2.12-2.7c.17-2-.23-3.42-2.8-2.85a6.06,6.06,0,0,1-2.12-.36c-.36-.46-.76-.88-1.07-1.37a1.43,1.43,0,0,1,0-1.64c.44-.63,1-.37,1.55-.13a11.43,11.43,0,0,0,4.5.59c2.62,0,3.58,1,3.43,3.61C186.71,86.91,187,88.76,185.45,90.07Z"/><path class="cls-17" d="M231.25,193.39c-.22,1.16-1.14,1-1.91,1q-16.23,0-32.45,0c-.46,0-1.51.54-1.28-.77.34-.39.8-.29,1.23-.29,10.76.07,21.52-.4,32.28-.22A3.49,3.49,0,0,1,231.25,193.39Z"/><path class="cls-18" d="M103.12,179.86l37.8,0c-.51.83-1.34.8-2.14.78-6.36-.14-12.72-.07-19.08-.24-4.64-.12-9.35.2-14,.24C104.75,180.69,103.72,180.89,103.12,179.86Z"/><path class="cls-19" d="M231.25,193.39l-32.57.08c-1,0-2.05,0-3.07.07l-2.44-.16c.58-.88,1.33-.53,2-.53q17.13-.07,34.26-.09C230,192.76,230.9,192.37,231.25,193.39Z"/><path class="cls-20" d="M40.13,74a6.4,6.4,0,0,1,4.4-2.91.79.79,0,0,1,1.27,0c2,.79,3.89,2.12,6.28,1.72.77-.12,1.28.56,1.66,1.21a1.5,1.5,0,0,1-1.31.67,95.21,95.21,0,0,1-11.58-.24A1,1,0,0,1,40.13,74Z"/><path class="cls-21" d="M70.54,179.88l27.21,0a2.55,2.55,0,0,1-1.77.76c-4.51-.11-9,.23-13.54-.25a35,35,0,0,0-8,.06C73.07,180.65,71.67,181,70.54,179.88Z"/><path class="cls-22" d="M40.13,74l13.61,0c1.75,0,3.51,0,5.27.06.49,0,1.39-.26.87.85a1.62,1.62,0,0,1-1.4.46q-6.91,0-13.83,0A2.2,2.2,0,0,1,43.2,75c-1.07,0-2.14,0-3.21-.06-.35,0-.79-.14-.75-.56S39.84,74.11,40.13,74Z"/><path class="cls-23" d="M51.93,67.63c1.84-3.28,4.94-3.31,7.87-2.68,3.33.71,5.52,3.07,6.58,6.54C62.42,66.89,58.32,63,51.93,67.63Z"/><path class="cls-24" d="M33.53,179.9h33c-2.21,1-4.59.53-6.84.52-4.24,0-8.47-.09-12.71,0-2.61.08-5.26-.17-7.89-.17a12.89,12.89,0,0,0-3.71.27C34.65,180.74,33.84,180.92,33.53,179.9Z"/><path class="cls-25" d="M201.65,179.33l.14-.44,31.05,0a4.17,4.17,0,0,1,1.74.09c1,.47.12.64-.25.86l-4-.14a4.05,4.05,0,0,0-2.56-.36Z"/><path class="cls-26" d="M201.74,167.86l-3,2.34c-2.22-.25-2.78-1-1.87-2.68l2.57-2.31C201,165.48,201.45,166.59,201.74,167.86Z"/><path class="cls-27" d="M43.2,75l16.68-.07c.55.78-.06.89-.59.89-5,0-10,0-15,0A1,1,0,0,1,43.2,75Z"/><path class="cls-28" d="M52.44,174.52l-.49-1q0-12.3-.1-24.59c0-.88-.05-1.76-.08-2.64l.18-.91c.92-.08.58.82.92,1.19a4.32,4.32,0,0,1,.5,2.75q0,11,0,22C53.36,172.44,53.6,173.69,52.44,174.52Z"/><path class="cls-29" d="M46.61,174a1.43,1.43,0,0,0,0,.22,2.65,2.65,0,0,1-.27,3.06c-.55.71-1.48-.47-2.31-.5a.8.8,0,0,1,0-.31A2.43,2.43,0,0,1,46.61,174Z"/><path class="cls-30" d="M72.61,74.22h6.3v.54A13.91,13.91,0,0,1,72.61,74.22Z"/><path class="cls-31" d="M190.29,108a8.1,8.1,0,0,1-3.21-3.39l3.55,3c0,.19.07.37.1.56Z"/><path class="cls-32" d="M185.25,192.57a3.64,3.64,0,0,1,3.17-.06A3,3,0,0,1,185.25,192.57Z"/><path class="cls-13" d="M206.13,171.91c.29.05,1.26-.8.69.34a15.21,15.21,0,0,1-2.33,2.79l-.07-.07a.6.6,0,0,1,0-.91l0,0c.5-.83,1.29-1.42,1.79-2.25Z"/><path class="cls-33" d="M69.75,74.23c-.84.12-1.67.84-2.86,0Z"/><path class="cls-34" d="M45.8,71.07l-1.27,0a3.11,3.11,0,0,1-.62-.14c-.21-.09-.39-.3,0-.33.78-.06,1.57-.06,2.35,0,.24,0,.68.09.16.41A1.81,1.81,0,0,1,45.8,71.07Z"/><path class="cls-15" d="M183.08,94.92a3,3,0,0,1-2.75,0Z"/><path class="cls-35" d="M147,133.1q0,22.18.08,44.39c0,1-.26,1.47-1.36,1.46-4.24-.06-8.49,0-12.73,0-.26-.26-.45-.67-.76-.78-3.24-1.09-4.28-4-5.49-6.71a16.78,16.78,0,0,0-1.27-2.79c-2.62-3.81-1.75-8.28-2.44-12.45-.14-.83.46-1.54.37-2.36l.81-1.06c.46-.52-.23-1.13.13-1.66a2.32,2.32,0,0,0,.67-2.56c0-2.56,0-2.61,2.55-2.31a1.78,1.78,0,0,0,2.15-1.35c1.21-1.32.9-2.13-.84-2.45-1.61-.66-2.94-1.59-3.31-3.45-.14-.69-.64-.89-1.27-1a2.06,2.06,0,0,1-1.45-.86c-1.21-1.62-1.31-1.66-2.36.18s-3,2.6-3.78,4.44a4.87,4.87,0,0,1-1.39,1.08c-.61.5-1.45.39-2.11.75s-1.15,1.31-2.14,1.26c0-8.19,0-16.39-.06-24.59,0-1.28.32-1.7,1.66-1.85,5.49-.61,9.88-2.88,12.23-8.27.89-2,2.79-3.13,4.84-3.87a16.82,16.82,0,0,0,3,20.34A20.69,20.69,0,0,0,147,133.1Z"/><path class="cls-36" d="M155.89,118.6a1.84,1.84,0,0,1-.33,1.37c-.74,1.11-.6,1.25.86,1.26.53,0,.53,0,.52,1.3a8.91,8.91,0,0,1-2.08,8.91c-1.71,1.95-3.89,3.37-6.77,2.35a.88.88,0,0,1-.2-.94,4.25,4.25,0,0,1,2.42-1.39A7.49,7.49,0,0,0,155,124c-.11-1.1-1-1.75-1.44-2.68-.13-.28-.4-.33-.74-.27-1.45.28-3.82,3-3.89,4.59s0,2.93,0,4.4a3.29,3.29,0,0,1-.67,2.47c-.23.21-.35.53-.66.66l-.35-.29c0-2.19-.07-4.39.06-6.57s-.08-4.06-2-5.42l.16-.18c1.16.83,1.83,1,1.78-.89-.09-3.59,0-7.19,0-10.78a3.72,3.72,0,0,0-1.54-3.45c1.81.21,1.47-.92,1.48-1.76,0-8.58,0-17.16.05-25.74a3.57,3.57,0,0,1,.66-2.8v47.26l5-3.66C153.83,118.17,154.81,117.74,155.89,118.6Z"/><path class="cls-36" d="M138.12,97.42l5.93,6.69c-1.66-1.39-4-3.8-6.35-6.24Z"/><path class="cls-36" d="M142.21,118.21a18.76,18.76,0,0,1-4.76-4.56,25.37,25.37,0,0,1,4.93,4.38Z"/><path class="cls-36" d="M145.29,120.86a9,9,0,0,1-3.08-2.65l.17-.18a10.54,10.54,0,0,1,3.07,2.65Z"/><path class="cls-37" d="M52.44,174.52q0-14.06.08-28.11a.89.89,0,0,1,.31-.47c2.58.76,5-.18,7.51-.6,1-.17.78-1.13,1.23-1.64,0,6.74,5.8,10.58,12.16,8.05a6.35,6.35,0,0,1,1.65-.53c.78-.08,1.69-.31,2.25.45s-.12,1.4-.44,2c-1.79,3.35-1.92,7-2.11,10.67a5.69,5.69,0,0,1-3.69,5.24c-2.36,1-2.54,2.75-2,4.87.38,1.48.74,3,1.1,4.46-.66,0-1.32,0-2,0-1,.09-1.72,0-1.87-1.31-.1-.81-.81-1.32-1.64-1.75-1.95-1-3.28-2.75-4.68-4.38a4.88,4.88,0,0,0-1.64,2.22c-.22.66-1.14-.11-1.22.68,0,0,.07.11.12.13s.28,0,.41.06a5.26,5.26,0,0,1-3.41,3.24,1.53,1.53,0,0,1-2.21-1.56A2.73,2.73,0,0,0,52.44,174.52Z"/><path class="cls-38" d="M52.83,145.94l-.31.47-.57-1c.58-2.92-1.9-4.11-3.71-6.05,1.64.21,2.08,1.59,3.4,2a117.65,117.65,0,0,0,.2-13c0-.81-.74-1.22-1.25-1.73-1.4-1.39-2.81-2.77-4.11-4.27,1.94,1,3.08,2.89,5.33,4.38V110.6h.7v32.21L60.3,137l.36.47c-2.07,1.62-4.06,3.35-6.23,4.82A3.16,3.16,0,0,0,52.83,145.94Z"/><path class="cls-38" d="M47.55,138.93a40,40,0,0,1-4.63-5C44.46,135.58,46,137.26,47.55,138.93Z"/><path class="cls-39" d="M123.44,153.81c.13.06.37.11.38.19a50.86,50.86,0,0,1,.56,7.86,5.17,5.17,0,0,0,.3,2.8c1.69,3.48,3,7.15,4.91,10.51.5.86,1,1.55,2.13,1.59,1.36,0,1.7.92,1.31,2.14a16.29,16.29,0,0,1-4.41.07c-2.55-1.49-4.13-4-6.17-5.74a11.44,11.44,0,0,0,1.78,3.17,1.45,1.45,0,0,1-.44,2.51l-2.2,0c-2-1.23-2.94-3.3-4.11-5.18a1.13,1.13,0,0,1,.13-1.41,3.57,3.57,0,0,0,1.39-3.46,24.24,24.24,0,0,1,.79-7.39,9.43,9.43,0,0,0-.14-6c-.5-1.15-.34-1.86,1.19-1.49A4.61,4.61,0,0,0,123.44,153.81Z"/><path class="cls-40" d="M117.61,172.34c.94,2.43,3.08,4.14,4,6.59l-10.52-.05a43.1,43.1,0,0,1-.06-10.09l.45-.87C113.38,169.57,114.7,172.07,117.61,172.34Z"/><path class="cls-41" d="M113.24,143.6c.28-.78,1-.91,1.67-1.21,3.11,2.14,6,4.66,9.17,6.66a1.4,1.4,0,0,1,.64,2c-.1.57,0,1.19-.47,1.66a3,3,0,0,0-1.62-2A35.62,35.62,0,0,1,113.24,143.6Z"/><path class="cls-37" d="M148.09,133.46c5-.4,7.56-2.72,8.3-7.68.16-1.09.37-2.16.55-3.25a2.86,2.86,0,0,0,2.51-.43c4-2.84,9-3.35,13-6.25,1.63-1.19.84,1.25,1.54,1.69l-.21,9.62a109,109,0,0,0-6.2,15.68,7.71,7.71,0,0,0,0,4.75c1,2,.33,4,.13,6-.48,4.69-1.43,9.32-1.92,14-.25,1.28-.91,2.41-1.26,3.65-.49,1.48-1.69,1.84-3.06,1.95a23.5,23.5,0,0,1-5.8-.56,2.52,2.52,0,0,0-2.6.6c-.23.87-.25.92.57,1.36a77.67,77.67,0,0,1,7.56,4.31h-13.1c-.4-.52-.24-1.13-.24-1.7q0-21,0-42.06C147.81,134.58,147.62,134,148.09,133.46Z"/><path class="cls-35" d="M196.92,167.52c-.36,1.58,1.05,1.93,1.87,2.68-.24.8.34,1.38.55,2.06.83,2.55.32,3.52-2.33,3.91-1.47.22-2.12.82-1.84,2.3-.55.73-1.35.46-2,.46q-12.51,0-25,0c-.75,0-1.87.49-2.06-.91-.72-2.11.75-3.83,1-5.77,1.28-1,.71-2.51.88-3.82a5.59,5.59,0,0,0,2.73-3.24,56.62,56.62,0,0,0,3.73-11.41,4.42,4.42,0,0,1,1.36-2.66c1.85-2.3,2.62-5.2,4.31-7.89,1.72,3.32,3,6.76,5.48,9.46,2.74,4.52,5.91,8.74,9,13C195.14,166.51,195.72,167.46,196.92,167.52Z"/><path class="cls-42" d="M175.76,151.14a57,57,0,0,1-4.9,15.85c-.63,1.4-1.43,2.13-3,1.91-1.27.61-2.08.13-2.57-1.1-1-1.4-.19-2.85,0-4.23.66-5.34,1.48-10.65,2.23-16A14.14,14.14,0,0,0,175.76,151.14Z"/><path class="cls-35" d="M110.17,168.81c0,2.78-.06,5.56,0,8.34,0,1.23-.23,1.87-1.67,1.86-8.26-.08-16.53-.08-24.79-.11.4-.77,1.5-1.72-.24-2.12a2.79,2.79,0,0,1-2.34-3.39c.22-1.72,1.17-3.36,3-3.65a11,11,0,0,0,5.9-3.06c2.63-2.44,5.62-2.14,8.57-.79A29.83,29.83,0,0,0,110.17,168.81Z"/><path class="cls-43" d="M80.21,178.87l-6.21,0a2.67,2.67,0,0,0-.75-2.17,2,2,0,0,1,.3-3.24,22.6,22.6,0,0,1,5.84-3.31c0,.26,0,.36,0,.38-3.25,2.55-3.26,2.58-.46,5.92C79.51,177.19,80.32,177.77,80.21,178.87Z"/><path class="cls-44" d="M111,168.79l.06,10.09c-.95-.14-.45-.87-.46-1.3,0-2.92,0-5.83,0-8.74A.54.54,0,0,1,111,168.79Z"/><path class="cls-45" d="M167.27,172.42c1,1.24-.15,2.28-.37,3.39a14.34,14.34,0,0,1-.84,2.23c-.68,2-1.89.55-2.9.45-1.65-.94-3.44-1.62-5-2.66l-5.11-2.6c-.55-2.18,1-1.87,2.14-1.64a39.53,39.53,0,0,0,6.22.91c1.21.06,2.16-.18,2.5-1.51C165.53,170.22,166.56,170.93,167.27,172.42Z"/><path class="cls-46" d="M123.79,178.91c.42-.9.63-1.49-.46-2.36-1.61-1.29-1.57-3.63-2.43-5.52,2.8,2.46,5.77,4.7,7.72,7.94Z"/><path class="cls-47" d="M148.09,133.46q0,22.72,0,45.44c-1-.5-.47-1.38-.47-2.06q-.06-21.85,0-43.7l.51-.56,0,.06Z"/><path class="cls-37" d="M158.13,175.83a15.12,15.12,0,0,1,5,2.66A12.86,12.86,0,0,1,158.13,175.83Z"/><path class="cls-48" d="M204.41,174.06c0,.31,0,.61,0,.91-1,.25-1.21,1.4-2.06,1.83L202,177l.14-.39A5.88,5.88,0,0,1,204.41,174.06Z"/><path class="cls-49" d="M206.18,171.85a3.36,3.36,0,0,1-1.79,2.25A2.9,2.9,0,0,1,206.18,171.85Z"/><path class="cls-50" d="M202.36,176.8a6.07,6.07,0,0,1-2,2.3,5.77,5.77,0,0,1,1.8-2.54A.62.62,0,0,0,202.36,176.8Z"/><path class="cls-51" d="M52.39,176.26c1.37,2.34,2.83.75,3.64-.27.6-.77,1.36-.91,2-1.41.81.17,1.73.42,1.71,1.36s-.88.72-1.58.45c.19.86,1,.84,1.25,1.31a1.44,1.44,0,0,1,.31.74c0,.36-.39.36-.69.35-3,0-6.11-.07-9.16-.13-.19,0-.37-.2-.69-.39A7.31,7.31,0,0,1,52.39,176.26Z"/><path class="cls-52" d="M116.33,141.84a1.54,1.54,0,0,1,.78-2.18,7.49,7.49,0,0,0,3.21-3.72c.34-.77.83-1.62,1.93-1.46s1.09,1,1.11,1.85.42,1.1,1.27.85c1.31-.38,2,.16,1.8,1.53-.34,2.15,2,2,2.68,3.25a3.16,3.16,0,0,1,.83,3.09c.74.62,1.07,1.2-.08,1.77a2.46,2.46,0,0,1-2.11.32c-1.85-1.08-2.21-.13-2.27,1.44a1.69,1.69,0,0,1-1.67-.17,30.94,30.94,0,0,1-6.78-4.74C116.56,143.18,115.84,142.73,116.33,141.84Z"/><path class="cls-53" d="M116.33,141.84c2.45,3.07,6,4.57,9.15,6.74.79,1.16,1.53,2.3-.77,2.52-.35-1.58-1.83-1.91-2.93-2.66-2.53-1.74-5.41-3.09-6.87-6.05C115.14,141.57,115.56,141.23,116.33,141.84Z"/><path class="cls-54" d="M129.94,145.05c-1.18-.79-.95-2-.83-3.09,1,.06,2.42-.47,2.64,1C131.9,144,131.48,145.18,129.94,145.05Z"/><path class="cls-55" d="M148.05,132.58c0-2.2.17-4.4,0-6.58a4,4,0,0,1,2.24-4.29c1.32-.75,2.39-1.92,4.09-2.6-.32,1.46-.2,2.68,1.15,3.39.37.2.35.6.39,1a8,8,0,0,1-7.82,9.16Z"/><path class="cls-56" d="M167.27,172.42,163.88,171c.21-1.18.18-2.48,1.43-3.19l2.57,1.1c.35.57,1.63.12,1.45,1C169.11,171,168.71,172.2,167.27,172.42Z"/><path class="cls-57" d="M123.94,141.55c-.15-.13-.4-.25-.41-.38a.5.5,0,0,1,.54-.53.58.58,0,0,1,.44.36C124.6,141.4,124.22,141.4,123.94,141.55Z"/></g></g></svg>