<svg xmlns="http://www.w3.org/2000/svg" viewBox="0 0 315.65 294.61"><defs><style>.cls-1{fill:#d1d8d8;}.cls-2{fill:#fefefe;}.cls-3{fill:#b9bac7;}.cls-4{fill:#eceeee;}.cls-5{fill:#ebe9eb;}.cls-6{fill:#efd9e1;}.cls-7{fill:#c1c2cc;}.cls-8{fill:#f4f0f8;}.cls-9{fill:#f9f7f6;}.cls-10{fill:#fecf3e;}.cls-11{fill:#f0d8e2;}.cls-12{fill:#484168;}.cls-13{fill:#fac93a;}.cls-14{fill:#fbfafa;}.cls-15{fill:#8c6982;}.cls-16{fill:#786d82;}.cls-17{fill:#fea063;}.cls-18{fill:#484468;}.cls-19{fill:#f4f1f8;}.cls-20{fill:#49446b;}.cls-21{fill:#fcd043;}.cls-22{fill:#fd9485;}.cls-23{fill:#f0ad53;}.cls-24{fill:#453f64;}.cls-25{fill:#fbfbfc;}.cls-26{fill:#f2dce4;}.cls-27{fill:#f0dee3;}.cls-28{fill:#fcfcfc;}.cls-29{fill:#f9f8f8;}.cls-30{fill:#f9ae72;}.cls-31{fill:#9792a4;}.cls-32{fill:#fe8d77;}.cls-33{fill:#fbfaf9;}.cls-34{fill:#fd9578;}.cls-35{fill:#f9e6a3;}.cls-36{fill:#6c6772;}.cls-37{fill:#f8e5d8;}.cls-38{fill:#facb4f;}.cls-39{fill:#f2ced9;}.cls-40{fill:#c3952c;}.cls-41{fill:#eecfbb;}.cls-42{fill:#e7d5d3;}.cls-43{fill:#b0abbd;}</style></defs><title>资源 19training02</title><g id="图层_2" data-name="图层 2"><g id="图层_1-2" data-name="图层 1"><path class="cls-1" d="M315.58,280.09v13.08c-2.49,1.27-5.15.62-7.72.62q-147.74.06-295.47,0c-12.17,0-12.17,0-11.33-12.3,2.37-2.29,5.35-1.34,8.08-1.4,39.54-.85,79.09-.62,118.62-.78a35.48,35.48,0,0,1,6.17-.73,11.11,11.11,0,0,1,1.9-.33c1-.09,1.93-.12,2.9-.2,1.33-.21,2.67.11,4-.18a75.32,75.32,0,0,1,16.78-.07,16.19,16.19,0,0,0,3.81.19c.57.07,1.16.14,1.74.18s1.14,0,1.7.06c1.88.06,3-1.76,4.77-2a12.63,12.63,0,0,1,2-.12c8.6.12,17.19-.44,25.77.39A182.94,182.94,0,0,1,235,276.4c7.88.85,15.29-1.06,22.93-.37,3.68.34,7.36.3,10.87,1.61,4.66,1.1,9.47-.1,14.14.87,8.4,3.2,17.07,1.19,25.63,1.24C311,279.76,313.3,278.92,315.58,280.09Z"/><path class="cls-2" d="M1.6,281.33c-.56,14.72-.27,11.78,11,11.79q151.51.13,303,.05c.44,2.09-1.17,1.28-2,1.28q-155.1,0-310.21.11c-2.81,0-3.36-.54-3.35-3.35Q.19,146.63.15,2c0-.79-.8-2.41,1.28-2q0,139.37.07,278.73A1.83,1.83,0,0,1,1.6,281.33Z"/><path class="cls-3" d="M315.58,280.09a153.65,153.65,0,0,1-26.51,1.29c-2.12-.05-4.38.47-6.18-1.24.42-1.23,1.1-2,2.54-1.4l30.15,0Z"/><path class="cls-4" d="M100.92,116.5c6-10.85,12.68-21.65,21.9-29.7A203.89,203.89,0,0,0,142.23,67c4.51-5.16,11.92-6,17.81-9.18,1.7-.93,3.78-1.35,5.25-2.54C180,43.33,198,40.9,215.81,38.08a194.22,194.22,0,0,1,45.27-1.45c11.81.89,21.83,9.79,24.85,20.75,2.79,10.12,1.78,20.22,2,30.28.4,20.39,1.39,40.81,1.08,61.16-.23,14.73-.87,29.5-.65,44.24.17,11-2.32,22.36-.78,32.84,2.17,14.76-2.15,29.45,1.59,43.91.89,3.41-.57,5.93-3.53,7.66-3.4.44-6.78,1.31-10.26.71-2-1.75-2.69-4.31-3.85-6.59-1.84-13.53-5.55-26.63-8.91-39.82-1.74-6.67-1.39-13.55-2-20.34-.27-2.93,0-6-2.31-8.41a9.58,9.58,0,0,1-2.91-7.49c0-.42.06-.86.08-1.28.09-3.2,4.54-6.15.94-9.44-2.9-2.65-12-2.84-15.26-.49-2.47,1.77-5.41,2.58-8.18,4.34,2.49,3.9,5.87,3,9.2,2.16,5.19-1.31,9.37.05,12.44,4.52a2.75,2.75,0,0,1-.18,1.92c-6.06,7.68-6,16.45-4.62,25.47.52,3.09.21,6.25.92,9.32.94,4.41.91,8.92,1.5,13.36.38,2.81-.12,5.59-2.8,7.37-4,1.28-6.33-1.57-8.06-4.05a17.51,17.51,0,0,0-7.76-6.15c-1.47-4.94-.35-10-.23-14.9.29-11.48-5.29-19.41-14.24-25.58-1.43-1-3-1.75-4.44-2.76-6.09-4.34-7.77-9.46-4-15.81,9.77-16.33,5.48-32.31-.6-48.27-1.89-4.95-5.45-8.37-11.37-8.23s-8.61,4.4-10.91,9-1.93,9.3-2,14.09c-.16,11.7-4.88,17.69-16.5,21a33.9,33.9,0,0,1-13.08-5.42c-4.86-3.26-10.15-5.6-16.36-5.73-10.95-.25-20.78-5-31-8.37-4.67-1.53-9.65-1.78-12.69-6.74s-2.47-8,3.38-9.66a162,162,0,0,1,36.69-5.61c-3.57-.83-7.06-.07-10.52-.29C115,129.86,108.78,121.59,100.92,116.5Z"/><path class="cls-5" d="M42.07,278.71Q27.54,231.28,50,187.06c5.21-10.21,9.07-21.21,16.87-30,2.35-3.42,4.62-2.16,6.64.27a13.7,13.7,0,0,1,3.18,8.8c-1.15,6.62-2.47,13.21-2.32,20A9.24,9.24,0,0,1,70.28,194c-12.49,9.15-15.84,20.7-9.3,34.91a7.17,7.17,0,0,1,.56,3.84c-1.5,3.53-1.37,7.13-.59,10.81,2.09,9.84,5.33,19.16,11,27.62,1.7,2.55,5,5.78.14,8.75-8.41.41-16.81.11-25.21.16C45.16,280.07,43.36,280.24,42.07,278.71Z"/><path class="cls-6" d="M74.93,166.67c-2.14-3.65-.12-10.8-8.06-9.59,1.83-6.63,6.9-11.53,9.51-17.73,1.32-3.13,3.75-5.79,3.27-9.7-.35-2.91,2.36-2.44,4.23-2.62q14,0,27.92,0c4.65,0,9.3,3.14,14,0,4.33,0,8.65,0,13,0,1.48,0,3.39-.12,3.53,1.93.13,1.84-1.61,2.45-3.08,2.84a13.21,13.21,0,0,1-3.86.4c-12.49-.53-24.37,3-36.44,5.29-2,.39-4,2.39-2.73,3.12,3.17,1.84,2.66,8.56,8.55,6.5,1.51-.53,2.3.85,3.43,1.31,3.52,1.44,6.7,4.33,11,2.91.56-.18,1.57-.22,1.83.1,6.43,8,15.67,4.63,23.75,5.85,3.19.48,5.44,2.62,8.15,3.91,5.5,2.62,10.74,5.78,16.09,8.71a11.91,11.91,0,0,1-4.49,10.54c-4,1.75-7.56.51-11-1.48-3-1.72-6.17-3.14-8.93-5.1-4.64-3.31-7.19-1.72-9.08,2.85-3.12,1.13-4-1.69-5.52-3.23-4.25-4.29-6.16-4.41-10.76-.28-1.59,1.42-3,3.07-5.26,3.44-6.86.27-10.41-4-13.16-9.21.46-1.13-.3-.74-.28-.64.33,2.24-.83,3.55-2.92,4.18-2.54.14-3.66-1.8-5.06-3.39-5.35-6.07-6.32-6.22-13.4-2.11C77.8,166.23,76.56,167.09,74.93,166.67Z"/><path class="cls-7" d="M42.07,278.71l31.41-.06c7.63-2.29,8.19-8,7.92-14.8s-1.13-13.5.89-20.12a4.54,4.54,0,0,1,1.38-1.8,2.09,2.09,0,0,1,2.12.37c3.12,4,1.86,8.77,2,13.25.2,5,.06,10,.07,15,0,3.8,1.75,5.56,5.57,5.54,7.18,0,14.37,0,21.55,0,3.86,0,5.47-1.89,5.49-5.64,0-3.23-.33-6.58,1.64-9.49A2.31,2.31,0,0,1,124,260c3.69,2.16,2.83,5.89,3,9.15.15,3.53.36,6.84,3.91,8.79a1.68,1.68,0,0,1,.22,1.92c-1.68,1.94-4,1.48-6.09,1.48q-61.7,0-123.38-.05c0-.84-.07-1.68-.1-2.52Z"/><path class="cls-8" d="M125.75,127c-1.17,2.31-3.27,2.59-5.55,2.59-11.11,0-22.22,0-33.33,0-1.66,0-3.88.45-3-2.58,2.82-3.58,4.65-8.45,11.2-5.16,1.76.89,4.21-3.09,5.84-5.37,4.45-.4,7.74,1.68,10.66,4.78C115.4,125.34,119.92,127.84,125.75,127Z"/><path class="cls-9" d="M275,277.34c3.54-.38,7.1-2.76,10.6.13-.06.42-.13.85-.18,1.27l-2.54,1.4-14.3-.14c-.59-1.64.15-2.72,1.49-3.56C271.9,275.76,273.62,275.7,275,277.34Z"/><path class="cls-10" d="M114.43,175.62c1.48-1.83,2.86-3.74,4.46-5.46,3.45-3.7,8.62-3.31,12.08,1,1.46,1.79,2.62,3.83,3.91,5.76,3.4,1.33,3,4.64,3.82,7.3a39.16,39.16,0,0,0,5.68,13.7,44,44,0,0,1,6.91,23.46c.05,2.18,0,4.36.9,6.41.85,3.5,1.26,6.95-1.37,10-5.79,1.82-7,6.07-6.77,11.62.37,7.6.17,15.21.06,22.82-.05,3,.16,6.22-3.27,7.88l-2.8,0c-3-2-3.46-5.77-5.83-8.22-.65-3.79-1-7.58.41-11.3a6.54,6.54,0,0,0,1.78-6.76,3.11,3.11,0,0,1-2,.49,3.26,3.26,0,0,1-1.22-1.11c-1.16-1.46-.21-3.86-2.25-4.87-2.81,1-6.14,4.72-7.55-1.42a35,35,0,0,0,.46-6.88c-.19,2,.66,4.68-2.6,5.58-6.06-1.21-9.19-5-9.6-11.06.28-2.65,1.69-4.85,2.95-7.1,5.54-10,5.85-19.66-1.61-28.92a11.56,11.56,0,0,1-2.62-5.14C108.94,187,107.61,179.89,114.43,175.62Z"/><path class="cls-11" d="M269.74,277.71,268.58,280c-2.83-1.48-5.9-1.24-8.94-1.25q-30.36-.06-60.71-.15c-2.05-2.06-2.16-4.52-1.51-7.15a9.68,9.68,0,0,1,2.11-3.56c2.81-2.25,6.39-2.62,9.61-3.89,8.59-3.42,14.8-9.75,20.74-16.46a18,18,0,0,0,3.72-3.72l.8-.38c3-4,5.38-4.78,6.61,1.23.78,3.82,5.44,4.66,6.62,8.24.49,5.53-4.48,8.23-6.44,12.49-.44.76-1.06,1.39-1.48,2.15-.52.93-1.4,2.2-.06,2.78s1.45-1.25,2.18-1.95c5-6.7,11.94-11.79,15.16-20,1.5-3.83,4.44-3.37,6.41.65,1.73,3.53,2,7.48,2.65,11.29.73,4,1.56,8,2.63,12C269,274.14,269.71,275.86,269.74,277.71Z"/><path class="cls-12" d="M140.84,280c.1-11.07.17-22.14.29-33.21.1-9.62.12-9.62,9.42-10.16,4-3,8.06-3.17,12.19-.24a4.64,4.64,0,0,1,1.16,2.95c-.45,12.29.66,24.61-.81,36.88a8.19,8.19,0,0,1-1.27,3.61C154.84,281,147.84,280.48,140.84,280Z"/><path class="cls-13" d="M161.82,279.87c-1.07-14.26-.6-28.51.27-42.76,5.9-2.76,10.73-.14,11.77,6.91a67.54,67.54,0,0,1,0,17.57c-.55,5.18,2.51,11-2.53,15.39l-.33,0-.31.13c-3.47-1.87-4.11,2.22-6.32,3Z"/><path class="cls-14" d="M171.36,277q.18-7.74.37-15.48c2.09-1.5,4.22-.77,6.13.18,5.7,2.85,11.82,3.95,18,4.69,2.21.7,4.6,1.27,3.22,4.52q-.09,3.86-.2,7.72c-7.25,0-14.51.11-21.76.11C175.08,278.73,172.81,279.14,171.36,277Z"/><path class="cls-15" d="M133.66,272c4.21,1.22,3.37,5.16,4.37,8.1l-3.14.07a6.4,6.4,0,0,1-.62-1,4.66,4.66,0,0,0,.7.95c-1.38,1.95-2.61.13-3.9-.15a3.13,3.13,0,0,0-.27-1.28c-1.86-2.46-1.53-4.66.8-6.61A2.21,2.21,0,0,1,133.66,272Z"/><path class="cls-16" d="M164.4,280.09c.11-1.07.2-2.13.34-3.2.25-2,.63-4.27,3-4.15s2.79,2.32,2.93,4.35c-.61,2.27-1,4.9-4.43,3,.54-.69-.12.26.4-.44,0,.21-.22.34-.31.52Z"/><path class="cls-17" d="M231.63,248.64c-6.13,7.93-13.37,14.51-22.95,18-2.58.94-5.26,2-8.16,1.36-3.26-3.25-3.05-7.33-.09-9.8,4.67-3.9,7.62-9.17,11.47-12.62-2.64,2.14-4.52,6-7.51,8.86-1,1-2,2.72-3.73,2.06-2-.76-1.72-2.68-1.68-4.48.24-10.25,0-20.5.1-28.44,0,6.58,0,15.46,0,24.35,0,1.69.42,3.86-1.56,4.6s-3.28-1.09-4.17-2.48c-4.32-6.76-9.83-12.8-12.68-20.47.64-6.85-1.12-12.68-6.65-17.23-3.69-3-4.39-7.73-5.84-12s-4.31-8.07-5.34-12.55c-.67-2.91-1.84-6,1.21-8.38,1.16-3.43,2.19-6.92,4.92-9.54,2.21-1.35,4.37-2.81,6.65-4,5.76-3.1,8.44-7.57,7.84-14.34-.66-7.44,0-14.74,4.64-21.18,6-8.27,17.65-8.92,22.16.17,8.63,17.44,14.18,35.68,2.2,54.26-2.94,4.57-3,9.25,2.16,11.68,20.73,9.87,24.23,26.68,19.8,47h0C233.41,245.12,233.35,247.32,231.63,248.64Z"/><path class="cls-18" d="M267,274.17c-3.66-8.93-3-19-7.15-28-1.67,11.1-10.24,16.9-17.17,23.89-4.14.33-3.65-2.62-3.69-5.19l8.66-11.93c3.34-2,2.6-5.21,2.16-8.17-.64-4.29-1.49-8.56-1.1-12.94,5.45-3.85,10-3.87,15.71-.05A142,142,0,0,1,273.33,272C272.24,275.64,269.77,275.36,267,274.17Z"/><path class="cls-19" d="M275.12,96.18H214.9c3.78-1.57,6.88-3.26,9.22-6.56,2.48-3.51,6.09-4.19,9.83-2,3.54,2,5.16.73,7.18-2.46,5.41-8.57,14.27-9.12,21.15-1.56C266.18,87.84,271.39,90.65,275.12,96.18Z"/><path class="cls-20" d="M254.26,195.43c-1.44-.32-3.36.39-4.24-1.07-2.18-3.63-4.79-2.6-7.71-1.23-3.8,1.78-7.55,2.16-10.6-1.53-1.21-1.47-3.34-2.88-2.62-4.89s3.06-.66,4.64-1c.63-.15,1.56,0,1.86-.39,5.52-7,12-5.13,19.54-3.73,5.66,1,5.54,3,5,6.89-.39,2.7-2,4.74-3.71,6.74A1.62,1.62,0,0,1,254.26,195.43Z"/><path class="cls-21" d="M264.4,231.75l-15.71.05c-1.67-3-.8-6.16-.89-9.28a1.75,1.75,0,0,1,.25-.59c2.93-2.84,5.75-8.77,6.57-13.42.52-3,1-6.11,4.75-6.94,2.64,1.64,3.52,4.24,3.7,7.12C263.56,216.37,264,224.06,264.4,231.75Z"/><path class="cls-22" d="M259.37,201.57c-3.44,6.28-4.8,12.54.22,18.87-3.76,1.83-8.23-.48-11.79,2.08-.47-3.62-1.22-7.22-1.36-10.86-.25-6.69,2.64-12,7.82-16.23l2.12-.25Q257.88,198.38,259.37,201.57Z"/><path class="cls-23" d="M267,274.17l6.35-2.2c1,1.65,3.44,2.86,1.68,5.37l-5.27.37C267.54,277.53,266.91,276.12,267,274.17Z"/><path class="cls-24" d="M110,193.58c11.9,13.17,12.19,24.45,1,40.59-1.16,4.72-4.68,7-8.88,8.61a24.46,24.46,0,0,1-8,2.31c-4.69.54-8.12-.86-8.82-6.12-.12-4.12,0-8.25-.05-11.63-.75,4.45,1.31,9.84-1.1,14.91a1.78,1.78,0,0,0-.22,1.13C76.07,248,63.14,242.3,60.23,233c-1.2-2.74-2.58-5.42-3.57-8.24A27.13,27.13,0,0,1,68.1,192.41c2.78-1.76,3.9-3.46,3.65-6.67a38.38,38.38,0,0,1,3.18-19.07c9.23-10.25,13.94-9.48,21.87,3.59,3.19,1.64,3.84,4.66,3.79,7.76-.09,5.08.56,9.49,6.2,11.53C108.42,190.15,109,192.14,110,193.58Z"/><path class="cls-25" d="M60.23,233c6.71,6.15,13.67,11.7,23.66,10.37,0,8.49,0,17-.09,25.49-.12,9.79,2.41,10.19-10.32,9.78-6.92-11.07-13.12-22.44-15.2-35.56C57.71,239.53,56.35,235.74,60.23,233Z"/><path class="cls-26" d="M164,179.44c0,5.63,1.05,11,4.64,15.52a6,6,0,0,1,1.58,5.26,7.74,7.74,0,0,1-7.75,6c-4.66-1.94-6.69-6.47-9.68-10-4.49-5.32-9.21-10.16-16.37-11.68-.52-2.55-1-5.09-1.57-7.64a28.17,28.17,0,0,1,.33-5.14c.93-3.73,2.57-5,6.37-2.29,4.69,3.32,9.9,5.92,14.89,8.82C158.83,179.65,161.48,179.24,164,179.44Z"/><path class="cls-27" d="M110,193.58c-3.06-1.05-5.41-3.55-8.76-4.11-3-.49-2.62-3-2.57-5.14a41.84,41.84,0,0,0-1.86-14.07c2.24-1,2.94-2.94,2.91-6,4.93,4.71,7.89,10.68,14.72,11.37C111.89,181.34,111,187.47,110,193.58Z"/><path class="cls-28" d="M86.63,239.34c0,2.95,1.92,3.51,4.35,3.58,4,.11,7.66-1.18,11.44-2,2.32,1.2,3,3.53,4,5.68a19.81,19.81,0,0,0,4.69,6.9c1.93,1.73,4,4,6.67,3.36,2.93-.74,1.22-4.14,2.17-6.18.5-1.54.64-3.44,3-3.09.4,1.91,1.38,1.71,2.56.69l4.2-3.68c3.27.75,1.18,3,.55,3.75-3,3.72-4.43,8.23-7,12.15,0,4.58-.22,9.16-.12,13.73.08,3.39-1.37,4.63-4.69,4.59-9.59-.12-19.19-.17-28.79,0-4.06.08-4.6-2.06-4.58-5.33.07-10.47,0-20.93,0-31.4C84.36,240.49,84.32,239.28,86.63,239.34Z"/><path class="cls-29" d="M132.53,272.12c-2.05,1.78-1.95,4.13-1.73,6.51-4.56.82-6.85-.68-6.44-5.71.32-4,.13-8.09.17-12.14,1.61-3.29,3.14-6.68,7.66-6.59l0-.05c3.2,2.49,1,5.53.83,8.36C132.77,265.7,133.46,269,132.53,272.12Z"/><path class="cls-30" d="M132.19,254.19c-2.57,2.17-3.45,6.31-7.66,6.59a4,4,0,0,0-1.18-.3c-1-4.83.44-8.69,4.18-11.92,1.09-.94,3.26-1.7,2.23-4,2.43-1.38,2.45.54,2.5,2C132.35,249.1,132.23,251.64,132.19,254.19Z"/><path class="cls-31" d="M86.63,239.34l-1.5,2.75a5,5,0,0,1-1,.16V216.69l2.52,0Z"/><path class="cls-32" d="M162.38,205.45l7.87-5.23a28,28,0,0,0,8.67,13.8A12.51,12.51,0,0,1,182,229.37c3.26,9.31,9.74,16.6,15.46,24.33,3.4,4.58,2.28,12.18-2.52,14.44-8.52.55-15.88-2.94-23.19-6.64,0-5.15,0-10.3-.13-15.44-.14-6.75-2.4-8.84-9.51-8.95l-11.54-.44a26,26,0,0,0-.81-9c1.35-6.56,2.68-13.15,7.16-18.49C158.37,207.45,159.35,204.93,162.38,205.45Z"/><path class="cls-33" d="M162.38,205.45c-6,6.39-8.27,14.91-12.64,22.23-.6-12.06-2.78-23.59-10.6-33.39-2.22-2.79-2.14-6.41-2.69-9.77,2-3,4.18-1.85,6.54-.34C151.39,189.53,156.8,197.56,162.38,205.45Z"/><path class="cls-34" d="M121.64,251.25c-.5,3,2,7.27-1.66,8.76s-7-1.51-9.75-3.88c-4.69-4-6.91-9.28-7.81-15.23l8.59-6.73c.62,5.34,4.79,8,8.38,11.12C123,246.19,120.16,249.54,121.64,251.25Z"/><path class="cls-35" d="M121.64,251.25l-2.25-6c3.13-4.17-.3-9.57,2.81-14.94,1.68,6.4,1,11.83.8,17.23C122.55,248.8,122.09,250,121.64,251.25Z"/><path class="cls-30" d="M132.53,272.12q-.19-9-.38-18l2.38-2.78c1.41,2.92,2.11,5.88.54,9-2.78,3.61-.94,7.77-1.41,11.65A2.43,2.43,0,0,1,132.53,272.12Z"/><path class="cls-36" d="M135.07,260.32l-.54-9c.45-1.42.67-3,3.19-3.18a22,22,0,0,0-.37,10.57C137.65,260,136.21,260.32,135.07,260.32Z"/><path class="cls-37" d="M194.92,268.14c5-4.24,3.65-9.31,1-13.8-3.9-6.69-8.6-12.92-12.78-19.46-1-1.56-3.57-3.1-1.19-5.51l14.6,22,1.3-.43V212.8l1.82-.05c1.78,14-.17,28.24,1.17,43.78l15.8-18.2c-1.88,6.63-6.54,11.31-11,15.85-4,4.08-6.07,8.23-5.15,13.82-.46,1-.92,1.93-1.39,2.89C198.76,268.41,196.71,268.47,194.92,268.14Z"/><path class="cls-38" d="M239,264.84c.31,2.38,2.19,3.65,3.69,5.19-.24,1.85-.47,3.71-.8,6.35C237.21,272.8,234.48,269.68,239,264.84Z"/><path class="cls-39" d="M231.63,248.64a10.6,10.6,0,0,1,2.78-5.21C234.51,245.71,234.07,247.71,231.63,248.64Z"/><path class="cls-40" d="M150.37,248.62c-.5,1.23-1.33,1.43-2.14,1.11-.45-.17-1.06-.89-1-1.24.22-1,1.16-1.14,2-.87C149.7,247.77,150.05,248.32,150.37,248.62Z"/><path class="cls-41" d="M135,280.06c-2.42-1-3.31-2.56-1.59-5,2.56,1.19,1,3.46,1.51,5.12Z"/><path class="cls-42" d="M166.38,280.17c.35-1.68-1.17-3.88,1.67-5.16,1.07,2.4.78,4.08-1.76,5.08Z"/><path class="cls-43" d="M94.23,228.43c-.12,3.66-1.61,5.18-3.36,7.72C90.73,232.74,92.17,231.1,94.23,228.43Z"/></g></g></svg>