<svg xmlns="http://www.w3.org/2000/svg" viewBox="0 0 477.06 358.94"><defs><style>.cls-1{fill:#eceeee;}.cls-2{fill:#3c2b4e;}.cls-3{fill:#38284b;}.cls-4{fill:#fbc22b;}.cls-5{fill:#528b8c;}.cls-6{fill:#51898c;}.cls-7{fill:#467b82;}.cls-8{fill:#fb7c64;}.cls-9{fill:#fa9f51;}.cls-10{fill:#fab63a;}.cls-11{fill:#a442e9;}.cls-12{fill:#fa6374;}.cls-13{fill:#a078d1;}.cls-14{fill:#fdc81f;}.cls-15{fill:#c55dc0;}.cls-16{fill:#fbfbfb;}.cls-17{fill:#f2d96a;}.cls-18{fill:#498086;}.cls-19{fill:#f9966b;}.cls-20{fill:#f9af48;}.cls-21{fill:#faa35d;}.cls-22{fill:#f9b147;}.cls-23{fill:#f77e79;}.cls-24{fill:#f98476;}.cls-25{fill:#f99769;}.cls-26{fill:#f7ab50;}.cls-27{fill:#fafafb;}.cls-28{fill:#d5cbcc;}.cls-29{fill:#f68a72;}.cls-30{fill:#ebdbc1;}.cls-31{fill:#efc9a2;}.cls-32{fill:#e5d5cd;}.cls-33{fill:#c9bdc0;}.cls-34{fill:#ddd7d3;}.cls-35{fill:#b8adbd;}.cls-36{fill:#d1c9d3;}.cls-37{fill:#8385db;}.cls-38{fill:#7183dd;}.cls-39{fill:#fbd868;}.cls-40{fill:#fafbfb;}.cls-41{fill:#a941df;}.cls-42{fill:#f4df91;}.cls-43{fill:#f4bc38;}.cls-44{fill:#c6a37e;}.cls-45{fill:#e1d0ba;}.cls-46{fill:#d5b991;}.cls-47{fill:#d4cbcb;}.cls-48{fill:#f9a05f;}.cls-49{fill:#39294c;}.cls-50{fill:#ded9d0;}.cls-51{fill:#a479b7;}.cls-52{fill:#f2c984;}.cls-53{fill:#f1cf90;}.cls-54{fill:#f8e3b0;}.cls-55{fill:#f0c586;}.cls-56{fill:#e9b172;}.cls-57{fill:#f0ba6f;}.cls-58{fill:#f7e0b3;}.cls-59{fill:#ec9a4b;}.cls-60{fill:#f3dca1;}.cls-61{fill:#edd598;}.cls-62{fill:#de8f45;}.cls-63{fill:#ebd2a5;}.cls-64{fill:#f6e0b2;}.cls-65{fill:#f8deaa;}.cls-66{fill:#f4b763;}.cls-67{fill:#ebb669;}.cls-68{fill:#362e2b;}.cls-69{fill:#f5dead;}.cls-70{fill:#ebd1a5;}.cls-71{fill:#312a27;}.cls-72{fill:#302925;}.cls-73{fill:#35312d;}.cls-74{fill:#e5ba75;}.cls-75{fill:#c0b2a2;}.cls-76{fill:#342c27;}.cls-77{fill:#392f29;}.cls-78{fill:#715f48;}.cls-79{fill:#392f2b;}.cls-80{fill:#4c3423;}.cls-81{fill:#eebd74;}.cls-82{fill:#435055;}</style></defs><title>资源 18welcome_02</title><g id="图层_2" data-name="图层 2"><g id="图层_1-2" data-name="图层 1"><path class="cls-1" d="M302.74,335.55c-28.33,0-56.68.61-85-.19-34.7-1-61-16.69-74.82-49.14-13.42-31.56-5.15-59.83,16.87-84.88.78-.88,2.25-1.55,2.43-2.51C174.71,134,234.59,125,279.59,97.39,337.72,61.7,417,89,433.57,154.14c3.08,12.09,7.71,20.9,16.44,29.7,27.74,28,34.49,61.87,18.64,97.52-15.76,35.44-46.28,52.34-84.48,54C357.08,336.52,329.89,335.58,302.74,335.55Z"/><g id="图层_2-2" data-name="图层 2"><g id="图层_1-2-2" data-name="图层 1-2"><path class="cls-2" d="M417.45,356.71c1.56.12,3.11.35,4.67.34,13.53-.06,27.07-.17,40.61-.23.91,0,2.47-.63,2.44,1,0,1.39-1.51.92-2.38.93q-23.88.11-47.76.12-80.46,0-160.92-.07-70.74,0-141.49.11-46.2,0-92.4-.15a11.72,11.72,0,0,1-2.44-.14c-1.06-.22-1.19-.78-.29-1.49a7.4,7.4,0,0,1,2.65-.16H100.5c2.42,0,4.83.18,7.26-.59a20.53,20.53,0,0,1,6.19-.59c10,0,20.09,0,30.14,0,4.37,0,8.74.77,13.12.34,3.22-.65,6.49-.08,10.16-.38-2.93-1.6-5.41-3.29-6.37-6.46-.38-2.17-.76-4.34-1.28-6.47-.84-3.45-1-6.77,1.6-9.59a15.51,15.51,0,0,0,2-3.89c1.44-4,4-7.29,5.94-11,2.43-4.56,4.23-9.27,3.1-14.63a2,2,0,0,1-.08-1.84c0-.11.33.26.06.15-.12,0-.18,0-.19.12a2.33,2.33,0,0,0,.39,1.89c.7,5.1-.75,9.7-3.12,14.07-1,1.48-1.57,3.32-2.92,4.61-1.41-.35-1.13-1.62-1.27-2.61-.88-5.89-3.8-11-5.43-17.17-2.42,2.89-3.19,6.07-4.76,8.8a63,63,0,0,1-5.35,7.9,6.6,6.6,0,0,1-.71.69,55.19,55.19,0,0,1-17.06,12.74,29.79,29.79,0,0,1-13.24,2.9,5.45,5.45,0,0,0-2.54,0,12.51,12.51,0,0,1-5-.54,5.22,5.22,0,0,1-2.54-.57,14.46,14.46,0,0,1-9.35-6c-1.63-2.26-4-3.93-5.46-6.32-.64-1-2.12-2-.51-3.41.21-.18-.31-.25-.48-.38a10.17,10.17,0,0,1-3.7-4.76c-.31-.82-.74-1.78.22-2.5.77-.55,0-.71-.16-1-1.09-1.71-1.93-3.43-.83-5.53.49-.93-.06-1.95-.14-2.93-.14-1.78-.8-3.65.54-5.28a12.1,12.1,0,0,1,.73-4.24c1.9,9.11,7.23,15.37,14.74,19.85,11.4,6.78,23,4.32,32.49-3.44,4.21-3.43,7.19-7.91,10.13-12.43,3.65-5.57,6.93-11.41,11.37-16.41a17.89,17.89,0,0,0,1.59-2.47,3.22,3.22,0,0,1,1-2c4.51-4.37,7.9-9.78,12.48-14.09,3.32-3.12,7.25-5.11,11.26-6.92,14-6.3,28-12.49,41.76-19.22,7.13-3.48,13.3-8.4,19.75-12.93a13.69,13.69,0,0,1,2.76-1.92c2.75-1,4.25-3.11,5.44-5.72,1.4-3.06,2.23-3.23,4.95-1.39,7.83,5.3,16.46,8.81,25.17,12.17,2.85,1.09,5.78,2,8.66,3a3.91,3.91,0,0,1,2.53,2.08c1.92,4.29,3.35,8.71,3,13.52a7.44,7.44,0,0,1-2.55,5.22,3.63,3.63,0,0,0-1.25,3.69,54,54,0,0,1,.68,6.09c.23,2.91.23,5.87-2.31,8-.49.41-.24,1-.21,1.52.19,3.24-.2,6.25-2.51,8.77-1,1.12-.7,2.78-1.19,4.17a11.13,11.13,0,0,1-1,2.54c-.16.26-.41.66-.6.65-2.05-.11-1.52,1.5-1.78,2.66a15.59,15.59,0,0,1-5.4,9.38,37,37,0,0,0-6.42,7.54,35,35,0,0,0-.11,12.74,13.16,13.16,0,0,1,.27,2.26c-.19,7.83,1.09,15.55,1.63,23.32a14.61,14.61,0,0,0,.74,3.12c1.12,2.41,2.33,4.47,5.5,4.56s6.2,1.11,7.59,4.65a2.06,2.06,0,0,0,2.22,1.19c11.61,0,23.22.07,34.83,0,1.25,0,2.49-.54,3.76-.11,5.11.17,10.23.46,15.33-.18a20,20,0,0,1,2.68-.12h30.32c2.88,0,5.72.81,8.65.12a3.9,3.9,0,0,0,3-2.29,56.32,56.32,0,0,0,4.66-14.35,10,10,0,0,1,.43-1.78c.31-.87.6-2,1.65-1.87s.72,1.33,1,2.08a4.28,4.28,0,0,1-.53,2.93c2.13-3.77,4.85-3.87,7.83-.73.67-1.47.2-3.41,1.78-4.48,1.35.21,1.58,1.38,1.61,2.38.16,4.3,1.88,8.11,3.35,12a21.17,21.17,0,0,1,1,2.55C413.73,354.8,414.78,356.59,417.45,356.71Z"/><path class="cls-3" d="M428.53,151.69a67,67,0,0,1,2.38,23.41c-.47,7-1.42,13.86-2.38,20.76-1.35,9.61-2.85,19.19-4.3,28.79Q422.12,238.83,420,253a68.74,68.74,0,0,0-.92,15.11c.7,10.1-1.08,20-3.07,29.83-.36,1.78-.73,3.56-1.09,5.35a2.35,2.35,0,0,1,.34,2.16c-.8,3.39-1.29,6.86-2.24,10.21-.31,1.11-.73,2.17-2,2.54a54.67,54.67,0,0,1-14.9-.13,3.33,3.33,0,0,1-1.39-3.15c0-2.27-.05-4.55-.27-6.82a7.53,7.53,0,0,1-.1-1.71,54.63,54.63,0,0,0,.15-7.35,227.57,227.57,0,0,1,2.12-28.57c.5-3.94,1-7.89,1.84-11.77.41-1.78-.21-3.5-.42-5.23-.83-7.06-1.19-14.15-1.6-21.24a3.24,3.24,0,0,1-.26-.87c-.31-7.83,0-15.66-.42-23.48a51.29,51.29,0,0,1,.36-7.22c-.1,8.28-1.64,17.19-3.21,26.07-2.67,15.18-7.55,29.47-15.93,42.44q-11,17.08-23.52,33c-.7.88-1.33,1.89-2.61,2-4.28-2.31-8.66-4.46-12.28-7.87a1.76,1.76,0,0,1,0-1.11c4.1-9.61,8.27-19.2,12.7-28.66,3-6.28,6.28-12.37,9.58-18.47a10.34,10.34,0,0,0,1.26-5c0-7.68,0-15.36,0-23a291.44,291.44,0,0,1,5.51-57.81c1.43-7.44,2.56-14.93,4.09-22.35.18-.91.42-1.79.68-2.67A73.15,73.15,0,0,1,369.6,147c-2.23,4.59-3.34,9.59-4.91,14.43-.37,1.15-.47,2.43-1.43,3.3a2.07,2.07,0,0,1-1.91.28c-2.9-1.05-5.89-1.91-8.58-3.57a2.31,2.31,0,0,1-.37-.6c-.33-1.6.74-2.65,1.42-3.87s1.83-2.15,2.32-3.52c4.28-6.75,8.39-13.61,12.09-20.71a86.08,86.08,0,0,0,5.43-12.08c3.23-13.16,5.43-26.53,7.68-39.9.64-3.77,1.3-7.55,1.56-11.36a20.19,20.19,0,0,0-.85-8.59,23.63,23.63,0,0,0-2.1-5c-.41-.82-1.14-1.72-.11-2.64,1.3-.16,1.78.92,2.37,1.74,2,2.64,3.57,5.63,5.81,8.13,2.9,3.25,6.13,6,10.31,7.35a21.16,21.16,0,0,0,12,.8c1.06-.27,2.15-.66,3.23,0a17,17,0,0,1,.7,7.22c-.42,6.54-.47,13.16-1.24,19.69-.84,7.21-.47,14.57-2.45,21.63-.31,1.09.36,1.72.89,2.45,4.48,6.11,8.84,12.31,12.81,18.8C426.3,144.29,428.2,147.65,428.53,151.69Z"/><path class="cls-4" d="M287.56,283.92a13.88,13.88,0,0,0,1.31-5.52c0-.44-.11-1,.34-1.26,2.82-1.63,2.8-4.43,2.84-7.21V266.2c.68.59,1.24.66,1.7-.6,1.36-3.62.67-7.27.4-10.92-.09-1.15-.22-2.29-.3-3.44a1.63,1.63,0,0,1,.55-1.63c4.58-3.18,3.86-7.68,2.69-12.17-.6-2.29-1.67-4.43-2.29-6.71-.36-1.33-1.36-1.34-2.2-1.6a161.64,161.64,0,0,1-26.42-10.78,83.87,83.87,0,0,1-8.42-5.11c-1.23-.83-1.78-.59-2.2.68a16.69,16.69,0,0,1-.78,1.65,10.75,10.75,0,0,1-4.9,5.46c-4.36,2.38-8.33,5.57-12.37,8.58-6.74,5.06-14.41,8.24-21.88,11.77q-15.69,7.38-31.59,14.3a40.87,40.87,0,0,0-16.81,13.94,75.41,75.41,0,0,1-7.37,8c-.5-2.81.83-5.21,1.78-7.61,6.07-15.13,15.56-27.25,29.58-35.29a23.82,23.82,0,0,1,6.21-2.49c3.95-1,5.75-3.57,6.25-7.6,1.73-13.67,9-23.69,20.15-30.7s23.16-8.8,35.84-6.48c1.71.32,3.75-.2,5.11,1.51.59,1.19-.17,2.06-.67,3a56.84,56.84,0,0,1-5.79,7.88c-1.93,2.44-2,3.28-.22,5.91a2.92,2.92,0,0,1,.43,3c-.94,1.95-.12,3.05,1.45,4.16,6.85,4.75,14.42,7.93,22.08,10.94a78.72,78.72,0,0,0,9.94,3.41c1.51.38,2.33.13,2.74-1.58.6-2.38,1.19-2.68,3.73-2.41,1.32,2.29.89,4.91,1,7.34.18,3.57.69,7.17.59,10.77-.06,1.93,1,3.28,2.2,4.59a78.7,78.7,0,0,1,13.37,18.58,22,22,0,0,1,2.27,5.73c1.19,4.75,2.16,9.51,3.08,14.31a36.85,36.85,0,0,1,.42,9.84c-.2,2.6-1.56,3.75-4.16,3.82a18.88,18.88,0,0,1-6.85-.64,5.94,5.94,0,0,0-2.65-.21c-6.23.63-12.44.89-18.57-.86a6.19,6.19,0,0,0-1.55-.1c-3-.09-4-1.54-3-4.52a12,12,0,0,0,.91-4.67,1.35,1.35,0,0,1,.75-1.52C287.09,285.37,287.24,284.59,287.56,283.92Z"/><path class="cls-2" d="M298.32,223.14c-.16.16-.31.43-.49.46-2,.24-2.5,1.65-2.51,3.44,0,1.47-.7,1.78-2,1.44-12.3-3.57-24.13-8.28-34.88-15.6-1.52-1-2-2.08-1-3.72a2.47,2.47,0,0,0-.44-3.52c-1.75-1.74-1.56-3.8.26-5.95A50.4,50.4,0,0,0,264.79,189c2-2.76,3-6.08,4.54-9.12,2.11-4.16,4.62-7.84,9.47-9,.8-.18,1.44-1,2.14-1.6a15.48,15.48,0,0,1,9.94-3.33c2.2,0,3.83,1.36,5.32,3,4,4.35,2.94,4.13,8.36,1.72,3.65-1.63,7.26-3.38,10.88-5.08,3.05-1.42,4.31-.59,4.25,2.86a37.27,37.27,0,0,1-.46,4.07c-.18,1.34-.41,2.67-.64,4.12,2.38-.24,4.13-1.83,6.08-3a10.05,10.05,0,0,1,2.81-2.51c1.11-.72,2.29-1.61,2.62.72.13.92.74.49,1.19.45,1.06-.08,2.08-.1,2.56,1.19.13,1.45-.76,2.21-1.78,2.9a9.92,9.92,0,0,1-6.41,1.48c-2.69-.19-4.35,1.65-6.18,3.18-.69.59-.4,1.43-.31,2.16.46,3.72-1.28,6.13-4.27,7.83a26.31,26.31,0,0,1-6.49,2.37,9.7,9.7,0,0,0-7.48,7.31,45.14,45.14,0,0,1-2.9,7.72,9.6,9.6,0,0,0-1.46,3.29c-.29,2.24-.76,4.52,1.43,6.23.67.52.89,1.54,1.29,2.37C299.49,221.41,299.58,222.52,298.32,223.14Z"/><path class="cls-5" d="M411.19,317.67c1.49-2.6,1.53-5.62,2.27-8.43.52-2,1-4,1.41-5.95a112.85,112.85,0,0,1,34.48-8.14c7-.6,11.27,1.68,7.9,10.38-5.88,15.26-13.91,29.09-25.32,40.66a58.19,58.19,0,0,1-14.48,10.52c-3,1-3.37.78-4.39-2.08-.92-2.57-2-5.07-2.9-7.65-1-2.92-2.33-5.78-2.1-9a3.68,3.68,0,0,0-.69-2.38c-.86-.84-.51-1.84-.28-2.77,1-4,1.69-8,2.47-12.06A4.28,4.28,0,0,1,411.19,317.67Z"/><path class="cls-6" d="M110.77,334.75l5.35.44a4.89,4.89,0,0,0,2.63,0c4.68.17,9-1.4,13.32-2.91a3.25,3.25,0,0,1,1.48.49,58.58,58.58,0,0,1,9.46,9,1.81,1.81,0,0,1,.47,1.7c-1,1.58-2.34,1-3.57.59a45.9,45.9,0,0,0-8.75-2.54,41.89,41.89,0,0,0-13.5.21,13.18,13.18,0,0,1-4.85,0,9.52,9.52,0,0,0-3.76,0,14.88,14.88,0,0,1-5.07-.09c-3.07-.42-6.17-.52-9.26-.78-1.94-.18-3.83,1-5.35,2.38-.44.39-.73,1-1.38,1.07-8.92-8.65-16.35-18.43-20.45-30.47-2.58-7.6,2.21-9.86,8.15-9.37,4.8.4,8.6,3.07,11.85,6.62.72.23,1,.85,1.19,1.51a38.5,38.5,0,0,0,6.06,11.06c2.87,3.42,5.35,7.27,9.51,9.39,1,.51,2,.73,3,1.14C108.47,334.38,109.44,335.78,110.77,334.75Z"/><path class="cls-7" d="M88,344.33c.92-2.71,5-4.85,7.93-4.45,4.55.6,9.15.72,13.73.95,6.24.33,12.34-1.19,18.55-.67a40,40,0,0,1,12.43,3.14c.91.39,2,1.05,2.74-.32a.9.9,0,0,1,.88-.35c2.24,1,3.61,3.14,5.41,4.72,2.48,2.18,4.93,4.44,7.24,6.82.66.69,1.51,1.34,1.26,2.53-2.91.95-6,.68-8.85.42-5.28-.48-10.55-.26-15.82-.31-7-.06-14-.14-21,0-31.67.8-63.33.08-95,.33.78-.68,1.71-.35,2.57-.35h84.23a4.53,4.53,0,0,0,1.55-.2A56.28,56.28,0,0,1,88,344.33Z"/><path class="cls-8" d="M397.71,70.94c-4.22-1.26-7.42-4-10.21-7.41a2.8,2.8,0,0,1-.17-1.78c1.71-6.54,1.71-13.31,3-19.88,1-5.35.76-10.84,1.93-16.15.5-2.32,0-4.76.63-7.09.2-.81.19-1.69,1-2.2a42.17,42.17,0,0,0,9.38,11.42,12.94,12.94,0,0,1,4.26,7.82,27.85,27.85,0,0,0,1.66,5.66c-1.48,1.68-1.71,3.72-1.95,5.91a131.11,131.11,0,0,1-3,18.8C403.35,69.43,400.94,71.13,397.71,70.94Z"/><path class="cls-9" d="M393.86,16.41c-.24,5.5-1.06,10.93-1.55,16.4-.32,3.71-.89,7.39-1.18,11.09s-1.51,7.14-1.57,10.85c-.06,3.06-.38,6.1-2.07,8.78-2.76-2.62-4.24-6.25-6.64-9.14-.29-.35-.6-.68-.87-1-2.33-.59-4.8.08-7.13-.77-.35-.72.14-1.09.59-1.48a8.41,8.41,0,0,1,4.33-.81c.6,0,1.19.32,1.64-.32A39.89,39.89,0,0,0,380,35.18a7.75,7.75,0,0,0-.14-1.36c-1.69-5.67-2.18-11.51-2.55-17.39a54.89,54.89,0,0,1-.41-6.41,8.71,8.71,0,0,1,1-4.44A6.35,6.35,0,0,0,379.1.36c5,.84,8.33,4.09,10.91,8.32A38.46,38.46,0,0,1,393.86,16.41Z"/><path class="cls-10" d="M379.1.36c2,2.25,2,2.47,0,4.65-1.27,1.4-1.14,3.25-1.33,5a22.26,22.26,0,0,0,.47,6.61c.54,2.75.13,5.55.69,8.32.4,2.05.66,4.17,1.18,6.24a43,43,0,0,1,1.16,12.94,52.74,52.74,0,0,1-1.35,7.14c-3.47-2.67-6.49-5.57-6.17-10.62.11-1.74.24-3.51-1.32-4.88-.8-.7-.6-1.83-.36-2.83a21.85,21.85,0,0,0,.73-4.95c0-1.19-.22-2.26-1.83-1.61-1.24.49-2.16-.18-3-1-1.19-1.14-2.33-2.38-3.49-3.57a26.21,26.21,0,0,0-5.88-4.53c0-.65.38-1.5,1.71-3.57-1-.69-2.85.11-3.07-1.84,0-.07.07-.17.13-.2,4.32-2.34,7.62-6,11.35-9.14A11.84,11.84,0,0,1,379.1.36Z"/><path class="cls-11" d="M428.53,151.69c-4.25-10.86-11.38-19.84-18-29.13-1-1.42-1.53-2.44-.56-4.23,1.09-2,.84-4.48,1-6.76,1.05-13.39,2.49-26.76,2.34-40.2.1-.59.38-.78.89-.4,1.53,7.8,2.22,15.73,3.2,23.61,1.24,10.11,3.82,19.9,6.08,29.77,1.79,7.73,3.74,15.4,5,23.24A28.06,28.06,0,0,1,428.53,151.69Z"/><path class="cls-12" d="M414.23,71l-.89.4c-5.25,1.63-10.47,1.91-15.63-.41,3.57-.89,5.25-3.21,6.08-7,1.09-4.86,1.19-9.86,2.38-14.68.48-1.92,0-3.95.52-5.94.38-1.44,1-2.15,2.43-2A14.59,14.59,0,0,0,416.26,46a12.23,12.23,0,0,1,7.13,5.81c3.31,6.2.95,13.38-5.65,17.24C416.62,69.75,415.41,70.33,414.23,71Z"/><path class="cls-13" d="M374.22,121.23a75.36,75.36,0,0,1-5.69,12.66,215.36,215.36,0,0,1-11.77,20,10.78,10.78,0,0,1-7.48,2.33c-1.86-.1-3.69.33-5.54.19-.84-.06-1.78.14-2.49-.67.56-1,1.12-2,1.69-3a148.52,148.52,0,0,0,9.66-20.49c.18-.48.3-1.06,1-1.1a1.67,1.67,0,0,1,.89,1c.69,1.54,1.84,1.58,3.16,1.07a18.41,18.41,0,0,0,6.11-4.08c2.72-2.58,5.71-4.85,8.33-7.56C372.55,121,373.29,119.78,374.22,121.23Z"/><path class="cls-14" d="M357.26,11.85c.71.55,1.38,1.1,2.38.66.72-.31,1.55-.26,1.84.63a1.81,1.81,0,0,1-.87,2.14c-.74.46-1.62.7-2.05,1.59a4,4,0,0,1,.16,1.78,18.08,18.08,0,0,0,1.13,8.78,21.93,21.93,0,0,1,1.39,8.06,4.27,4.27,0,0,0,1.36,3.43,11,11,0,0,1,2.67,5.16c.4,1.73,1.25,2.3,2.85,2a11.7,11.7,0,0,0,1.31-.27c1.81-.59,3.06.12,3.7,1.9.45,1.25,1.29,2.47.64,3.93l-.87.8c-.73,2.31-3,3-4.44,4.59a6,6,0,0,1-1.54,1h-.3c-4.16-1.11-8.42-6.6-8.5-11a14.79,14.79,0,0,1,.61-4.53c.93-3,.59-5.35-2.1-7.63-5-4.36-6.36-13-3.51-19.06A6.82,6.82,0,0,1,357.26,11.85Z"/><path class="cls-15" d="M341.25,155.76a15.65,15.65,0,0,1,5.89-.35c3.36.18,6.42-1,9.62-1.5-1.13,2.45-3.25,4.28-4.06,6.94-2.44,3.46-5.18,6.7-7.56,10.21a2.17,2.17,0,0,1-3.48.59c-1.78-1.36-3.22-.91-4.79.41-.92.76-1.78,2-3.3,1.34-.91-.84-1.9-.44-2.84-.1-.56.2-.9,1.27-1.65.59s.17-1.34.28-2c0-.29,0-.59.07-1.19a18.27,18.27,0,0,1-4.76,2.94c1.57-3,3.25-5.65,6.48-7.39,3.45-1.85,5.77-5.41,8.47-8.33C340.22,157.23,340.7,156.46,341.25,155.76Z"/><path class="cls-16" d="M353.59,131.17c-2.18,5-4,10.18-6.66,15-1.23,2.26-2.26,4.66-4,6.61.08-1.64,1.16-2.79,1.87-4.12a131,131,0,0,0,13.33-38.38c.64-3.61,1.49-7.17,2-10.82a3.79,3.79,0,0,0-.89-3.29,15.23,15.23,0,0,1-3.79-8.65,11.44,11.44,0,0,1,1.9-7,60.05,60.05,0,0,0,7.86-18.68A37.92,37.92,0,0,1,366.62,58h0a.41.41,0,0,1,.58,0,.75.75,0,0,1,.07.12c.54,1.26-.07,2.44-.4,3.56-1.71,5.76-2.15,11.73-2.89,17.64-1,8-1.53,16.14-2.91,24.13-.89,3.7-1.25,7.5-2.06,11.21-1.05,4.76-2.38,9.47-3.82,14.12C354.89,129.75,354.62,130.75,353.59,131.17Z"/><path class="cls-17" d="M107.16,334.6a15.7,15.7,0,0,1-9.25-5.87c-3-3.7-6.27-7.32-8.25-11.89a49.11,49.11,0,0,1-2.16-5.75c.32-2.87-1.16-5.5-1-8.39.15-2.38,0-4.75,1.33-6.93.67-.14.48.8.94,1a27.34,27.34,0,0,0,.83,8c.12.38.75,1.47-.75,1.19-1.13-.23-.49.86-.4,1.19a9.11,9.11,0,0,0,3.57,5.21c-1.15.45-1.79-.41-2.82-.65.7,4.27,4,6.35,6.83,9.12-1.35-.1-2-1-3.28-1.47a23.38,23.38,0,0,0,4.5,6.33,35.85,35.85,0,0,1,3.62,4.16,11.66,11.66,0,0,0,8,4.46C108.52,335.33,107.85,334.93,107.16,334.6Z"/><path class="cls-18" d="M395.13,307.82c.75,2.13.44,4.36.51,6.54a8.7,8.7,0,0,0,.47,3.36c1.14,1,1.07,2.49,1.26,3.81.63,4.54.88,9.13,1.31,13.67.11,1.19.31,2.51-1.19,3.12-.09-.74-.18-1.48-.32-2.56a16.12,16.12,0,0,0-1.47,5.52c-.91,5-3,9.61-5.09,14.17-.29.59-.6,1.25-1.41,1.27-2.52.09-5,.78-7.55.24a11,11,0,0,0-2.43-.18c-10.11,0-20.22-.2-30.32.05-5.35.14-10.7.32-16,.31-.87,0-1.79.26-2.51-.59-.53-1.6.73-2.19,1.62-2.85,4.36-3.28,8.14-7.24,12.25-10.82,5.72-5.59,11.47-11.13,17.61-16.23a104.85,104.85,0,0,1,29.07-18.43C392.24,307.76,393.6,306.77,395.13,307.82Z"/><path class="cls-19" d="M191.61,346.6c-3.28-3.77-3.64-8.19-2.57-12.86a5.27,5.27,0,0,1,2.12-3.41,123.19,123.19,0,0,0,12.36-9.26c1.61,2.31,3.8,2.26,6.15,1.6a18.12,18.12,0,0,1,5.08-.54c7.21,0,14.42.18,21.61-.52,2.72-.26,5.51-.13,8.15-1.06a5.41,5.41,0,0,1,2.43-.17c1.41.19,1.34,1.23,1.41,2.38.05.77-.6,2,.88,2.24a1,1,0,0,0,.29,0c1.19,1.13,1.16,2.7,1.32,4.16a12.07,12.07,0,0,0-.2,5.88c.43,1.66,2.14,3,1,5a10.83,10.83,0,0,0,1,.75c.35,2.88-1.07,4.76-3.83,4.92s-5.48.22-8.23.4a344.19,344.19,0,0,1-36.05,1,85.19,85.19,0,0,0-11.74-.05A1.71,1.71,0,0,1,191.61,346.6Z"/><path class="cls-20" d="M287.56,283.92c0,.3.06.71-.1.89-2.22,2.55-1.11,6-2.34,8.85a1.28,1.28,0,0,0,1.44,1.9c2.64-.59,4.95.76,7.44,1a61.09,61.09,0,0,0,12.61,0,8.35,8.35,0,0,1,4.16.14c2.46,1,5,.66,7.49.59,2.15,0,2.21-1.9,2.31-3.52a48.14,48.14,0,0,0-1.64-15.66c-.71-2.64-1.28-5.35-1.92-8,1.51,0,1.73,1.31,2.11,2.3A80.45,80.45,0,0,1,323.28,289c.78,5.11,1,10.31,3.88,14.94,1.29,2.1,2.52,4.57,1.92,7.36-.53.95-1.49.86-2.35,1a6.2,6.2,0,0,0-2.52,1.36c-.7.45-1.19,1.19-1.89,1.61a6.46,6.46,0,0,1-5.21,2.47c-3,.17-6,.6-9,1.07a28.75,28.75,0,0,1-6.87-.21c-4.59-.41-9.17.24-13.74.64a61,61,0,0,1-9.56.09,5.3,5.3,0,0,1-4.84-5.57c0-3.52-.26-7,.18-10.54,2.2-1.91,4.45-3.76,5.72-6.54.12-.26.24-.64.46-.72,4.46-1.84,5.25-6,5.94-10.15.13-.78-.13-1.66,1.12-.69C286.91,285.48,287,284.18,287.56,283.92Z"/><path class="cls-21" d="M273.24,303.25l0,9.2c0,3.72,2.3,5.94,5.94,6.08,7,.24,14-1.49,21.06-.84,5.54.52,10.88-.52,16.31-.85a8.74,8.74,0,0,0,5.88-2.46c.69.64.37,1.39.22,2.14-.84,4.19-1.57,8.42-3.57,12.27a4.72,4.72,0,0,0-.33,1.33,37.43,37.43,0,0,1-4.83,9c-.25.16-.63.18-.78.42-2,3.13-5.2,3.15-8.15,3.14-6.6,0-13.11,1.28-19.7,1.25-3.44,0-7,.41-10.29-1a156.8,156.8,0,0,1-1.62-16.19c-.42-7.34-.74-14.7-.59-22.06C272.82,304.18,272.66,303.59,273.24,303.25Z"/><path class="cls-22" d="M247.37,320.8c-3.34,1.41-6.92,1.6-10.43,1.78-6.15.33-12.31.89-18.47.51-4-.25-7.83.48-11.73,1-2.23.27-3.44-.48-3.22-3a19.06,19.06,0,0,0,6-14.86q-.06-3.11,0-6.21a6.51,6.51,0,0,1,5.74-6.91,21.06,21.06,0,0,1,9.87,1,198.67,198.67,0,0,1,20.24,7.34c1.62.69,2.27,1.4,1.14,3.08a5.53,5.53,0,0,0-.46,1.74,14.53,14.53,0,0,1,.56,6c-.05.53-.5,1.19.27,1.57,1.34.56.94,1.78.83,2.74a7.76,7.76,0,0,0-.31,2.21,1.33,1.33,0,0,1,.08,1.89Z"/><path class="cls-23" d="M275.05,342.93c2.78-.75,5.54.28,8.32.11,3-.19,6,.2,9-.45,4-.85,8.08-.31,12.09-.75,2.89-.32,6.33.43,8.21-3,.39-.72.75-.56,1.15,0,.81,1.11.17,2.22,0,3.29a12,12,0,0,0,.26,6.77c1.49,3.84,5.35,5.31,8.72,3.08a13.63,13.63,0,0,0,6.34-11c.09-1.42-.53-3.13,1.13-4.12.78.3.6.92.48,1.52.28-.6,0-1.61,1.15-1.55a2.12,2.12,0,0,1,1.36,1.69c.33,1.89,1.45,2.6,3.2,2.87,2.38.37,4.51,2,7.09,1.19.47-.15,1,.28,1.19.83A154.25,154.25,0,0,1,332,354.8a4.76,4.76,0,0,0-1.67,1.78,15.27,15.27,0,0,1-4.85.51q-17.26,0-34.52.05c-1.36,0-2.15-.14-2.41-1.78-.32-2.15-1.95-3.15-3.89-3.57-.86-.2-1.78-.28-2.63-.39C277.7,350.81,275.14,347.72,275.05,342.93Z"/><path class="cls-24" d="M191.61,346.6c3.65-1.41,7.41-.81,11.14-.65.82,0,1.63.2,2.44.2,9.06,0,18.12.21,27.16-.48,5.55-.43,11.07-.88,16.65-.92,2.17,0,3.41-1.44,3.72-4,1.16,2-.22,3.64-.85,5.31-.54,1.41-.35,2.09,1.15,1.85,4-.63,6.8.41,7.34,5.1.08.71.69,1.35,1,2s1,1,.72,2h-4.79q-23.17,0-46.4.07c-1.66,0-2.85,0-3.29-2.25-.5-2.55-2.7-3.84-6.2-3.63A10.37,10.37,0,0,1,191.61,346.6Z"/><path class="cls-25" d="M158.12,356.71c-3-3.64-6.81-6.38-10.07-9.73-1.32-1.35-2.68-2.65-4-4-.95-1.25-.48-2.64-.27-4a94.56,94.56,0,0,1,4.94-19.38l.4-.31a1.22,1.22,0,0,1,.74.82c.65,3,2.74,4.1,5.35,4.75a10.6,10.6,0,0,1,4.08,1.79c1.52,1.19,2.56,1.07,3.63-.6.51-.79,1.19-1.92,2.48-.92-.34,1.62-1.19,3.06-1.54,4.69a7.1,7.1,0,0,1-1.54,3.43c-2.78,2.07-3.22,4.79-2.37,8.08.7,2.66.5,5.56,1.9,8.06a8.34,8.34,0,0,0,4.28,4.66,6.84,6.84,0,0,1,3.5,2.74C165.64,356.82,161.89,357.22,158.12,356.71Z"/><path class="cls-26" d="M165.13,325c-.19.12-.48.19-.56.36-1.82,3.91-4.29,3.52-7.25,1.37a13.14,13.14,0,0,0-3.74-1.47c-3.43-1.09-4.12-1.95-4.48-5.86A63.93,63.93,0,0,0,157.84,304a5.24,5.24,0,0,1,2.42-2.37c1.74,7.22,5.8,13.6,6.08,21.2C166.26,323.75,166.3,324.72,165.13,325Z"/><path class="cls-27" d="M397.52,338.36c.71-3.19-.12-6.34-.33-9.51-.26-3.72-.71-7.42-1.08-11.13l15.08-.07q-1.9,9-3.82,17.93a23.35,23.35,0,0,0-1.05,7.14c-1.58-1.68-1.93-4.29-4.39-4.39s-3.46,1.84-4.41,3.89Z"/><path class="cls-28" d="M148.7,319.66c-.08,3.81-1.38,7.35-2.32,11-1.08,4.09-1.67,8.25-2.35,12.38h-.7c-3.57-3.81-7.51-7.14-11.3-10.7A60.45,60.45,0,0,0,148.7,319.66Z"/><path class="cls-29" d="M187.37,356.76c-1.37.26-2.12-.15-2.57-1.68-.8-2.75-2.52-4-5.3-3.81a7.82,7.82,0,0,1-7.79-4.22c-1.38-2.32-1.06-4.11,1.07-5.68.72-.53,1.47-1,2.19-1.56,2.2-1.66,2.27-1.7,3.37.77,2.5,5.6,5.35,10.92,10.43,14.54.4.29,1,.8.64,1.3C188.94,357.12,188.05,356.64,187.37,356.76Z"/><path class="cls-30" d="M246.88,313.87c-.67.18,0,.95-1,1.58,1-3.33-1.19-6.19.18-9.19l2.13-1.28C248.58,308.25,247.19,311,246.88,313.87Z"/><path class="cls-31" d="M247.37,320.8l0-2c2-.42,2.2.92,2.14,2.38a21.93,21.93,0,0,0-.31,3.81c-.29.32-.57.9-.85.9-.48,0-.36-.71-.59-1C246.93,323.56,248.15,322.07,247.37,320.8Z"/><path class="cls-32" d="M161.88,349.41c-1.64-1-1.23-2.83-1.56-4.3a28.51,28.51,0,0,1-1-7.23,4.93,4.93,0,0,1,3-4.61c-4,3.5-2,7.82-1.44,11.92C161.09,346.6,161.54,348,161.88,349.41Z"/><path class="cls-33" d="M169.14,318.36c.46-1.1.87-2.23,1.39-3.3a21.55,21.55,0,0,0,1.79-11.3l0,0c1.27,2.28.89,4.75.37,7.06a21.82,21.82,0,0,1-3.29,7.73l-.37.15Z"/><path class="cls-34" d="M165.13,325l1.19-2.1,2.8-4.49a.4.4,0,0,0,.23.23c-2,3.68-3.87,7.39-5.51,11.25C163.59,328,164.92,326.63,165.13,325Z"/><path class="cls-31" d="M250.84,329.14c.16-1.59-2.18-2.38-1.32-4.16.92-1,1.54-1.19,1.47.59C250.94,326.73,250.89,327.93,250.84,329.14Z"/><path class="cls-7" d="M107.16,334.6c.59-.15,1.29.35,1.78-.37.7-.14,1.06,1,1.84.52.18.32.81.79-.14.8A5.31,5.31,0,0,1,107.16,334.6Z"/><path class="cls-35" d="M182,335.35a4.73,4.73,0,0,1,2.78-1.86A6,6,0,0,1,182,335.35Z"/><path class="cls-36" d="M181.26,335.9l-2,1.13A1.7,1.7,0,0,1,181.26,335.9Z"/><path class="cls-7" d="M118.74,335.19a2.32,2.32,0,0,1-2.64,0Z"/><path class="cls-33" d="M172.33,303.8c-.48-.6-.48-1.19,0-2.38v2.38Z"/><path class="cls-37" d="M353.59,131.17a239,239,0,0,0,6.69-27.59c1.12-.59,1.73,1.14,2.86.66a5.13,5.13,0,0,0,3-2.84c3.85-9.62,7.78-19.2,10.5-29.25.74-2.72,1.7-5.39,4.08-7.19A2.88,2.88,0,0,0,382,62.19a1.91,1.91,0,0,1,.71-2c1.67,4.4,1.42,9,.75,13.44q-2.76,18.63-6.59,37.06c-.74,3.57-1.19,7.21-2.65,10.57-1.78.17-2.49,1.84-3.64,2.86a113.34,113.34,0,0,1-10.38,8.83A9.84,9.84,0,0,1,358,134C355.05,135.13,353.93,134.4,353.59,131.17Z"/><path class="cls-38" d="M382.71,60.16c.6,2.88-.19,4.87-2.69,6.68-1.37,1-2,3.37-2.5,5.25a203.69,203.69,0,0,1-7.73,22.71c-.85,2.2-2,4.25-2.58,6.59s-2.41,3.24-4.25,4c-1.63.73-1.54-1.57-2.67-1.86.63-5.61,1.19-11.23,1.91-16.83.88-6.74,1.34-13.53,2.58-20.22A47.74,47.74,0,0,1,367.15,58a8.38,8.38,0,0,1,.86-1.55l4.91-4c2.43-.21,5-1.29,7.09,1-.7.69.22.91.39,1.33s.64,1,.86,1.54C381.76,57.54,382.64,58.68,382.71,60.16Z"/><path class="cls-39" d="M339,295.7c-1.38-1.84.06-3.46.59-4.94,4-11,8.8-21.58,13.88-32.06,1.71-3.57,3.67-7,5.67-10.39a8.87,8.87,0,0,0,1.31-4.76c0-8.14,0-16.28,0-24.42-.11-12,.55-23.92,1.39-35.85.28-4.09.84-8.18,1.49-12.23.22-1.36,1.3-2.5,1.56-4a136.6,136.6,0,0,1,4-16.71c.38-1.19,0-2.44.05-3.66a105.34,105.34,0,0,1,4.38-12.19c-.9,5.82-1.53,11.71-2.75,17.46a336.45,336.45,0,0,0-7.52,76.62c.12,5.22,0,10.45,0,15.67a6.87,6.87,0,0,1-.85,3.52c-8.43,14.68-15,30.32-22,45.77C339.81,294.28,339.35,295,339,295.7Z"/><path class="cls-40" d="M350.67,303.71a1.66,1.66,0,0,0-1.07,1.48c-.49,2.64-2.15,4.68-3.41,6.89-4.38,7.73-8.92,15.34-13,23.24-.35.67-.66,1.38-1.45,1.64-.4.75-.8,1.5-1.24,2.38l-.22-2.06c-1.59-2.57-.9-5.3,0-7.72a15.43,15.43,0,0,0,.19-11.38c-.86-2.27,0-4.65,1.7-6.54l5.63-14.32a1.25,1.25,0,0,1,1.12-.94A84.43,84.43,0,0,1,350.67,303.71Z"/><path class="cls-41" d="M349.93,174.67c-1.6,0-1.88-.75-1.34-2.18,1.43-3.86,2.8-7.73,4.2-11.6L363,164.56c-.09,4.75-1.19,9.39-1.49,14.11-.1,1.5-.29,3-.45,4.64-.83-1.19-.83-1.19-1.58-.11-.72-1.7-.1-3.53-.63-5.46-.5,1.9.16,3.76-.66,5.66-1.43-1.63-.64-3.45-1.19-5.27-.95,1.72-.27,3.38-.54,5.32-1.29-2.25,0-4.5-.95-6.39C352.93,177.68,351.6,177.1,349.93,174.67Z"/><path class="cls-42" d="M395.1,306.53a1.92,1.92,0,0,1-.81-1.78c0-3.39-.23-6.79.09-10.11.51-5.26.6-10.53,1.14-15.78.59-5.63,1.4-11.23,2.05-16.85.59-5.17-.13-10.23-.37-15.34-.21-4.51-.44-9-.62-13.54a5,5,0,0,1,.41-1.52c.76,3.62.25,7.32.74,11s.43,7.21,1.08,10.7c.87,4.7-.43,9.13-1,13.63a248,248,0,0,0-2.61,38.69C395.17,305.92,395.12,306.22,395.1,306.53Z"/><path class="cls-43" d="M297.45,208.08a24.35,24.35,0,0,1,1.23,12.23,10.45,10.45,0,0,0-1.12-1.68c-1.4-1.43-2.72-2.57-2.11-5.17C295.91,211.53,296.12,209.65,297.45,208.08Z"/><path class="cls-44" d="M272.44,189.05c3.05,3.27-.5,6.23-.43,9.38C271.22,195.27,274.42,192.26,272.44,189.05Z"/><path class="cls-45" d="M271.3,187.91c-2.44-.82-2.46-1-.46-3.09.38.83-.63,1.08-.65,1.72C270.15,187.34,271.24,187.17,271.3,187.91Z"/><path class="cls-46" d="M273.35,200a9.3,9.3,0,0,1,.75,4.52C273.2,203.21,273.16,202,273.35,200Z"/><path class="cls-16" d="M373.77,51.59c-.94-1.34-1.19-3-1.72-4.46-.38-1-.76-1.28-1.78-.81a12.3,12.3,0,0,1-3,.85,2,2,0,0,1-2.47-1.42A12.21,12.21,0,0,0,363,41.38c-.55-.87-.6-1.82-1.82-2.27-.87-.32-.9-1.61-.8-2.48.54-4.75-1.64-8.91-2.46-13.41a9.23,9.23,0,0,1,.65-6.35c3.41.41,5.21,3.27,7.53,5.35.83.75,1.49,1.7,2.29,2.51s1.35,1.91,2.87.38c1.19-1.19,2.1.47,2.35,1.7.42,2.06-.2,4.07-.69,6.05-.32,1.26-.89,2.47.88,3.14.79.31.83,1.19.83,2v4.17a5.63,5.63,0,0,0,1.87,4.69A18.59,18.59,0,0,1,380,51.28l-.33.53C377.7,50.32,375.72,51.27,373.77,51.59Z"/><path class="cls-47" d="M368,56.43a1.75,1.75,0,0,1-.85,1.55h-.53A3.41,3.41,0,0,1,368,56.43Z"/><path class="cls-48" d="M331.78,337c1.87-5,4.69-9.51,7.25-14.1,3-5.36,6.1-10.64,9.17-15.94.38-.65.66-1.39,1.4-1.73.66,1.6,2,2.63,3.08,3.89a50,50,0,0,1,9.48,18.23L344.72,343.4c-.29-.06-.64-.27-.85-.17-3.37,1.65-6.12-1.31-9.28-1.31-1.15,0-1.82-1-1.89-2.17A7.85,7.85,0,0,0,331.78,337Z"/><path class="cls-49" d="M332.2,311.63c-.23,1.42-.25,2.93-1,4.16-.54.84-.11,1.45.18,2.12,1.54,3.57,1.87,7.08.14,10.77-1.25,2.65-1.19,5.64-1.16,8.56-.44,2.32-.05,4.72-.82,7a15.78,15.78,0,0,1-5.75,8.2c-4.76,3.35-10.54.52-11.16-5.4a17.91,17.91,0,0,1,1.25-8.26q2-4.26,4.09-8.5c2.28-4.05,3.25-8.55,4.24-13.08.34-1.51.48-3.17,1.79-4.25,1.19-1.63,2.79-1.85,4.58-1.48C329.75,312.26,331,310.53,332.2,311.63Z"/><path class="cls-50" d="M324,313c-1.65,3.18-1.93,6.77-2.88,10.16a21.25,21.25,0,0,1-3.17,7.14c1-3.49,2.75-6.7,3.29-10.36.27-1.88.81-3.71,1.23-5.56C322.94,313.9,322.92,312.81,324,313Z"/><path class="cls-51" d="M349.93,174.67c1.62,1.36,3.64,1.75,5.55,2.38v6.39c-.83-.63-1.12-1.92-2.2-.51-.59.82-.82-1-1.18-1.66-.24.54-.47,1.08-.89,2l-1-4c-.1,1.36-.16,2.2-.24,3.23-.73-1-.09-2-.71-2.94-.09,1-.17,1.9-.3,3.35-.63-2.74.15-4.75.24-6.92.76.4.15,1.19.69,1.73Z"/></g></g><path class="cls-52" d="M68.56,272.94c.53.8,1.81,2,.41,2.49-1.61.55-3,.29-1.19,2.4.84.95.07,1.31-.82,1-2-.74-1.49.2-1,1.32.4.9.3,2-.54,2.38-1.11.48-1.79-.72-2.61-1.32s-1.14-4-3.27-1a3.86,3.86,0,0,1-1.86-.9c-1-1.05-1.35-3.48-3.52-1.09-.41.46-1.3-.28-1.71-1-1.91-3.33-5.17-5.73-6.45-9.5a1.54,1.54,0,0,1-.18-1.89c1.5-1.15,2.47.22,3.61.76a4.92,4.92,0,0,0,5.46,1.85C60.32,267.05,65.1,268.1,68.56,272.94Z"/><path class="cls-53" d="M109.89,289.28c2.31-1.26,3.61.54,4.94,1.77,3.48,3.24,5.78,7.57,9.54,10.57.62.34,1.4.42,1.75,1.15a3.5,3.5,0,0,1-1.79,4.12c-1.21,2.48-4.86,1.52-6,4.29-.27.69-.95-.23-1.42-.51-.76-.45-.83-1-.56-1.82s2.1-2.31-.84-2.59c-1.13-.11-.86-1.74.22-2.56.93-1.59,1.77-3.32,3.62-2.7-2.49-1.35-4.3-4.3-7-6.22C111.44,293,110.16,291.37,109.89,289.28Z"/><path class="cls-54" d="M31.44,277.49c-3.61,1.43-6.58-.31-9.57-1.93-1.41-1.93-1.1-3.91-.16-5.91,1.31-3,4.24-2.95,6.76-3.71,4-.73,8,.07,11.94.47a2.78,2.78,0,0,1,1.8,1.44C41.79,274.58,38.13,277.86,31.44,277.49Z"/><path class="cls-55" d="M37.81,291.89c-2.93-1.4-6.52-2.1-6.79-6.36,2.07-3.59,4.42-6.82,9.12-6.93,1.82-.05,1.91-1.6,2.39-2.81a2.94,2.94,0,0,1,2.9-1.43c.69.29,1.15.72.82,1.56.09,3.24-.68,6.51.63,9.72.41,1,.75,2.59-.35,3.27-1.39.87-1.74-1.19-2.77-1.66-.75,6.62-.75,6.62-3.89,4.65-1.12-.88-.93-2-.52-3.12.14-.59-.94-.12-.34-.14.23,0,.35.1.27.28C38.85,289.94,39.06,291.28,37.81,291.89Z"/><path class="cls-56" d="M134.28,306.9c-2.68.17-.1,1.63-.58,2.34-3.9.45-5.31-2.55-7.06-5.09a4.8,4.8,0,0,1-.21-2.06c.56-1.35,1.82-1.93,2.94-2.65l1.18-.21c2.65-1.2,4.83-3.33,7.74-4,2.49-.54,5.07-1.16,6.92,1.46-2.09,3.18-6.24,3.92-8.31,7.1-1.39,1-2.47-.65-4-.42C133.71,304.49,134.76,305.44,134.28,306.9Z"/><path class="cls-57" d="M59.83,253.27l-.35.95c-1.46,3.15-4.31,5.22-6.27,8-1.4,2-3.76,2.94-6.27,1.25-1.18-2.23.57-3.66,1.61-5.11a22,22,0,0,0,4.07-11.44,29.71,29.71,0,0,1,6.67-6.85c1.32-.94,2.6-2.05,4.29-.74,1.79,2.59-1.27,4.22-1.28,6.45a20.75,20.75,0,0,0-1,5.3C61.14,252,60.36,252.57,59.83,253.27Z"/><path class="cls-58" d="M47.11,263.14c2-1,5.16,0,5.49-4.25.1-1.35,3.11-5.25,6.88-4.67,3.73,4.58,3.61,7.88-.37,10.53a27.15,27.15,0,0,0-4.86,1.92C50.5,268.21,47.37,266.54,47.11,263.14Z"/><path class="cls-59" d="M40.77,267.3c-4.19,1-8.4.35-12.6.15-3.68-.83-7.43-2.93-10.89.55-2.9-1-5.78-2-7.15-5.09a6.51,6.51,0,0,1-.49-.68c1.11-3.22,3.83-2.86,6.32-2.76,5.53.22,10.72,2,15.9,3.76l4.62.29C39.1,263,41.17,263.37,40.77,267.3Z"/><path class="cls-60" d="M31.83,263.22c-7.44-1.11-14.81-3.67-22.42-.9l-2.81-.07c-2-.91-4.43-.76-6.37-2-.94-2.73,1.21-2.48,2.68-2.7C13.21,256,22.78,258.3,31.83,263.22Z"/><path class="cls-61" d="M127,303.3l6.72,5.94a6.88,6.88,0,0,1,.28,5.53c-.34.92-.95,1.49-1.72.27-.41-1.74-3.06-1.16-3.24-3.13-1.1-.19-2.59.46-2.9-1.38-.14-1.44-1-2.73-.93-4.21C125.25,305,125.14,303.57,127,303.3Z"/><path class="cls-62" d="M47.11,263.14c1.44,4.09,4.44,2.93,7.11,1.88,1.7-.67,3.17-1.54,4.89-.27l1.57,1.7c-3.74,2.18-7.62,3.12-11.78,1.19a2.55,2.55,0,0,1-2.5-1.78c-1.64-.31-2.11-1.39-1.89-2.91l.77-1.82a89.31,89.31,0,0,1,5.16-10.65c.59-1.09.79-3,2.83-2.82.64,2.37,1.7,4.51-.51,7S49,260.27,47.11,263.14Z"/><path class="cls-63" d="M53.27,247.66c-3.81,3.81-5,9.2-8,13.47C48,252,52.06,243.58,60.07,237.92c1.73-1.22,4.35-4.14,6.68-.24-1.1.76-1.84,2.27-3.57,1.69A35,35,0,0,0,53.27,247.66Z"/><path class="cls-64" d="M48.9,267.64c3.86-1.05,7.86-.76,11.78-1.19,4,.48,7,2.19,7.88,6.49-2.11-.15-3.2-2.15-5.07-2.78-2.49-.83-5.35-1.7-7.4-.17C52.17,272.9,50.68,270.28,48.9,267.64Z"/><path class="cls-65" d="M23.65,250.38c-.06,3-1,3.82-3.38,3.16a1.91,1.91,0,0,0-2.26,1,6.22,6.22,0,0,1-3.72,2.66,5.81,5.81,0,0,1,1.29-4.67C18.41,249.45,21.13,248.71,23.65,250.38Z"/><path class="cls-66" d="M42.21,276.57a20.46,20.46,0,0,0-9.48,2.79,1.85,1.85,0,0,0-1.29-1.87c4.8-1.39,8-4.56,10.17-9,1-.54,1.68,0,2.24.76.4,1.93,2.94,3.32,1.14,5.8Z"/><path class="cls-67" d="M113,294.3c3.79,1.68,6.07,5.2,9.4,7.73a10.19,10.19,0,0,0-6.61,1.67c-.16-.67-.31-1.35-.47-2C114.44,299.24,112.34,297.2,113,294.3Z"/><path class="cls-68" d="M43.27,269.61l-1.66-1.11-.82-1.14c-.63-2.85-3.46-2.49-5.24-3.65.17-2.06,1.35-2.27,3-1.73A15.27,15.27,0,0,0,44,263l2.4,2.87L46,267.73l-1.8.87C44.05,269.08,43.93,269.6,43.27,269.61Z"/><path class="cls-69" d="M134.28,306.9a6.25,6.25,0,0,0-2.12-1.93c-1.1-.59-3.77,0-2.9-2.08.57-1.33,3-1.9,4.93-1.41a3.34,3.34,0,0,1,2.26,2.18c.52,0,.65.22.4.68C136.09,305.29,135.55,306.46,134.28,306.9Z"/><path class="cls-70" d="M145,296.73c-5.38-2.56-9.81.41-14.4,2.5,4.11-3.47,8.46-6.29,14.21-4.86,1.68.41,3.84.86,1.37,3.19C145.44,297.71,145.09,297.37,145,296.73Z"/><path class="cls-71" d="M10.13,262.91c2.57,1.16,4.29,3.76,7.22,4.32,3.09-1.24,4.63.1,5.13,3.13-.91,1.65-.73,3.43-.61,5.2-.15,0-.41.07-.42.06-1.48-5.82-6.37-7.7-11.11-9.81C8.6,265,8.62,264,10.13,262.91Z"/><path class="cls-72" d="M63.18,239.37a5.47,5.47,0,0,1,3.57-1.69c-1.26,4.3-3.82,8.15-4.42,12.69a3.49,3.49,0,0,1-2.5,2.89l1.22-2.54a17.79,17.79,0,0,1,.1-4.61C60.7,243.52,64.24,242.14,63.18,239.37Z"/><path class="cls-73" d="M113,294.3a19.42,19.42,0,0,1,2.32,7.38,23.37,23.37,0,0,1-5.39-12.4Z"/><path class="cls-74" d="M129,311.91c1.88.21,4.51-.36,3.24,3.12-1.79-.13-.31,2-1.71,2.26C128.81,315.91,127.89,314.24,129,311.91Z"/><path class="cls-75" d="M44.18,268.62l0,0c1.31,3.95,5.77,6.51,5.5,11.62-2.46-.85-2.06-3.24-3.46-4.3-.73-.85-1.45-1.7-2.18-2.57Z"/><path class="cls-76" d="M145,296.73l1.18.83c-2.8,2.66-6.76,3.73-9.28,6.78l-.4-.68A29.17,29.17,0,0,1,145,296.73Z"/><path class="cls-77" d="M129.37,299.44,127,302.16c-.3.89-1,.69-1.68.65-1.26.38-1-.52-1-1.19C125.1,298.73,127.85,300.49,129.37,299.44Z"/><path class="cls-78" d="M125.36,302.81l1.68-.65L127,303.3c-2.35,2.17-.21,4.86-.86,7.23-.6-1.21-1.19-2.43-1.79-3.64C124.67,305.53,125,304.17,125.36,302.81Z"/><path class="cls-79" d="M.23,260.24a6.19,6.19,0,0,1,6.37,2C4.14,262.66,1.69,263,.23,260.24Z"/><path class="cls-80" d="M20.53,262l-.1-4.54.56,0v4.58Z"/><path class="cls-81" d="M27.87,268.48c-6.94,5.24-6.71-1.34-10.52-1.25.37-1.68.34-4.24,2.66-3.81,2.95.55,6.59.38,8.15,4Z"/><path class="cls-82" d="M61.15,246.11a10.16,10.16,0,0,1-.1,4.62C60.6,249.17,60,247.62,61.15,246.11Z"/><path class="cls-53" d="M369.14,249.44c3.06-1.64,4.83.76,6.61,2.42,4.69,4.37,7.82,10.17,12.88,14.22.83.45,1.87.57,2.36,1.55a4.58,4.58,0,0,1-2.34,5.46c-1.58,3.29-6.46,2-7.91,5.64-.36.9-1.27-.32-1.9-.7a1.78,1.78,0,0,1-.78-2.44c.38-1.24,2.77-3-1.15-3.46-1.51-.16-1.18-2.33.25-3.4,1.22-2.11,2.32-4.41,4.79-3.55-3.34-1.84-5.8-5.79-9.42-8.38C371.26,254.41,369.53,252.22,369.14,249.44Z"/><path class="cls-56" d="M401.93,273.25c-3.57.19-.11,2.17-.74,3.11-5.2.54-7.13-3.48-9.49-6.89a6.54,6.54,0,0,1-.31-2.74c.73-1.79,2.39-2.55,3.89-3.49l1.57-.26c3.51-1.56,6.39-4.37,10.26-5.19,3.31-.69,6.75-1.48,9.25,2-2.73,4.19-8.27,5.13-11,9.34-1.83,1.29-3.3-.91-5.29-.62C401.13,270,402.55,271.31,401.93,273.25Z"/><path class="cls-61" d="M392.13,268.35l9.06,8a9.21,9.21,0,0,1,.45,7.37c-.44,1.22-1.25,2-2.29.33-.58-2.32-4.1-1.58-4.37-4.22-1.46-.27-3.45.58-3.89-1.87-.21-1.92-1.39-3.66-1.3-5.63C389.86,270.63,389.68,268.68,392.13,268.35Z"/><path class="cls-67" d="M373.31,256.17c5.08,2.29,8.17,7,12.65,10.42a13.37,13.37,0,0,0-8.8,2.14c-.22-.9-.43-1.81-.65-2.71C375.35,262.77,372.52,260,373.31,256.17Z"/><path class="cls-69" d="M401.93,273.25a8.75,8.75,0,0,0-2.86-2.61c-1.47-.8-5-.09-3.9-2.8.74-1.76,3.92-2.49,6.56-1.81a4.56,4.56,0,0,1,3,2.93c.69,0,.87.31.54.91C404.32,271.13,403.61,272.67,401.93,273.25Z"/><path class="cls-70" d="M416,259.86c-7.21-3.5-13.09.41-19.18,3.13,5.44-4.57,11.21-8.27,18.89-6.29,2.24.58,5.14,1.21,1.88,4.28C416.69,261.17,416.22,260.71,416,259.86Z"/><path class="cls-73" d="M373.31,256.17a26.31,26.31,0,0,1,3.2,9.85,31.6,31.6,0,0,1-7.37-16.58Z"/><path class="cls-74" d="M395,279.84c2.51.31,6-.4,4.37,4.21-2.39-.21-.38,2.64-2.26,3C394.76,285.17,393.5,282.93,395,279.84Z"/><path class="cls-76" d="M416,259.86l1.59,1.12c-3.7,3.5-9,4.87-12.29,8.89l-.54-.9A37.4,37.4,0,0,1,416,259.86Z"/><path class="cls-77" d="M395.28,263.24l-3.08,3.59c-.38,1.19-1.35.91-2.23.84-1.68.5-1.32-.7-1.34-1.59C389.56,262.23,393.26,264.62,395.28,263.24Z"/><path class="cls-78" d="M390,267.67l2.23-.84c0,.51,0,1-.07,1.52-3.1,2.86-.2,6.47-1,9.62-.81-1.63-1.62-3.25-2.44-4.88Z"/></g></g></svg>